<svg xmlns="http://www.w3.org/2000/svg" width="415" height="681" fill="none"><path fill="#fff" d="M64 215v277c0 57 99 110 145 129 46-19 144-72 144-129V215H64Zm145 466-10-4c-2-1-46-17-91-46-66-43-99-89-99-139V159h400v333c0 50-34 96-99 139-45 29-90 45-92 46l-9 4ZM64 215v277c0 57 99 110 145 129 46-19 144-72 144-129V215H64Zm145 466-10-4c-2-1-46-17-91-46-66-43-99-89-99-139V159h400v333c0 50-34 96-99 139-45 29-90 45-92 46l-9 4ZM93 154c13-2 42 0 56-1h28-17c-8 0-12 1-12 2h-25l-30-1Zm92 6 2-1-24 1h22Zm63-2 58 1-4 1c-11 0-30-1-30 1l-10-2-14-1Zm41 1-7 1c-12-1 1-1 7-1Zm-29-3c18 0-10-1 7-1l-7 1Zm57 3-15-1h37l-22 1Zm-5 1 40-1-13-1 49 1c-20 0 8 1-8 2 1-2-22 0-23-1h11l-33-1c-7 1 1 1 5 1h-28Zm89-1c-2 0-2 1 0 1h7v3l1 7v13l-1-9-1-7v-6h-9c-5-1 4-2 3-2Zm6 23c0 12 2 17 2 18h-1v6l-1-9v-15Zm5 8v-18a1261 1261 0 0 0 0 1l1 7v8-1l1 36-1-23c-1 2-1-3-1-10Zm2 3v-10 10Zm-7 28 1-5-1 19v-14Zm5-24v22c0-15-1 9-1-6l1-16Zm-5 50 1 16-1-16Zm0 16c2 7-1 10 0 26v-7l1 32-1 8 1 6c0 14-1 5-2 7 2-11 1-31 1-46v-26Zm4-22 1 5-1 24c3-7 1 9 3 11-1-5-1 8-1 9l-1-18-1 13v-44Zm-1 65 2 17-1 6a407 407 0 0 0 1 42v-1 9c-1 6 0-12-1-7v44l-1 13 1 11c-1 10-1 35-2 33-1-5 1-13-1-16 0 1 0 23-1 12 0-23 2-43 1-66-1-17 3-35 3-64l-1 3 1-6c-2-3 0-17-1-30Zm2 15v-23c-1 22 2 0 1 20l-1 3Zm-2 101v-10 10Zm0 30-1-9 1 5v4Zm0 19-1 10 1-10Zm-14 66a30 30 0 0 1-1 2h-1l1-4c-1 5 1 1 3-2 1-4 3-8 0 0l-2 4Zm-29 38 6-7c-2 4-5 6-6 7Zm40-193v-6 6Zm0 0v4-4Zm-4 126v-1 1ZM233 160l-7 1 7-1Zm-9-2c14 0 15 3 37 2h-28c-12-1 10 0-9-2Zm186-1h1c0 2 0 1 0 0h-1ZM20 540h1l2 5 3 6-3-6-3-5Zm0-2-3-10-3-10a131 131 0 0 0 28 53c13 16 28 30 44 42l-3-2-3-2-4-3-5-5c-7-5-16-14-25-24l-6-7-5-7-8-13-5-9-2-3Zm-3-5a64 64 0 0 1-1-4l-2-4-2-8-1-8a116 116 0 0 0-1-4l-1-5 6 25 1 4 1 4ZM7 493l-1-18c2 2 1 13 1 18Zm-5-17a56 56 0 0 1 0-3v3Zm0 0h1c-1 2-1 1-1 0Zm0-3-1-8v3-13l1 8v-12c2 2 0 11 0 22Zm-1-39 1 12c-1 4-1-8-1-12Zm2-19v15-15Zm0 15 1 3-1-3Zm26 128v-1 1ZM4 390v-5 5Zm206 286-23-9a1481 1481 0 0 1-28-12l-10-4c11 6-10-4-31-16-20-13-39-27-32-21l5 3-6-3-26-23 2 2 9 7 5 5 7 5 3 3 4 3 8 5 15 10 13 8 12 7a282 282 0 0 1-93-69l-3-4-3-3-5-7-4-6v-1l-13-21-2-5-2-5-2-5-1-6v-3l3 12 2 6 3 6-2-6-2-5-1-5-1-4a278 278 0 0 0-1-4v-4l-1-9-1 4-1-11c1-5 2 8 2-9 0-21-2-17-2-35v12-25l2 26v-31l1 4 1-21c-1-9-2 5-2 0v-24c-2 4 1 20-1 31v-16c-2-10 0 25-1 20-2-12 1-25-1-36l-1 28-1-26 1-14c-1-6-1-1-1 3l1-84c0-17-1-2-2-9 2-10 1-25 1-35 0-2-1-7-2-5l1 24c-1-1-2 2-2 11 3-6-1 34 1 35H1l1 31v-1 15l1 28c-1-5 0-34-2-17v-58l-1 5c-1-24 1-56 1-83l1 8v-30a671 671 0 0 1-1-23v-39h3s-2 0 0 0h28l21 1c4 0 13 0 10-1h-6 22c-11 1 3 1 2 2 16 0 1-1 3-2l43 2c1-1-14-1-16-1h13l-12-1 63 1-1-1h14l-5 1h20-3 9l-9 1 49-2c4 2-35 1-37 3a186 186 0 0 0 11-1c18-1 44 1 55-1h-13 30l-12 2 49-1h-19l6-1 34 1v-1c9 2 34-1 25 1h-8l1 1 33-1c-3 1 5 1 10 1 0 3 0 6-1 3l1 9v7l-1-3v-6l-1-9-12 1a46 46 0 0 0 4 1h-5l-8-1-18-1-7 1 1-1-13 2c-14-2-29 0-49-1 17 0-11-1-8-1-10 0-33 2-41 1-6-1 11-1-2-1-9 0-14 0-9 1h-62l4-1-32 1h-1c-17-1-21 2-49 1l23 1-2 1 69-1-9 1c17 2 12-1 28 0 11 0-9 0 0-1 8 1-2 2 12 2l-164 1 5 1H11v35a43640 43640 0 0 0 1 77c-1 2-1-6-1 5 0 1 0 4 1 1-2 29 0 68-1 102l1 7-1 44 1-4v35-6c1 7 0 9-1 10l2 16-1 8v9l1 9 2 9c3 12 9 23 16 34s15 21 24 31l30 26 23 15-5-4c12 7 1 1 10 7 7 3 3 0-6-6a578 578 0 0 0 54 31 778 778 0 0 0 25 12 517 517 0 0 0 12 6l12 5Zm38-21c4-2-16 8-6 4a368 368 0 0 0 113-70l9-8 8-8h-1l3-4a860 860 0 0 0 3-3l3-5 3-4 3-5 3-4 4-8a299 299 0 0 0 7-20l3-9 1-7c-2 8 0-8-2 1l2-10 1-6 1-14v1c1-16-1-48 1-50l-1-6c1-7 2-5 2-17-1-7-1 1-1-2l1-33c2 0-1 17 0 26v-3l-2 64-1 30v14l-1 7-1 7a60 60 0 0 0-2 6l-1 4a51 51 0 0 0-1 5v3l1-3 1-4 3-8 1-11 2-12c0-5 1-5 2-7a79 79 0 0 0 0 11c1 2 1 2 2-4 0 12-1 10-2 7l-1-1-1 7 1 3c-1-2-1 1-2 6l-4 13 1-2c-4 12-11 25-20 37-8 13-19 24-31 35a337 337 0 0 1-77 53c-7 2-17 7-26 12-10 5-20 10-26 11-6 3 9-2-3 3l-6 1-5 2c-3-1-2-2 4-6l35-19Zm9-64 17-11 17-12 17-12-10 7c-7 6-7 6-6 7-1-1-11 7-15 10-7 6-14 8-20 11Zm60-35 1-1a244 244 0 0 1-1 1Zm31-42-3 4a60 60 0 0 0 7-29v-5l1-8 1 4v14a356 356 0 0 1-1 3v3l1 2-4 7-2 5Zm5-25v6-6Zm-5 15a37 37 0 0 1 0 1l-1 2-1 1 1-4h1Zm5-36-1 11-1-27 2 16Zm0 4v-31l-1 10v-37c1 15 2-6 3 6-2 0 0 17-1 18v-9l-1 25c1 5 1 0 1-4-1 9 1 16-1 22Zm0-67c1 3 1-6 1-9-1-4-2-6-1-16 2 3 2 17 1 26 0 5-1-3-1-1Zm2-24c0-9-2-12-2-13l1-1-1-4 2 7v11Zm-5 12-1-16v1l-1-28v18c3-3 1 15 2 25Zm-2-13-1-7 1 7Zm6-28v3-14 11Zm-4 18-1-17c0 11 2-6 1 5v12Zm5-38-1-12 1 12Zm0-12c-2-5 1-7-1-20v6-25l1-6-1-5c0-10 1-3 2-5-2 8-1 24-2 35l1 2v18Zm-4 16-2-3c0-14 2-5 2-18-3 5-1-7-3-9l1-6 1 13v-10l1 33Zm1-49-2-12 1-5a234 234 0 0 0-1-32v1-7c0-5 0 9 1 5l-1-12v-4l1-4a56 56 0 0 0-4 0h-2l-3 1-10-2-8 1c-7 0-26-1-25-2h12c-1-1-17 0-9-1h25a307 307 0 0 0 25 0h2l-1 11-1 10-2 27 2-2-1 5c2 2 0 13 1 22Zm-2-11v17c0-16-2 1-1-14l1-3Zm-4-60h-8 8Zm-31 0 7-1-4 1h-3Zm-14 0-8-1 8 1Zm-51-6c-9 2 15 2 2 2-10 0-4-1-2-2Zm-39-1h7-7Zm144 21v4-4Zm0 0v-3 3Zm-83-20h1-1Zm70 319a146 146 0 0 1-4 5l4-5Zm-6 5 4-5a88 88 0 0 1 3-4c2-3 5-7 8-15-2 7-6 13-9 19-7 7 3-6-6 5Zm15-135v-1 1Zm-287-1-1-1 1-9v10Zm-1 1-1 15v-92l1 3v74Zm1 4v26l-1-19 1-7Zm3 31v14-14Zm4 13v3-3Zm0 0c0-1 0-1 0 0Zm0 3 1 6v-3 10c1-6 0-6-1-6v9c-2-2 0-8 0-16Zm1 29-1-9c1-3 1 6 1 9Zm-1 14c-1-2 0-11-1-6v-5l1 11Zm-1-11a69 69 0 0 1 0-3v3Zm-5-100v1-1Zm8 128 1 3-1-2v-1ZM60 215v42c1 0 0 8 2 9-1-19 0 70 1 55l-1-4 2 4c-1 9-2 22-1 28v-74c1-7 1 105 2 108l-1 1 3 34-1 3-1-20v30c1-1 0-10 1 4 0 5-2-5-2 8 0 16 2 13 2 26l1-9-1 19c0-5 0-20-2-20v24l-1-3v16l1 2v-1c0-2 0-3 1-2v9l2 5 2 5-3-10v-3l-1-4 1-6v12h1l-1-7v-7c0-2 0-3 1-2v7l1 3v4a18 18 0 0 0 0 3l1 3 3 6-2-5-1-4v-3l-1-4v-2l1-2v5a55 55 0 0 0 1 4l3 9 4 9-1-3c3 7 9 16 16 24l24 23c11 7 2 0 7 3 5 5 15 11 21 15 2 1 6 2 4 0a370 370 0 0 1-15-9l-6-6c1 2-4-1-9-6s-11-10-12-9l1-1-16-15-2-2-5-6a65 65 0 0 1-7-12l3 5c2 4 4 5 1 0l10 14 17 17-2-3 23 18 26 18a200 200 0 0 1-5-2c5 4 13 9 19 11-7-4-3-2-2-2 11 5 25 14 40 19v1h3v-1l5-2 15-5 6-4-4 2 14-8c-6 5 3 0 3 1 10-6 0-2 1-3l14-7 14-8-11 6 9-6-8 5c13-8 25-16 38-27l-1 1 8-7-2 3c4-4 9-7 10-10l-2 1 5-5-4 6 10-12a179 179 0 0 0 9-17c2-1-1 5-4 10-4 6-9 12-8 13l9-12-5 5c4-5 8-11 11-18 3-6 4-12 4-16l-1 4-2 4 1-3 1-3 1-6v-2l1-3-1-3 1 4 1 5v-9l-1-10v-19 15l-1-5 1-25-1-1c1-7-1-25 1-18v6l1-1-1-24c1 3 1-9 1-6v-9c1-4 1 16 2 17l1-6c1 10-2 16-2 26l1 6-1-1 1 10v37c0-13-1 9-1 6a132 132 0 0 0 0 12v8l-1 4-3 5v-1l-1 2-2 4a32 32 0 0 0-1 3l1-1c-6 13-18 26-29 36l2-3-18 16c-1 1-2 2-1 0l-12 9c-4 4-8 8-17 13l14-9v2a265 265 0 0 0 40-33 111 111 0 0 1-4 5c5-3 6-5 8-7l7-7c5-7-5 4-1-1s1 2 7-6c-11 16-27 30-44 42-17 13-36 24-54 33l3-1-12 6a303 303 0 0 1-10 5l-5 2-7 3a403 403 0 0 1-15-7l-14-7a547 547 0 0 1-26-14c-16-10-27-18-29-18-1-1 4 2-3-3-1 0-3-1-1 1l-28-25-14-15c-4-6-8-12-10-18l-4-5-3-17v-4a7924 7924 0 0 0 0-5v-7l-1 3v-27 5l1-8-1-12c2-34-2-77 0-117l-2-22v5-9c-1-6-2-2-1 6a1245 1245 0 0 1 2-89Zm40-9c3 1-14 0-5 2 26 2 70 0 102 2l18 1v-1l31 1c2-1 4-1 0-1 13-1 22 1 30 1-7-1 6-1-2-2 14 0 13 3 24 4 0-1 1-1-1-1 12 1 36-1 38 1h9l9 1h1c0 2 0 1 1 1v-1 5l-1 7-1 14 1-7a91 91 0 0 0 0-12v2-9a7599 7599 0 0 1-13 0l-11-1-21-1a461 461 0 0 0-34 0l9 1c4 0 4 2 5 2-6 0-14 1-5 2-17 0 5-4-10-3l-2 1c3-1-10-1-15-1h2l-140 1c-11-4-32 1-43-2-5 1 7 1-2 2l-5-1h-5c-3-3 5-6 36-8Zm41 225Zm1 6h1-1Zm0 3-1 1 1-1Zm-2-60v1-1Zm0 28h2l-1 1-1-1Zm1 7-1-1h1v1Zm0-2v1-1Zm-1-12-1-1 1 1Zm17 43v-1h1v1l-1 2v-2Zm-16 18h1-1Zm-1-52-1-1h1v1Zm0 25Zm0-31-1-1h1v1Zm0 0h1-1Zm1 1Zm17 31v-2 2Zm16-111v-2l-1-4-1-3v-2l-3-2-3-3h-1l-2-1-3-2h-2l-2-1h-1l-1-1-2-1h-4l-1 1h-2l-2 1h-1l-2 1h-4l-1 1h-1l-2 1h-1l1 1h-3a3 3 0 0 0 0 1h-1v1l-2 1-1 1-2 1v1l-1 1-1 2h-2v1l-1 1-1 1v1h-1v1l-1 1v1l-3 3v1l-3 3-2 2v1l-1 1v1l-1 1-2 3-2 3-2 3-1 3-2 2-1 2-2 2-2 3-1 1-1 2-2 3 1 1v1l1 1 2 1 2 1h1l2-1v1l1 1v-1h1l1 1 1-1 1 1h3l1-1h2v1h1l2-2v1-1l3-2 1-1 1-1h2v-1l1-1 1-1h1a18 18 0 0 1 1-2h1v-1 1l1-1 1-1 1-1v1l8-4v5l-1 2a4 4 0 0 1 0 2v4l1 3-1 2v2l1 3-1 2v9l1 2-1 2h1v7l-1 1v3l1 2v8l1 1h-1v2l1 1-1 1v1l1 2v10a2 2 0 0 1 0 2v5l1 1v1l-1 1h1v14a2 2 0 0 0 0 1v9l-1 6v7l-1 3v4l1 1 1 1a2 2 0 0 1 0 1l1 1 2 1h2l1 1h1l2 1 1 1h2l1-1 2 2h5l1 1h4v-1l1-2v-4l1-1 1-2 2-1 2-1h1v-1h1v-1h2v-1l1-1-1-2-1-1-2-2v-1l-2-1h-1l-1-1v-1l-1-1v1h-1l-1-1v-2l-1-2h-1v-5a33 33 0 0 0-1-3l-1-2h2v-2l-1-2v-2 6l-1-1a1 1 0 0 0 0 2v6h-1l-1-3v-32l1-3 1 1v3-1l1-2h1c0-1 0 0 0 0l1 1v-11l1-2v-7l2-4v1l1 1 1 1v-9l1-1v-5l1-1v-1l1-2v-4l1-1v-7l1-3v-6l1-1v-10l1-5v-4l1-1 1-2v-8l1-4-1-3v-2Zm-77 44 1-1-1 1Zm45 76v-1h-1l1-1 1-1v2l-1 1Zm0-3v-1l1 1h-1Zm2 4h-1 1Zm0-6Zm-1-41h-1v-1h-1v-1h1l-1-1h2l-1 1 1 2Zm0 1-1 1v-1h1Zm-4-4 1 1h-1v-1Zm0-1h-1l1-1h-1 1v1h1-1Zm0 1v1h-1v-1h1Zm0-3h-1l1-2h-1 1v-1l1-1h-1v-2l-1-1 1-1 1 1v1l2-1v2l-1-1-1 1v-2h-1l1 1-1 1 1 1v1h-1l2 1a1 1 0 0 1-1 0l-1 1 1 1 1-2v1l1-1-2 2h-1Zm2-40-1 1-1-1h2Zm-1-1Zm3-1h-1 1Zm0 19v1-1Zm0 25h-1 1Zm-2-6 1 1h-2 1v-1Zm0-1Zm0 0h1-1Zm0-2h-1 1Zm-1-2h1-1Zm1 0h-2v-1h3l-1 1Zm-2-3v-2h1l1 1h-1 1-1v1l-1 1v-1Zm1-9h-1l1-1v1Zm0 3v1-1Zm0-5h-1l1-1h-1v-2l2 1h-1v1h1l-1 1Zm0-15v-1l1 1-1 1v-1Zm0 3s0-1 0 0Zm1 14Zm1 9h-2 2Zm-2 1Zm1 0 1-1-1 1Zm1-2-1-1 1 1Zm-1-2 1-1v1h-1Zm1-4-1-1h1v1Zm-1-8v-1h1l-1 1Zm0-6s1 0 0 0Zm0-2Zm0-4h-1 1Zm-1 4v1h-1l1-1Zm0 1v1-1Zm-1 3 1-1v2l1 1-1 1v-2 1l-1-1 1-1h-1Zm1 3v1l-1-1h1Zm0 1-1 1 1-1Zm-1 10h2l-1 1h1-1v1h-1v-2Zm1 17h2l-1 1h-1v-1Zm3 13v1-1Zm0 18Zm0-4v-1 1Zm1 11h-1 1Zm0-15v1-1Zm0-4Zm-6 23h1-1Zm2-2-1-1h1v-2h-1 1l-1-2h1v-1h-1 1l-1-2h1v-1h-1v-1h1l-1-1 1-1h-1v-1l-1-1 2-1-1-1v-1h1l-1-1v-2h-1l2-2h-1v-2l1-1-1-1v-2h1l-2-2h1l-1-1h1l-1-1h1v-1h1l-1-2h-1l1-1 1-1 1 1h-1v1l1 1v-1l1 1h-1v2a3 3 0 0 1 2 1h-2l-1-1v1h1v1h-1l2 1h1-1l1 1-1 2h-1v-1l-1-1v2l1-1c0 1 0 2 1 1l1 1v1l-1 1h1l-1 1h1v5c0 1 0 0 0 0h-1l1 1v1l-1 1v1l1 1h-1l1 2v3h-1l1 1h-1 1v7l-2 1v1h2v-1l-1 1 1-1v-1 3h1l-1 1h1-1v2h-1l1 1h-1l-1 1v1l-1-1v-4h-1 1v-1l-1-1h1l-1-1h1l-1-1h1-1l1-1Zm-1 0Zm0-4Zm3-26-1-1 1 1Zm-1-1-1-1 1 1Zm-2 35Zm1 30Zm0 0h1-1Zm1 0v-1 1Zm2-1Zm-1-1h1-1Zm2-10h-1v2h-1 1l1 1v1l-1-1v1h1-2v1h-1 2l-1 1h1v1h-1v1h-2l1 1h2-2l1 1v1l-1-1v-1l-1 2v-2h1-1v-2h-1v-2l2 1h-1v-1l-1-1h1v-8l1-2v-4l1 1h1-1 1l-1 1 2 1h-2l1 2 1 1h-1l1 1-1 1v2h1Zm0 2v-1 1Zm-1-10Zm2 1h-1l1-1v1Zm2-24v-1h1l-1 1Zm2 10 1-1-1 1Zm3-12v-1 1Zm0-7Zm1 4v1l-1-1h1Zm0 10Zm-1-8h1-1Zm2 5v-1 1Zm4 11v1-1Zm-17-28h1-1Zm16 21v1l1-1v1h-1v1l-1-4 1 2Zm1 10v1a1 1 0 0 1 0-1Zm140-108v-1h1l-1 1Zm1 1v1h-1l1-1Zm-1-9h-1l1-1v1Zm-11 107-1-1 1 1Zm15-100 1-1-1 1Zm2 1-1-1h2l-1 1Zm-12 103 1 1-1-1-1-1h-1c1-1 0-2-1-2l-1-1v-1l-1-2h-1v-1l2 2 1 1v1l1 1 1 2 1 1Zm-3-1 1 1-1-1-1-2 1 1v1Zm-8-28Zm19-73-1-1h1v1Zm1 108h1-1Zm0 0-1-1 1 1Zm0-4-2-2 2 2Zm1 2-1-1 1 1Zm-3-5-1-1 1 1Zm-11 3h-1 1Zm17 6v-1 1Zm-7-11v1-1Zm-90 52h-1 1Zm62-103h-1 1Zm17 37Zm46 45-3-1-2-1-4-4h-1l-2-1h-1l-2-1-2-2-3-2-2-2-1-1-2-2-2-1v-1l2 3 1 1 1 2-1-1-1-1v-1l-2-1h-1v-1l-1-2-1 1h-1l-1-2-2-2-1-1-1-2v-2l-1-2v2l-1-2-1-1-1-1h-1v-1l-1-2v-1l-1-1-2-3v-1l-2-3v-2h-1l-1-2-1-2v-1l-1-1v-1l-2-3-1-2v-1l-1-3-1-1 1 1 1 2 1 1v1h1v-1 1l1 1v1l1 1v1l1 1v1l1 1v-1l1 1 2 5 1 2 1 2 1 1a24 24 0 0 0 2 4l2 2-1-1-1-2-1-1v-1l-1-2-1-2-1-3-2-3-2-3-1-2-1-2-1-1v-1l-1-2-1-1v-1l-1-1v-1l-1-1-1-1v-1l-1-1-1-3-1-1-1-1-1-1-1-2-1-2-1-1v-1h-1v-1l-1-1-1-2 3 2-1-1v-1l-1-1h2v-1l4-2 2-1h1l1-1 2-2h1l1-1 1-1h1v-1h1l1-1 1-1h1l1-1v-1l2-2 1-1 1-1 1-1-2 1-1 1h-1v-1l1-2 1 1 2-2-1-1 1-1 1-1v-1l3-2 1-1c1-1 2-1 2-3v-1l2-1-1-1h1l1-2v-1h-1l1-1h-1l-1 1-1-1 1-1 1-1 1-1 1-1 5-5h1l-1-1-1 1-2 1-1 1-1 1v1h-2l-1 1h-1l-1 1h-1v-1l-1-2-1-1h-1l-1-1-1 2 1-2-2-2h1-1l1-1 1 1-1-1 1-1 1-1 2-1h1l-1-1-2 1-1 1h-2v1-1h1v-2h-1l-2 1h-1l-2 1-1 1h-2l-5 4-3 2-1 1-3 2-3 2-2 1-2 2-2 2h-1l-1 1-2 1-2 1-1 1-2 1-2 2-2 1-2 1-2 1-3 2-2 1v-1l-1-1h2v-3l-1-1v1-1h1v-5l-1-2h1v-3l-1-1v-8l-1-3v-12l-1-2v-1c1 0 1 0 0 0v-4l-1-3-2-2-4-3-5-1-4-1h-4l-1 1h-1l-3 1-2 1-1 1-1 3v14l-1 3v6l-1 1v5l-1 2v5l-1 1v6l-1 2v3l-1 3-1 3v6l-1 2v3l-1 4v3l-1 1v5l-1 2v3l-1 3v4l-1 2v3l-1 1v4l-1 3v4l-1 3v3l-1 4v1l-1 1v9l-1 3v4l-1 2-1 2v5l-1 1v1h1l-1 2h-1l1 1-1 1 1 1v3l-1 3v4l-1 1-1 2v3l-1 2 1 2v1l-1 1 1 2v1l1 1-1 1v4l-1 1v2l-1 1v3l1 2 2 1 1 1h2v1l2-1v2h2l1 1 2 1v-1l-1-1 1-1 1-1s0-1 0 0l-1 1-2-1h1-1v-1h2l-2-1h2v-3l1-1h4v1a2 2 0 0 1 1 0h4-1l-1 1h3v-2h1v-1h1v-2h-1l-1-1v-1h-1v-1l1-1v-3l1 1v-1l-1-1h1v-1l-1-1h1l-1-1 1-1v-1l1-1v-5h1v-1h-1l1-1v-2l1-1v-6l1-1 1 1h-1v1l1 1h-1v2l-1 2 1 1h-1v2h-1l1 1v1a2 2 0 0 0 0 1l-1 1v6l-1 2v9l1-2a2 2 0 0 1 0-2v-4l1-1v-4l1-3 1-2v-2l1-2v-1l-1-1h1v-2 3l1-2 1-1v2a2 2 0 0 0 0 2c0 1 0 0 0 0h1v-1l1-1v-1l-2 2 1-1v-5h1v-3l1-1-1-1 1-1 1-1v-1l-1-1 1-1h1l1-1v1l2-4-1-1-1 1v-3l1-2v-1l-1 1v-2h1v-1l1-1 1-1h-2l1-1h1v-2l2-3 1-3 1-1c0-1 0-1 0 0l1-2v-1l-1 1v-5h1v1l2-3-1-1h1v-1l1-1v-1l1-1v-2l-1 1v-2l1-3v-1l1-2v-7l1-2 1 1 1-2-1-1v1h-1l1-1h2l1 2 2 2 2 4 2 5 1 1 3 4 1 3h1l1 3 2 3 1 2v1h1l2 4 1 1 2 3 2 4 1 1 1 2 1 1v1l1 1 1 2 2 3 2 2 1 2 1 2 2 3 4 3 3 4 2 2 1 2 2 1 1 2h1v1h1v1l2 2h1l1 1v1l3 1h1l4 2h1l2-1s-1 0 0 0l-1-1h1l2 1 1 1s-1 0 0 0h2v1l3 1 2 1h2l1-1 1-1h3l2 2h2v-1l-2-1-1-1a15 15 0 0 0-1-1l-4-2h-1l-2-2-1-1h-1l-2-1-2-2-1-1 3 1h1l-1-1-3-2-1-1h1v-1h1v-1h4l1 1h4l3 1h7l1 1 1-1h2v-1l-1-1Zm-53-60Zm16-55h1-1Zm-1 2Zm-1 1-1 1 1-1Zm-2-20s0-1 0 0ZM192 497h-1 1Zm3 5v1l-1-2 1 1Zm-2-2h1-1Zm14-28-2-1 2 1Zm-1 3 1 1h-1v-1Zm0-2Zm0 2v-1l1 1h-1Zm0 1h-1 1Zm-1-6v1-1Zm0-1 1-1-1 1Zm0-60v1-1Zm-1 3h1v1h-1v-1Zm2 69-1-1-1-1h1l1 1v1Zm0-2c0-1 0-1 0 0Zm-1 3v-1h1v1h-1Zm1 1-1 1h-1l1-1h1Zm0 0Zm-2-6Zm0 3v1-1Zm0 2 1 1h-1v-1Zm0-64h-1 1Zm-1 66h1-1Zm4 1-1 1-1-1v1l-1-1h3Zm0-7h-2l1-1h1v1Zm0-4c0-1 0-1 0 0 1 0 1 0 0 0Zm1-76h-1 1Zm3 56h1-1Zm2 4-1-1h1v1Zm0-2h-1 1Zm8-16v1-1Zm-2-5 1 1-1-1Zm1 2v-2 3h-1l1-1Zm-1 7h1-1Zm0-4v-1 2-1Zm-1-3 1 1h-1v-1Zm0 3h-1 1Zm-2 7v-2l1-1h1l-1-1 1 1-1 1v1l-1 2v-1Zm0 2Zm1 10h-1v2s0-1 0 0v2h-2v-2l1-2h-1v-1h1l-1-1 1-1v-1l1-1v1h1v4Zm2-9-1 1h1l-1 1h1l-1 2h-1v-1l-1 1v-1h-1v-1l1-3 1-1v-1l1-3 1-2-1 2 1 1 1 1-1 2-1 1v1h1Zm1 0h-1 1Zm0-4h1-1Zm1-4v-1 1Zm1-3v-1 1Zm6-13v-1 1Zm5-64h-1l1-2v2Zm1-8v-1 1Zm-1-8-1 1v-1h2a2 2 0 0 1-1 0Zm2 46v-1 1Zm1 3v-1 1Zm0-55v-1 1Zm1 50v2-2Zm1-36-1 1v-1l1-2v2Zm1 3c0-1 0 0 0 0Zm1-1h1-1Zm23 36h1-1Zm3 2 1 1-1-1Zm1 3h1-1Zm1 7v-2 2Zm1-3Zm30 42 1 1v1l-1-1v-1Zm-1 0-1-1v-1l-1-1v-1l2 4Zm-3-5-1-1 1 1Zm-14-23 1 1v1l1 1v1h-1l-1-1v-2h-2l1-1v-1l1 1Zm-1 3-1-1h1v1Zm-1-7 1 2-2-2h1Zm-2-3 1 1v1l-1-1-1-1v-2l1 1v1Zm0-11h-1 1Zm0 2-1-1 1 1Zm-1 10v1-1Zm0 2v1-1Zm-1-16-1-1v-1l1 2Zm0 12v1l-1-2h1v1Zm-2-5 1 1h-1v-1Zm0 2v1-1Zm-2-5v1-1Zm-1 4v-1l1-1v2h1v1l-2-1Zm1 4v1-1Zm1 2 1 1h-1l-1-2h1v-1l1 1v-1h1v1l-2 1Zm1 10h1-1Zm1-9v-1l1-1v2h-1Zm1 9v1-1Zm1 3h-1v-1h1v1Zm0-5v-4 1l1 1v-1l-1-1v-1l1 1v2l1 1v-2h2l-2 1h1v2h-1l1 1h-1l-1-1h-1Zm1 3Zm1 9h-1 1Zm-1-4v-2h1l-1 2Zm5 8v-1l-1-1v-1 2l1 2-2-2-1-2-1-1v-1h1v-1l-1-1v-1l2 1 1 3v1l1 1 1 2h-1Zm2 3h-1v-1l1 1Zm-1-3h1v2l-1-2Zm0-2h1-1Zm1 9v-1l1 1v1l-1-1Zm0-2 1 1-1-1Zm3 5h-1 1Zm2 3-1-1h1v1Zm0-1Zm1 1Zm1-2v-1l1 2v1l-1-1v-1Zm0 4 1 1-1-1Zm2-1-1-1 1 1Zm0 3 2 2-2-2Zm1-6v1-1Zm1 3-1-1 1 1Zm4-1-1-1h-1l-1-1v-2h-2l2 1-1 1-1-1v-1h-1v-2l-1-2-1-2v3l-1-1v2l-2-2v2l1 2v3l-2-2v-1l-2-2v-3h2v-3l1 1-2-3v1h-2v-1h-1 2c1 0 0 0 0 0h1v-3h-1v1l-1 1-1-1v-1l-1-1v-3h-1v1l-1-1h-1v-3l-1-1v-2c-1 0 0 0 0 0l1-1 1 2h1v1l1 1v-1l-1-1h-1l1-1 1 1c0 1 0 2 1 1v-1h1v2h-1v1l2 2h-1l-1-1v-1 2l1 1v-1l1 1h-1 1v-1 1h1v-1l-1-1-1-2h1v-1l-1-1h1v1l1 1v1l1 2 1 1 1 1v1l1 1v2l2 2 2 3v1h-1v1l1 1 1 1 1 1 1 1 1 2v1h1v2-1Zm1 2v-1 1Zm10 2 1 1 1 1-2-2Zm-27-40Zm-74 70h-1v-1h1Zm-13 21 1 1-2-1h1Zm101-170v1-1Zm-82 138h1l-1 2v-2Zm5-17v-1 1Zm-2 10s0 1 0 0Zm3-6v1h-1l1-1Zm-2 0 1-1v1h-1Zm2-2v1-1Zm3-15v-1 1Zm2 7-1 1-1-1v-1h1v1h1Zm55-21-1-2 1 2Zm-68 58-1 3v3h-1v-1h1l-1-1v-1l1-2v-2c-1 0 0 0 0 0l1 1Zm11-43-1 1 1-1Zm-27 61h1-1Zm20-27v1-1Zm-1-2v3l-1 1v2h-1l-1 1v1h1l-1 1h-1v-2h1v-3h1-1v-4l1 2 1-2v-1l1 1Zm1 4v-1 1Zm-15 18 1 1-1 1-1 1v-1l1-1v-1Zm12-26Zm80-137h1-1Zm-64 93v-2h1s0 1 0 0v1l-1 1Zm50-1v-1 1Zm28 54Zm-13-48-1-1 1 1Zm-10-1-1-1 1 1Zm-58 4Zm0 3Zm-1-1 1-1-1 1Zm9-23v1-1Zm3-17v3-3Zm-2 12h1l-2 1v-1h1Zm1-3v1h-1v1l-1 1 1-4 1 1Zm26-285v-1 1Zm-22-9h-1 2-3 2Zm8 0h1v-1l1 1h-2Zm-6 0 1-1-1 1Zm4-1h1-1Zm-1 0-1 1v-1h1Zm-1 11s-1 0 0 0Zm-19 0v-1 1Zm-3 0-1 1v-1h1Zm1-1v1-1Zm-1 1Zm25-1Zm-48 1h1-1Zm21 0v1h-1l1-1Zm21-1Zm-16 0s1 0 0 0Zm4 1Zm16-2-1 1 1-1Zm-16 1v1h-1l1-1Zm-3 1v1l-1-1h1Zm-17-89v-1 1Zm-1 2v-1l1-1-1 2Zm1-3v-1 1Zm-23 39h-1 1Zm35-55 1-1v1h-1Zm-36 56Zm-1 2Zm0-1h1-1Zm26-43v-1 1Zm25-15-1 1v-1h1Zm13 53v1-1Zm-22-53v-1h1v1h-1Zm0 1v-1 1Zm0 0Zm6 0-1 1 1-1Zm-9-2v-1 1Zm-36 56v-1 1Zm36-54h-1 1Zm1-1 1-2h1v1l-1 1h-1Zm-22 31h-1 1Zm-1 1-1 1 1-1Zm-2 3 1-1-1 1Zm9-14v-1 1Zm-4 6 1-2-1 2Zm3-5v-1 1Zm-1 2h-1l2-2-1 1v1Zm-8 12 1-1-1 1Zm5-7 1-2v1l-1 1Zm6-5Zm-14 23h-1 1Zm-1-6h1-1Zm-5 11Zm-1 1v-1 1Zm1-2h1-1v1-1Zm1 0-1-1h1v-1h1v-1l1-1v-1l1-1 1-1 2-3 1-1 1-2 2-2v-1h1l1-1v-1l1-1v-2h1v-1a11 11 0 0 0 2-3l1-1 1-2 1-2 1-1 1-4 1-3 1-1v-1l1-2v-1l2-3v-1l2-3 1-1-1 1-1 3-1 2v2l-1 1v2l-1 2h-1v3h-1l-1 2a3 3 0 0 0 0 1l-1 3-1 1-1 2-1 2v1h-1v1l-1 2a8 8 0 0 1-2 2l-1 1v1l-1 1v1h-1v1l-2 2v1h-1l-1 2a4 4 0 0 0 0 1l-2 1-1 1v1l-1 1-1 1v1l-1 1Zm-3 3v-1l1 1h-1Zm14-16Zm1-7v-1 1Zm46 22Zm-4 5v-1 1Zm2-3v1l-1 1 1-2c1 0 1 0 0 0Zm23-53Zm24 17v-1l1-2v-2l1-5v-4l-2-3-2-2-1-3h-1l-1-2h-5a1 1 0 0 1 0-1h-1l-1 1-1-1v1l-1-1-1 1h-1v1l-1-2v1l-1 1-1 1-1 1v1l-1 1-1 1-1 3v1l-1 1-1 1v1l-1 1-1 1v1a30 30 0 0 0-1 2v1l-2 3-1 3-2 3-3 5-1 1-1 2-2 4-3 4-3 3-2 3v1l-1 1-1 1-1 1v-1l2-3c1-1 2-1 2-3l1-1a15 15 0 0 1 2-2v-1l1-1h1v-1l3-4 3-6 1-1v-1l1-1 1-2 1-3 2-2a1 1 0 0 0-1 0l-1 1-2 4-1 2-1 3-3 4-1 2-2 2-1 3-1 1-1 1-1 1-1 1-1 2v1l-1 1-1 2V49h1V23l-2-4-1-3-2-2-1-2-1-1-1-1-2-2 1 1h-1v1h1l1 1v1l-1 1h1v1l-1 1 1 1-2-2 1-1-1 1h-1l1-1-1 1v-1l-1 1h-2l-1 2h-2 1-1v2h-1v-1h1-1l1-1v-2h2l-1 1v1l1-1v-2l-1-1c1 0 0 0 0 0h-1v1l-1 2v-1l-1 1v-1l-1 1 1 1 1-1v1l-1 1-1-1v-1l-1 2v-3h1-1v-1 2-1 1l-1-1v1h-1v-1h-1l-1 1a61 61 0 0 0-1 2l-1 2v2l-1 1-1 2-1 2v1l-1 2-1 1-1 2v1l-1 1-1 2v2l-1 1-1 1v2l-1 1-1 1v1h-1v1l-1 1v1l-2 2v1h-1v1h-1v1l-1 1h1-1v1l-1 1a1 1 0 0 0 0 1v1h-1v1l-1 1h-1v1l-1 2h-1v1l-1 1-1 2-1 1-2 2-2 3-1 1a103 103 0 0 1-3-10l-1 2v1-2l-1-2v-3a76 76 0 0 1 0-3l-3-12v-1l-1-2v-4h-1v1l1 1v5-3l-1-1v-1 1h-1 1l-1 1-1-3v-1a1 1 0 0 1 0-1l-1-1a1 1 0 0 1 0-1v-1l-1-1v-1h1-1v-1l-1-2v-2l-1-1v-2l-1-1v-1l-1-2v-1l-1-2-1-1v-2l-1-1v-2h-1v-1l-1-1h1l-1-1-1-1a2 2 0 0 1 0-1h-1V4l1 1h1v2h1V6h-1V4h-1l-1-1h1-5l-1-1h-1l-1-1h-1c0 1 0 0 0 0h-3l-1-1h-1l-1 1-1-1h-1 1v1h-1l-1 2h1V2v2l1-1h1V2v1h1l-1 1-1 1h1l1-1-1 1v2-1h1V5h1V4l-1 4 1-1V6l1-1v1l-1 1h1l-1 2V7v2h-1a1 1 0 0 1 0 1h-1l1 1h-3l1 1-1-1h-1v1h1-1 1v1h-1v1-1 1h-1 1v1h-1v1h-1v1h1v1-1 1h-1l1 1h-1v3l-1 1h1v1-1l-1 1h1v6s-1 0 0 0v3h-1v4l-1 1v3l-1 3v5l-1 2h1v2l-1 6v2l-1 2v3l-1 2h1l-1 1v2l-1 4v-3l1-1v-7h1v-4 1l-1 1v3l-1 2c1 0 1 0 0 0v4l-1 1v3-10 3h-1v-1l-1 1v4l-1 1h1l-1 1v1l-1 2v5l-1 1v3h-2v1h-1v2h-1v2h5v1l1 1h-1a1 1 0 0 1 0 1v3h-1v1h-2v-1h-1v1l-1 1-1 1h2l1 1-1 1h1l1-1h2l1-1 1-1 2-1 1-2 1-1 1-1 2-2 1-1 1-2a8 8 0 0 1 2-2l1-2h-1l1-1h-1v-5 1-2h1v-2 1-7h1v-1h-1v-1l1-1v-1l-1 1v-5 1-2l1-1v-1l-1 1v-1h1v-2l-1 1v-2 3h-1v4h-1v-2l1-1v1-2l-1 1 1-3h-1v-1h1v-5 2l1-2-1-1v1h-1v7l-1 1v5h-1v6h-1v2-8l1-1v-6h1v-8l1-3v-3l1-1v-4l1-1c-1 0 0 0 0 0v-2l1-1v3l-1 1v6h-1v6h1-1l1-1v-1h-1v-2h1v-1h1v-1l-1-1 1-1v-4a3 3 0 0 1 0-1v-1l1-3v8h-1v5l-1 1a1 1 0 0 1 1 1v2h-1v5l1-1s0 1 0 0v-1l1-1-1 1v-3l1 1-1-2h1v-1h-1 1v-4h1l-1-1 1-1v-2h-1 1v-2l1-3v-3l1-1v-4h1l-1 1v4-1l1-2v-2h1v-3h1l-1-1h1v-3l1 1h-1l1 1v-1 2h1v1-1h1l-1 1v1h1l-1 1h1v1s1 0 0 0v1h1v2h1v1h-1v2h2l-1 1 1 1h-1v1h1v2h1v3l1 1v4h1v3l1 2v4l1 1v5l1 1-1 1v1h-1 1v6l1 1h-1v1h1v4l1 1v3l1-1v4h1v-4l-1-1v-5h-1v-8l-1-2v-7l-1-1v-4l-1-1v-3a19 19 0 0 0 0-1l-1-2v-3l-1-1h1v2l1 2v1l1-1v4h1v5h1l-1 1 1 1v5l1 1h-1v1h1v6l1 1h-1l1 1v6l1 2v4l1 1h-1l-1 1 1 1h1l1 1v1l1 1h-1l1 1h-1l-2 1v1l-1 1-1 1h2l1-1h3l1 1a1 1 0 0 1 0 1l-1 1 1 1 2-1a6 6 0 0 0 1 0h3l2-2h1l2-1 2-1 2-1 2-1h2l2-2v-1l1-1v-2h1l1-1 1-1v-1l1-2h1v1l-1 2v-1l1-1 1-1h1l-1-1 1-1v1l1-1 1-1v-1 1l1-2v-2h1v1l1-1 1-2v-2l1 1v-1l1-1 1-1h1l1-2 1-1 1-1v-1l1-1 1-1v-1h1l1-3h1l1-2v-1h1l1-1v-2l1-1 2-2 1-2 1-1v4l-1 2v3l-1 3v10l-1 2v4a2 2 0 0 0 0 1v6l1 1 1 4h1l1 1h2l1 1v-1l1 1 1 1 1 1 1-1 3-1 3-1h4l2-1 1-2 3-3a17 17 0 0 0 1-2l2-2v-1l2-2 2-3 3-3 1-1 1-2 1-1 1-1v-1l1-1 1-2 2-2 3-4 1-1 1-3 2-2v-1l1-2h1v1l-1 2v3a3 3 0 0 0 0 1l-1 1v4l-1 3v2l-1 3-1 2v2l-1 3v3l-1 1v4l-1 2a392 392 0 0 1-1 3l-1 6v18l-1 1h1v1h-2l-1 1h-2l-2 1h-2l-1 1v-1h-4 3v1h3a40 40 0 0 0 1 0h2l-2 1h-25l1-1h2-1l-1-1c-1 0 0 0 0 0v-1h-14l-2-1 1-1h1-3l-3-1h-1l-8-1h-8l-1-1a4 4 0 0 0-1 0h-5l-1-1h-17l-1-1h-2c0-1 0 0 0 0h-1l-2-1h-7l-1 1h-5l-2 1h-1l-1 2-2 2-1 1-1 2v1l-1 1v2l-1 1a59 59 0 0 1 1 3v1l1 1 2 2v1h1l1 1 4 1h20a38 38 0 0 0 2 0l1 1h8a3 3 0 0 1 1 0h8l2-1 1 1h3l1-1h4l7 1h8l2-1h15v-1l1 1h2a1 1 0 0 1 1 0h1l2-1h34v-1a1 1 0 0 1 1 0h1l1-2v-2l1-1v-3l1-1v-6h1v-2l1-3v-3l1-4v-9l1-2v-1a126 126 0 0 0 0-5v-7l1-1v-7l1-4v-6h1v-4l1-2v-4l1-3v-8ZM147 0Zm2 4h-1l1-1v1Zm-20 93Zm3-27h1-1Zm0-1h1-1Zm4-2h1l-1 1v-1Zm0 2v-1h1l-1 1Zm6 4v-1 1Zm0-2v1-1Zm0 0v-1 1Zm1-4v1-1Zm0 1v2l-1-1v-1h1Zm0-4v1-1Zm-1 3v1-1Zm-1-1v2l-1 1 1-4v1Zm0-2v-1 2-1Zm-1 7v1-1Zm-3-6v-4l1 1v1l-1 1v1Zm2-9v2l-1 1v2a1 1 0 0 1 0-1h-1l1-3v-1l1-1v1Zm3-36h-1 1Zm-1 1h1-1Zm1 3h-1 1Zm0 1Zm1-10a1 1 0 0 1 0-1v1Zm1-2 1-1-1 1Zm2 18h-1v3-2a3 3 0 0 0 0-1l1-1v1Zm-1 14Zm13-17v1-1h-1 1Zm-1 4v1-1Zm-3-22v1-1Zm-1 5 1 1-1-1Zm-2 3v1-1Zm0 2 1-1v1h-1Zm1 1v-1h-1 1-1 1v1Zm2 0h-1v-3l-1-1v-1h1v3l1 1v1Zm0 0v1-1Zm0 1Zm0 1h1-1Zm1-2-1-2v-2l-1-1h1s-1 0 0 0v1h1v1l-1-1 1 1v3h1v2h1l-1 1h1v1l1 1-1 1h1-1v-1h-1v-3c-1 0 0 0 0 0h-1v-2Zm0 4h1-1Zm0 1h1v1l-1-1Zm1 3v-1 1Zm0-1Zm0 2v-1h1v1h-1Zm1 4h1-1Zm1-3v-1h1l-1 1Zm1 0Zm0 1s0-1 0 0Zm0 1v-1 1Zm7 48h-1 1Zm-6-44Zm5 14h1-1Zm33 12Zm-2 3v-1a9 9 0 0 1 1 0l-1 1Zm-1 1v1h-1l1-1Zm-1 1Zm-1 1h1l-1 1-1-1h1Zm-1 1 1 1h-1v-1Zm-1 3h-1 1Zm-3 6s1 0 0 0Zm-15 9-1-1v1h-1v-1h1-1v-1l1-1h-1l1-1 2 1h2v1l1 1v1h-3 1v-2l-1 1-1 1Zm1-6-1 1v-1h1Zm4 4h-1 1Zm-1 0v-1 1Zm0 0c0-1 0 0 0 0Zm0 0v1-1Zm-3-4Zm-3-2h1v1l-1-1Zm0 4c0 1 0 1 0 0Zm0 1Zm4-38c1 0 1 0 0 0Zm0-1Zm-1-4h1v3-2l-1-1Zm-4 47v-1 1Zm23-3v-2l1 1-1 1Zm2-6Zm1 2-1-1h1v-1 1c1 0 0 0 0 0v1Zm0-3 1-1-1 1Zm1 1Zm0-2Zm1-10Zm1-2-1 1v-1l-1 1-1 1-1 1 1 1-1 2-1 1-1 1-2 2-1 2-1 1v-1l1-2v-1h1v-1h2v-1h-1l1-1h-1l-1 2h-1v1l-1 1-1 1-1 1v-1l1-1v-1l1-1h1v-1 2-1l1-1 1-1-1 1 1-1 1-2 1-1 1-1v-1l2-1 1-2 2-3-1 2-1 1v2h1Zm0-1h1c0-1 0 0 0 0v-1h1l-1 1h-1Zm1 10Zm-1 3v-1 1Zm0 0 1-1-1 1Zm3-19Zm0 2Zm1-4v1-1Zm2-2c-1 0 0 0 0 0Zm-2 2 1-1-1 1Zm1 16-1 1v-1l1-1v1Zm0-1Zm1-2Zm0 1Zm2-19Zm1 15v-1 1Zm15-51v1-1Zm-2 0Zm0 0Zm1 0a2 2 0 0 0-1 0h1Zm0 1Zm1-1Zm0 4h-1l1-1v1Zm0-2h1-1Zm1-1v1-1Zm0 2Zm1-2Zm0 0Zm0 1h1-1Zm4-1Zm2 1Zm0-1 1-1-1 1Zm7 1v3-3Zm-2 13v2l-1 1v5h-1v-2l1-1v-9h-1 1l-1-1 1-1v-2l1-2v10Zm0-7v-3 3Zm1-2v-3 6-3Zm0 7v-3 3Zm2-6-1-2h1v2Zm0-3-1-1 1 1Zm0 3v1-1Zm0-2h1-1Zm1 1c-1 0-1 0 0 0Zm13 31v1-1Zm0 1h-1 1Zm-1 0v1l-1 1v1-1l1-1v-1Zm-10 11 2-2 1-2 1-1 1-2 2-2 1-1 1-2 1-1-1 2-1 2-1 1a6 6 0 0 1-1 1 10 10 0 0 0-1 2l-1 1-1 2a63 63 0 0 1-2 2v1l-1-1Zm8-7-1 1 1-1v-1 1Zm-1 1Zm-7 11v-2l3-3a18 18 0 0 0 1-2l2-3h1-1v1l-1 2 1-2h1l1-2 1-1-1 1v1l-2 2v1l-1 1-1 2-2 2-1 1-1 1Zm0 2Zm8 5-1 1 1-1Zm0-3v1h-1l1-1Zm1-9-1 1-1 1-1 1v-1a32 32 0 0 0-3 4h1l1-2h1l-1 1-1 2h-1v-1l-1 1-1 1 1-1v-1h1-1c0-1 0 0 0 0h-1v1-1l1-1 1-2h1v-1l2-2v-1h1v-1l2-3 2-2v1l-2 2-1 1v1h1v-1 1l-1 1v1l1-1v1Zm1-2Zm-1 10v-1 1Zm1 0Zm1-1h-1 1Zm0-14 1-2-1 2Zm0 15v-1 1Zm1-1v-1a2 2 0 0 1 0 1Zm1-16h-1l1-1h1l-1 1Zm2-4a10 10 0 0 1-1 2h-1l1-1 1-1Zm0 0v-1 1Zm1-1Zm-1 17Zm1-18Zm0 0h1-1Zm1-1Zm11-29Zm5-10Zm2-2V7v1Zm0 9v1-1Zm1-8Zm1-1h-1l1-1v1ZM161 118h1-1Zm5 0v1-1Zm1 0Zm6 1Zm1 1v-1 1Zm0-2 1 1-1-1Zm3 1h1-1Zm3-1Zm0 2v-1h1l-1 1Zm2 0-1-1h1v1Zm0-1Zm1 1-1-1h1v1Zm2-1v1-1Zm0 0Zm1 0Zm-1 1v-1 1Zm1-1Zm3 0h-1l1 1h-2 1v-1s0 1 0 0h1Zm1 0h-1v-1l1 1Zm-1 1 1-1-1 1Zm2 0-1-1 1 1Zm2 0h-2l1-1v1-1h1v1Zm0-2Zm1 2v-1 1Zm0-1 1-1-1 1Zm1-1Zm4 0h-1 1Zm-2 1c0 1 0 0 0 0Zm1 1h-1v-1h1v1Zm4-2-1 1v-1h1Zm-1 1Zm-1-1 1 1-1-1Zm0 0-1 1 1-1Zm1 2h-2v-1h2v1Zm65-3Zm-1 0s0 1 0 0Zm-6 0s0-1 0 0Zm-6-1Zm0 1h-1 1Zm-1 0Zm-3 0v1h1-1v-1Zm-1 0c-1 0 0 0 0 0Zm-5-3Zm-2 3Zm-1-5Zm-3-1h1-1Zm0 6h-1 1Zm-1-2Zm-1-3h-1 1Zm-1 0Zm0 6h-1 1Zm-1-6Zm-1 5h-1 1Zm-2-5Zm-1 5h-1 1Zm-4 1-1-1 1 1Zm-3 0v1-1Zm-2 0s0 1 0 0Zm-3 0h-1 1Zm-10 0v1-1l-1 1v-1h1Zm-1 0Zm0 1h-1 1Zm-2-1v1-1Zm-2 2v-2l1 1-1 1Zm1-1Zm12 2-7-1h-1l-1-1v1h-3l1-1h1l-1-1h1v1h-1v1l1-1h2v-1l1 1 7 1-7-1v-1l7 1v2Zm-7-3Zm7 1h1-1Zm2 1h-1l1 1-1-1 1-1v1Zm0-1 1-1h2-1v1h-1v-1a2 2 0 0 1-1 1Zm0 1h1-1Zm1 1v-1 1Zm22-1Zm3 0c0-1 0 0 0 0Zm1 0h1-1Zm2 0v-1 1Zm4-1h-4s1 0 0 0h-1v1l-1-1h-1l1 1-1-1h-2v1-1h-2v1-1l-2 1v-1 1l-1-1v1-1 1l-1-1v1h-2v-1l-1 1h-1v-1 1h-2l-1-1v1h-4v-1a1 1 0 0 1-1 1l-1 1v-1h-3v1l-1-1-1-1h3-1v-1l1 1 1-1v2l1-1 1-1h2v1l-1-1v1h1-1l1-1h4l1-1c0 1 0 0 0 0l1 1v-1 1l1-1v1h5v-1 1l1-1v1l1-1v1-1h2v1l1-1 1 1v-1h1v1h1l-1-1h1v1l1-1h1v1l1-1v1l1-1v1h1v1Zm-29 0Zm30-1h-1l-1-1h1l1 1Zm15 1h-1l-1-1v1h-2v-1 1h-7l-1-1h-3 1v-1 1-1 1l1-1h1l-1 1 1-1h4v-1 1h2v-1l1 1h-1 1v1h1v-1 1-1h1v1h1s-1 0 0 0v-1l1 1c0-1 0-1 0 0v-1 2l1-1v1Zm0-1Zm0 1h1-1Zm1-1Zm21-87 1 1v1l-1-2Zm2-12Zm-1-1v3l1-1v1a4 4 0 0 0 0 1v2l-1 3v3-4 1l-1 1v-3l1-1v-3a3 3 0 0 0 0-1v-2Zm-1 5Zm-4 18Zm3-12Zm0-8v3h1a4 4 0 0 0-1 0v1-4Zm0 5Zm0 1v1-1Zm-1 5v-2h1l-1-1h1v1l-1 2v5l-1 1v1-2l1-1-1-1v-1l1-1v-1Zm0-9v7h-1a1 1 0 0 1 0 1v4l-1 1v4h-2l1-1V29l1-2v-2l2-2Zm0-12h1l-1 1v-1Zm0-1-1 1h-1l2-1Zm-2 0Zm-1 0 1 1h-1v-1Zm-88 74 1-2 1-1v1l-1 1-1 1Zm30-70v-2h1v1h-1v1Zm4 1v-1 1Zm19 52v-1 1Zm34-61Zm-84 75h-1 1Zm51-16 1-2-1 2Zm-57 10h-1 1Zm-3 1-1 1v-1h1Zm2-1v1-1Zm-2 0Zm6-3h-1l-1 1 1-2-1 1 1-1 1-1h-1 1v2Zm51-7 1-2v1l-1 1Zm-2 3h-1v1-1h1Zm0-1v-1h1l-1 1Zm1-1v-1h1l-1 1Zm4 0Zm17-44 1-1-1 1Zm1-2v-1 1Zm1-1Zm-3 5 1-1-1 1Zm-1 2v1-1Zm0 2-1-1h1v1Zm0-2v-1l1 1h-1Zm1-1h-1l1-1v1ZM141 14l-1 4 1-4Zm1-5V8l1-2V5l1-1v2l-1 1-1 2Zm3 50v1l-1 2v-1l1-3v-1 2Zm3-26v2h-1l1-2Zm-2 13v4l-1-1h1a1 1 0 0 0 0-1v-4 2Zm-2 18v2h-1l1-1v-2 1Zm-20 24h-1 1l-1 1v-2l1 1v-1h-1v-1 1l-1 1h1l-1 1v1h1v-1l-1 1-1-1v1l-1 1v1h1l1 1 1-2v-1l1-1v-1Zm-1 2-1 1h-1 1l-1 1 1-1v1h-1s-1 0 0 0v-2h2Zm0-7v1h1l1-1v-9 1s-1 0 0 0v1h-1v5h1l-1 1h-1l1 1h-1Zm2-7v1l-1-1h1Zm-1 3h1-1Zm0 3v1-1Zm12-27v-1 1h1v2h-1l1-1h-1v-1Zm31 32Zm7-50Zm-1 1s1 0 0 0Zm-9-28h1-1Zm1-4Zm-2-2h1-1Zm0 3Zm-20 64v1-1Zm1-4Zm0 1v-1 1Zm2-18Zm-1 1h1-1Zm2-9v-1 1Zm-3 15Zm-2-1Zm3-46h1-1Zm0 1Zm-9 49Zm3-23Zm1-14h1-1Zm-6 38v-1 1Zm0-3Zm0-2Zm1-5Zm-3 11Zm9-53V8v1Zm-13 66h-1 1Zm-5 14Zm3-16h-1 1Z"/></svg>