<svg xmlns="http://www.w3.org/2000/svg" width="1001" height="1000" fill="none"><path fill="url(#a)" d="M294 319v400c0 82 142 158 208 186 67-28 208-104 208-186V319H294Zm208 672-14-5c-2-1-67-25-132-67-94-62-142-129-142-200V239h576v480c0 71-47 138-142 200-65 42-129 66-132 67l-14 5ZM294 319v400c0 82 142 158 208 186 67-28 208-104 208-186V319H294Zm208 672-14-5c-2-1-67-25-132-67-94-62-142-129-142-200V239h576v480c0 71-47 138-142 200-65 42-129 66-132 67l-14 5ZM336 231c18-3 59 1 79-2l41 1h-24c-12 0-17 1-18 2h-35c-17 1-30-1-43-1Zm132 9 3-1-34 1h31Zm91-3 83 1-6 2c-15 0-43-2-42 1 0-1-18-2-15-3l-20-1Zm59 1-10 1c-18-1 1-1 10-1Zm-41-4c24-1-15-2 10-2 8 1-2 1-10 2Zm82 4-22-1 52-1-30 2Zm-7 1 57-1-19-1 71 1c-29 1 11 1-12 3 1-2-31 1-34-1h17c-17-2-29 0-48-1-9 1 1 1 8 1-16-1-30 1-40-1Zm127-1c-3 1-2 1 1 1l9 1v4l2 11-1 19-1-13v-11l-1-9h-13c-8-1 6-2 4-3Zm9 34c0 17 3 24 3 25l-1 1v8l-2-13v-21Zm7 11a14697 14697 0 0 0 0-26v-9l1 11v10l1 11v-2l1 53c-1-14-2-21-1-33-1 3-2-5-2-15Zm4 4-1-14 1 14Zm-10 41v-7 27-20Zm6-35 1 31c0-20-2 14-2-8 2-2 0-18 1-23Zm-7 73 2 22-2-22Zm0 22c3 10-1 14 1 38v-11l1 47-2 12c1-1 1 6 2 9-1 19-2 6-3 10 2-16 1-45 2-67l-1-4v-34Zm6-31 2 7c0 26-2 9-2 34 4-10 1 14 4 16-1-7-1 12-2 13l-1-26-1 19v-63Zm-1 94 2 24-2 9a584 584 0 0 0 1 60l1-2v14c-1 8 1-18-1-10 2 25-1 38 0 63l-2 19c1 4 2 4 2 16-1 14-1 49-3 47-2-7 2-18-1-23-1 2 0 33-1 17-1-32 2-62 0-94 0-26 6-51 5-93l-1 5 1-10c-3-3 0-24-2-42h1Zm2 21v-33c-1 31 3 0 2 28l-2 5Zm-3 145 1-14c-2-15 1 7-1 14Zm0 44-1-13 2 7-1 6Zm0 27c0 13-1 25-2 15 1 2 2-4 2-15Zm-19 95-2 3-1 1 1-7c-2 8 1 3 4-3 2-5 4-10 0 1l-2 5Zm-42 55 9-9-9 9Zm57-278v-8 8Zm0 0v6-6Zm-6 182v-2 2ZM538 240l-11 1 10-1h1Zm-13-2c19-2 21 3 52 2h-40c-18-2 15-1-12-2Zm268-3h1v1-1h-1ZM230 787h1l3 8 4 8-4-8-4-8Zm0-2-5-14-3-14a188 188 0 0 0 40 76c18 22 40 42 63 60l-5-3-4-3-6-5-7-5-35-35-9-10-7-11-12-19-8-13-2-4Zm-4-8a97 97 0 0 1-3-5l-1-6c-2-3-3-7-3-11l-2-11-1-7-1-7c2 14 5 23 8 36l2 6 1 5Zm-15-57-1-26c2 4 1 18 1 26Zm-7-25v-4 4Zm0 0h1c0 3-1 3-1 0Zm0-4-1-11v4l-1-18c0 11 1 11 2 11v-17c3 3 0 15 0 31Zm-1-56 2 18c-2 5-2-12-2-18Zm2-27c0 4 0 22 1 11v10c0-12-2-1-1-21Zm1 21v5-5Zm37 185-1-1 1 1Zm-36-243v-6 6Zm298 413a850 850 0 0 1-74-31c0 2-13-6-15-5 16 8-15-6-44-24-30-17-58-39-47-30l8 5-9-4-38-34 4 3 11 11 9 7 9 7 5 4 5 4 11 8 22 15 20 11 17 10a406 406 0 0 1-139-105l-4-5-7-9-7-9v-3c-7-11-13-20-17-29l-4-7-2-8-3-7-2-8v-5l5 18 3 8 4 9-4-9-2-8-2-6-1-6-1-6-1-5-1-14-1 6-1-15c0-8 2 10 2-14 1-30-2-24-2-50l-1 17v-37c0 11 1 39 3 38v-45l2 6v-30c0-12-2 8-2 1v-36c-3 6 1 29-2 45l1-23c-3-15 0 37-2 29-3-17 2-36-1-52-1 11-1 45-2 40 1-12-1-20-1-37l1-20c-1-9-1-2-2 5 2-30 0-79 2-121 0-25-1-3-2-15 2-13 0-35 0-49 0-4-1-11-2-7l1 34c-1-1-2 4-2 16 3-9-2 49 2 51h-2l1 44v-2 7a7235 7235 0 0 1 1 55c-1-7 0-48-2-24v-83l-1 6c-2-34 0-80 0-119l1 12c1-14 2-31 1-44 0 17-1 8-2 5v-94h5s-3 0 0 0l41-1 29 3 14-1-7-1h31c-16 1 5 2 3 3 23 0 2-2 5-3l61 3c1-1-21-1-23-2h19l-17-1 91 1-3-1h21l-7 2h28-4l14-1-14 2c18 0 42-3 70-3 7 2-49 1-53 4a268 268 0 0 0 17-1c25-1 63 1 78-1l-18-1c22-1 36 2 43 1l-17 3c22-2 51-1 72-3h-29l10-1 48 2 1-1c13 2 48-2 35 1h-11l1 1 48-1c-4 1 7 1 14 1 0 5 0 8-1 5l1 13v9c0 3-1 1-1-4v-3l-1-6v-12l-19 2a67 67 0 0 0 7 1h-8l-11-1-25-2-10 2v-2l-18 2c-20-2-41 0-71 0 24-1-16-2-12-2-14 0-48 3-59 1-8-1 17-1-2-2-13 0-21 1-13 2h-91l8-1c-19-1-38 1-47 2-3-1-5 0-2-1-24-2-30 2-70 2 2 2 20 2 33 1l-4 2 101-2-13 2c24 2 17-3 39 0 17-1-12-1 1-2 12 1-3 3 17 4l-236 1h7a457 457 0 0 1-55 1l-26-1v52a126685 126685 0 0 0 1 110c-1 4-1-9-1 8 0 1 0 5 1 2-2 41 0 97-1 147l1 10c-2 17 0 46-1 62l1-5v51c1 1 1-6 1-10 0 11-1 14-2 15l2 23v25l1 12 3 13c4 17 12 34 22 50s23 31 36 44c14 14 28 26 43 38l34 21-8-5c17 9 0 1 15 9 10 5 4 0-9-7-8-6-3-3 3 0a834 834 0 0 0 128 70l18 7Zm54-31c6-2-23 12-8 7a529 529 0 0 0 162-101l13-12 11-11v-1l4-5 4-5 5-6 4-7 4-6 4-7 6-12a436 436 0 0 0 10-29l4-12 1-11c-2 12 1-11-2 2l2-14 2-9 2-20v2c1-23-2-70 1-72l-1-9c1-10 2-8 2-24 0-11-1 0-1-4 1-5 0-33 2-47 2 0-2 24-1 37l1-4c0 34-2 64-3 93l-2 42v21l-1 10-2 10-2 8-2 7a73 73 0 0 0-1 6l-1 5 2-4 2-6 4-12c2-8 2-16 1-16l3-17c0-7 2-7 3-10a104 104 0 0 0 0 16c1 3 2 3 3-6-1 17-2 14-3 11l-2-3-1 10 1 5c0-3-1 2-3 8l-5 20 1-4c-6 18-15 37-28 55a486 486 0 0 1-157 127c-10 2-23 9-37 16-14 8-28 14-38 16-8 4 13-3-3 4l-9 2-8 3c-4-1-3-4 6-9l51-28Zm12-91 25-16c10-6 19-12 25-18l24-17c-5 4-14 12-14 10-10 9-10 9-9 10-1-1-15 10-22 15-10 7-19 11-29 16Zm87-51 1-1a348 348 0 0 1-1 1Zm44-61-3 7a86 86 0 0 0 10-42v-8l1-11 2 5-1 20v5l-1 4 1 3c-1 0-5 13-6 10-1 2-1 5-3 7Zm8-35 1 7c-2 13-1-1-1-7Zm-7 21a51 51 0 0 1-1 2l-1 2-1 2 2-5c1-3 1-3 1-1Zm7-52-1 16-1-40 2 24Zm1 5-1-44-1 15v-54c2 22 2-8 4 9-3-1 0 24-1 26l-1-13v36c0 8 1-1 1-6-1 13 1 23-1 31Zm-1-96c1 5 1-8 2-13-1-6-3-8-2-23 3 4 2 25 2 38-1 6-2-4-2-2Zm2-34c1-14-2-18-2-19l1-1v-6l2 9-1 17Zm-6 17-2-23v1l-1-40v25c4-4 2 22 3 37Zm-3-18-1-11 1 11Zm9-42v5-20 15Zm-6 27-1-24c0 15 2-10 2 6-2 2-1 14-1 18Zm6-56-1-16 1 16Zm1-16c-3-8 1-11-1-29v8l-1-35 1-9-1-7c0-14 2-5 3-8-2 12-1 34-2 51l1 3v26Zm-6 23-2-5c0-20 2-7 2-26-4 8-1-10-4-12 1 5 1-9 2-10l1 20v-14l1 47Zm1-71-2-18 2-7a336 336 0 0 0-1-46l-1 2v-11c0-6-1 14 1 8l-1-17v-6l1-5a86 86 0 0 0-6 0h-7l-14-2-12 1c-10-1-37-1-36-3 6-2 14 2 18 0-2-1-25-1-13-2l36 1a434 434 0 0 0 36 0h2v15l-2 16c-1 11-3 23-2 39l1-4-1 7c3 3 0 18 1 32Zm-2-16v25c0-24-3 0-2-21l2-4Zm-6-86a200 200 0 0 0-6 0l-6-1 11 1h1Zm-45-1 10-1-5 2-5-1Zm-20 0c-10 1-19 0-11-1l11 1Zm-73-7c-13 1 21 2 3 2-15 0-6-2-3-2Zm-56-3 10 1-10-1Zm207 30v7-7Zm0 0v-4 4Zm-120-28a60 60 0 0 0 2 0h-2Zm101 461-5 7 5-7Zm-8 6 5-8 5-5c3-4 7-9 11-21-3 9-8 19-13 28-10 10 5-10-8 6Zm21-195c0-2 0-1 0 0Zm-414-2h-1l1-13v13Zm-1 2-1 23V473v4l1 17v90Zm1 7c2 13-1 21 1 37-1-10-3-18-2-28l1-9Zm4 44v20-20Zm7 19v4-4Zm0 0h-1c0-2 1-1 1 0Zm0 4 1 8v-3 14c1-9 0-9-1-9v13c-3-2 0-11 0-23Zm1 42-2-14c2-3 2 9 2 14Zm-2 20c-1-2 0-16-1-8v-8c0 9 2 1 1 16Zm-1-16Zm-7-144v1-1Zm11 185 2 4-1-3-1-1Zm-19-426v61c2 0 1 11 3 12 0-27 1 102 2 80l-1-6 2 7c-1 13-2 30-1 39-1 2 0-110-1-106 3-10 3 151 4 155l-2 2 4 49-1 4-1-28-1 42c2 0 1-14 2 7 0 6-3-8-2 11-1 23 2 18 2 38l1-14-1 28c1-8 0-29-2-28l-1 34-1-5v23l1 3v-1c1-3 1-5 1-2v4l1 7 2 9 3 6c1-3-2-8-3-14l-1-5-1-5 1-9v8l1 9c1 2 1 2 1 0l-1-9-1-6v-4l1-3 1 10v5l1 4v5l1 5 5 8-3-8-1-5-1-3v-12a31 31 0 0 0 2 11l5 14 5 13c3 5 1 1-1-4 4 10 13 22 23 34l35 33c15 11 3 1 10 5 7 7 21 15 30 21 2 2 8 3 6 1a500 500 0 0 1-22-13c1 0-1-4-9-9 2 3-5-2-13-9-7-6-15-14-17-13l1-1-23-22 1 1-3-4-7-8a93 93 0 0 1-11-18l5 8c3 5 4 7 1-1a184 184 0 0 0 39 45l-3-4 34 27a389 389 0 0 0 29 22c8 5 19 13 28 16-11-6-5-3-3-3 15 8 36 19 57 28 0 0-1 0 0 0l1 1h3l1-1h1l6-3 21-8c4-2 13-6 9-5l-5 2c10-7 7-3 20-11-9 7 4 0 4 2 15-9 0-3 2-5l20-10 20-11c0-1-13 8-16 8l12-8-11 6c19-10 37-22 55-38h-1l11-9-3 4c6-5 13-10 15-14l-2 2 6-8-6 9c5-5 10-11 14-18a260 260 0 0 0 14-24c2-1-1 7-6 15s-12 16-12 18l14-18-7 8c5-7 11-16 15-26 5-9 6-18 6-23l-2 6-2 6 2-5 1-5 1-7 1-4v-3l-1-6 2 7 1 6v-6a4674 4674 0 0 1-1-21l-1-27c-2 0 0 23 0 22l-1-8 2-36-2-1c2-10-1-36 2-26l-1 8 2-1-1-34c1 3 0-14 2-9l-2-13c2-6 3 23 4 25l1-10c1 16-2 23-2 38l1 8h-2l3 14c-3 15 0 31-1 53 0-18-1 13-2 9a185 185 0 0 0 1 16v7l-1 6-1 5-4 8v-2c0-2 1-3-2 3a1556 1556 0 0 0-2 9c-9 18-26 37-43 51l4-4c-11 9-21 18-26 24-2 1-3 2-2 0-7 4-12 8-17 13l-25 18c2 0 13-7 21-13l-1 3a384 384 0 0 0 52-40c8-5 10-8 11-11 2-2 4-5 11-10 7-10-7 6-1-2 6-6 1 4 10-7-17 23-40 43-64 61a624 624 0 0 1-113 64l-10 4a561 561 0 0 1-41-20 804 804 0 0 1-38-21c-23-13-39-25-42-25-2-2 7 3-4-4-1-1-4-2-2 0l-40-35-20-22c-6-8-11-17-15-26l-4-7-5-24-1-7v-6l1-11-1 4v-38c-1-1-1 4-1 7 0-9 1-10 2-11l-2-17c3-50-2-113 0-170-2-9-2-16-3-31v7-13c-1-9-2-3-1 9-1 7-1 3-2-2 0-47 1-90 4-127Zm58-13c5 1-20 1-8 2 39 3 102 1 148 3 12 2 15 2 26 2v-1l45 1c3 0 6-2-1-1 19-1 33 2 43 1-9-1 10-1-1-2 20 0 18 4 33 5 1-1 2-1-1-1 17 2 53-1 55 2l7-1 7 1 12 1h2c0 2 0 2 0 0l1-1-1 7v11l-1 20v-10a136 136 0 0 0 1-18l-1 4v-13a12888 12888 0 0 1-114-4l14 2c5 0 5 3 7 3-10 0-20 2-8 3-24 1 8-5-14-5l-3 2c4-1-15-2-22-1h3c-58-1-136 0-201 1-16-5-47 2-62-2-7 0 10 1-4 2l-7-1h-6c-5-5 7-9 51-12Zm60 325Zm0 8 2 1-2-1Zm0 5-1 1 1-1Zm-2-86h-1 1Zm1 40h2-2Zm0 9v-1 1Zm1-2v1-1Zm-3-18v-1l1 1h-1Zm25 63v-2h1l1 2-2 2v-2Zm-22 25h1-1Zm-2-75-1-1h1v1Zm-1 37h1-1Zm1-46h-1l1-1v1Zm0 1v-1l1 1h-1Zm1 1h1-1Zm25 45v-3 3Zm23-160v-3l-1-6-2-4v-2l-1-1-3-3a55 55 0 0 0-6-5l-3-1-4-3h-3l-3-1h-1l-2-2h-10l-3 1-3 1h-1l-3 1-2 1h-5l-2 1-2 1h-2l1 2-2-1-2 1v1l-1 1-1 1-2 1h-1v2l-3 1-1 2-1 1-2 2v1h-2l-1 2-1 1-1 2h-1l-1 1v1l-1 2h-1l-3 5-1 1-3 5-3 3v1c-1 1-2 1-1 2l-1 1-2 2-2 4-3 4-3 5-2 4-2 2-3 3-2 4-3 4-1 2-2 2-2 4 1 1v2l1 1 4 2 2 1 1 1h1v-1h3v1l1 1 1-1 2 1 1-1 1 1h6l1-1 2-1v1l2 1 2-2 1-1 4-3 1-1h1l1-1h1v-1h1l1-1 2-2 1-1v-1l3-2v1l1-1v-1 1l1-1 1-1 1-1 1-1 1 1 10-6 1 1v1l-1 3v25c0 1-1 3 1 3l-1 3v21l1 3v1l-1 2 1 1-1 2v5l1 3v9l1 2v22h1l-1 1v9l1 4v49l-1 6v12l-1 1c1 0 0 0 0 0l1 2 2 1v3l4 2h4v1h2l3 1 2 2h2l1-1c2 0 2 1 3 2h7l2 1 2 1h3l1-1 1-3v-6l2-2 1-3 3-1 2-1 2-1h1l1-1v-1l3-1v-5l-1-1-1-1-2-2-1-1-3-2-1-1-1-1v-1l-2-1v1h-1l-1-1-1-1 1-1-1-1-1-3h-1l-1-1v-7l-1-4h-1v-3h2v-3l-1-3v-2 7l-1 1-1-1v11l-1 1-1-5v-11l-1-4v-1l1-2v-29l1-3 1 1v4l1-1 1-3 1-1 1 1 1 1v-16l1-3v-5l1-5 2-5 1 2v1l2 1v-13l1-1 1-4v-4l1-1v-2l1-3v-5l1-2 1-3v-6l1-5v-7l1-1v-7l1-5v-4l1-8v-5l1-2 2-3v-11l1-6-1-5v-2Zm-111 63 1-1h1l-2 1Zm65 110-1-1v-1l1-1 1-1 1 1-1 1-1 2Zm-1-4h1v-1h1l-1 1h-1Zm4 6-1-1 1 1Zm-1-9h1-1Zm-1-59h-1v-1l-1-1v-1h1v-1l-2-1h1l2 1-1 1 1 3Zm0 1-1 1v-2l1 1Zm-5-6v1-1Zm-1-1v-1l-1 1 1-1v-1h1l-1 1h2l1 1h-3Zm0 2v1l-1-1v-1h1v1Zm1-5-2-1 1-1v-3h1v-1l-1-2v-3l1-1 1 2 1 1 1-1 1 1h-1l1 1h-2v-1h-2l1-1h-2l2 2-1 1 2 2h-2l3 2a2 2 0 0 1-2 0c-1 0-2 1-1 2 1-1 1-2 3-1h-1 1l-1 1-2 1Zm2-57-1 1-1-1h2Zm-1-2v-1 1Zm4-1h-1v-1h1v1Zm0 27Zm0 35-2 1 2-1Zm-3-7 1-1 1 1v1h-2l1-1h-1Zm0-2v-1 1Zm1 0h1-1Zm0-3h-1 1Zm-3-2 2-1-2 1Zm3-1h-3l-1-1 1-1v1h2l1-1h1l-1 2Zm-4-5v-3h1l2 2h-1l1 1h-1l-1 1v1h-1v-2Zm2-13h-1l2-1-1 1Zm1 6h-1v-1l1 1Zm-1-8h-1v-4l2 1h-1l-1 1 2 1 1-1-2 2Zm-1-21 1-2 1 1v1h-2Zm2 3h-2 2Zm0 20 1 1-1-1Zm1 13h-2 2Zm-2 2Zm2 1-1-1 2-1-1 2Zm0-4-1-1c1-1 1 1 2 1h-1Zm0-3h1-1Zm1-6-1-1h1v1Zm-2-12v-1h1l-1 1Zm1-7-1-1 1 1Zm-1-4 1 1-1-1Zm0-5Zm-1 6v1h-1l1-1Zm1 1-1 2 1-2Zm-2 4 1-1-1 2h1v1l1 1-1 1v-2h-1v-2Zm1 5c1 0 0 0 0 0l-1-1 1 1Zm0 1-2 2 2-2Zm-1 14 2 1h-1 1v1h-1v1h-2 1v-2h-1l1-1Zm2 25h1v1h-1v-1Zm4 19-1 1v-1h1Zm0 25-1 1 1-1Zm-1-6v-1 1Zm1 16h-1 1Zm1-22v3-3Zm-1-4Zm-7 33-1-1h1v1Zm1-3v-2h1l-1-2-1-1h1v-3h1l-1-1 1-1-2-3 1 1 1-1-1-1v-1l-1 1 1-2h-1c0-1 2-1 1-2h-1l1-1-1-2 1-1-1-1 1-2h1l-2-1v-2l1-1-2-1 2-2h-1l1-1h-1v-2l1-1v-4l-1-1h2-1l-2-3h1l-1-1 1-1v-2h1l-1-3h-1l1-1h1l1-2 2 1-2 1 1 1-1 1 1 1 1-1v1l-1 1 1 1 2 2h-2v-1l-1-1-2 2h2l1 1h-1l1 1v1h1l1-1-1 1 1 2-1 1h-1v-1h-1l-1 1h1c1 0 1 2 2 1l1 2v1l-1 1h1l-1 1 1 1v7h-1l2 2-1 1-1 1v1l1 2-1 1 1 2v5h-1l1 1-1 1h2l-1 1 1 3-1-1v4l1 1v1l-1 1h-2v2h2v-1l-1 1 1-1 1-2-1 2 1 1-1 1h1l-1 1 1 1h-1l1 1h-1l1 2h-2l1 1h-1l-2 2h1l-1 1v-1l-1-2-1-2 1-1h-1v-1h1l-1-1h1v-1l-1-1h1l-1-1v-1l1-1h-2l1-1Zm-1 0v-1 1Zm0-6 1-1-1 1Zm5-37-1-2 1 2Zm-2-2-1-1 1 1Zm-2 50Zm1 44-1-1h1v1Zm1 0Zm0-1v-1l1 1h-1Zm3 0v-1 1Zm-1-2v-1h1l-1 1Zm3-14h-2v3l-1-1v1h1l2 1h-1l-1-1v2s1-1 1 1h-2l-2 1h3-2v1h2v1h-1v2l-2-1v1l1 1h2l-2 1v1h1-1l-1-1v1h-1l1 1h-1v-1l-1-1 2-1h-1l-1-1 1-2h-1v-2h2-1l-1-1v-3l1-3v-2l1-2v-10l1-1 1 1h1-1l1 1h-1c0 1 1 2 3 2l-1 1-2-1 2 3h-1l1 1-1 1 1 1-1 1 1 1h-1 1l-1 2h2v1Zm-1 2v-1 1Zm-1-15v1-1Zm3 2h-1l1-1v1Zm4-35h-1l1-1v1Zm2 15 1-2-1 2Zm4-18c0-1 0-1 0 0Zm0-10 1 1-1-1Zm1 7h-1 1Zm0 14v-1l1 1h-1Zm-1-11 2-1-2 1Zm3 6h1-1Zm6 16v2l-1-2h1Zm-24-40h1-1Zm22 30v2l2-2v2h-1l-1 2v-6 2Zm2 14v3-3Zm202-156v-1l1 1h-1Zm1 3v1h-1v-1h1Zm-1-14h-1l1-1v1Zm-16 154-1-1 1 1Zm22-143-1-1 1-1v2Zm2 1-1-1 2-1-1 2Zm-17 148 1 2-1-1-2-2c0-2-1-2-2-3l-1-2-1-1-1-2-1-1v-2l2 3 2 3 1 2 2 3 1 1Zm-4-1 2 2h-1l-1-2-2-2v-1l1 1h1v2Zm-12-41 1 1-1-1Zm28-105h-1l1-1v1Zm1 156h1v1l-1-1Zm0 0-1-1 1 1Zm0-6-3-3 3 3Zm2 3-2-2 2 2Zm-5-7-1-1 1 1Zm-16 5h-1 1Zm25 8v-1 1Zm-11-15h1-1Zm-130 74h1-1Zm90-148-1-1 1 1Zm24 53v-1h1v1h-1Zm67 65-4-2-3-2-6-4h-2l-2-2h-1l-3-1-3-3-5-4-2-2-2-2c-1-1-2-1-2-3h-1l-2-2 3 3v2l1 1 1 2-1-1-1-1v-1l-1-1-3-1-1-1v-1l-2-3-1 1h-1l-2-2-2-3-2-2-1-3-1-2c1-1 0-2-1-3v2l-1-2-2-1-1-2-1-1-1-1-1-3v-1l-1-1h-1c-1-2-1-4-3-5v-1l-2-4-1-1v-2l-1-1c0-1 0-2-2-3v-2l-1-1-1-2-1-1v-1l-2-4-1-3-1-2-1-3-1-2 1 2 2 3 1 2 1 1v-2l1 1v2c2 1 2 2 2 3l1 1 1 1v1l1 2v-1l1 2 3 6 2 3 2 3v1l1 1 3 5 2 3-1-1-1-2v-1l-1-2h-1l-1-3-2-4-2-3-3-5-2-4c0-2-1-3-2-3l-1-3-1-1-1-2-1-3-1-1v-2l-1-1-1-2-1-2-1-1-1-1-1-2-1-4-2-2-1-1-1-2-2-2-2-3-1-2-1-1v-1l-2-2-1-3 3 4v-2l-1-1v-2l1-1h1v-1l5-2 4-2 1-1 2-1 3-2 2-2 1-1h2l1-1v-1l2-1 1-1h1l2-2 1-2 2-2 2-1 1-2 2-1v-1l-3 2-2 2h-1v-2l-1-1c1 0 2 0 2-2l1 2 4-4-1-1 1-1v-2l1-1v-1l4-2 1-2c2-1 3-2 3-4l1-1 2-2-1-1h2v-3l1-2h-2l1-1-1 1h-2l1-2 1-1 1-2 3-2c2-2 4-5 7-6v-3l-2 1-2 3-2 1-1 1-1 1h-2l-1 1-1 1h-1l-1 1h-2v-1l-1-2v-1h-1l-2-2h-2l-1 3v-3l-2-3h1v-1h-1 3l-1-1 1-2 2-1 2-1h1v-2l-4 2-1 1h-1l-1 1h-1v-1h1l1-2h-2l-3 1h-1l-3 1-2 1-1 1h-1l-8 5-4 3-2 2-4 3-3 2-4 3-3 2-3 3h-2l-1 1-3 2-2 1-2 2-2 1-4 2-3 2-2 1-1 1-2 1-5 3-2 1-1-1-1-2h1v1h2v-5l-1-1-1 1v-1l2-1v-7l-1-2 1-2-1-3v-5l-1-4v-11l-1-5v-1l1-3-1-5-1-3v-7l-2-4c0-2-2-3-3-4l-5-3-8-2-5-2h-3l-3 1h-2l-1 1-4 1-1 1-2 1-1 1-2 5v14l-1 5v6l-1 4v3l-1 3v6l-1 4-1 6-1 2v7l-1 1v3l-1 4-1 4-1 5v7l-1 2-1 3v5l-1 6-1 3v2l-1 1v6l-1 2v3l-1 3-1 3v6l-1 3v4l-1 2v5l-2 5v6l-1 3v3l-1 3-1 5v1l-1 3v8l-1 3v1l-1 5v5l-1 3-1 3-1 3v4l-1 2 1 1-1 2-1 1 1 1-1 2 1 1v4l-1 6v4l-1 1v1l-1 1-1 2v2l-1 2v10l1 1-1 2 2 2-1 2-1 4v5l-2 2-1 1v3l2 2 3 3 1 1h3v1l3-1 1 2h-1l2 1h2-1l2 2 3 1-1-1 1-1-2-1 2-1 1-3-2 2-2-1h2l-2-1h3l-3-3 2 1v-1l1-1-1-1 1-1v-1h1l3-1 2 1v1h7-1l-1 1h4v-1l1-1 1-1v-1h1v-3h-1l-1-2-1-1h-1v-2h1l1-3-1-2c1-1 1 0 1 1l1-2-1-1h1v-1l-1-1 1-1h-1l1-2v-2l1-2v-1l1-1v-5h1v-1h-1v-1h1v-3l1-2v-1l1-1-1-1v-2h1l-1-2 1-1v-1l1-2 1 2-1 1v1l1 1-1 1v3l-1 3v3l-2 1 1 1v4h-1v4l-1 5v4l-1 5 1 1-1 1v4l1-2v-3l1-1v-5l1-1v-6l1-5 1-1 1-1v-3l2-3h-1v-1l-1-1 1-1 1-2-1 3h1l1-3h1v6l1-1 1-1 1-2v-2l-2 4v-5l1-2v-1l1-1 1-2v-5l1-1v-2l1-1v-1h-1v-2l1-1 2 1c-1-2 0-2 1-2l-1 1c3 0 3-3 5-5l-3-1h-1l1-3v-4 1h-1v-3h2v-2h-1 1l1-2 1-1h-2v-1h2l1-2 2-5 1-5 1-1h2v-4l-2 1v-1l2-4v-2l1 1c2-1 2-3 2-4s-2-1-1-2h2v-2l1-1 1-2 1-2h-1c0-1 0 0 0 0h-1v-3l1-3v-2l1-4v-7l1-2 1-3 1 1 2-3-1-1v1h-1v-1h3l2 3 2 3 4 6 3 6 1 1 4 6 2 5 1 1 2 3 3 6 1 2v1l2 1c0 2 1 3 3 5l1 2 2 4 4 6v1l3 3v1l2 2v1l2 3 3 4 2 4 3 3 1 2 3 4 5 5 4 6 3 3 2 2 2 2 2 2 1 1v1l2 1 1 1 2 2h1l1 1 1 2 4 1h1l1 1 6 2 1 1 2-1v-2h1l2 1 2 1h-1l2 1 1-1v1l1 1 4 1 2 1 4 1 2-1v-1l1-1h1l3 1 4 1 1 1 2-1-1-1-2-1-2-1-2-2c-3-1-5-1-6-3h-1l-3-3h-1l-1-1h-1l-3-2-3-3-1-1 4 1h1v-1c-2-1-3-3-5-3h-1v-2h2v-2l1-1h2l3 2h2l6 1h4l1 1h9l1 1 2-1h2l1-1-2-2Zm-77-87h1v1l-1-1Zm24-79h1-1Zm-1 2v1h-1l1-1Zm-3 3s0-1 0 0Zm-2-30ZM478 726h-1l1-1v1Zm5 7-1 1-1-2 2 1Zm-3-3h1-1Zm19-40-2-1 2 1Zm-1 5h1-1Zm0-4Zm0 3v-1l1 1h-1Zm0 2-1-1 1 1Zm-1-9v1-1Zm0-2h1-1Zm0-86v1-1Zm-1 4h1v2l-1-1v-1Zm2 100-1-2h-1v-1l2 1v2Zm0-3c0-1 0-1 0 0Zm-1 5v-2h1v1l-1 1Zm1 1-2 1h-1l2-1h1Zm0-1Zm-3-8h1-1Zm0 5h1-1Zm1 2 1 1h-1v-1Zm-1-93v1h-1l1-1Zm-1 97v-1l1 1h-1Zm5 0 1 1-2 1-1-1-1 1-1-2h4Zm0-10h-3 2v-1h1v1Zm1-5-1-1h1v1Zm0-109v-1 1Zm6 80v-1 1Zm2 5-1-1 1 1Zm0-2h-1l1-1v1Zm12-23v1l-1-1h1Zm-3-8 1 2-1-1v-1Zm1 3 1-2v4h-2l1-2Zm-1 10h1l-1 1v-1Zm-1-5 1-1v2l-1-1Zm-1-4h1v1l-1-1Zm0 4h-1 1Zm-3 10 1-3 1-2h1l-1-1 1 1-1 1v2l-1 3v1h-1v-2Zm1 2-1 1 1-1Zm0 15-1-1v4l1-1v3l-1 1h-2v-3l1-3h-1v-1l1-1-1-1 1-1h-1l2-2v-1h1v2h1c1 2-1 3-1 5Zm3-13h1l-1 1 1 1h-1v1l-1 3h-1v-1h-1l-1-1h-1v-1l1-4h1v-2l1-1 1-4 1-1v-2 2l1 2 1 1-1 3-1 2v1Zm3 0h-2 2Zm0-6h1-1Zm0-5v-2 2Zm2-5h-1v-1l1-1 1 1-1 1Zm9-18v-2 2Zm7-93h-1l1-2v2Zm1-11v-2 2Zm-1-11v-1l-1 1-1-1h3l-1 1Zm3 65v-1 1Zm2 5v-2 2Zm-1-80v-2l1 2h-1Zm1 73 1 2-1-2Zm2-53-1 2-1-1v-1l2-2v2Zm2 5h-1v-1h1v1Zm2-1v-1 1Zm33 52v-1 1Zm4 3v1-1Zm1 4 1-1v1h-1Zm2 9-1-3 1 1v2Zm1-3v-1h1l-1 1Zm43 60v-1 1l1 1 1 2-2-2v-1Zm-1-1-1-1h-1l-1-2-1-1c2 0 4 2 4 4Zm-5-6-1-1 1 1Zm-20-33 1 2 2 2v2l-1-1h-2l1-1-1-2-1-1h-1v-4l2 3Zm-2 3s-1 0 0 0v-1 1Zm0-9v3l-2-4 2 1Zm-3-4 1 1-1 1v-1l-1-1h-1v-3l1 1 1 2Zm-1-16h-1 1Zm0 3-1-2 1 2Zm-1 14v1-1Zm0 3h1v1l-1-1Zm-1-23h-1l-1-1v-2l2 3Zm-1 17v1-2 1Zm-2-7 1 1-1 1v-2Zm-1 3 1 2-1-2Zm-2-7Zm-1 5-1-1 2-1v2l1 1v1l-2-2Zm1 6h1l-1 1v-1Zm2 2v2h-1l-1-3h1v-1l1 1v-1h2v2h-2Zm1 16h1-1Zm1-14v-1l1-1v3l-1-1Zm1 13 1 2-1-2Zm1 4Zm1-7v-3l-1-1 1-1v1l1 1v-3l1 1v4l1-1-1-1 1-1 1 1 1-1-1 1v3l-1 1 1 1h-2v-1h-1l-1-1Zm2 5h-1 1Zm0 13Zm0-6-1-3 1 1v2Zm7 11h-1v-2l-1-2v3l1 3v1l-3-4v-2l-1-3v-1h1l-1-1-1-2 1-1 2 2c-1 1 0 2 1 3l1 3 1 1 1 3-1-1Zm2 5h-1v-1c1-1 1 0 1 1Zm0-4 1 2h-1l-1-2h1Zm-1-3v-1l1 1h-1Zm2 13v-1l-1-1h1l1 1v2l-1-1Zm0-4 1 2-1-2Zm4 8h-1 1Zm2 4v-1l1 1h-1Zm1-1c0-1 0 0 0 0Zm1 1Zm2-3v-1l2 2v2l-2-1v-2Zm0 6 2 2-2-2Zm2-1-1-1v-1h1l1 2h-1Zm1 4 2 3c-1 0-2-1-2-3Zm1-9v1-1Zm1 5-1-1v-1l1 2Zm6-2-1-1h-2l-1-2v-1l-1-1-1-1v1l-1-1 2 2-1 1-1-1v-1l-1-1v-3l-2-2-1-3v4l-2-1 1 1h-1v1l-3-2v1l1 1v6l1 1-3-2v-1l-3-4v-1h1l-1-3h3v-4l1 1-2-4-1 1-1 1h-1l-1-1v-1h2v1l1-1 1-2v-2l-1-1h-1v2l-1 2-1-2-1 1v-3h-1v-4l-1-1v2l-1-1-2-1-1-1v-4l-2-3 1-1 1-1h1v2l2 1 1 1v2-2l-1-1-1-1h3l-1 1c1 1 1 2 2 1v-2l1 1 1 1v1l-2 1h1c0 2 0 3 2 3l-1 1-2-2v1l1 1 1 1v-1l1 1-2 1h2v-2l1 1h1l-2-3-1-2 1-1v-1l-1-1-1-1h2l1 1v4l2 2 1 2 2 3v1h1v3c2 1 2 3 4 3l-1 1 3 4v1h-2l1 2 1 1v1l1 1h1l1 2 1 1 2 2v2h1l1 2-1-1Zm2 3-1-1 1 1Zm14 3 2 1v1l-2-2Zm-39-58 1 1h-1v-1ZM502 701h-1v-1l1 1Zm-18 30 1 1h-2l1-1Zm145-244h1l-1 1v-1ZM511 685l2 1-2 2v-3Zm7-24v-1 1Zm-3 15h1-1Zm4-9v2-2Zm-2-1h1v1l-1-1Zm3-2c1 1 0 1-1 2l1-2Zm3-22 1-2-1 2Zm3 10v2l-1-2-1-1h1v1h1Zm80-30-1-3 1 3Zm-98 83-1 5v3l-1 1v1l-1-1 1-1v-8l1-1 1 1Zm16-61-1 1 1-1Zm-39 88h1-1Zm28-40v2-2Zm-1-1v3l-1 2h-1v3l-1 1-1 1c0 1 0 1 0 0l2 1h-2l-1 1v-3h1v-1l1-1-1-2 1-1h-1v-5l2 2 1-2v-1h1v2Zm2 5v-1 1Zm-22 26 1 1-1 2h-1l1-2v-1Zm18-38v-1 1Zm115-197 2-1-2 1Zm-93 134v-2l1-1v-1l1 1c0 1 0 0 0 0l-1 3h-1Zm73-3c-1 0-1 0 0 0 0 0 1 0 0 0Zm40 79h1-1Zm-18-70-1-1 1 1Zm-15 0-1-2 1 2Zm-83 6-1-1h1v1Zm0 4h-1l1-1v1Zm-1-2v-1h1l-1 1Zm12-33v1-1Zm4-24v3-3Zm-2 16 1 1-2 1h-1v-1l2-1Zm1-3v1h-1l-1 1v1c-1-1-1-3 1-5l1 2Zm37-412Zm-31-13h-1 1l1 1h-4 2l1-1Zm12 0 1-1 1 1-1 1-1-1Zm-9 0 1-1-1 1Zm5 0 2-1-2 1Zm-1 0h-1v-1l1 1Zm-2 14v1-1Zm-27 0v1-2 1Zm-5 1v1l-1-1h1Zm1-1h1-1Zm-1 0v1-1Zm36-1 1 1-1-1Zm-68 2Zm29 0v1-1Zm31-2v1-1Zm-22 1-1-1 1 1Zm5 0v1-1Zm23-2-1 1 1-1Zm-24 2Zm-4 1v1-1ZM503 52l1-1-1 1Zm-1 3 1-1v-1l-1 2Zm3-5h-1 1Zm-35 57Zm52-79h-1l1-1h1v1h-1Zm-53 81v-1 1Zm-2 2Zm1-1h1-1Zm38-63Zm35-20h-1l1-1v1Zm20 76v1h-1l1-1Zm-32-77v-1 1Zm-1 1 1-1-1 1Zm0 1Zm9-1-1 2 1-2Zm-13-2v-1 1Zm-52 80Zm51-77h1-1Zm3-2 1-2h1l-1 2h-1Zm-33 46v-1 1Zm0 0-2 3 1-2v-1h1Zm-3 4v-1h1l-1 1Zm12-20Zm-5 9 2-3-2 3Zm4-7v-1 1Zm-2 4v-1l2-3v1l-1 1-1 1v1Zm-10 16h-1l1-1-1 1h1Zm6-9 1-3h1-1l-1 2v1Zm9-8Zm-21 33v1-1Zm0-8Zm-8 15Zm-1 2-1-1h1v1Zm1-2 1-1v1h-1Zm1-2h-1 1l1-1-1-1 2-1 1-2 1-1v-1l2-2h1l-1-1 4-4 1-2 1-2 2-2 2-2 1-2v-1l2-2 1-2 1-1 2-5 2-2 1-3 2-3 1-1 2-5 2-5 1-2v-1l1-3h1l2-5 1-2 1-4 2-1-1 1-1 5-1 2v1c-1 1-2 1-1 2v1h-1v1l-1 2-2 3v2l-1 2-2 4v1l-2 4-1 2-1 2-2 3v1l-1 1v1l-2 2-2 4-2 2c1 0 1 0 0 0v1l-1 1-1 1-1 1v1l-2 3-1 1-1 1-2 3-2 3h-1l-1 1v1l-2 2-1 1-1 2h-1Zm-4 5h1v-1 1h-1Zm20-23Zm2-10v-2 2Zm65 32h1-1Zm-5 7 1-1-1 1Zm4-4-1 1-1 1-1 1 2-4 1 1Zm33-76h-1 1Zm35 24v-8l1-7v-6c0-1 0-3-2-4l-3-3-2-3v-1l-2-2-1-1h-5a29 29 0 0 0-1-1h-3v1l-1-1h-1v1l-1-1-2 1-1 1v1c-2-1-1-2-2-3v1l-2 2-1 1v2h-1l-1 2v1l-1 1-2 4-1 1-1 2-1 2v1h-1v2l-1 1-1 1a59 59 0 0 0-2 5l-2 4-2 4-3 5-4 7-1 1-2 4-3 5-4 5-4 5-3 4v1l-1 1v1l-2 2-1 2v-3l2-3 4-4 1-2 2-3 1-1 1-2h1v-2l4-6 5-8 1-2 1-1 1-2 1-2 2-4 2-4a1 1 0 0 0-1 1l-1 2-2 5-2 3-2 4-4 6-1 2-3 4-2 3-2 2-1 1-1 2-1 2-2 3-2 3-2 1v-1l1-2v-7l1-1v-7l1-1-1-7V42l-2-6-2-3-3-4-2-3-1-1-1-2-2-2h-1 1l-1 1v1l1 1 2 1-1 1h1l-1 1v1h1v2h-1l1 1-3-1 2-2-2 1h-1v-1l-1 1v-1l1-1-2 2-1 1-1-1h-1l-1 2-1 2-1-1h-1v1h-1 1l-1 2-1-1h1v-2l1-1 1-1v-1l1 1v2-1l2-2-1-1v-1h-1v-1h-1v1-1h-1v2h-1v2h-2l-1 1 1 1 1-1v2l-1 1v-1l-1-1v-1h-1v2l-1-1 1-1v-2l-1-1v2h-1l-1 1-1-2h-1l-1 1-1 3-2 4-1 2-1 2-1 2-2 3v2l-1 2v1l-1 1v1l-2 3-1 3-1 2-1 2-1 1v1l-1 1-1 2v1l-2 2v1h-1 1l-1 1-1 1v1l-2 2v2l-3 3v1l-1 2h-1c-1 0 0 0 0 0v1h-1v2h-1l-1 1v2l-1 1-1 1v1l-2 2v-1 1h-1v2l-2 2h-1v2l-1 1-1 2-1 1-1 1c0 2-2 2-2 3l-4 5a152 152 0 0 1-6-14v3l-1 1v-3l-1-2v-5l-1-4-3-18v-1l-1-2-1-1v-3l-1-2v-1 3h1v4l1 3-1-1v-2h-1v-1l-1-1v-1 1l-1 1-1-3v-2l-1-1v-3l-1-1v-2s-1 0 0 0l-1-1 1-1h-1v-1l-1-1-1-2v-4h-1v-1l-1-1v-3l-1-1v-1l-1-2v-2l-1-3h-1v-1l-1-2-1-3v-1l-1-1-1-1v-3l-2-1v-1l-1-1v-1l-1-1v1l-1-1v-1h1l2 1 1 1v1h1v-1h-1v-2l-1-1-2-1 1 1h1l-1-1h-7l-1-1-2-1h-3l-2-1h-1l-2-1h-2l-1 1-2-1h-1l2 1h-1l-1 1-1 2v-1h1v3l1-2h1l1-1-1 1h2l-1 2h-1v2h1l-1-1 2-1 1-1-1 2-1 1v2-1h1v-1l1-1 1-1-2 5 1-1 1-2 1-1v1l-1 1v1l1 1-1 1v-1l-1 1h1-1l-1 1-1 2h1l-1 1h-1l-1 1-1-1 1 1h-1l-1-1v1l-1 1 1-1v1h1-1l-1 1v1-1h1v1h-1s0 1 0 0l-1 1h1-1v1h-1 1v1h-1v1c1 0 1 0 0 0l1 1h-1v3l-1 1v2h1v1l-1-1v2h1l-1 1-1 1h2-1l1-1v2h-1 1l-1 1h1l-1 1h1l-1 2v7h-1v6l-1 2v2l-1 2v4l-1 2v4l-1 2v3h1v3l-2 9v5l-1 1v4l-1 2s1 0 0 0v5l-1 6-1-1 1-3v-6l1-1v-6l1-3v-2 1l-1 1v4l-1 1v5l-1 2v3l-1 2v2h-1v-1h1l-1-2 1-1v-10 2l-1 1 1 1h-1v-1h-1v1l-1 1v3l-1 2v2l-1 1v5l-1 2v3l-1 1v4l-1 2-1 1h-1l-1 1 1-1h-1v1l-1 2-1 2v1l3 1 2-1 2 1v1h1v1l-1 1v3s-1 0 0 0v1l-1 1v1h-3v-1h-1v1h-1l-1 2h-1v2l2-1h1v3h1l1-1 2-1 1 1h1v-1l2-2 2-2 2-2 2-2 1-1 4-4 1-1 1-2 2-4h1l1-2v-1l-1-1h-1l1-1-1-1v-3l1-1v-1 1-2h1v-3 1-8l1-2v-1 1-5h-1v-1l1-1-1-1v-2 1-2h1-1v-1l1-1v-3l-1 1 1-1 1-1v-1h-1v1-4l-1 1v4l-1 1v5h-2v-1l1-1v-2h1v-1h-1l1-3-1-1h-1l1-1 1-1v-1h-1 1v-2l-1-1v-1l1-1v3l1-4h-2v5l-1 2v4l-1 1v2l1 1-1 1v2h-1v1l1-1v2h-1v4l-1 1v3l-1 3h-1l1-2v-4l1-3v-5l1-3v-7l1-2v-5l1-2v-5l1-1v-4l1-2v-1l1-2v-2l1-1v-3h1l-1 2v6l-1 3v5l-1 2v4l1 1v-8h2v-2h-1v-3l1-4v-4l1-4 1 2v1l-1 1v9h-1v6h-1v1l1 1v2l-1 1v4l-1 1 1 1-1 1v1h1v-2l1 1v-2l1-1h-1l1-2h-1v-2h1v1-3 1-3l1-2-1-1 1-1v-4l1-2-1 1v-1h1v-1l-1-1h1v-1l1-4v-4l1-2v-1l1-1v-4h1l-1 1v6-1l1-2v-2l1-1v-3l1-2v-2l1-3h1v1l1-1-1 1 1 1v1h1l-1 1 1-1v1h1l-1 1v1h1l-1 1h1v2h1l-1 1h1v1l1 1v-1 1h-1l1 1 1 1h1-1l-2 1 1 1v2h2l-1 1 1 2h-1l1 1h-1l1 1 1 1 1 2v1l1 2v2l1 3v3l1 3 1 4v1l1 3v2h1l-1 1 1 1v4l1 3v1l-1 1-1 1v1h1v9l1 1h-1v1h1v4l1 2v3h1v2h1v3l1 2v-1l1 1-1-1h1v-2l-1-1v-3l-1-3v-4l-1-1v-8l-1-3v-5l-1-2v-6l-1-1v-5h-1v-5l-1-1v-2l-1-4v-2l-1-2v-1l1 2 1 4 1 1v-1l1 1v5h1s-1 0 0 0v6h1v4l1 1v6l1 1-1 1v1h1v4h1v10s1 0 0 0l1 3v5l1 1v4l1 1v2l-1 1-2 1h4v3l1 1h1v1l1 2h-2l-3 1-1 1v2l-2 1h3l2-1h3l2 1v1l-1 2 1 1h3l2-1h1v1h1l2-1 3-2 1-1 3-2 3-1 3-1 3-1 2-1c2 0 3-1 3-2l1-2v-1h1l1-2-1-1h1l1-1 2-2 1-1 1-3h2v1c-2 0-2 1-2 2s0 1 0 0l1-2 2-1v-1h1l-1-1s0 1 0 0l1-1v-1l1 1-2 1h1v-1h2v-1l1-1v-1 1l1-3h1v-1l-1-1h1l1 1v-1l2-1 1-2v-3l1 1 1-1v-1l1-1v-1l2-1 2-2 1-2 1-1 1-2 1-1 1-2h1l1-1 2-3 1-1 1-2 1-2 1-1 1-1 1-2 1-2 2-3 2-2 1-2h1v2l-1 3-1 3v5l-1 4-1 4v15l-1 4v9l1 2v1l2 5 1 1h1l2 1h2l1 1h2l1 1 1 2h1l2-1 3-2a42 42 0 0 1 7-1h3l4-2 1-2a43 43 0 0 1 6-8l2-3 1-1 2-2 3-5 4-5 2-1v-1l1-2 1-1 2-2 1-1 1-2 2-2 2-3 1-1 3-4v-1l1-2 3-4 2-3v-1l2-3h1v2l-1 2v4l-1 1v2l-1 1v5l-1 5-1 3-1 4-1 3v3l-1 3-1 3v2l-1 1v3l-1 3v3l-1 5-2 8-1 6v22h1v1h-3v1h-2v1h-6l-2 1v1h-2v-1h-6a1 1 0 0 0 1 0h4v1h8l-3 1h-8l-2 1h-12a64 64 0 0 1-8 0h-2l-3-1h4l-1-1-2-1h-1 1v-1h-13l-1-1h-6l-3-1 1-1 2-1h-10l-12-2h-1l-2 1-1-1h-1l-2-1h-5l-2-1h-13l-1-1h-16l-4-1h-2l-2-1h-18l-4 1-3 1h-2l-2 2-2 3-1 1-1 2-2 2v4h-1v2l-1 2v1l1 2v2l1 2 3 3h1l1 1 2 2h20l2 1h17l2 1 2-1h1l2 1h10l2-1 2 1h3l3-1h13l10 1h2l2-1h1l1 1 1-1 1 1h4l2-1h8l1-1v1h1c0-1 0-1 0 0h1l1-1 1 1h1l2-1h17l1-1c0 1 0 1 0 0h45l1 1c0-1 0 0 0 0l1-1 1-1h2l1-3v-2l1-1v-2l1-1v-2l1-2v-5l1-1-1-2v-1h1v-1h1v-2l1-4v-5l1-5 1-6-1-2 1-1v-5l1-2v-6l1-3v-11l1-4v-7l1-6v-5l1-2v-4l1-3v-3l1-3v-3l1-4v-3l1-8ZM413 10V9l1 1h-1Zm3 5h-1l1-1v1Zm-29 134h1-1Zm5-39h-1l1-1v1Zm0-1v-1h1l-1 1Zm5-3h1l-1 1v-1Zm1 2v-1 1Zm8 7h-1l1-2v2Zm0-3Zm0-1v-1 1Zm2-5-1 1v-1h1Zm-1 1v3l-1-1v-1l1-1Zm0-5Zm-1 4v1-1Zm-2-2v4h-1l1-5h1l-1 1Zm0-3 1-1v2c-1 0 0 0 0 0l-1 1v-2Zm-1 11s1 0 0 0Zm-4-10v-4h1v2l-1 1v1Zm2-12v4l-1 2v1h-1l1-1h-1l1-5v-1h1v-2 2Zm4-53v1-1Zm0 2h1-1Zm0 5v-1 1Zm0 1h1-1Zm2-15a1 1 0 0 1 1 0h-1Zm2-3Zm2 26v2l-1 2v-2l1-2v-1 1Zm0 20-1 1 1-1Zm18-23v1h-1v-2l1 1Zm-1 5v1h-1v-1h1Zm-5-31h-1 1Zm-1 6 1 2v-1h-1v-1Zm-3 6Zm0 1h1l-1 1v-1Zm2 2-1-1h-1l1-1v1h-1 2v1Zm2 0h-1v-1l-1-2-1-3v-2h1v1l1 3v1l1 2v1Zm0 1v-1 1Zm1 0v1h-1l1-1Zm-1 2h1v1l-1-1Zm1-3v-2l-1-1v-1h1-1v-2l-1-1h1c-1 0-1 0 0 0h1v2c0-1 0-1 0 0v1-1 1h1l-1 1h1v3l1 1h-1l1 1 1 1v2h1l-1 1v1l1 1v1h1l-1 1v-1l-1-1v-1l-1-2v-2h-1v-3h-1Zm0 6h1-1Zm1 2h1v1l-1-1Zm1 3Zm0-1h1-1Zm0 3v-1h1l1 1h-1v1l-1-1Zm1 6h1-1Zm2-5v-1l1 1h-1Zm1 0Zm0 1v1-1Zm0 3v-2l1 2h-1Zm10 68h-1 1Zm-8-63Zm8 21Zm47 16v1h-1l1-1Zm-4 5 1-1 1-1v1l-1 1h-1Zm-1 2v1-1Zm-1 1Zm-2 1v1l2-1c-1 0 0 0 0 0l-2 2-1-1 1-1Zm0 3-1 1 1-1Zm-3 3c1 0 0 0 0 0Zm-3 9Zm-23 12h-1v2l-1-1v-1l1-1h-1v-1h-1l3-1h-1l1-1h-2 6v1h1v2l1 1-1 1-3 1v-1l1-1h1l-1-1-1 1-2 1v-1Zm1-7h1-1Zm6 5h1-1Zm0-1v1-1Zm-1 1c0-1 0-1 0 0Zm1 0-1 1v-1h1Zm-5-6Zm-4-2h1-1Zm0 6h-1 1Zm-1 0h1-1Zm7-54Zm0-1v-1 1Zm-2-6 1-1v1h1v2l-1 1v-2l-1-1Zm-6 67v-1 1Zm33-5 1-1-1 1Zm3-7Zm2 2-1-1v-1h1v2Zm0-4 1-1-1 1Zm1 2v-1 1Zm0-3v-1 1Zm1-15Zm2-2-1 1v-2h-1v1h-1l-2 2-1 2 1 1h1l-2 2v1l-1 2-2 1c0 2-1 2-2 3l-2 3-1 1-1-1 1-1 1-2 1-2 1-1 1-1h1v1l1-1v-1l-1 1h-1l1-1v-1a341 341 0 0 1-3 4h-1l-1 2h-1v1l-1 1-1-1 1-1 1-1v-1l1-1 1-1h1l-1 2 1-1 1-2v-1 1l1-2-1 1 3-3 1-1 1-2 1-1 2-2 2-3 2-4h1l-2 3-1 2-1 1 1 1h1v1Zm1-2h-1l1-1h1v-1h1l-1 1-1 1Zm0 14Zm-1 4 1-1-1 1Zm1 1v-1 1Zm3-28Zm1 3Zm1-5-1 1 1-1Zm2-4h1-1v1-1Zm-2 3 1-1-1 1Zm1 24-1 1-1-1 1-1 1-1v2Zm0-2c1 0 0 0 0 0Zm1-3h1-1Zm1 1h-1 1Zm2-27h1-1Zm2 21Zm22-72Zm-3-1h-1 1Zm0 0Zm1 1-1-1 1-1v2Zm1 1h-1 1Zm0-2h1-1Zm1 5h-1 1Zm0-2h1-1Zm1-1Zm1 3-1-1 1 1Zm0-3Zm1-1Zm0 3v-1l1 1h-1Zm5-2v-1 1Zm3 2Zm1-2v-1 1Zm9 2 1 3h-1v-3Zm-3 18v4l-1 2v5h-1v-5l1-3v-6l-1-1h1v-2h-1 1l-1-2v-2l1-1v-1l1-2 1 4v4l-1 3v3Zm1-10v-1l-1-4h1v5Zm1-4-1-2v-1l1 2v2a121 121 0 0 1 0 4v-5Zm0 11v-5l1 2v3h-1Zm2-9v-2 2Zm0-4v-1 1h1-1Zm0 5Zm2-4v1h-1l1-1Zm0 2v-1 1Zm19 45Zm0 1h-1 1Zm-1 0v1l-1 1-2 2 2-2v-1l1-1Zm-14 16 2-3 2-2v-1l1-2 2-2 2-3 1-1 2-3 1-1 1-1-1 1-1 2-2 2-1 2v1l-1 1-2 3-1 1-1 2-3 4v1l-1 1v-2Zm10-11v2-2l1-1v1h-1Zm-1 2Zm-10 16v-3l4-4 2-3 3-4 1-1v1h-1v1l-1 1-1 1v1l2-2 1-1 1-2h1v-1l1-1-1 1v1l-1 1-2 3-1 1-1 2-1 2-3 3-1 1-1 2h-1Zm1 3s-1 1 0 0Zm10 8v-1 1Zm1-5-1 1v-1h1Zm1-13-1 2h-1l-1 1-1 1v1-2a45 45 0 0 0-4 5l2-2 1-1 1 1-2 2-2 1v-1l-1 1-1 1-1 1 1-2 1-1h-1l-1 1h-1 1v-1l1-2 2-1v-1l2-2 1-2 1-1 1-1v-1l3-4 3-3v1l-3 3-1 2v1h1v-1l1-1v1l-1 1-1 1v1l-1 1 3-2-1 2Zm2-3h-1 1Zm-2 15 1-2-1 2Zm1 0v-1h1l-1 1Zm1-1v-1 1Zm1-21v-1l1-2h1l-2 3Zm0 21v-1 1Zm1-1 1-1a3 3 0 0 1-1 1Zm1-23 1-2h1l-2 2Zm4-5-2 2v-1l2-2v1Zm0-1v-1 1Zm1-1v-1 1Zm-2 24h1-1Zm3-25h-1l1-1v1Zm0-1Zm0-1h1-1Zm17-42Zm7-14Zm2-4Zm1 14c0 1 0 0 0 0Zm1-12h1-1Zm1-1v-1 1ZM434 180v-1 1Zm6 0h1-1Zm2-1Zm8 1h1-1Zm3 1h-2 2Zm-1-1h1-1Zm5 1-1-1h1l1 1h-1Zm3-1v-1h1v1h-1Zm1 2v-1h1l-1 1Zm2 0v-1 1Zm0-1h1-1Zm2 1-1-1h1v1Zm2-1v1-1Zm0 0 1-1-1 1Zm3-1-1 1 1-1Zm-2 1h1v1l-1-1Zm1 0h1-1Zm5 0h-1v1h-2v-1l1 1v-1h2Zm1-1h-1 1Zm-1 2 1-1-1 1Zm3 0-1-1 1 1Zm2-1h-1v1h-1v-2 1h2l-1-1 1 1v1-1Zm1-2Zm1 3-1-1h1v1Zm0-2h1-1Zm1 0v-1h1l-1 1Zm5-1v1-1Zm-2 2Zm2 1v-1l-1 1h-1l1-2v1-1l1 1v1Zm5-2h-1v-1l1 1Zm0 1h-1 1Zm-2-2v2-2Zm-1 0-1 1 1-1Zm2 3h-3v-1l1-1v1l1-1v1h2v1h-1Zm94-4h-1 1Zm-2 0Zm-8-1h-1 1Zm-9-1v1-1Zm0 2h-1 1Zm-1-1-1 1 1-1Zm-5 1v1h1-1v-1Zm-1-1-1 1 1-1Zm-7-4h-1 1Zm-3 5Zm-2-8Zm-4-1h1-1Zm0 9h-1 1Zm-1-4v1h-1l1-1Zm-2-3h-1 1Zm-1 0v-1 1Zm-1 8h-1 1Zm-1-9h1l-1 1v-1Zm-2 8h-1 1Zm-2-7Zm-2 7Zm-6 1v-1 1Zm-3 1h-1 1Zm-3-1v1h-1l1-1Zm-5 1-1-1 1 1Zm-15-1h1v1h-2l1-1Zm-1 1-1-1 1 1Zm0 0h-1 1Zm-3 0Zm-2 2-1-1h1v-1h-1v-1l1 1v2Zm1-1-1-1 1 1Zm17 2-10-1h-2v-1l-1 1h-3l-1-1h1l1-1v-1h1v1h-1v1h-1l1 1 1-1h1l1-1v1l1-1v1l11 1-10-2v-1l10 2 1 1-1 1Zm-10-3Zm11 1v-1 1Zm2 2-1-1v1l-1-1h1v-1l1 1v1Zm0-3 1-1h2l1 1-1-1-1 1v-1l-1 1-1 1v-1Zm0 2h1-1Zm1 1v-1l1 1h-1Zm32-2 1 1-1-1Zm4 1h1-1Zm3 0Zm1-1h1-1Zm6-1h-2l-1 1v-1 1h-2v-1l-1 1h-3v1-1h-2 1-2l-1 1v-1h-2v1l-1-1-2 1v-1l-1 1v-1 1l-1-1v1l-2-1 1 1h-2l-1-1-1 1h-1l-1-1v1h-2l-1 1-1-2v1h-3v-1l-2 1h-1v-1l-1 1-1 1v-1l-1 1-1-1-1 1v-1h-2v1l-1-1-1-1v-1l1 1h2l-1-1h1v1l1-1 1-1v1l-1 1 1 1 1-1 1-1-1 1 1-1h1-1v-1h2l1 1h-1v1h1v-1l1-1h9l1-1v1h6l2-1v1h2v-1h3-1l1 1 1-1 1 1 1-1 1 1h2-1v-1h-1 2v1-1h2l1 1 1-1-1 1 2-1v2h1Zm-41 1s0-1 0 0Zm43-2h-2v-1h1l2 1h-1Zm21 1h-1v-1l-1 1c0 1 0 0 0 0h-2v1h-1v-2 1l-1 1h-2l-2-1h-10v-2 1l1-1v1l1-2 1 1v1l1-1h1v-1l1 1v-1l1 1h2v-1h1v1h2-1 1l1-1-1 1h2v-1 1l1 1v-1 1l1-1h1v1l1 1v-2l1 1h1v-1 1h-1l1 1c1 0 1 0 0 0Zm1-1v1-1Zm0 1h1-1Zm1 0v-1 1Zm31-126 1 1-1 1v-2Zm2-17Zm-1-2v2l1 2v-1 6l-1 4v3l-1 2v-3l1-3-1 1v1a14 14 0 0 1 0-4v-1l1-3-1-2 1-2v-2Zm-1 6v1h-1l1-1Zm-6 27Zm4-17h-1l1-1v1Zm0-11 1 3v1l-1 2v-6Zm0 6v1-1Zm0 1v3-3Zm-1 8v-4h1v1l-1 4v1l-1 2v5l-1 1v-3c1 0 0 0 0 0l1-2h-1l1-1v-3l1-1Zm0-13v4l-1 3v7l-1 2v1l-1 2v3s-1 0 0 0l-1 2v1h-1l-1-1h1V51l1-1v-2l1-3 2-3h1Zm-1-17h1v1l-1-1Zm0-2-1 2h-1l2-2Zm-2 1Zm-2 0h2l-1 1-1-1ZM483 130h-1l2-3h1v1l-1 1-1 1Zm42-101v-1l1-1h1l-1 1-1 1Zm6 2v-1 1Zm28 74c1 0 1 0 0 0Zm49-87ZM486 126Zm74-24 1-2h1l-2 2Zm-83 15h1-1Zm-4 1v1-1Zm3 0v-1l1 1h-1Zm-2 0v-1 1Zm8-6-1 1-1 1 1-2v-1l-1 2h-1v-1l1-1 2-1-1 1 2-1v1l-1 1Zm74-9c-1-1 0-2 1-3v1l-1 2Zm-3 4-1 1-1 1 1-3h1v1Zm1-2Zm1-1v-1 1Zm5 0Zm25-63v-1l1-1-1 2Zm1-3 1-1-1 1Zm1-1v-1 1Zm-3 6 1-1-1 1Zm-2 4v1-1Zm-1 2v-1h1l-1 1Zm1-3 1-1v1h-1Zm1 0v-2 2ZM404 29l-1 5 1-5Zm2-7v-2l1-3h1l1-2v1l-1 1-1 2-1 3Zm4 72v2l-1 2v-5l1-1v2Zm5-38-1 2v2-3l1-1Zm-3 19v4l-1 3v-5l1-3v-1 2Zm-3 26v3l-1 1v-2l1-3v1Zm-29 35h-2 1v2l-1-1h1-1v-1l1-1h1-2l1-2-1 1v2l-1 1 1 1h-1l1 1v-1l-1 1h-1l1-1h-1l-1 1v3l1 1 2-3 1-1v-1l1-2Zm-2 4v-1l-1 1h-1l1 1h-1 1v1h-2v-1h1l-1-1h1l2-1v1Zm1-11a8 8 0 0 0 0 1h1v-1h1v-6l1-3v-3h-1 1v-1l-1 1v1-1l1 1h-1v1h-1v7h1l-2 1v2Zm2-10Zm-1 4h1-1Zm0 4v1-1Zm17-38 1-2v-1 3h1l-1 2v-2h-1Zm45 45v1-1Zm10-72Zm-1 2v-1 1Zm-13-41h1-1Zm1-5v-1 1Zm-2-4v1-1Zm-1 5Zm-28 93v1-1Zm1-6v-1 1Zm0 1v-1 1Zm3-26Zm-1 2v-1 1Zm2-14Zm-4 22s-1 0 0 0Zm-4-1h1-1Zm5-66h1-1Zm0 1Zm-13 70v1-1Zm4-32v-1 1Zm2-20 1-1-1 1Zm-9 54v-1 1Zm0-4h1-1Zm1-3Zm1-7Zm-4 16v-1 1Zm12-78h1l-1 1v-1Zm-19 96v1-1Zm-6 20v1h-1l1-1Zm3-23Z"/><defs><linearGradient id="a" x1="211.2" x2="799.5" y1="789.4" y2="201.1" gradientUnits="userSpaceOnUse"><stop stop-color="#2FB5C5"/><stop offset=".2" stop-color="#36ABCA"/><stop offset=".5" stop-color="#4C92DA"/><stop offset=".8" stop-color="#6E69F3"/><stop offset="1" stop-color="#7E57FF"/></linearGradient></defs></svg>