<svg xmlns="http://www.w3.org/2000/svg" width="589" height="703" fill="none"><g fill="#fff" clip-path="url(#a)"><path d="M521.2 221.4h-33.8V169H415l-62-62H236.2l-62 62h-72.7v52.4H67.8s-50.7 229 151.6 431.3V672s23.3 30.2 75.1 30.2 75.1-30.2 75.1-30.2v-19.3C572 450.5 521.2 221.4 521.2 221.4m-91.8 78.7 30.2 60a12.2 12.2 0 0 1 .3 11l-63 133.4s-4.5 8.6-14.3 17.1l-.3.3a73.1 73.1 0 0 1-2 1.6L363.2 538a4.9 4.9 0 0 1-3.3 1.2l-23-.6a86.5 86.5 0 0 1-15.7 10l-23.3-3.1-2.4-7.3c-21.8-10-36.3-27-41.9-34.5-.5-.6.3-1.5 1-1a68.4 68.4 0 0 0 28 13c-1.5-7-1.5-16.1 1.8-28l2.8 5.8s.8 29.8 17 42.3c9.3 4 16 2 19.6 0-21-8.2-8.6-24.8-8.6-24.8l64-88.8c1.1-1.3 3.1 0 2.4 1.6l-19.4 40.5-12 12s-18.2 21.5-26.1 35c-2.5 6.3-3 11.8 1.4 14 9.9 5.2 23 7 32.6-.9l24.2-51.6.2-.5.3-.6v.1a25.6 25.6 0 0 1 9.2-10.2c.7-.5 1.5.2 1.2 1-3.7 9.8-22 51.3-12.4 46.4 21.6-26.6 71.7-141.2 71.7-141.2L427 309.1s-.8-3.3-5.3-2.2c-4.6 1-4.8.5-4.8.5l-1.3-3 8.2-1.5c-6.8-1.7-19-4-35.3-4.1-5.6-.4-7.6 1.4-8 3.5l21 1.4.6 3.2-12.3.5-9.4 2.5-4.4-2.4s-1.4 1.4-1.6 4.3h31.2l-1.2 5-17.2.6-7.5 3.7-6.2-5s-7.8 3.5-1.6 11.3l32.4-6 .4 4-13.2 1.6-12.8 7.9-5.8-4.4s-3.4 2.2-.2 17.4c2.5 7.6 2.1 7 9.3 8 7.2 1 7.2 0 6.6-3-.7-3 1.4-6-6.2-7L380 343l28-5.3-2 2.3s-5.2 1.8-8.9 5.7l6.2 8c.4.5-.1 1-.7.8l-8.5-4c-.9 2.4-1 5.4.5 9 5.5 13.7 10.3 23.4 16.8 17.5 6.6-5.9 6.3-8.6 6.3-8.6l4.2 6.2-30 31.8 11-20-1.4-1.8-77.4 88.1c-.6.8-1.9 0-1.4-1l10.9-21.8-19.4 7.7-23.2 25-3.9-1 24.5-33.5 29-12.2 55.8-58.3-8.8-12-18.7-4.7s-8.8-21-6.2-31.8l2.8-.5-4-10.9 6.1-4.7-2.4-5 8.3-6.2h1l3.9-9.2s35.6-5.3 51 7.5m-8-64.3a4.3 4.3 0 1 1 8.6 0 4.3 4.3 0 0 1-8.6 0ZM300.4 620.3a7 7 0 0 0 3.5 2.1c1.5.5 3.4.7 5.6.7 1.8 0 3.3-.2 4.6-.5a7 7 0 0 0 2.8-1.3 5 5 0 0 0 1.5-2h6a8 8 0 0 1-2 4.7 10.8 10.8 0 0 1-5 3 33.6 33.6 0 0 1-14.7.4c-2-.5-3.7-1.2-5.1-2a9.2 9.2 0 0 1-4.5-8.6c0-2 .4-3.7 1.1-5a9.5 9.5 0 0 1 3.4-3.6c1.4-.9 3.1-1.6 5.1-2a32 32 0 0 1 14.8.4c2.1.7 3.8 1.7 5 3 1.1 1.4 1.8 3 2 4.9h-6.1a4.8 4.8 0 0 0-1.5-2.2 7 7 0 0 0-2.8-1.5c-1.2-.3-2.8-.5-4.6-.5-2.2 0-4 .3-5.6.7-1.5.5-2.7 1.2-3.5 2.2s-1.1 2.2-1.1 3.6c0 1.5.4 2.6 1.1 3.6m-13-5v4.3h-16.3v7.7h-6v-21.3h26v4.7h-20v4.6h16.4Zm7.1 28.7a4 4 0 0 1 4 4 4 4 0 1 1-4-4Zm-43.2-150.8-15-17.9s2-.3 7.3-2.7l16.2 16.1a203.8 203.8 0 0 1-8.5 4.5m58 35-9.2-1.4 8.2-10.4s-2.4 5.9 1 11.8Zm82.7-86.6 16.8-45.8 6.3-1.2-15.5 44-7.6 3Zm22.4-116.2s8.7-1.6 11.8 0c0 0 3.2 5.4 2.7 10.7h-2.8s-1.6-6.3-3.4-7.2c-1-.6-8.4-.7-8.4-.7v-2.8Zm-.5-8.2v-2.7s9.2-2.7 12.3-1.1c0 0 3.6 5.3 3.2 10.6h-2.8s-2.4-6-4.5-6.6c-1.1-.4-8.2-.2-8.2-.2m15.5 35.4 3.5-2.5 5.9 12.4-3.4 2.3-6-12.2ZM343.6 220a4 4 0 0 1 4-4 4 4 0 1 1-4 4Zm62.9-8a4.3 4.3 0 1 1 0 8.7 4.3 4.3 0 0 1 0-8.7Zm0 19.5c2.4 0 4.3 2 4.3 4.3a4.3 4.3 0 0 1-8.6 0 4.3 4.3 0 0 1 4.3-4.3ZM245 128.5h98.8l55 55.2-6.9 6.9-52.2-52.2h-90.6l-52.3 52.2-6.9-7 55-55Zm76 73-17.2 9.4-9.4 34.7-9.4-34.7-17.1-9.4 17.1-9.4 9.4-23 9.4 23 17.1 9.4ZM245.3 220a4 4 0 0 1-4 4 4 4 0 0 1-4-4 4 4 0 0 1 4-4 4 4 0 0 1 4 4Zm-62.9-8a4.3 4.3 0 1 1 0 8.6 4.3 4.3 0 0 1 0-8.6Zm0 19.5a4.3 4.3 0 1 1 0 8.6 4.3 4.3 0 0 1 0-8.6Zm-7.8 55 1-.4a87.4 87.4 0 0 1 3.2-1.3l.8-.3a77.2 77.2 0 0 1 2.6-1l1.3-.3 1.3-.4a79 79 0 0 1 53 3.3l.3.2.7.3a71.1 71.1 0 0 1 2.5 1.1l.8.4 3 1.6.4.2 2.5 1.5.8.5a86.8 86.8 0 0 1 2.7 1.8l.2.1a80.5 80.5 0 0 1 2.7 2l.8.6a79.3 79.3 0 0 1 2.2 1.8l.5.5a83 83 0 0 1 3.2 2.9l2 1.9.6.7a73.7 73.7 0 0 1 2.3 2.5l.5.6a74.6 74.6 0 0 1 4.6 5.8v.1a90.5 90.5 0 0 1 2.3 3.4l.6 1a86.1 86.1 0 0 1 1.5 2.6l.3.4a78.4 78.4 0 0 1 9.4 31.7l18.7 61.2c.4-2.7.6-10 1-11 0 0 9.8 9.6 9.8 28.8 0 0-1.1 6.6-2.9 8.4l1.2 3.8-30.8-62.7-.4 1.2-.5 1.6a45.7 45.7 0 0 1-.6 1.6l-.5 1.6a51.2 51.2 0 0 1-.7 1.6l-.6 1.4-.7 1.7-.6 1.4a56.4 56.4 0 0 1-1 1.7l-.6 1.2-1 2-.6 1a65.2 65.2 0 0 1-1.3 2l-.5.8a67.7 67.7 0 0 1-1.6 2.3c0 .2-.2.3-.3.5a77.7 77.7 0 0 1-4.3 5.4 72.2 72.2 0 0 1-2.5 2.8l14.5 34.6-23.8-39.4 3-3a68 68 0 0 0 3.8-4.7l-5.7-22.1 14-9 5.5-16.4a68.3 68.3 0 0 0-10.3-30.7l-22.8-2.4-4.6-22.4a68.9 68.9 0 0 0-53.7-3.4l-7 20.2 13.2 18.7-2 1.4-13.1-18.7-16.4-.3-13.9 13.9a69.1 69.1 0 0 0-6.2 38l19.6 12-4.6 19.3 2.2 6.3a68.4 68.4 0 0 0 35.4 21l16.7-13.4-.7-17.5h2.4l.7 17.4L228 424a68.4 68.4 0 0 0 13.4-6l7.9 7a78.6 78.6 0 0 1-13.4 6.8l20 34.8a127.3 127.3 0 0 0 10.1-6.8l-4.1-9.6 8.3 6.4a140.8 140.8 0 0 0 7.5-6.5l4.3 3.8-2.8-5.2c6.2-5.9 12.4-12.9 18-21l10.5 18.8a161 161 0 0 1-41.3 38.4l7.4 12.8-13.2-16.2-9.7-12-27.4-33.9-.7.2h-.2l-1 .2-.7.2h-.6l-.6.1a20.3 20.3 0 0 1-2.1.4h-.3l-1.1.2-1.3.1a71.4 71.4 0 0 1-5.7.4l-2.4-1.7-12.4-8.8 5.8 8 68.5 95.6-29.2-29.5-4.3 29.5-19-.4 18.6-33.8-4.4-4.5-17.8 22.3-12.4-17.6 26.6-8.3-62.6-63.2a78.1 78.1 0 0 1-16.3-14l-.5-.6a84 84 0 0 1-1.8-2.2l-1-1a63.9 63.9 0 0 1-2-2.8c0-.2-.2-.3-.3-.5a81.5 81.5 0 0 1-2.1-3.1 31.6 31.6 0 0 0-.4-.6 73.6 73.6 0 0 1-1.8-3v-.2a77.8 77.8 0 0 1-1.8-3.2l-.3-.6a68 68 0 0 1-1.3-2.9l-.2-.5a78 78 0 0 1-1.4-3.3l-.2-.6a84.3 84.3 0 0 1-1-2.8l-.2-.7a86.5 86.5 0 0 1-1-3.3l-.1-.6a80.4 80.4 0 0 1-.7-2.7l-.2-1a73.1 73.1 0 0 1-.6-3l-.1-.8a81 81 0 0 1-.5-4l-.2-2.2a79 79 0 0 1 14.7-52.4l.8-1 .9-1.3a90.8 90.8 0 0 1 1.6-2l.6-.7a75 75 0 0 1 2.4-2.6l.8-.9 1.7-1.7 1-1a78.6 78.6 0 0 1 1.8-1.6l1-.9a72.6 72.6 0 0 1 2-1.6l1-.7a77.4 77.4 0 0 1 3-2.3 81.5 81.5 0 0 1 3-2l1-.6a94.8 94.8 0 0 1 2.3-1.4l1.1-.6a58.4 58.4 0 0 1 2.2-1.1l1.1-.6a95.3 95.3 0 0 1 2.4-1.1m23 125.3-8.1 6.4a62.3 62.3 0 0 1-19.8-9.9 39.9 39.9 0 0 0 27.8 3.5Zm-35.8-33.3-1-2.2 16-6.7 1 2.2-16 6.7Zm18.6-9 11-32.8 34.6.5 10.3 33-28.3 20-27.6-20.8Zm4.5-58.7 4-12a62 62 0 0 1 17.8-2.5h2.4a47 47 0 0 0-24.2 14.5Zm43 26.2-1.9-1.6 12.2-13.4 1.7 1.7-12 13.3Zm13.9 22.2.7 1.3.2.2a38.2 38.2 0 0 0 5.5 7.1l-6.6-2.6-4.4-14 4.6 8Zm9.9 42.2a62.9 62.9 0 0 1-22.8 15.1l-8.9-6c6.9.5 20-.2 31.7-9.1M237.2 372l1-2.3 15 6-1 2.2-15-6Zm-83.8-3.7-8.7-5.3a62.4 62.4 0 0 1 .8-15.2 63 63 0 0 1 3.7-12.8c-3.4 16 2 29 4.2 33.3Zm21.5 76 33.1 38-3.1 6.2-30-44.3ZM159 235.7a4.3 4.3 0 0 1 8.7 0 4.3 4.3 0 0 1-8.7 0Zm340.5 124.5c-7.2 45.6-21 90-41.1 131.9a528.7 528.7 0 0 1-104.1 145.2l-6.3 6.4v19.4l-2 1.4c-7.6 6-24.6 16-51.5 16-27 0-44-10-51.6-16l-2-1.4v-19.4l-6.3-6.4a529 529 0 0 1-104-145.2c-20.1-42-34-86.3-41.1-131.9-8.1-51-5.8-92.6-3.8-112.8l.5-4.4h37v-52.5h48.4v9.9H133v52.4H95c-1.8 21-3.2 59.4 4.2 106 7 44.5 20.6 88 40.2 129a519 519 0 0 0 102.2 142.6l9.2 9.2v18.6a75 75 0 0 0 43.7 12.5 75 75 0 0 0 43.7-12.5v-18.6l9.2-9.2a519 519 0 0 0 102.1-142.6 468 468 0 0 0 40.3-129c7.3-46.6 6-85 4-106H456v-52.4h-38.7v-9.9h48.5v52.5h37l.4 4.4c2 20.2 4.4 61.7-3.7 112.8M152.9 85.6l9-2.2V40.6a444.2 444.2 0 0 0-9 2.2v42.8Zm267.2-3.8 8.7 2V41a468.6 468.6 0 0 0-8.7-2v42.8Zm-46.4-8.4 8.6 1.3V31.8l-8.6-1.2v42.8Zm-50-20 7.5.4-3.7-31a33042.7 33042.7 0 0 1-3.7 30.6Zm144.3 13a482.3 482.3 0 0 1 8.8 3V54.7a512.7 512.7 0 0 0-8.8-2.9v14.6Zm-438.5 51a569.9 569.9 0 0 1 6.8-3.4l-3.4-29.1-3.4 32.6Z"/><path d="M588.8 124c-.2-2.6-.8-5.2-1.8-8.1a34.7 34.7 0 0 0-1.7-4 10 10 0 0 0 2.1-6V84.4a10 10 0 0 0-5-8.7c-9.5-5.3-14.4-8-24.1-13-2.5-1.2-5-2.1-7.6-2.7a14.3 14.3 0 0 0-3.3-.4l-1.7.1a10 10 0 0 0-5-5.4 535.2 535.2 0 0 0-40-16.8 9.8 9.8 0 0 0-3.4-.7c-1.3 0-2.5.3-3.6.7a22.1 22.1 0 0 0-5-3.8 45 45 0 0 0-7-3c-12-4.1-18.2-6-30.4-9.4a9.8 9.8 0 0 0-2.6-.4 10 10 0 0 0-4 .8 20.4 20.4 0 0 0-2.4-1.6 52 52 0 0 0-10.4-3.9 528.6 528.6 0 0 0-11.7-2.7 41.3 41.3 0 0 0-7.7-1h-.4c-3.5 0-6.8 1.2-9.6 3.3l-.1-.2-.2-.2a20.5 20.5 0 0 0-10.1-7L385.3 7c-12-1.8-18.3-2.7-30.3-4a10.1 10.1 0 0 0-1 0 10 10 0 0 0-6.2 2.1 9.9 9.9 0 0 0-6.6-3.3C330.8 1 325.5.6 315 .2h-.3a10 10 0 0 0-9.9 8.6l-5 36.2a572 572 0 0 0-5.8 0h-5.8v-5.3l3.2-12.8a8.6 8.6 0 0 0-1.6-7.4l-.1-.1 1.7-7a10 10 0 0 0-1.9-8.7 10 10 0 0 0-7.8-3.7h-.2c-9.6.2-14.5.4-24 1a9.6 9.6 0 0 0-1.4.2H254.8a498.1 498.1 0 0 0-25.3 2.3l-1.2.1c-8 1-12.2 1.5-20.2 2.7a10 10 0 0 0-4 1.5 9.9 9.9 0 0 0-2.7-.4c-.6 0-1.1 0-1.6.2-8 1.3-12.2 2-20.2 3.6a10 10 0 0 0-5.8 3.7 16.3 16.3 0 0 0-2.6-.5 21.2 21.2 0 0 0-5.5 0c-1.7.3-3.6.6-5.6 1.1a497.5 497.5 0 0 0-11.6 2.9 46.2 46.2 0 0 0-7.4 2.6 19 19 0 0 0-4.3 2.7 10 10 0 0 0-6.4-.3A499.4 499.4 0 0 0 87 37.9a10 10 0 0 0-6.2 7.2 10 10 0 0 0-5.7-1.8 9.8 9.8 0 0 0-3.8.8c-7.2 3-10.9 4.6-18 7.8a9.9 9.9 0 0 0-5.3 5.7 10.1 10.1 0 0 0-3.4-.6c-1.5 0-3 .3-4.3 1-9.6 4.6-14.5 7.1-24 12.2a10 10 0 0 0-5 7.6L4 139.5l-3.8 17A10 10 0 0 0 4 166.6a10 10 0 0 0 6 2c1.6 0 3.3-.4 4.8-1.3 6.1-3.5 9.3-5.2 15-8.3a8.6 8.6 0 0 0 8.7 8.3c1.4 0 3-.4 4.3-1.2 5.8-3.3 8.7-4.9 14.6-8a8.6 8.6 0 0 0 4.3-5.6 8.6 8.6 0 0 0 3.2.7 8.6 8.6 0 0 0 3.9-1c6-2.9 8.9-4.3 14.9-7l.4-.3A433.8 433.8 0 0 1 100 138a8.6 8.6 0 0 0 5.2-6.5 8.7 8.7 0 0 0 5.2 1.8c1 0 2-.2 3-.6 6.5-2.4 9.6-3.6 16-5.8a7.8 7.8 0 0 0 1-.4 407.8 407.8 0 0 1 18.8-6 9.8 9.8 0 0 0 3.4.6l2.4-.3 4-1a8.5 8.5 0 0 0 2.5 3 8.6 8.6 0 0 0 5.3 1.7 8.8 8.8 0 0 0 2.1-.2 379.7 379.7 0 0 1 8.7-2.2 8.6 8.6 0 0 0 6.6-8.3V111l1-.5a21.6 21.6 0 0 0 4.6-3c1.4-1.2 2.7-2.7 3.8-4.4l1.8 1.4a16 16 0 0 0 8.8 2.5h.4a16.7 16.7 0 0 0 3-.2 25.4 25.4 0 0 0 1.7-.3 412.4 412.4 0 0 1 12.2-1.9 39 39 0 0 0 3.5-.7 22.6 22.6 0 0 0 4.2-1.4 20.1 20.1 0 0 0 3.3-2 8.6 8.6 0 0 0 5.5 2h1c8.4-1 12.5-1.4 21-2a9.1 9.1 0 0 0 1.1-.1h1.1a465.6 465.6 0 0 1 31.1-1h8c6.5 0 9.7.2 16.1.5h.4a8.6 8.6 0 0 0 6-2.5 8.6 8.6 0 0 0 6 3.2c6.5.4 9.7.7 16.1 1.3h.6l.5.2a415.4 415.4 0 0 1 30 3.9 22 22 0 0 0 5-.1 17 17 0 0 0 5.2-1.7l2.2-1.4c1 1.2 2 2.3 3.1 3.2a23.8 23.8 0 0 0 4.6 3 26.5 26.5 0 0 0 4.5 1.7 56.4 56.4 0 0 0 3.4.8l9.4 2.2a44 44 0 0 0 7.6 1 15 15 0 0 0 3.9-.4c1 1.7 2.8 3 5 3.7l17 5a8.5 8.5 0 0 0 2.7.5c1.1 0 2.3-.2 3.3-.7a13.8 13.8 0 0 0 3.8 3c1.4.8 3 1.5 5.2 2.3a422 422 0 0 1 9.4 3.4l.6.2c.3 0 .5.2.8.3a767.4 767.4 0 0 1 35.7 15 8.7 8.7 0 0 0 2.2.7 8.9 8.9 0 0 0 2 1.3c8.7 4.2 13 6.3 21.5 11l2 1a18 18 0 0 0 6.1 2 13.7 13.7 0 0 0 8.8-1.7c1.6-1 3-2.2 4-4l5.7 3.1 2.3 1.2a20.3 20.3 0 0 0 7 2.3l2 .2c2.8 0 5.5-.7 7.9-2.1 3.6-2.1 6-5.7 7.2-10.7a1 1 0 0 1 0-.1c.5-1.7.7-3.5.8-5.4v-16c0-2 0-4-.2-5.9ZM39.4 143l-2-17a475 475 0 0 0-9 4.7l-2 18.9-16.5 9 4-17.5L21.2 79c9.4-5 14-7.5 23.6-12l7.6 54.4 3.8 13.5c-6.8 3.1-10.1 4.7-16.8 8Zm68.5-28.7c-7.2 2.5-10.8 3.8-18 6.6a25866.3 25866.3 0 0 0-15.8-36.4l.5 42.4c-6.9 2.9-10.3 4.4-17.1 7.5l3.6-17V74.7L57.5 61c7-3.2 10.6-4.8 17.7-7.7a26333.6 26333.6 0 0 1 15.9 36.6l-.5-42.7a471 471 0 0 1 17.3-6.3l-3.7 16.6v42.8l3.7 14Zm25.3-8c-9.3 2.7-13.9 4.2-23 7.3l3.7-16.6V54.2l-3.7-14c9.1-3.1 13.7-4.6 23-7.3l-3.7 16.4v42.8l3.7 14.2Zm44.4-33v4.4a57.6 57.6 0 0 1-.4 4.7 29.9 29.9 0 0 1-.8 4.8 16.4 16.4 0 0 1-1.8 4.2c-.8 1.2-1.6 2.3-2.6 3.1a14.8 14.8 0 0 1-3.1 2 18.6 18.6 0 0 1-3.3 1.3l-3.3.8v10.2a503.6 503.6 0 0 0-9.7 2.4V101l-3.2.7a22 22 0 0 1-3.4.4 8.9 8.9 0 0 1-3-.4c-1-.3-2-.9-2.7-1.7a9.2 9.2 0 0 1-2.5-5.5 82 82 0 0 1-.5-7v-36a178.6 178.6 0 0 1 .4-8.4l.9-4.2a15.4 15.4 0 0 1 1.7-4c1.4-2.4 3-4 5-4.8A36.2 36.2 0 0 1 151 28a453.7 453.7 0 0 1 11.4-2.8c1.7-.4 3.2-.7 4.5-.8a15 15 0 0 1 3.3-.1c1 0 1.8.4 2.5.8s1.4 1 2 1.8a10.9 10.9 0 0 1 1.5 2.5 44.6 44.6 0 0 1 1.3 7.7v36.2Zm48.1-44V71.3a39.4 39.4 0 0 1-.3 4 22.9 22.9 0 0 1-.9 4A16 16 0 0 1 223 83a11 11 0 0 1-2.3 2.8 11.9 11.9 0 0 1-2.7 1.7 31.9 31.9 0 0 1-6 1.6 489.4 489.4 0 0 0-14.8 2.4 14.3 14.3 0 0 0-1.3.1 11 11 0 0 1-3.8-.1c-.8-.2-1.6-.6-2.5-1.1a7 7 0 0 1-2.3-2.5c-.9-1.6-1.4-3.5-1.5-5.7l-.2-6.3V35.5L181.6 21c8-1.6 11.9-2.3 19.8-3.6v58.1l8.2-1.3v-58c8-1.3 12-1.8 19.8-2.7l-3.7 15.7Zm29.8 55.2c-9.5.7-14.3 1-23.8 2.1l3.8-15.7V28.1l-3.8-14.9a481 481 0 0 1 23.8-2l-3.8 15.5v42.8l3.8 15Zm44.8-1.3a521.7 521.7 0 0 0-42.3 1.2l3.9-15.6V26L258 11c9.5-.6 14.3-.8 23.7-1L278 25.2v42.9a395.3 395.3 0 0 1 7.2-.2V55h15v28.2Zm34.2 1.4-2-18a430.4 430.4 0 0 0-10-.6l-2 17.8c-7.3-.3-11-.4-18.3-.5l4.4-15.3 8-57.8c10.4.3 15.5.6 25.8 1.4l8.3 58.9 4 15.7a478 478 0 0 0-18.2-1.6Zm63.8-12c0 2.6-.2 5.2-.4 8-.3 2.6-1 5-2.2 6.8-.7 1-1.5 1.8-2.5 2.3-.9.4-1.8.7-2.8.9a12.8 12.8 0 0 1-3.1 0 59 59 0 0 1-3.2-.4c-12-1.9-18-2.7-30.2-4l3.8-14.8V28.6l-3.8-15.7c12 1.2 18 2 29.8 3.9l5.6 1.2c2 .6 3.7 1.8 5.2 3.7a14.3 14.3 0 0 1 2.1 3.7 20.5 20.5 0 0 1 1.2 4.3 39.7 39.7 0 0 1 .5 8.7v34.3Zm46.2 8.6v5a39.7 39.7 0 0 1-.4 5.1 18.9 18.9 0 0 1-1.2 4.5 7.4 7.4 0 0 1-2.6 3.3 7 7 0 0 1-5 1.2 40.4 40.4 0 0 1-5.2-.9 447.1 447.1 0 0 0-10.6-2.4 65.5 65.5 0 0 1-3.3-.9 20 20 0 0 1-3.5-1.3 16.3 16.3 0 0 1-3.2-2c-1-.9-1.9-2-2.7-3.2-1.2-2.2-2-4.4-2.2-6.5a90 90 0 0 1-.4-7v-36a175.6 175.6 0 0 1 .4-8.2l.8-3.7a8.8 8.8 0 0 1 1.8-3.2 6.1 6.1 0 0 1 5-2.5c2 0 3.9.3 5.9.8a465 465 0 0 1 11.4 2.6 43.6 43.6 0 0 1 7.7 2.8c1 .6 1.8 1.2 2.5 2s1.4 1.7 2 2.8a19.8 19.8 0 0 1 1.4 3.2c.4 1.1.7 2.3.9 3.7l.4 4.6a127 127 0 0 1 .1 5.7v30.5Zm40.4 34.5c-1.9-.7-3.3-1.3-4.4-1.9-1-.5-1.8-1.4-2.5-2.6-.5-.8-.8-1.6-1-2.3l-.2-3.6V83a512.7 512.7 0 0 0-8.8-2.8V110c-7.7-2.4-11.6-3.6-19.4-5.7l3.7-14.3V47.2l-3.7-16.3c12 3.3 18 5.2 29.9 9.2a35 35 0 0 1 5.4 2.3c1.8 1 3.4 2.6 4.9 4.7a17.3 17.3 0 0 1 1.8 3.6A27.8 27.8 0 0 1 492 58a87 87 0 0 1-1 15.4 7.6 7.6 0 0 1-2.4 3.5 8.2 8.2 0 0 1-4.6 1.5l.6.4.6.4 1.8 1.5c.9.7 1.7 1.8 2.5 3.2 1 1.9 1.7 3.7 2 5.5l.3 5.5v7.9l3.8 16.6a473.3 473.3 0 0 0-10.7-3.8Zm52.4 21.4a883.6 883.6 0 0 0-40-17l3.6-13.8V63.5l-3.7-16.7a522.7 522.7 0 0 1 39.2 16.5v24A1083 1083 0 0 0 524 72.9a462.1 462.1 0 0 0-8-3.4v13.9a489.1 489.1 0 0 1 11.3 4.9v13.5a487.4 487.4 0 0 0-11.4-5v15.5a461.3 461.3 0 0 1 8 3.4 462.3 462.3 0 0 1 13.5-3.4v24.8Zm41.7 4.6a85.3 85.3 0 0 1-.5 7.3c-.6 2.2-1.4 3.7-2.6 4.4-1.1.6-2.3.9-3.6.7a10.4 10.4 0 0 1-3.5-1.2 337.2 337.2 0 0 0-2.3-1.2c-9.7-5.2-14.5-7.6-24.3-12.3v-22.5a864.7 864.7 0 0 1 14 14.2 456.5 456.5 0 0 1 8.3 4.3v-14.8a480.5 480.5 0 0 0-10.8-5.6 15.7 15.7 0 0 1-1.2-.6l-1.1-.7a15.4 15.4 0 0 1-5.7-5.2 20.6 20.6 0 0 1-3.9-9.7l-.4-5.8V80.8l.5-5.5c.2-1.6.9-3 1.9-4 1.3-1.5 2.9-2 4.6-1.6 1.8.4 3.6 1 5.4 2 9.5 4.8 14.3 7.4 23.6 12.7v21.5a835 835 0 0 0-13-13.4 585.3 585.3 0 0 0-8.1-4.2v13.4a497.3 497.3 0 0 1 9.8 5.1l1.3.7 1.4.9 1.5 1a24.6 24.6 0 0 1 5 5.2 21.3 21.3 0 0 1 3.5 10l.2 5.3v11.8Z"/></g><defs><clipPath id="a"><path fill="#fff" d="M0 0h589v702.2H0z"/></clipPath></defs></svg>