<svg xmlns="http://www.w3.org/2000/svg" width="476" height="677" fill="none"><g fill="#fff" clip-path="url(#a)"><path d="M341 69c-11 3-20 9-25 19l-6 10 9 32 17-30a18 18 0 0 1 11-8 18 18 0 0 1 13 1l20 12-25 42-5 9-5 9-12 20 9 32 25-42 5-9 5-9 35-61-40-23c-9-6-20-7-31-4"/><path d="m377 315-20-11-13-7-15-56-9-33-15-55-2-7-3-12-3-13-14-50-4-17-45 12c-16 4-28 18-30 33a41 41 0 0 0 0 11l1 7 1 4 23 87 24 14 5 3-4-15-3-11-23-87v-12a18 18 0 0 1 2-4l3-4 7-3 22-6 7 25 3 13 3 13 5 16 9 32 6 24 9 33 11 42-19-11-30-17-5-3-24-13-29-17-8-4c-7-4-14-6-21-6H69l2 124v22l2 96 153 68 152-67 20-90 1-4h-1a44 44 0 0 0 1-6 44 44 0 0 0-2-12c-3-11-10-20-20-26m-280 7-4-7-1-34v-47h41v93h-24a18 18 0 0 1-12-5m59-16v-72h23c7 0 12 4 15 9a18 18 0 0 1 3 9v112h-23c-10 0-18-8-18-17v-41Zm147-6 22 13 7 4 33 19 4 3a20 20 0 0 1 6 14 20 20 0 0 1 0 5l-9 39-3 12-4 20-2 7-13 5-118 53-130-58-2-88a41 41 0 0 0 16 3h23c2 21 20 37 41 37h46v-71c7 10 16 18 26 24l7 4 42 25-23 40 3 1 9 1c6 0 12-1 16-3l16-27 6-11 6-10-11-6-40-23-12-7-5-3-2-1c-12-7-20-18-24-31a52 52 0 0 1-1-12 51 51 0 0 1 0-11 50 50 0 0 1 2-6l10 6 24 14 5 2 11 7 4 2 14 8Zm-41 289-21 9v12l21-9c4-2 5-3 5-7v-3c0-4-1-4-5-2Zm-123-16v-1c0-2-1-4-4-5l-21-10v9l21 9c3 1 4 1 4-2Zm40 34 17 7-8-25-9 18Zm-44-20-21-9v9l21 9c4 2 5 1 5-2v-1c0-3-1-4-5-6Zm190-26-21 9v12l21-9c4-2 5-3 5-7v-3c0-4-1-4-5-2Zm85-38-16 7c-5 2-6 4-6 8v19c0 4 1 5 6 2l16-7c5-2 6-3 6-7v-19c0-5-1-5-6-3Z"/><path d="m475 84-18-11-64-37c-13-8-29-12-45-12a90 90 0 0 0-23 3 89 89 0 0 0-5 2l-2-9-5-20-20 5-71 19a90 90 0 0 0-67 97L0 191v384l226 101 226-101V191l-31-14 44-75 10-18ZM52 522l-1 1-26-11v18l22 9 1 2v3c0 1 0 2-1 1l-22-9v18l26 11 1 2v3l-1 1-30-12-1-2v-51l1-2 30 13 1 2v3Zm35 64-1 1-27-12-1-2v-51l1-1 2 1 1 2v46l24 11 1 2v3Zm68 19c0 9-4 11-13 7l-42-19-2-2v-51c0-1 1-2 2-1l42 18c9 4 12 10 12 18v3c0 7-2 10-8 8 6 4 9 9 9 16v3Zm65 41-14-6-2-3-3-9-26-11-3 6-3 1-12-6-2-2 22-42h2l18 8 2 2 22 60-1 2Zm64-25-16 6h-3l-13-10-11 5v15c0 2 0 3-2 3l-12 5c-1 1-1 0-1-1v-50l1-3 43-18c9-4 12-2 12 6v11c0 9-3 15-12 19h-1l15 10v2Zm63-28-16 7h-3l-13-10-11 4v16c0 1 0 2-2 2l-12 6-1-1v-51l1-3 43-18c9-4 12-2 12 7v10c0 9-3 15-12 19h-1l15 10v2Zm20-11c0 1 0 2-2 3l-11 5-2-1v-51c0-1 0-2 2-2l11-6 2 1v51Zm65-39c0 9-4 14-13 18l-33 15c-9 4-13 2-13-7v-29c0-9 4-15 13-18l33-15c9-4 13-2 13 7v29Zm-15-400-15 25-5 9-5 9 9 4 10 4 21 10v267l-14 6-192 86-197-89-9-3V204l44-20 46-21 50-22 9-4 10-4-1-4a70 70 0 0 1-1-7 68 68 0 0 1-1-10 69 69 0 0 1 0-7 69 69 0 0 1 6-21 53 53 0 0 1 3-7 72 72 0 0 1 3-4 64 64 0 0 1 3-5 71 71 0 0 1 3-3 80 80 0 0 1 2-3 70 70 0 0 1 8-6 69 69 0 0 1 4-3 65 65 0 0 1 6-4 68 68 0 0 1 6-2 66 66 0 0 1 7-2l71-20 3 13 6 21 2-1a66 66 0 0 1 7-5l15-6a69 69 0 0 1 12-2h5c13 0 24 3 35 9l40 24 24 13-30 52Z"/></g><defs><clipPath id="a"><path fill="#fff" d="M0 0h475v676H0z"/></clipPath></defs></svg>