<svg xmlns="http://www.w3.org/2000/svg" width="1001" height="1000" fill="none"><g clip-path="url(#a)"><path fill="#fff" d="M181 811V304l197-88c-1-59 38-113 96-128l130-35 10 37a129 129 0 0 1 25-3c22 0 44 6 64 18l117 67-68 117 33 15v507L483 946 181 811Z"/><path fill="#4BBAB4" d="m709 313-12-6 6-11 6-11 19-32 38-66-30-17-51-30a88 88 0 0 0-50-11 88 88 0 0 0-16 3l-3 1-7 2a94 94 0 0 0-9 4 90 90 0 0 0-9 6l-2 1-7-27-5-15-90 24a87 87 0 0 0-8 3 89 89 0 0 0-8 3 88 88 0 0 0-8 5l-6 3a87 87 0 0 0-12 12l-4 4a89 89 0 0 0-4 6 90 90 0 0 0-3 5 90 90 0 0 0-4 9 89 89 0 0 0-5 13 87 87 0 0 0-3 14 86 86 0 0 0 0 8 88 88 0 0 0 1 14 89 89 0 0 0 2 8l1 5-12 5-12 6-63 28-59 27-55 24v339l11 5 250 112 244-109 17-8V330l-26-12-12-5ZM600 183a52 52 0 0 1 72-19l50 29-44 78-7 11-6 11-32 55-11-42 15-25 7-11 6-12 31-54-24-14c-6-3-12-4-18-2a23 23 0 0 0-13 10l-22 39-11-42 7-12Zm-104-28 57-15 6 22 17 63 4 16 4 16 3 9 18 70 11 41 19 71 18 10 24 14c13 7 22 19 26 32a56 56 0 0 1 2 15 56 56 0 0 1 0 9h1l-1 5-26 113-193 86-195-87-2-122v-28l-3-157h140c10 0 19 3 26 7l11 6 37 21 30 17 6 4 39 21 24 14-15-53-11-42-8-30-11-41-5-21-5-16-4-16-9-32-27 7-9 5-4 5a23 23 0 0 0-3 5v13l1 2 29 110 4 14 5 19-7-4-30-18-30-110-1-5-2-8a52 52 0 0 1 1-15c3-19 18-37 38-42"/><path fill="#4BBAB4" d="m477 375-1-2v2h1m-57 159h29V391a23 23 0 0 0-23-23h-28v143c0 13 10 23 22 23m-82-47h29V368h-51v60l1 43c1 4 3 7 5 9a22 22 0 0 0 16 7"/><path fill="#4BBAB4" d="m566 443-5-4-14-8-6-3-31-18-13-7-2 8a65 65 0 0 0-1 13 66 66 0 0 0 2 15c5 17 16 31 31 40l2 1 6 4 16 9 51 29 13 8-7 13-8 13-20 34c-6 3-13 5-20 5h-1l-11-1-3-3 29-50-54-31-8-5c-14-8-25-19-33-32v91h-59c-27 0-49-20-52-47h-29a52 52 0 0 1-21-4l3 113 165 73 150-67 17-7 2-9 5-25 4-16 11-49v-6a26 26 0 0 0-1-8 26 26 0 0 0-12-14l-41-24-9-5-28-16-18-10Z"/><path fill="#010101" d="m802 177-23-13-81-46c-17-10-37-16-57-16a115 115 0 0 0-35 6l-3-11-7-26-25 7-91 24c-55 15-90 68-84 123l-197 89v487l287 129 287-129V314l-39-18 55-96 13-23Zm-74 76-19 32-6 11-6 11 12 6 12 5 26 12v339l-17 8-244 109-250-112-11-5V330l55-24 59-27 63-28 12-6 12-5-1-5a89 89 0 0 1-2-8 87 87 0 0 1-1-14 86 86 0 0 1 0-8 88 88 0 0 1 12-36 90 90 0 0 1 3-5 86 86 0 0 1 8-10 87 87 0 0 1 12-12l6-3a86 86 0 0 1 8-5 90 90 0 0 1 8-3 89 89 0 0 1 8-3l90-24 5 15 7 27 2-1a88 88 0 0 1 9-6c5-3 12-6 19-7a88 88 0 0 1 16-3 87 87 0 0 1 6 0c16 0 31 4 44 11l51 30 30 17-38 66Z"/><path fill="#010101" d="M632 159c-14 3-25 12-32 24l-7 12 11 42 22-39c3-5 8-9 13-10 6-2 12-1 18 2l24 14-31 54-6 12-7 11-15 25 11 42 32-55 6-11 7-11 44-78-50-29c-12-7-27-9-40-5"/><path fill="#010101" d="m677 472-24-14-18-10-19-71-11-41-18-70-3-9-4-16-4-16-17-63-6-22-57 15c-21 5-35 23-38 42a52 52 0 0 0-1 15l2 8 1 5 30 110 30 18 7 4-5-19-4-14-29-110-1-2v-13a23 23 0 0 1 3-5l4-5 9-5 27-7 9 32 4 16 5 16 5 21 11 41 8 30 11 42 15 53-24-14-39-21-6-4-30-17-37-21-11-6c-7-4-16-7-26-7H286l3 157v28l2 122 195 87 193-86 26-113 1-5h-1a56 56 0 0 0-2-24c-4-13-13-25-26-32m-200-97h-1v-2l1 2ZM322 480c-2-2-4-5-5-9l-1-43v-60h51v119h-29a22 22 0 0 1-16-7m75-20v-92h29c8 0 16 5 20 12a23 23 0 0 1 3 11v143h-29c-12 0-23-10-23-23v-51Zm187-7 28 16 9 5 41 24 5 4 7 10a26 26 0 0 1 1 8v6l-11 49-4 16-5 25-2 9-17 7-150 67-165-74-3-112a52 52 0 0 0 21 4h29c3 27 25 47 52 47h59v-91c8 13 19 24 33 32l8 5 54 31-29 50 3 3 11 1h1c7 0 14-2 20-5l20-34 8-13 7-13-13-8-51-29-16-9-6-4-2-1c-15-9-26-23-31-40a66 66 0 0 1-2-15 64 64 0 0 1 1-13 63 63 0 0 1 2-8l13 7 30 18 7 3 14 8 5 4 18 10Z"/><path fill="#fff" d="m263 728 2 3v4l-2 1-32-14v22l27 12 2 3v4l-2 1-27-12v23l32 14c1 1 2 1 2 3v4l-2 1-37-16-1-3v-65l1-1 37 16Zm15 68 31 13 1 3v3l-1 2-35-16-2-2v-65c0-1 1-2 2-1l3 1 1 3v59Zm106 20c9 4 12 11 12 20v4c0 11-5 13-16 8l-54-24c-2 0-3-1-3-3v-64c0-1 1-2 3-1l53 23c11 5 16 12 16 23v3c0 9-3 12-11 10m-41-25 27 12c4 1 5 1 5-3v-1c0-3-1-5-5-7l-27-12v11Zm0 15v11l28 12c4 2 5 2 5-2v-2c0-3-1-5-5-7l-28-12Zm111 64-33-14-4 8h-3l-16-7c-2 0-2-2-2-3l27-52c1-1 2-2 4-1l22 10 3 3 27 77c0 1 0 2-1 1l-17-7c-2-1-3-2-3-4l-4-11Zm-27-27 21 9-11-32-10 23Zm131-35v14c0 11-5 18-17 24l19 12-1 2-19 9h-4l-17-13-14 6v20l-2 3-15 7-2-1v-65c0-1 0-2 2-3l53-23c12-6 17-3 17 8m-53 39 26-12c6-2 7-4 7-8v-5c0-4-1-5-7-2l-26 11v16Zm133-74v13c0 11-5 19-17 24l19 13-1 2-19 9h-4l-17-13-14 6v20l-2 3-15 7c-2 0-2 0-2-2v-64c0-1 0-3 2-3l53-24c12-5 17-2 17 9m-53 38 26-11c6-3 7-4 7-9v-4c0-5-1-5-7-2l-26 11v15Zm80 0-2 4-15 6c-2 1-2 0-2-1v-64c0-2 0-3 2-3l15-7c1-1 2 0 2 1v64Zm82-49c0 11-5 18-16 23l-42 18c-12 5-17 3-17-8v-37c0-11 5-18 17-23l42-19c11-5 16-2 16 9v37Zm-20-22c0-6-1-6-7-3l-20 9c-7 2-8 4-8 9v25c0 5 1 5 8 3l20-9c6-3 7-4 7-10v-24Z"/></g><defs><clipPath id="a"><path fill="#fff" d="M181 53h639v893H181z"/></clipPath></defs></svg>