<svg xmlns="http://www.w3.org/2000/svg" width="476" height="600" fill="none"><g clip-path="url(#a)"><path fill="#fff" d="M416 377v4c0 3-2 5-4 5h-5v-15h4c3 0 5 1 5 6Zm60-28v40c-11 0-19 9-19 19h-18c-8 54-41 102-89 130l-112 61-110-62c-49-27-82-75-91-129H19c0-10-8-19-19-19v-40c10 0 19-8 19-18l-3-3a34 34 0 0 1-7-10c-2-4-3-9-3-13V183h29V97l72-16 7-13a146 146 0 0 1 255 13l72 16v87a32 32 0 0 1 19 9l7 11 2 13v88l-2 13a35 35 0 0 1-10 13c0 10 8 18 19 18Zm-65-162 2-1 11-3v-73l-13-3v80Zm-43 62v-34h31v-21h-52v131h52v-21h-31v-34h30v-21h-30Zm1 132v-37h-7v37c0 8 4 12 11 12s11-4 11-12v-37h-7v37c0 4-1 5-4 5s-4-1-4-5Zm-63-26v5h7v-4c0-8-3-12-11-12s-11 4-11 12v25c0 8 4 12 11 12s11-4 11-12v-7h-7v7c0 4-1 5-4 5s-4-1-4-5v-26c0-3 2-4 4-4s4 1 4 4Zm17-30V215h16v-21h-52v21h15v110h21Zm5 67h20v-6h-12v-42h-8v48Zm35-209 1-2-4 2h3Zm-28-40 17 37 14-7c8-31 3-64-12-92l-17 9c3 23-1 47-2 53Zm-44-86c-6 2-31 10-45 17l1 49 41 33 41-15c1-7 5-30 2-51-4-4-20-22-40-33Zm-99-24 3 24 48 12c13-7 37-15 45-17 0-6-2-18-6-25-5-2-30-11-49-11-3 1-27 6-41 17Zm-1 116c-3 10-5 24-6 34h95l4-22-41-32-52 20Zm67 160v16h21V194h-21v54l-10-36v-18h-21v131h21v-52l10 36Zm-14 77v-42h-7v48h20v-7h-13Zm-46-107v19h21v-19l-7-85h-39l-8 85v19h21v-19h12Zm-19-96c1-10 3-25 6-36l-27-39-32 10c-9 17-8 44-8 48 2 6 5 12 9 17h52Zm-18 209h12c7 0 11-4 11-11v-4c0-5-1-9-5-10 3-2 4-5 4-10v-2c0-7-3-11-11-11h-11v48Zm58-67v-17h-54v17h54Zm-21 56c0 8 5 12 12 12s11-4 11-12v-25c0-8-4-12-11-12s-12 4-12 12v25ZM117 83l9 29 31-11 32-42-3-24c-7 0-24 1-39 9a133 133 0 0 0-24 28l-6 11Zm-11 88 3 12h10l-6-13-7 1Zm-1 133 2 8a22 22 0 0 0 11 12l9 1h10l8-1a22 22 0 0 0 11-12l2-8V194h-53v32h21v-11h11v89h-11v-60h-21v60Zm27 47v41h7v-41h8v-7h-23v7h8Zm-33 35c-2 0-4-1-4-5v-37h-7v37c0 8 4 12 11 12s11-4 11-12v-37h-7v37c0 4-1 5-4 5ZM77 219h21v-25H77v25Zm0 106h21V225H77v100Zm-15 41v-15h12v-7H54v48h8v-19h10v-7H62ZM51 183h14v-76l-14 3v73Zm-3 142 8-1a22 22 0 0 0 12-12l1-8V194H17v32h21v-11h10v89H38v-60H17v60c0 3 0 6 2 8a22 22 0 0 0 11 12l8 1h10Zm374 83h-13a151 151 0 0 1-31 67l-24-67h-34l33 92-18 12-12 6-40-110h-33l45 126-30 16-52-142h-34l57 156-46-26-47-130h-34l38 106-5-3c-39-22-66-60-75-103H54c9 48 39 90 82 114l102 58 104-57c43-24 72-67 80-115Zm1-31c0-5-1-9-6-10 4-2 5-5 5-10v-2c0-7-3-11-11-11h-11v48h12c7 0 11-4 11-11v-4Zm34-65 2-8v-55h-31v-34h10v29h21v-29l-2-8-4-7a21 21 0 0 0-15-6h-10a20 20 0 0 0-15 6l-5 7-1 8v55h31v34h-10v-28h-21v28l1 8 5 7a21 21 0 0 0 15 6h10a21 21 0 0 0 15-6l4-7Zm-42 47v-3c0-3-1-5-4-5h-4v13h3c3 0 5-1 5-5Zm-205 27c2 0 4-1 4-5v-26c0-3-2-4-4-4s-4 1-4 4v26c0 4 2 5 4 5Zm-33-5v-4c0-5-2-6-5-6h-4v15h5c2 0 4-2 4-5Zm-1-22v-3c0-3-1-5-4-5h-4v13h3c3 0 5-1 5-5Zm12-97h8l-4-50-4 50Z"/></g><defs><clipPath id="a"><path fill="#fff" d="M0 0h476v599H0z"/></clipPath></defs></svg>