<svg xmlns="http://www.w3.org/2000/svg" width="1001" height="1000" fill="none"><path fill="#E2E3E2" d="M332 858a273 273 0 0 1-135-177l-2-8h-29v-15c0-8-6-13-13-13h-15v-89h28l-10-18a66 66 0 0 1-3-7c-4-8-6-16-6-25V314h42V191l110-24 3-4a221 221 0 0 1 5-9 227 227 0 0 1 391 9l3 4 110 24v127l6 3a63 63 0 0 1 17 12 66 66 0 0 1 19 45v128c0 9-2 17-6 25a68 68 0 0 1-3 7l-10 18h28v89h-15c-7 0-13 5-13 13v15h-28l-2 8c-18 75-67 140-133 178l-171 94-168-95Z"/><path fill="#22294D" d="M834 359a48 48 0 0 0-38-29V203l-105-23a213 213 0 0 0-371-19 215 215 0 0 0-11 19l-105 23v126h-42v177c0 7 2 13 4 19a49 49 0 0 0 11 15 50 50 0 0 0 27 14v61c0 96 52 184 136 230l160 91 163-90c82-47 133-134 133-228v-64a46 46 0 0 0 28-14 51 51 0 0 0 14-34V378c0-7-2-13-4-19"/><path fill="#fff" d="M507 163c19-11 55-22 67-26-1-8-4-26-10-35-7-3-44-17-70-16-5 0-40 9-61 25l4 34 70 18Zm-125 47 46-63-4-34c-10 0-34 2-56 13-13 12-25 26-35 41a195 195 0 0 0-9 16l12 42 46-15Zm97 119h83l5-32-59-48-76 30c-4 15-7 35-9 50h56Zm35-87 59 48 60-23c2-9 7-44 2-74-5-5-29-31-57-47-9 2-46 14-66 25l2 71Zm152 82 21-10c11-45 4-93-17-134l-25 14c4 33-2 68-3 76l24 54Zm18 2a222 222 0 0 1-6 3h5l1-3Zm-282 3h12c2-15 5-37 9-53l-40-57-46 15c-13 25-12 65-11 70 2 9 7 17 12 25h64Zm-75 0c-4-6-7-12-9-19l-10 1 4 18h15Z"/><path fill="#D2283D" d="M181 543h638c0 15 12 28 28 28v59c-16 0-28 12-28 28H181c0-16-12-28-28-28v-59c16 0 28-13 28-28Z"/><path fill="#fff" d="M243 595h15v10h-15v29h-11v-70h29v10h-18v21Zm49-31v54c0 5 3 7 6 7 4 0 6-2 6-7v-54h10v53c0 12-5 18-16 18s-17-6-17-18v-53h11Zm42 0h34v10h-12v60h-11v-60h-11v-10Zm87 16v3c0 7-3 11-7 14 5 2 8 7 8 15v6c0 10-6 16-17 16h-17v-70h16c12 0 17 5 17 16m-22-6v19h4c4 0 7-2 7-8v-4c0-5-2-7-6-7h-5Zm0 29v21h6c4 0 6-2 6-7v-6c0-6-2-8-7-8h-5Zm44-22c0-11 6-18 16-18 11 0 17 7 17 18v36c0 12-6 18-17 18-10 0-16-6-16-18v-36Zm11 37c0 5 2 7 5 7s6-2 6-7v-38c0-5-2-7-6-7s-5 2-5 7v38Zm44-54h11v60h19v10h-30v-70Zm112 44v9c0 12-6 18-16 18-11 0-17-6-17-18v-36c0-11 6-18 17-18 10 0 16 7 16 18v7h-10v-8c0-5-3-7-6-7-4 0-6 2-6 7v38c0 5 2 7 6 7 3 0 6-2 6-7v-10h10Zm22-44h11v60h18v10h-29v-70Zm60 0v54c0 5 2 7 5 7s6-2 6-7v-54h10v53c0 12-5 18-16 18s-17-6-17-18v-53h12Zm77 16v3c0 7-2 11-7 14 6 2 8 7 8 15v6c0 10-6 16-17 16h-17v-70h17c11 0 16 5 16 16m-22-6v19h4c4 0 7-2 7-8v-4c0-5-2-7-6-7h-5Zm0 29v21h6c4 0 6-2 6-7v-6c0-6-2-8-7-8h-5Z"/><path fill="#D2283D" d="M756 333c5-2 10-3 16-3V223l-19-4v116l3-2Zm-7 325a220 220 0 0 1-45 97l-35-97h-49l48 133a216 216 0 0 1-26 17l-18 10-58-160h-49l67 182-45 25-75-207h-50l83 226-67-38-69-188h-49l56 153-7-4c-58-32-97-87-110-149h-19c13 69 56 131 119 166l149 84 151-83c63-36 106-98 117-167h-19ZM247 329V219l-19 4v106h19Z"/><path fill="#fff" d="M178 343h76v160l-2 12-7 10a32 32 0 0 1-10 7l-12 2h-14l-12-2a32 32 0 0 1-17-17l-2-12v-88h30v88h15V374h-15v15h-30v-46Zm87 46h31v145h-31V389Zm0-47h31v36h-31v-36Zm42 1h76v160l-2 12a32 32 0 0 1-29 19h-14l-12-2a32 32 0 0 1-17-17l-2-12v-88h30v88h16V374h-16v15h-30v-46Zm166 124v28h-31v-28h-17v28h-31v-28l11-124h57l11 124Zm-33-25-7-73-6 73h13Zm90-99h30v191h-30v-23l-16-53v76h-30V343h30v25l16 53v-78Zm41 0h76v31h-22v160h-31V374h-23v-31Zm164 0v31h-46v49h44v31h-44v49h46v31h-76V343h76Zm68 2 10 7 7 10 2 12v41h-31v-41h-14v49h45v80l-2 12-7 10a30 30 0 0 1-22 9h-14a30 30 0 0 1-22-9l-7-10-2-12v-42h31v42h14v-49h-45v-80l2-12 7-10a30 30 0 0 1 22-9h14l12 2ZM473 509h-79v25h79v-25Z"/></svg>