<svg xmlns="http://www.w3.org/2000/svg" width="81" height="99" fill="none"><g clip-path="url(#a)"><path fill="#010101" d="M40.7 0 .9 12.6l.5 1.8.5 2.3s2 8 2.6 17.3v1c.2 2.6.4 6.5.3 8.4v.2L4 56.8l-.1.8c-.3 2.4-.7 6-.2 10 .5 4.8 2.1 9 4.8 12.7 7.3 10.1 21 14 22.5 14.5a38 38 0 0 1 7.3 3l.6.2.4.3 1.3.7 1.2-.7.5-.3.6-.3c.4-.2 3.8-2 7.4-3 1.6-.3 15.4-4.3 22.7-14.4 2.7-3.6 4.3-8 4.8-12.7.5-4 0-7.6-.2-10v-.8c-.4-3.9-.7-12.8-.7-13.2v-.1c-.2-2 0-5.9.1-8.5v-1c.8-9.3 2.7-17.2 2.7-17.3l.5-2.3.5-1.8L40.7 0Z"/><path fill="#FAB60A" d="m40.7 95.5-.8-.4c-.6-.3-4.1-2.2-8-3.2-.6-.2-14-3.9-20.9-13.3-2.3-3.3-3.7-7-4.2-11.4-.4-3.6 0-7 .2-9.2v-1c.5-4 .8-12.9.8-13.3.1-2 0-5.3-.2-8.8v-1.2C6.7 24.3 4.8 16.3 4.7 16l-.3-1.4L40.7 3.1l36.5 11.5-.3 1.4c-.1.3-2 8.3-2.7 17.7V35c-.3 3.5-.4 6.8-.3 8.7v.1l.7 13.3.1 1c.3 2.2.6 5.6.2 9.2-.4 4.3-1.9 8.1-4.2 11.4a42.6 42.6 0 0 1-21 13.3c-4 1-7.6 2.9-8.2 3.2l-.8.4Zm-31-51.7c0 .5-.3 9.4-.7 13.4l-.1.9c-.2 2.2-.6 5.5-.2 9 .4 3.9 1.8 7.4 3.9 10.3A40.3 40.3 0 0 0 32.4 90c3.8 1 7.3 2.8 8.3 3.3.9-.5 4.8-2.2 8.6-3.3.6-.1 13.4-3.7 19.8-12.6 2.2-3 3.5-6.4 3.9-10.4.4-3.4 0-6.7-.2-8.8v-1c-.5-4-.8-12.9-.8-13.4-.1-2 0-5.4.2-9v-1.2A130 130 0 0 1 75 15.9L40.7 5.1 6.8 15.9c.4 1.8 2 9.2 2.7 17.7v1.2c.2 3.6.4 7 .2 9Z"/><path fill="#FAB60A" d="M42 31.6v10.7s11 .2 16.7.8V32.6l-4-.3 4-5.5V18L51 27.7l-8.8-15.3V24l4.5 7.7H42ZM27.8 53.2l3 5.7 1.9.7 3.8-6v-1.7l-4.3 1-3.4-2.4-1 2.7Z"/><path fill="#FAB60A" d="m30.7 45.2-1 2.7 5.2-.1 5 2.4.2 8.9c1.6 0 1.9-.8 2-1s2 .8 2.9.6c.8-.2 1.2-1.5 1.2-1.5l2.5 2.9v4.8l-4.4-4.3-3.7 1.8-3.6-1.8-4.4 4.4v5.3l2.3-2.7 5.7-2.4 5.7 2.4 2.4 2.7 3.7-4.7 1.5-7.7-3.3 1 3-5.7-1.1-2.7-3.4 2.4-4.3-1v1.7l-1 1-2.4-4.4 4.9-2.4 5.2.1-1-2.7s-5-.6-9.9-.6-9.8.6-9.8.6Z"/><path fill="#FAB60A" d="M45.7 50.1v.4l2.1.5 1.4-1v-.1l-.3-.4-3.2.5v.1ZM22.6 32.6v10.5c5.6-.6 16.4-.8 16.6-.8V31.6l-4.5.1 4.5-7.7V12.4l-8.8 15.3-7.8-9.7v8.8l4 5.5-4 .3Zm-1.7 22.5-2 9.8 21.7 21.7 22-21.8-2.2-9.7v.1l.2 8.5L48 76V74l-2.7-3.8-4.8-2-4.7 2-2.8 3.8v2.2L20.6 63.6l.3-8.5Zm14.6-4.6V50l-3.1-.6-.3.4 1.3 1.1 2.1-.5Zm20-31.6v-.1l-5.6 2.6 1.5 2.5 4-5Z"/><path fill="#FAB60A" d="m31.4 21.4-5.6-2.6L30 24l1.5-2.5Z"/></g><defs><clipPath id="a"><path fill="#fff" d="M1 0h79.8v99H.9z"/></clipPath></defs></svg>