<svg xmlns="http://www.w3.org/2000/svg" width="1001" height="1000" fill="none"><g clip-path="url(#a)"><path fill="#101820" d="M937 500a437 437 0 1 1-874 0 437 437 0 0 1 874 0"/><path fill="#FB91A3" d="m556 399-80 76c-5 5-1 14 6 14h81a10 10 0 0 0 7-3l92-87H556ZM370 500l-91 86c-5 5-1 14 6 14h85l104-98c1-1 0-2-1-2H370Zm0-101-91 87c-5 5-1 14 6 14h85l106-101H370Zm186 201-80-76c-5-5-1-14 6-14h81c3 0 5 1 7 3l92 87H556Zm141-201h-1c0 16-13 28-28 28v1c15 0 28 12 28 27h1c0-15 12-27 27-27v-1c-15 0-27-12-27-28Z"/><path fill="#FB91A3" d="M794 205a414 414 0 0 0-588 0 414 414 0 0 0 0 589 414 414 0 0 0 588 0 414 414 0 0 0 0-589Zm-585 4a408 408 0 0 1 581 0c77 77 120 179 121 288h-98a311 311 0 0 0-313-311 311 311 0 0 0-314 311H89c1-109 43-211 120-288m599 291a306 306 0 0 1-308 308 306 306 0 0 1-308-308 306 306 0 0 1 308-308 306 306 0 0 1 308 308Zm-18 290a408 408 0 0 1-581 0A408 408 0 0 1 89 502h97a311 311 0 0 0 314 311 311 311 0 0 0 313-311h98c-1 109-44 211-121 288"/><path fill="#FB91A3" d="m251 264-6 8h-23l-15 19 14 11-5 7-34-26 6-7 13 10 15-18-5-22 7-8 5 26h28Zm49-51s5 6-1 11l-35 28c-5 5-10-1-10-1l-23-27 7-5 22 27 33-28-22-27 6-5 23 27Zm7-45 49 11-15-29 8-3 19 38-8 3-49-11 15 29-7 4-20-38 8-4Zm73-32-8 3 13 40 8-3-13-40Zm86 6 2 10s1 8-7 9l-50 9-2-8 51-8-2-11-42 8c-9 1-10-6-10-6l-1-9s-2-8 7-9l49-9 1 7-49 9 2 9 41-7c9-2 10 6 10 6m81-15v13s-1 8-9 7l-43-2v14h-9l2-43 51 3c9 0 8 8 8 8Zm-51-3v14l42 2 1-14-43-2Zm131 22-7 27s-2 7-10 5l-41-12c-8-2-6-9-6-9l7-27s2-7 10-5l41 12c8 2 6 9 6 9Zm-49-13-7 26 41 11 7-26-41-11Zm101 78-2-17-29-16-7 12-7-4 20-37 45 24c7 4 4 11 4 11l-7 12s-4 7-11 3l3 16-9-4Zm16-31-37-20-7 12 38 20 6-12Zm68 53-19-17-23 27-6-6 22-26-19-17 5-6 45 39-5 6Zm36 70-8 7s-6 4-11-2l-31-41 6-4 31 40 8-6-26-34c-5-7 1-11 1-11l7-6s6-5 11 2l31 40-6 4-31-39-7 5 26 34c5 7-1 11-1 11M214 758l-6-8 5-23-14-19-15 11-5-7 34-26 5 7-13 11 14 18 23 2 6 8-27-2-7 28Zm64 46s-5 6-11 1l-34-29c-6-5-1-10-1-10l23-27 6 6-22 26 32 28 23-27 6 6-22 26Zm44-13 19 47 15-29 7 4-20 38-7-4-19-47-15 29-8-4 20-38 8 4Zm59 28-15 40 8 3 15-40-8-3Zm79 45-2 10s-2 7-10 6l-50-10 1-7 50 9 2-10-42-8c-8-1-7-9-7-9l2-9s2-8 10-6l49 9-1 8-49-10-2 10 42 8c8 1 7 9 7 9m81-18v14s0 8-8 8l-43 1 1 14h-9l-1-42 51-2c9 0 9 7 9 7Zm-51 2v14l43-2-1-13-42 1Zm125-19 7 26s2 8-6 10l-42 11c-8 2-10-6-10-6l-7-26s-2-8 7-10l41-10c8-3 10 5 10 5Zm-49 13 7 26 41-11-7-26-41 11Zm129-13-16-7-29 15 6 12-8 4-19-38 45-23c8-4 11 3 11 3l6 12s4 6-4 10l16 8-8 4Zm-17-31-38 20 6 12 38-19-6-13Zm64-48-20 16 22 27-6 5-22-27-20 17-5-6 46-38 5 6Zm60-45 8 6s6 5 0 12l-32 40-6-5 32-40-8-6-26 33c-6 7-12 2-12 2l-7-6s-6-5-1-12l32-39 6 5-32 39 8 6 26-33c6-7 12-2 12-2"/></g><defs><clipPath id="a"><path fill="#fff" d="M63 63h874v873H63z"/></clipPath></defs></svg>