<svg xmlns="http://www.w3.org/2000/svg" width="700" height="700" fill="none"><g fill="#fff" clip-path="url(#a)"><path d="m397 266-67 63c-4 5-1 12 5 12h68a8 8 0 0 0 6-2l77-73h-89Zm-156 84-77 73c-4 4-1 11 6 11h71l87-82v-2h-87Zm0-84-77 72c-4 5-1 12 6 12h71l89-84h-89Zm156 168-67-63c-4-5-1-12 5-12h68a8 8 0 0 1 6 2l77 73h-89Zm119-168h-1c0 12-11 23-23 23v1c12 0 23 10 23 23h1c0-13 10-23 23-23v-1c-13 0-23-11-23-23Z"/><path d="M597 103a348 348 0 0 0-494 0 348 348 0 0 0 0 494 348 348 0 0 0 494 0 348 348 0 0 0 0-494Zm-491 3a343 343 0 0 1 488 0c65 64 101 150 102 242h-82A262 262 0 0 0 350 86 262 262 0 0 0 86 348H4c1-92 37-178 102-242m503 244a257 257 0 0 1-259 259A257 257 0 0 1 91 350 257 257 0 0 1 350 91a257 257 0 0 1 259 259Zm-15 244a343 343 0 0 1-488 0A343 343 0 0 1 4 352h82a262 262 0 0 0 264 262 262 262 0 0 0 264-262h82c-1 92-37 178-102 242"/><path d="m141 152-5 7h-20l-12 16 12 9-5 5-28-22 5-5 11 9 12-16-4-19 6-6 4 22h24Zm41-43s4 5-1 9l-29 24c-5 4-9-1-9-1l-19-23 6-4 18 22 28-23-19-22 6-5 19 23Zm6-38 41 10-13-25 7-3 16 32-6 3-41-9 12 24-6 3-17-32 7-3Zm61-27-7 2 12 34 7-2-12-34Zm73 5 1 9s1 6-6 7l-42 8-1-7 42-7-1-9-36 7c-7 1-8-5-8-5l-1-8s-1-7 6-8l41-7 2 6-42 8 1 7 36-6c7-1 8 5 8 5m68-13-1 12s0 6-7 6l-36-2v12l-8-1 2-36 43 2c7 1 7 7 7 7Zm-43-2-1 12 36 1 1-11-36-2Zm110 19-6 22s-2 6-9 4l-34-9c-7-2-5-9-5-9l6-22s2-6 9-4l34 10c7 2 5 8 5 8m-41-12-6 22 34 10 6-22-34-10Zm85 66-2-14-25-13-5 10-7-4 17-31 38 20c7 4 4 9 4 9l-6 10s-3 6-9 3l2 14-7-4Zm13-26-31-17-6 10 32 17 5-10Zm58 44-17-14-19 23-5-5 19-22-17-14 4-5 39 32-4 5Zm30 60-7 5s-5 4-9-2l-27-33 5-4 27 33 6-5-22-28c-4-6 1-10 1-10l6-5s5-3 10 2l26 34-5 3-26-33-7 5 22 28c5 6 0 10 0 10ZM110 567l-6-7 5-19-12-16-12 9-5-5 29-22 4 6-11 8 12 16 19 1 5 7-23-1-5 23Zm53 39s-4 5-9 1l-28-24c-5-5-1-9-1-9l19-23 5 5-19 22 28 24 19-23 5 5-19 22Zm37-11 16 39 13-24 6 3-17 32-6-3-16-39-12 24-7-4 17-31 6 3Zm50 23-12 34 6 2 12-33-6-3Zm66 38-1 8s-2 7-9 5l-42-8 1-6 42 8 2-8-35-7c-7-1-6-8-6-8l2-7s1-7 8-5l41 7-1 7-41-8-2 8 35 6c7 2 6 8 6 8m68-15 1 12s0 6-7 7l-36 1v11h-7l-1-35 43-2c7 0 7 6 7 6Zm-43 2 1 11 36-1-1-11-36 1Zm106-16 6 22s1 6-6 8l-34 9c-7 2-9-4-9-4l-6-23s-1-6 6-8l34-9c7-2 9 5 9 5Zm-42 11 6 22 35-9-6-23-35 10Zm109-11-13-6-25 13 5 10-6 3-17-32 39-20c6-3 9 3 9 3l5 10s3 6-3 9l13 6-7 4Zm-14-26-32 17 5 10 32-17-5-10Zm54-41-17 14 19 23-6 4-19-23-16 14-4-5 39-32 4 5Zm50-37 6 5s5 4 1 10l-27 33-5-4 27-33-7-6-22 28c-5 6-10 2-10 2l-6-5s-5-4 0-10l26-33 5 4-26 33 6 5 22-28c5-5 10-1 10-1"/></g><defs><clipPath id="a"><path fill="#fff" d="M0 0h700v700H0z"/></clipPath></defs></svg>