<svg xmlns="http://www.w3.org/2000/svg" width="700" height="700" fill="none"><g fill="#fff" clip-path="url(#a)"><path d="M350 700a350 350 0 1 1 0-700 350 350 0 0 1 0 700Zm0-690a340 340 0 1 0 0 680 340 340 0 0 0 0-680Z"/><path d="M675 350a325 325 0 1 1-650 0 325 325 0 0 1 650 0Zm-69 0a256 256 0 1 0-512 0 256 256 0 0 0 512 0ZM100 505c7-6 8-13 5-21-1-2-2-3-4-1-3 1-4 3-5 6l-1 7a3529 3529 0 0 0-6-10c4-2 7-6 7-10v-11c-1-3-2-3-4-2l-5 5-3 9-2-8c1-9-3-16-9-23l-4-2v7c1 8 4 14 9 20l3 5-6-4a22 22 0 0 0-10-3h-3l2 3c5 7 11 13 20 14l3 1 4 8c-11-6-14-7-18-6v2l5 6c5 5 10 8 17 9l3 1 5 8-2-1-11-5h-3l-2 1v2l3 3c6 6 12 10 21 9l2 1 6 7c-6-2-12-4-19-3l1 3 7 6c5 4 11 5 17 4h3l5 6-5-1-9 1c-2 0-3 2-1 4 7 5 14 9 23 6h3l5 5c-6 0-11-1-15 3l1 1c6 6 14 8 22 6h3l6 4-4 1c-3-1-6 0-8 1-3 1-3 3-1 5a24 24 0 0 0 3 1c6 3 13 5 20 2h2l7 5h-6l-7 2c-3 1-3 3-1 4 7 6 18 7 25 1l9 6-3 1h-6a13 13 0 0 0-5 3c-2 1-2 3 0 4l7 3c5 1 9 1 13-1l5-4c3 1 8 4 9 6h-4l-9 4c-2 2-2 4 1 5 4 2 7 2 11 2 5 0 9-1 11-5l2-1 9 4-8 3-5 5c0 1 0 2 2 3l5 1c4 1 8 1 11-1 3-1 5-3 6-7l11 4-2 1c-4 1-7 3-9 6s-1 5 3 6h7c5 0 10-3 12-8 0-2 1-2 2-2l11 2-5 3c-4 2-6 5-7 9 0 2 1 3 2 3 4 1 8 0 11-1 5-1 8-5 9-10v-3h2l10 1a41 41 0 0 0 6-1l2-1-2-1h-14c-3 0-6-1-7-5l-2-2c-4-6-10-12-17-14l-4-1 1 3 5 9 8 8-9-2c-1 0-2-1-2-3-4-9-10-15-18-20l-4-1v4l5 10 6 6-6-1c-3-1-5-2-5-6l-1-2a42 42 0 0 0-16-18c-1-1-2 0-3 2l1 2c1 6 4 10 7 14l2 2-8-3c-2-1-3-2-3-4l-1-5c-2-5-6-10-10-14-1-1-3-3-6-3-1 8 3 13 6 19l-6-3c-2-1-3-2-3-4 0-6-2-11-6-15l-5-7c-2-1-4 0-4 2v1c0 5 2 9 4 13l1 3-6-4-3-4c1-5-1-9-3-13l-6-9-2-1-2 2c-1 5 0 9 2 13l1 3a5019 5019 0 0 0-8-6v-11c-1-5-4-9-7-13-1-1-1-3-3-2l-2 3v2l3 12v3a3405 3405 0 0 1-9-7l1-6c1-7-2-14-7-20-2-2-3-2-4 1-1 4-1 8 1 12l2 6-8-7c-1-1-2-2-1-3 2-6 1-12-2-17l-3-6c-1-2-3-2-4 0l-1 2c-1 4 0 7 1 11l1 3c-3-1-4-3-6-5s-2-3-1-5c2-7 1-14-2-20-1-2-3-2-5 0-2 3-3 5-2 9v4l-6-7c4-7 5-14 2-21-1-3-2-3-4-1-3 2-4 5-5 8 0 1 1 2-1 4l-5-8Zm477 46-5-1c-3-1-6 0-9 1l-3 1-1-1 6-6c1-2 2-2 4-1 4 1 7 0 10-1l11-7c2-1 3-2 3-4-7-2-13 1-19 4l1-3 4-4c1-2 3-3 5-3l7-1c7-2 12-6 16-12v-2l-4 1c-4 0-8 2-11 4l-5 3v-1l6-9 3-1c6-1 11-4 16-8 3-2 5-5 7-9h-5l-11 5c0 1-1 2-3 2l5-8 2-2c9-1 15-7 20-13l2-4c-8 0-13 4-19 9l3-7c6-6 9-13 10-20l-1-6-2 1-4 5c-4 6-6 12-6 19l-3 9-1-2c1-3-1-7-2-10l-4-4c-2-1-3 0-3 1-2 6-2 11 1 17l5 6c-2 3-3 7-6 10v-3c-1-4-2-8-6-11-2-1-3-1-4 1-1 5-2 9 0 14l5 8-6 8-1-5c0-3-1-6-4-8-2-1-3-1-4 1-2 6-2 13 2 19l-1 4a95 95 0 0 1-4 5l-2 1c1-6 1-11-3-15l-2 2c-3 6-5 12-2 19 1 2 0 4-1 5l-4 5-3 2h-1c3-6 5-13 0-20-3 3-4 6-5 9-2 5-4 10-2 15v4a409 409 0 0 1-9 8h-2c4-7 7-13 4-21l-3 1-5 10c-2 5-3 9-1 14 1 1 0 2-1 3l-8 7h-2l1-3c3-4 4-9 3-14l-1-4c-8 5-11 16-9 26l-10 7c3-6 5-12 2-19h-1l-1 1c-5 6-8 12-9 20 0 3 0 5-3 7l-4 2-3 1v-1l1-2c3-4 5-8 5-13 0-1 0-2-2-3h-1c-6 5-10 11-11 19-1 5-3 7-7 9l-6 2c5-6 10-11 8-20l-6 4c-5 6-9 12-10 19l-2 3-9 4-1-1 2-2c4-4 7-9 8-14l-1-3-2 1h-1c-7 6-12 12-15 21l-1 2-12 4a23 23 0 0 1 0-1l2-2c5-4 9-9 10-15v-3h-2c-8 5-15 11-18 21l-3 3-8 1h-2c10-9 15-15 14-20l-7 3c-6 4-11 9-15 16-1 2-3 3-6 3h-14c-1 0-2 0-2 2h19c0 5 2 10 7 12s10 3 15 0l-2-6-11-7h1a553 553 0 0 1 11-3l2 2 1 3c4 5 14 8 20 5 1-1 2-2 1-3l-6-7-6-2 12-4c2 5 6 7 10 8 5 1 9 0 14-2l-2-4c-2-3-5-4-9-5l-3-1 9-5 3 1 3 4c7 3 13 2 20-1v-3l-2-2-9-3h-3v-1a1037 1037 0 0 1 12-4l3 3c8 3 14 1 21-3v-1c0-2-2-2-3-3-3-2-6-2-10-2-1 0-2 1-3-1l9-6 2 1c3 2 7 3 11 3l11-4 3-3c-5-5-11-3-17-3l7-6h5c3 2 7 2 10 1 4-1 8-2 11-5l2-2-2-2-10-1h-4l8-5 2-1c7 3 12 1 18-1l5-5c-4-4-10-3-15-2l5-6 4-1c3 2 6 2 9 1 4-1 8-2 11-5 1-1 3-1 4-4Zm41-241 1 10 1 7c2 5 7 8 12 6l5-4h1c6 4 13 0 13-7 1-5 0-10-1-15l-32 3ZM496 82a80817 80817 0 0 1-17 28l9 6 5 2c4 2 7 1 10-1 2-3 3-6 2-10v-1l1-1c7-3 8-11 2-15l-12-8ZM386 47c-10 0-17 7-17 17-1 9 7 16 16 17a17 17 0 0 0 1-34Zm44 43c10 0 17-8 17-17s-7-17-17-17a17 17 0 0 0 0 34Zm-269 21 19 26 5-4-11-16 4 1 15 6c3 1 5 0 8-3l-19-25-6 3 11 15h-3l-15-5c-3-1-5-1-8 2ZM85 290c0-10-7-17-17-17-9 0-16 8-16 17s7 17 17 17c9 0 16-8 16-17ZM256 60a17 17 0 1 0 0 34 17 17 0 0 0 0-34ZM149 161c9 0 16-8 16-17s-7-17-16-17c-10 0-17 7-17 17 0 9 7 17 17 17Zm-47 12 25 20 4-5-8-7c3-4 2-3 6-3l7 1 3-1 3-4-13-2v-2c0-5-3-9-7-11-5-1-9 0-12 4l-8 10Zm439-60-3-2-3-2-29 18 5 4 5-3 11 8-2 6 5 4 11-33Zm101 154-23 5c-4 1-6 5-7 9a19 19 0 0 0 1 7c2 6 7 9 14 8l18-5 3-1-2-5-6 1-15 3c-3 1-5 0-6-3-2-5 0-7 4-8l16-4 4-1-1-6Zm-559-1c9 0 15-9 13-17-1-3-3-6-6-7-4-1-7 0-9 3l-4 5-3 3h-3c-2 0-2-1-2-3s1-4 3-5l3-1-1-6c-7 0-13 8-11 15 1 6 10 10 15 5l4-6 3-3c2-1 4 0 5 2v2c-1 4-3 7-8 7l1 6ZM225 79c-6-4-14-3-20 3-5 5-6 14-2 21 4 6 12 9 20 7 6-2 11-9 11-15h-6c-2 7-8 11-14 9-5-2-8-8-7-13 1-3 3-5 5-6 3-2 7-3 10-1l3-5Zm59-1c5 8 18 6 22 1s2-12-4-14l-8-1-4-1c-2-1-2-4 0-6l3-1 6 3 4-4c-4-6-14-6-18-2-5 5-4 14 3 15l7 2 4 1c3 1 3 3 1 5-3 2-7 2-9 0l-3-2-4 4Zm320 151c-8-3-11-8-9-14 1-5 8-9 13-7 3 0 5 2 6 4 2 4 2 7 1 11l5 3c4-6 3-14-3-20-5-6-13-7-20-3s-10 12-8 19 8 12 14 12l1-5ZM344 59v-8h12v-5h-19v32h7V65h12v-6h-12Zm139 17-22-10-2 6a2602 2602 0 0 0 8 3l-11 24 6 3 11-24 8 3 2-5ZM94 185l-12 21 5 3 4-7a17151 17151 0 0 0 23 13l3-6-22-13 4-7-5-4Zm488-32-25 21 11 14 5-3-7-10 20-17-4-5ZM73 328l-26-2v7l32 2 2-19h-6l-2 12Zm534-63 6-2-4-12a16316 16316 0 0 0 25-9l-3-6-30 12 6 17Zm-61-112a23507 23507 0 0 1 18-18l-4-5a34614 34614 0 0 1-23 23l14 12 3-3-8-9ZM69 389c0-5-3-8-8-8-5-1-8 3-8 8s4 8 8 8c5 0 9-4 8-8Zm569 8c5 0 9-3 9-8s-4-8-9-8c-4-1-8 3-8 8s3 8 8 8Z"/><path d="M625 316h7l1 7c0 2-1 3-3 4-3 0-4-1-5-4v-7Zm20-2v7c0 2-1 3-3 3s-3-1-3-3l-1-6 7-1ZM487 108l4-6 7 4c2 1 2 3 1 5s-3 2-5 1l-7-4Zm7-11 4-6 6 3c1 1 2 3 1 5-1 1-3 2-5 1l-6-3ZM386 53c6 0 10 5 10 11s-5 10-11 10-10-4-10-10c0-7 5-11 11-11Zm55 20c0 6-5 11-11 11-5 0-10-5-10-11s4-11 10-11 11 5 11 11ZM79 290c0 6-4 10-10 10s-11-4-11-10 5-11 10-11c7 0 11 5 11 11ZM256 88c-6 0-11-5-10-11 0-6 4-11 10-11s11 5 11 11-5 11-11 11Zm-107 66c-6 0-11-5-11-10 0-6 5-11 10-11 6 0 11 5 11 11 0 5-5 10-10 10Zm-31 24-8-6 5-5c1-2 4-2 6-1 2 2 2 4 1 6l-1 2-3 4Zm404-54 11-7-4 12-7-5ZM350 588a239 239 0 1 1 0-478 239 239 0 0 1 0 478Zm-28-157h1l3 7c10 22 23 40 42 54 5 4 10 6 15 7 9 2 17 3 26 3a375 375 0 0 0 103-15c3 0 5-2 7-4a214 214 0 0 0-28-297l-5-4-6 8c-4 9-5 17-5 26 1 11 1 22-1 33-2 10-5 19-11 27v1c9-2 16-6 21-14 3-5 5-10 6-16l3-17c2 7 2 15 1 22-3 13-12 22-23 29 5 3 9 2 13 2 11-2 22 4 25 15-5-4-11-5-17-5-9-1-17 0-26 1-5 1-10 3-14 6l-20 13-44 37-1 2h2c11-5 22-7 34-8a99 99 0 0 0 15-2c10-2 18-6 24-15l6-12 1-4 1 2c-1 9-3 18-8 26s-11 13-20 15l-3 1 7 1c6 1 12 2 18 0 7-1 11-4 14-10 1-4 3-7 3-11l6-29 1-2c0 9 2 17 4 26l2 16c0 8-4 13-11 16l-3 2h2l16-2c10-2 19-7 27-13 5-5 9-10 11-17v-2c3 5 3 9 2 13-1 5-3 9-7 13s-9 8-15 10a102 102 0 0 1-63 2c-7-2-14-4-21-4-11-1-21-1-31 3-2 1-3 2-4 5-1 7-3 13-6 19l-9 9-3 2c-1-22-8-42-20-60l16-20-2-1-11-13c-4-4-7-9-9-15-3-8-2-16 3-23l6-9c8-15 9-31 3-48l-7-15-1-2 14 16 5 9c5 10 5 19 0 29l-1 3c15-4 27-12 36-24a4 4 0 0 1 0 1l-5 15-5 9c-5 10-13 14-24 13h-2c-2 0-3 1-4 3-5 7-6 14-5 23 3 9 8 17 17 22l3-2 9-7c9-4 16-10 22-18s11-16 14-25c3-11 2-22-1-34s-9-23-15-34a131 131 0 0 1-2-3h1c8 10 15 21 21 33a93 93 0 0 1 4 9c4 13 4 26-2 38l-8 15-14 20-3 3 2-1c11-7 21-15 29-25 7-7 13-14 16-23 2-4 3-7 3-11l1-20c0-9-1-18-4-27-5-14-14-25-29-30h-1c20 2 35 11 41 32 2-10 5-18 14-24-73-61-187-63-263-4 13 5 19 14 21 28l1-3c2-8 7-13 15-16l17-8h2l-3 3-10 10c-8 8-12 17-14 28l-1 27c1 6 2 12 5 17 3 7 7 12 11 17 10 12 21 21 34 29l1 1-3-4c-7-9-15-19-21-30-3-5-6-10-7-15-4-10-3-20 2-30 3-6 7-11 12-15l2-2v2l-4 23c-3 24 7 43 24 60l5-9c9-12 15-26 18-41 1-2 0-3-1-5l-6-7c-5-6-11-9-19-7 5-4 11-6 18-3l7 6 3 2 1-6-7-22c-3-10-1-20 5-29l9-12 2-2v3l-6 19c-3 11-2 22 6 32l1 1c2 3 3 7 3 11 1 13 0 26-7 37l-6 11a5784 5784 0 0 0-14 24l-2 3c12 8 22 17 31 28 10 11 17 23 21 37 5 14 9 36 7 40l-11-15c-5-7-11-13-18-17-7-5-15-8-24-7l-5-1c-4-3-8-4-13-5a92 92 0 0 0-44 4c-14 4-27 4-41 1-17-3-32-10-46-22l-10-11v-2l13 9c11 6 23 11 36 14l18 3 5-1-1-1c-12-2-23-6-33-11-9-5-17-10-24-18-4-4-7-9-8-15l-1-4 5 4 24 19 27 17c13 5 26 8 40 6l10-2a119 119 0 0 1-57-29l-7-10-1-4c4 6 9 11 16 15l10 4c18 8 37 12 56 13 11 1 22 3 33 7l3 2-2-3c-10-11-21-20-34-27l-40-23-3-1-20-4c-8-1-17-3-24 2 5-10 13-15 25-15l-4-2-14-14c-9-11-10-23-7-36v-1l2 3c3 8 7 16 12 23 5 6 10 12 17 16l16 7-5-7c-5-6-9-14-9-22l-1-15a127 127 0 0 0-2-29c-2-6-3-13-7-19-1-3-3-6-6-8l-4 3a215 215 0 0 0-29 309l5 4 35 7c14 3 29 5 43 6 9 1 18 0 27-2 6-1 10-4 13-9a38 38 0 0 0 2-6c2-4 3-8 3-13l1-5 2 3c5 10 12 17 20 23 2 2 2 2 5 1-10-8-17-18-21-31-4-12-3-25 0-37Z"/><path d="M323 379h8l9 5 13 10c13 14 23 29 28 47 2 6 3 12 3 19l-5-3a102 102 0 0 1-23-25 84 84 0 0 0 52 61v1l-7 1c-10 0-19-3-27-8-7-4-12-9-17-14-16-19-27-39-33-62-3-10-4-19-2-29l1-3Z"/></g><defs><clipPath id="a"><path fill="#fff" d="M0 0h700v700H0z"/></clipPath></defs></svg>