<svg xmlns="http://www.w3.org/2000/svg" width="476" height="720" fill="none"><g fill="#fff" clip-path="url(#a)"><path d="M180 66a3 3 0 0 0 0-1 2 2 0 0 0-1 0h-5v6h6v-1l1-1a4 4 0 0 0 0-1v-1a3 3 0 0 0-1-1Zm-1-7a3 3 0 0 0 1-1 4 4 0 0 0 1-2v-1a4 4 0 0 0-1-1 3 3 0 0 0-1-1 2 2 0 0 0-1 0h-4v6h4a2 2 0 0 0 1 0Zm28 9a7 7 0 0 0 2 2l3 1 3-1a7 7 0 0 0 2-2l2-2v-7a9 9 0 0 0-2-3 8 8 0 0 0-2-2 6 6 0 0 0-3-1l-3 1a8 8 0 0 0-2 2 9 9 0 0 0-2 3 11 11 0 0 0-1 3l1 4a10 10 0 0 0 2 2Zm205 2 1-1v-2a3 3 0 0 0-1-1 3 3 0 0 0-1-1 2 2 0 0 0-1 0h-5v6h6l1-1Zm-1-11 1-1a4 4 0 0 0 0-1 3 3 0 0 0 0-1v-1a4 4 0 0 0 0-1 3 3 0 0 0-1-1 2 2 0 0 0-1 0h-5v6h6Z"/><path d="M0 0v614l238 106 238-106V0H0Zm469 609L238 712 7 609V7h462v602Z"/><path d="M386 224h-43v353l43-17V224Z"/><path d="M22 22v578l216 96 216-96V22H22Zm374 49h3V53h-3v-6l14 1a9 9 0 0 1 7 2 9 9 0 0 1 1 3 9 9 0 0 1 1 3l-1 4-2 2 2 2 1 4v3a9 9 0 0 1-2 3 8 8 0 0 1-3 2 9 9 0 0 1-4 1h-14v-6Zm-39-23h12v5h-3v15l1 2 2 1a6 6 0 0 0 2 0h2a4 4 0 0 0 2-1l1-2V53h-3v-5h12v5h-3v11l-1 6-2 4a10 10 0 0 1-4 2l-4 1-5-1a10 10 0 0 1-3-2l-3-4V53h-3v-5Zm-32 23h3V53h-3v-5h12v5h-3v18h6a1 1 0 0 0 1 0 2 2 0 0 0 0-1h1v-4h6v11h-23v-6Zm-87 0h3V53h-3v-5h12v5h-3v18h6a1 1 0 0 0 1 0 2 2 0 0 0 1-1v-4h6v11h-23v-6Zm-40-13a17 17 0 0 1 2-4 14 14 0 0 1 2-3 14 14 0 0 1 6-3 13 13 0 0 1 4-1l4 1a14 14 0 0 1 3 1 14 14 0 0 1 3 2 15 15 0 0 1 2 3 16 16 0 0 1 0 16 15 15 0 0 1-2 3 14 14 0 0 1-3 2 13 13 0 0 1-3 2 13 13 0 0 1-4 0h-4a14 14 0 0 1-3-2 14 14 0 0 1-3-2 14 14 0 0 1-2-3 17 17 0 0 1-2-4 16 16 0 0 1 0-4v-4Zm-71-10h27v8h-6v-3h-4v18h3v6h-13v-6h3V53h-3v3h-7v-8Zm-37 0h12v5h-3v12l1 3 1 2 1 1a6 6 0 0 0 2 0h2a4 4 0 0 0 2-1l1-2V53h-3v-5h12v5h-2v11l-1 6-3 4a10 10 0 0 1-3 2l-5 1-4-1a10 10 0 0 1-4-2l-2-4-1-6V53h-3v-5ZM59 71h3V53h-3v-5h22v9h-6v-4h-7v6h6v6h-6v6h3v6H59v-6Zm115 424-85-38v145l-41-19V182h126v313Zm8-335H48V97h134v63Zm5-89a9 9 0 0 1-2 3 8 8 0 0 1-3 2 9 9 0 0 1-3 1h-15v-6h3V53h-3v-6l15 1h3a9 9 0 0 1 3 2 9 9 0 0 1 2 3 9 9 0 0 1 1 3l-1 4-2 2a7 7 0 0 1 2 2l1 4-1 3Zm72 588-21 9-21-9V219c6 3 13 5 21 5s15-2 21-5v440Zm26-503v4a47 47 0 0 1-94 0 49 49 0 0 1 0-4V97h94v59Zm5-83a15 15 0 0 1-2-3 17 17 0 0 1-1-4l-1-4a16 16 0 0 1 4-11 14 14 0 0 1 5-3 13 13 0 0 1 9 0l4 2h4v6h-6l-2-2a6 6 0 0 0-2-1 8 8 0 0 0-2 0 6 6 0 0 0-3 1 8 8 0 0 0-2 2l-2 3a10 10 0 0 0 0 3 11 11 0 0 0 2 6 8 8 0 0 0 2 2 6 6 0 0 0 3 1 6 6 0 0 0 2 0 7 7 0 0 0 2-1 8 8 0 0 0 2-2v-1l7 1a12 12 0 0 1-2 4 12 12 0 0 1-3 3 13 13 0 0 1-4 1 14 14 0 0 1-8 1 13 13 0 0 1-3-2 14 14 0 0 1-3-2Zm138 510-127 56V182h127v401Zm0-423H294V97h134v63Z"/><path d="M93 125v-7H77v4h2v13h-2v4h16v-8h-4v4h-6v-5h5v-4h-5v-4h6v3h4Zm21 0v-4h-1l-1-2a7 7 0 0 0-2-1 8 8 0 0 0-2-1 9 9 0 0 0-2 0h-3l-3 2a6 6 0 0 0-1 2l-1 2 1 3 1 1 1 2h2l3 2h2v1l1 1-1 1-2 1a4 4 0 0 1-1 0 3 3 0 0 1-1-1 3 3 0 0 1-1-1 3 3 0 0 1 0-1v-1h-5v4h1l1 2 2 1a7 7 0 0 0 2 1 9 9 0 0 0 2 0h3l3-2a7 7 0 0 0 1-2l1-3v-2a6 6 0 0 0-1-1 5 5 0 0 0-1-1 6 6 0 0 0-2-1l-4-2a27 27 0 0 0-1 0 4 4 0 0 1-1 0 2 2 0 0 1 0-1l-1-1v-1h1l1-1h2l1 1 1 1v2h5Zm4-7v6h4v-3h3v14h-2v4h9v-4h-2v-14h2v3h5v-6h-19Zm25 18a3 3 0 0 0-1-1 3 3 0 0 0-1-1 3 3 0 0 0-1 0h-1a3 3 0 0 0-1 1 3 3 0 0 0 0 1 3 3 0 0 0-1 1 3 3 0 0 0 2 2 3 3 0 0 0 2 0h1l1-1a3 3 0 0 0 0-2m196-8a9 9 0 0 0 1-2 5 5 0 0 0 1-2l-1-3a6 6 0 0 0-1-2 7 7 0 0 0-2-1 8 8 0 0 0-3-1l-3 1-2 1-1 2-1 3h4v-1l1-1h4v4l-2 1-7 8v4h14v-4h-8l6-7Zm23-4-2-3a7 7 0 0 0-2-3l-4-1-4 1a7 7 0 0 0-2 3l-2 3a20 20 0 0 0 0 4v5l2 3a7 7 0 0 0 2 2l4 1 4-1 2-2 2-4a19 19 0 0 0 0-8m-4 7-1 2-1 1-2 1-2-1a3 3 0 0 1-1-1l-1-2a27 27 0 0 1 0-3v-2l1-2a3 3 0 0 1 1-2h4l1 2 1 2v5m21-3a8 8 0 0 0 2-2v-5l-2-2a7 7 0 0 0-2-1 8 8 0 0 0-3-1l-2 1a6 6 0 0 0-3 1 6 6 0 0 0-1 2l-1 3h5v-2a2 2 0 0 1 1 0h3a2 2 0 0 1 1 2l-1 2-1 1-8 8v4h14v-4h-8l6-7Zm20 0 1-2 1-2-1-3-1-2a7 7 0 0 0-3-1 8 8 0 0 0-2-1l-3 1a6 6 0 0 0-2 1 6 6 0 0 0-2 2v3h4v-1a2 2 0 0 1 1-1h3a2 2 0 0 1 1 2v2l-2 1-7 8v4h14v-4h-8l6-7Zm-200-23v55a39 39 0 0 0 78-4v-51h-78Zm66 34h-6v1h2a3 3 0 0 1 2 2 3 3 0 0 1-2 3 3 3 0 0 1-2-1v16a24 24 0 0 1-48 0 22 22 0 0 1 0-3c0-11 8-21 19-23v-1c0-4 3-7 6-9a8 8 0 0 1-2-6v-4h9a8 8 0 0 1 7-4h4v8c0 2 0 4-2 6a13 13 0 0 1 7 7 8 8 0 0 1 7 7 1 1 0 0 1-1 1Z"/><path d="M246 130h-4a3 3 0 0 0-4 3c0 5 4 9 9 9h4v-6a5 5 0 0 0-5-6Zm0 9a3 3 0 0 1-4-4 3 3 0 0 1 4-3 3 3 0 0 1 3 3 3 3 0 0 1-3 4Zm1 11-9-3a17 17 0 0 1-6-6 16 16 0 0 0 6 32 16 16 0 0 0 13-16v-7h-4Zm-12 19a12 12 0 0 1-12-12 12 12 0 0 1 3-9l4 4a7 7 0 0 0-2 5l2 5c3 2 8 2 10 0l4 3a12 12 0 0 1-9 4ZM131 416l-42-19V223h42v193Z"/></g><defs><clipPath id="a"><path fill="#fff" d="M0 0h476v720H0z"/></clipPath></defs></svg>