<svg xmlns="http://www.w3.org/2000/svg" width="1001" height="1000" fill="none"><g clip-path="url(#a)"><path fill="#010101" d="M215 74v726l285 127 285-127V74H215Z"/><path fill="#fff" d="M775 794 500 916 225 794V84h550v710Z"/><path fill="#010101" d="M233 92v696l267 119 267-119V92H233Z"/><path fill="#fff" d="M750 777 500 888 250 777V109h500v668Z"/><path fill="#010101" d="M280 294v464l48 22V612l98 44V294H280Zm98 271-49-22V342h49v223Zm196-271v529l146-65V294H574Zm97 437-49 20V342h49v389ZM525 337v509l-25 10-24-10V337c7 4 15 5 24 5s17-1 25-5Z"/><path fill="#FDCF1F" d="M446 269H280v-73h166v73Zm274-73v73H554l1-5v-68h165Z"/><path fill="#010101" d="M293 139v6h4v21h-4v6h14v-6h-3v-7h7v-6h-7v-8h8v5h7v-11h-26Zm55 0v6h3v17l-1 2-2 1a8 8 0 0 1-5 0l-2-1-1-2v-17h3v-6h-14v6h3v13l1 6 3 5 4 3 5 1 5-1 5-3 2-5 1-6v-13h3v-6h-13Zm24 0v10h7v-4h4v21h-3v6h14v-6h-3v-21h4v4h8v-10h-31Zm69 19a8 8 0 0 0-3-3 7 7 0 0 0 3-2l1-4a10 10 0 0 0-11-10h-16v6h3v21h-3v6h17l4-1a10 10 0 0 0 3-2l2-3 1-4-1-4m-15-13h6l1 1a4 4 0 0 1 1 3 4 4 0 0 1-1 2l-1 1h-6v-7Zm8 19v1l-1 1h-7v-8h5l2 1a4 4 0 0 1 1 2v3m52-13a18 18 0 0 0-4-8 16 16 0 0 0-12-5 15 15 0 0 0-12 5 17 17 0 0 0-4 8 19 19 0 0 0 4 17 16 16 0 0 0 4 3 16 16 0 0 0 22-7 18 18 0 0 0 2-13Zm-8 9-2 3a9 9 0 0 1-3 2l-3 1-4-1a9 9 0 0 1-2-2l-2-3a13 13 0 0 1 0-9l2-3 2-2 4-1 3 1c2 0 2 1 3 2l2 3a13 13 0 0 1 0 9Zm41 0v5a2 2 0 0 1-1 1h-7v-21h3v-6h-14v6h3v21h-3v6h27v-12h-8Zm60 1-1 2a8 8 0 0 1-6 3l-4-1a9 9 0 0 1-2-2l-2-4a12 12 0 0 1 2-11l2-2 4-1h2l2 1 3 3h7v-8h-5l-4-2-5-1-6 1a16 16 0 0 0-6 4 18 18 0 0 0-4 17 19 19 0 0 0 4 8 16 16 0 0 0 8 4l4 1a16 16 0 0 0 9-3l3-3a14 14 0 0 0 2-4l-7-2Zm41-1v5a2 2 0 0 1-1 1h-8v-21h4v-6h-15v6h4v21h-4v6h27v-12h-7Zm36-21v6h4v14l-1 3-1 2-2 1a8 8 0 0 1-4 0 5 5 0 0 1-2-1l-1-2-1-3v-14h3v-6h-13v6h3v13l1 6c0 2 1 4 3 5l4 3 5 1 5-1 4-3 3-5 1-6v-13h3v-6h-14Zm53 19a8 8 0 0 0-3-3l3-2v-4a10 10 0 0 0-2-7 10 10 0 0 0-8-3h-16v6h3v21h-3v6h17l4-1a10 10 0 0 0 3-2l2-3 1-4-1-4m-15-13h6l1 1a5 5 0 0 1 1 3v1l-1 1-1 1h-6v-7Zm8 19-1 1-1 1h-6v-8h5l1 1 1 1 1 1v3m-369 64v-8h-20v5h3v15h-3v4h20v-8h-5v4h-7v-6h5v-4h-5v-5h7v3h5Zm24 0v-5h-2l-1-1a8 8 0 0 0-2-2 10 10 0 0 0-5-1l-3 1-3 1-2 2-1 3 1 3a7 7 0 0 0 3 4h2l4 2h1l1 1 1 1-1 2-2 1h-2l-1-1a3 3 0 0 1-1-3v-1h-6v5h2l1 2a8 8 0 0 0 4 2l3 1 3-1 3-1a8 8 0 0 0 2-6 7 7 0 0 0-1-4l-1-2-2-1-4-1a32 32 0 0 0-3-1v-1l-1-1v-1l1-1h4l1 1v1l1 1v1h6Zm4-8v7h5v-3h3v16h-2v4h10v-4h-2v-16h3v3h5v-7h-22Zm29 21a3 3 0 0 0-2-2h-1a3 3 0 0 0-3 2v1a3 3 0 0 0 6 1 3 3 0 0 0 0-2m227-9a10 10 0 0 0 2-3v-5a7 7 0 0 0-2-3l-3-1a9 9 0 0 0-6 0l-3 2-1 2-1 3h5v-1l1-1h1l1-1h1l1 1a2 2 0 0 1 1 2l-1 2-1 2-9 9v4h16v-5h-9l7-7Zm26-5-1-4a8 8 0 0 0-3-2l-5-1-4 1-3 2-2 4v10l2 4 3 3 4 1 5-1 3-3 1-4a22 22 0 0 0 0-10m-5 8v2l-1 2-3 1-2-1-1-2-1-2a32 32 0 0 1 0-6l1-2 1-2 2-1 3 1 1 2 1 2v6m25-3 1-3 1-2-1-3-2-3-2-1a9 9 0 0 0-3-1l-3 1a7 7 0 0 0-5 7h5v-2h1l2-1h1l1 1a3 3 0 0 1 1 2l-1 2-2 2-8 9v4h16v-5h-9l7-7Zm22 0 2-3v-5l-2-3-3-1a9 9 0 0 0-3-1l-3 1a7 7 0 0 0-4 4l-1 3h5v-1a3 3 0 0 1 2-1l1-1h1l1 1a3 3 0 0 1 1 2l-1 2-1 2-9 9v4h16v-5h-9l7-7Z"/><path fill="#FFFCEF" d="M545 264v5a45 45 0 0 1-90-5v-58h90v58Z"/><path fill="#010101" d="M446 196v73a54 54 0 0 0 109-5v-68H446Zm54 114a45 45 0 0 1-45-46v-58h90v63c-2 23-22 41-45 41Z"/><path fill="#FFFCEF" d="M545 206v63a45 45 0 0 1-90-5v-58h90Z"/><path fill="#010101" d="M509 244a4 4 0 1 0 0-8 4 4 0 0 0 0 8Z"/><path fill="#010101" d="M524 235a15 15 0 0 0-7-8 9 9 0 0 0 2-6v-10h-4c-4 0-7 2-9 5h-10v5l2 6c-4 2-7 6-7 11a28 28 0 1 0 34 28v-15h1c2 0 3-1 3-3 0-1-1-3-3-3h-1v-1h7l1-1c-1-4-5-8-9-8m-20-1h5c4 0 7 3 7 6v8h-6c-5 0-10-4-10-10a4 4 0 0 1 4-4Zm-4 50a19 19 0 0 1-7-37 19 19 0 0 0 17 10h6v9l-1 3c-1 8-7 14-15 15"/><path fill="#010101" d="M491 271a8 8 0 0 1-2-6c0-2 0-4 2-6l-4-4a14 14 0 0 0-5 10 14 14 0 0 0 15 14c4 0 7-1 10-4l-4-4c-3 3-9 3-12 0"/></g><defs><clipPath id="a"><path fill="#fff" d="M215 74h570v853H215z"/></clipPath></defs></svg>