<svg xmlns="http://www.w3.org/2000/svg" width="700" height="700" fill="none"><g fill="#fff" clip-path="url(#a)"><path d="M350 0C156.7 0 0 156.7 0 350s156.7 350.01 350 350.01 350.01-156.7 350.01-350S543.32 0 350.01 0Zm0 685.68c-185.39 0-335.67-150.3-335.67-335.67 0-185.38 150.28-335.7 335.68-335.7S685.69 164.61 685.69 350 535.38 685.67 350 685.67v.01Z"/><path d="m41.2 351.02 43.52-3.25 1.79 23.82c.53 7.05-2.75 10.83-9.81 11.35l-6.2.47c-7.06.53-10.85-2.73-11.38-9.78l-1.32-17.6-16.14 1.2-.47-6.23.02.02Zm22.85 4.55 1.28 17.28c.12 1.66.58 2.82 1.36 3.5.79.68 2.01.96 3.66.84l5.58-.43c1.66-.12 2.82-.57 3.5-1.36.68-.78.96-2 .84-3.66l-1.29-17.27-14.93 1.11v-.01Z"/><path d="M69.1 387.03c-3.72 0-6.75-1-9.04-2.97-2.64-2.25-4.13-5.66-4.46-10.15l-1.05-14.06-16.14 1.2-1-13.3 50.6-3.77 2.05 27.36c.66 8.96-4.1 14.48-13.08 15.16l-6.2.47c-.57.04-1.13.06-1.67.06h-.02Zm-.05-13.41c.18.03.51.06 1.04.01l5.58-.42a4.4 4.4 0 0 0 1.03-.18c.03-.18.06-.5.01-1.04l-1.02-13.73-7.86.59 1.02 13.73c.05.53.12.86.18 1.02l.02.02Zm8.92 103.24a6.13 6.13 0 0 1-2.42.48 6.2 6.2 0 0 1-2.36-.46 6.24 6.24 0 0 1-2-1.33 5.94 5.94 0 0 1-1.37-2.05l-9.57-23.02a6.12 6.12 0 0 1-.48-2.42c0-.83.16-1.61.47-2.35a6.22 6.22 0 0 1 1.33-2 5.94 5.94 0 0 1 2.04-1.37l28.78-11.96a6.18 6.18 0 0 1 2.42-.48c.83 0 1.6.16 2.34.48a6.68 6.68 0 0 1 2 1.33 5.97 5.97 0 0 1 1.39 2.04l9.56 23.02c.34.79.49 1.6.47 2.43a6.83 6.83 0 0 1-.47 2.36 6.2 6.2 0 0 1-1.31 2 5.94 5.94 0 0 1-2.04 1.37L77.97 476.9v-.03Zm16.82-40.74-28.78 11.96 9.57 23.02 28.78-11.96-9.57-23.02Z"/><path d="M75.61 480.9h-.1a9.43 9.43 0 0 1-3.66-.74 10 10 0 0 1-3.13-2.08 9.62 9.62 0 0 1-2.18-3.22l-9.57-23.02a9.52 9.52 0 0 1-.75-3.8 9.49 9.49 0 0 1 .74-3.68 9.82 9.82 0 0 1 2.07-3.13 9.62 9.62 0 0 1 3.22-2.18l28.78-11.95a9.8 9.8 0 0 1 3.82-.76 9.59 9.59 0 0 1 3.69.76 10.32 10.32 0 0 1 3.07 2.02 9.5 9.5 0 0 1 2.22 3.25l9.57 23.02c.51 1.24.75 2.54.74 3.87a10.48 10.48 0 0 1-.73 3.62 9.46 9.46 0 0 1-2.07 3.16 9.62 9.62 0 0 1-3.22 2.17l-28.78 11.96a9.62 9.62 0 0 1-3.72.76l-.01-.03ZM70.65 450l6.85 16.46 22.22-9.24-6.85-16.46L70.65 450Zm79.03 90.7c-4.6 4-8.92 4.32-12.97.95l-7.95 17.77-4.54-5.21 7.86-17.55-8.96-10.33-13.17 11.43-4.1-4.71 32.97-28.6 15.66 18.04c4.63 5.34 4.27 10.33-1.07 14.97l-3.75 3.25h.02Zm-21.83-18.45 11.35 13.08c1.09 1.25 2.15 1.92 3.18 2 1.02.07 2.17-.45 3.43-1.53l3.3-2.86c1.25-1.09 1.91-2.15 1.99-3.18.07-1.02-.44-2.17-1.53-3.43l-11.35-13.07-10.37 9Z"/><path d="m129.74 565.95-9.66-11.14 7.86-17.55-5.14-5.92-13.16 11.42-8.74-10.08 38.33-33.25 17.99 20.72c5.9 6.79 5.37 14.07-1.44 19.97l-3.74 3.25c-5.48 4.75-10.22 4.67-13.67 3.33l-8.6 19.24-.03.01Zm3.14-43.35 9.03 10.4c.35.4.6.62.75.73.17-.08.44-.26.85-.6l3.3-2.87c.4-.34.62-.6.72-.75a4.2 4.2 0 0 0-.6-.85l-9.03-10.4-5 4.34h-.02Zm62.76 44.64a6.22 6.22 0 0 1 1.67-1.83 6.27 6.27 0 0 1 2.16-1.01 6.7 6.7 0 0 1 2.4-.12 5.89 5.89 0 0 1 2.33.81l20.3 12.2c.73.44 1.33 1 1.82 1.68a6.5 6.5 0 0 1 1 2.17c.2.78.25 1.58.14 2.4a6.34 6.34 0 0 1-.83 2.32l-2.9 4.82-5.35-3.22 2.9-4.82-20.3-12.2-16.05 26.71 20.3 12.2 2.89-4.8 5.35 3.21-2.9 4.81a6.22 6.22 0 0 1-1.65 1.83 5.97 5.97 0 0 1-2.18 1.01 6.24 6.24 0 0 1-4.73-.7l-20.3-12.2a6.22 6.22 0 0 1-1.83-1.67 5.96 5.96 0 0 1-1.01-2.18 6.1 6.1 0 0 1-.13-2.4c.11-.82.4-1.59.84-2.33l16.05-26.7h.01Z"/><path d="M205.24 619.16a11 11 0 0 1-1.39-.09 9.67 9.67 0 0 1-3.66-1.3l-20.3-12.2a9.38 9.38 0 0 1-2.87-2.63 9.61 9.61 0 0 1-1.59-3.4 10.07 10.07 0 0 1-.2-3.75 9.9 9.9 0 0 1 1.3-3.67l16.06-26.71a9.76 9.76 0 0 1 6.05-4.46 10.3 10.3 0 0 1 3.67-.2 9.42 9.42 0 0 1 3.72 1.3l20.3 12.2a9.59 9.59 0 0 1 2.89 2.68 10.15 10.15 0 0 1 1.55 3.32 9.55 9.55 0 0 1 .21 3.77 9.81 9.81 0 0 1-1.3 3.67l-4.73 7.86-11.42-6.88 2.9-4.82-14.21-8.54-12.4 20.63 14.21 8.54 2.9-4.8 11.42 6.87-4.72 7.85a9.75 9.75 0 0 1-2.63 2.87 9.71 9.71 0 0 1-3.4 1.59 9.48 9.48 0 0 1-2.36.29v.01Zm76.5-19.48-11.71 42.05-6.02-1.68L275.73 598l6.01 1.68Z"/><path d="m273.27 593.58-13.62 48.88 12.86 3.59 13.62-48.89-12.86-3.58Zm64.63 58.82-6.24.1-.71-43.63 6.24-.1 26.79 33.41-.55-33.84 6.24-.1.71 43.63-6.24.1-26.78-33.41.54 33.84Z"/><path d="m328.17 656.1-.82-50.74 11.52-.18 21.39 26.68-.44-27.03 13.33-.21.83 50.74-11.53.18-21.4-26.68.45 27.03-13.33.21Zm137.97-32.65c.27.8.4 1.62.33 2.45a6.41 6.41 0 0 1-.61 2.33 6.17 6.17 0 0 1-1.46 1.92 6.31 6.31 0 0 1-2.13 1.25l-23.56 8.12a6.16 6.16 0 0 1-2.45.33 6.1 6.1 0 0 1-2.33-.62 6.13 6.13 0 0 1-1.92-1.45 6.3 6.3 0 0 1-1.25-2.13l-10.15-29.47a6.18 6.18 0 0 1-.33-2.45 6.34 6.34 0 0 1 .62-2.32 6.5 6.5 0 0 1 1.45-1.92 6.05 6.05 0 0 1 2.13-1.27l23.57-8.11a6.17 6.17 0 0 1 2.45-.32 6.73 6.73 0 0 1 2.33.62 6.3 6.3 0 0 1 3.16 3.57l10.14 29.47h.01Zm-39.62-19.32 10.15 29.48 23.56-8.12-10.14-29.47-23.57 8.12Z"/><path d="M436.7 643.4c-.23 0-.46 0-.7-.02a9.95 9.95 0 0 1-3.63-.97 9.89 9.89 0 0 1-2.99-2.27 9.48 9.48 0 0 1-1.96-3.36l-10.15-29.47a9.62 9.62 0 0 1-.51-3.85 9.75 9.75 0 0 1 .98-3.65 9.9 9.9 0 0 1 2.22-2.93 9.54 9.54 0 0 1 3.38-2.01l23.56-8.12a9.55 9.55 0 0 1 3.9-.5c1.25.1 2.45.43 3.55.95a9.95 9.95 0 0 1 3.03 2.26 9.52 9.52 0 0 1 1.96 3.35l10.14 29.48a9.59 9.59 0 0 1 .52 3.85 9.93 9.93 0 0 1-.97 3.63 9.76 9.76 0 0 1-2.27 3 9.53 9.53 0 0 1-3.35 1.96l-23.57 8.12a9.58 9.58 0 0 1-3.17.53l.03.03Zm-5.66-37.06 7.83 22.75 16.86-5.8-7.83-22.75-16.86 5.8Zm86.53-25.94a6.08 6.08 0 0 1-2.23 1.08 6.83 6.83 0 0 1-2.4.15 6 6 0 0 1-2.27-.76 5.97 5.97 0 0 1-1.85-1.63l-7.6-9.92a6.34 6.34 0 0 1-1.08-2.22 5.81 5.81 0 0 1-.14-2.39 6.48 6.48 0 0 1 .77-2.28 6.17 6.17 0 0 1 1.62-1.87l16.82-12.88a6.07 6.07 0 0 1 2.23-1.08 6.8 6.8 0 0 1 2.4-.15 6.29 6.29 0 0 1 2.27.76 5.99 5.99 0 0 1 1.86 1.63l1.58 2.09-4.95 3.8-1.6-2.1-16.82 12.88 7.6 9.92 16.82-12.88a6.36 6.36 0 0 1 2.22-1.09 6.17 6.17 0 0 1 2.4-.15 6.12 6.12 0 0 1 2.27.77 6 6 0 0 1 1.86 1.63l7.57 9.9a6.35 6.35 0 0 1 1.09 2.21c.21.8.26 1.6.15 2.4a6.12 6.12 0 0 1-.77 2.27 5.99 5.99 0 0 1-1.63 1.86l-17.31 13.24a6.35 6.35 0 0 1-2.22 1.1 6.15 6.15 0 0 1-2.4.14 6.3 6.3 0 0 1-2.29-.77 6 6 0 0 1-1.86-1.63l-1.86-2.4 4.96-3.8 1.86 2.4 17.3-13.24-7.56-9.88-16.83 12.88.02.01Z"/><path d="M524.66 600.46a9.1 9.1 0 0 1-1.29-.09 10.08 10.08 0 0 1-3.55-1.2 9.66 9.66 0 0 1-2.93-2.55l-4.02-5.21 10.6-8.1 1.85 2.4 11.69-8.93-3.25-4.25-14 10.72a9.6 9.6 0 0 1-3.54 1.7 10.07 10.07 0 0 1-3.67.23 9.65 9.65 0 0 1-3.58-1.2 9.66 9.66 0 0 1-2.94-2.55l-7.59-9.91a10.03 10.03 0 0 1-1.7-3.5 9.62 9.62 0 0 1-.22-3.76 9.88 9.88 0 0 1 1.18-3.5 9.33 9.33 0 0 1 2.57-2.97l16.83-12.88a9.68 9.68 0 0 1 3.55-1.7 10.09 10.09 0 0 1 3.67-.23c1.26.15 2.45.56 3.59 1.2a9.63 9.63 0 0 1 2.93 2.55l3.73 4.9-10.6 8.11-1.58-2.09-11.17 8.56 3.26 4.28 14-10.72a10.03 10.03 0 0 1 3.5-1.7 9.77 9.77 0 0 1 3.73-.23c1.25.16 2.43.57 3.55 1.19a9.88 9.88 0 0 1 2.93 2.55l7.57 9.89a9.89 9.89 0 0 1 1.71 3.5 9.8 9.8 0 0 1 .23 3.74 9.98 9.98 0 0 1-1.2 3.55 9.66 9.66 0 0 1-2.55 2.94l-17.3 13.24a10.03 10.03 0 0 1-3.5 1.7 9.78 9.78 0 0 1-2.46.32h-.03Zm47.48-82.24 5.51-7.24 7.24 5.51-5.51 7.24-7.24-5.51Z"/><path d="m580.05 528.7-12.89-9.8 9.81-12.9 12.9 9.81-9.82 12.9Zm-2.94-11.15 1.58 1.21 1.21-1.59-1.58-1.2-1.21 1.58Zm12.44-59.78 12.08-29.43 5.77 2.37-9.7 23.66 11.54 4.74 8.29-20.2 5.77 2.38-8.28 20.2 17.3 7.1-2.38 5.78-40.38-16.59-.01-.01Z"/><path d="m631.86 479-46.94-19.3 14.79-35.99 12.33 5.08-9.72 23.64 4.99 2.04 8.28-20.18 12.34 5.07-8.29 20.2 17.3 7.08-5.08 12.35Zm-13.02-96.04a5.82 5.82 0 0 1-2.37-.68 5.81 5.81 0 0 1-1.86-1.5 6.97 6.97 0 0 1-1.18-2.1 5.82 5.82 0 0 1-.3-2.45l1.87-23.6a5.85 5.85 0 0 1 .7-2.38 6.5 6.5 0 0 1 1.5-1.88 6 6 0 0 1 2.07-1.17 6.03 6.03 0 0 1 2.44-.3l5.61.46-.5 6.21-5.6-.45-1.88 23.61 31.06 2.48 1.88-23.61-5.58-.44.5-6.23 5.58.44c.84.06 1.64.29 2.37.68a6.05 6.05 0 0 1 1.87 1.5 6.51 6.51 0 0 1 1.18 2.1c.26.79.37 1.6.3 2.45l-1.88 23.61a5.8 5.8 0 0 1-.68 2.37 6.03 6.03 0 0 1-1.5 1.88c-.6.53-1.31.9-2.1 1.18a6.06 6.06 0 0 1-2.45.28l-31.06-2.48.01.02Z"/><path d="M650.42 389c-.26 0-.53 0-.8-.02l-31.08-2.48a9.6 9.6 0 0 1-3.73-1.08 9.71 9.71 0 0 1-2.94-2.35 10.5 10.5 0 0 1-1.81-3.2 9.45 9.45 0 0 1-.5-3.9l1.88-23.62a9.6 9.6 0 0 1 1.1-3.78 9.9 9.9 0 0 1 2.3-2.87 9.53 9.53 0 0 1 3.28-1.86 9.78 9.78 0 0 1 3.85-.47l9.15.73-1.06 13.3-5.6-.45-1.32 16.52 23.98 1.9 1.32-16.52-5.58-.44 1.06-13.3 9.12.73a9.57 9.57 0 0 1 3.73 1.07 9.77 9.77 0 0 1 5.24 9.45l-1.87 23.6a9.6 9.6 0 0 1-1.07 3.74 9.8 9.8 0 0 1-2.33 2.93 9.82 9.82 0 0 1-3.27 1.85 9.51 9.51 0 0 1-3.06.5l.01.03ZM414.08 332.2c-8.8 4.41-16.15 6.86-22.28 7.98.26 1.2.56 2.34.86 3.22 4.3 12.3 20.06 19.47 35.9 16.3 14.49-2.91 22.15-11.72 23.42-26.96.51-6.12-2.07-13.21-4.17-17.84-6.43 3.22-16.27 8.56-33.73 17.3Z"/><path d="M625.55 236.58a4.67 4.67 0 0 1-3.47-4.69l1.13-30.15c-6.67 5-17.13 12-30.62 18.21-11.34 5.23-25.13 6.88-39.71 8.63-17.39 2.09-35.37 4.25-52.86 12.35-5.1 2.36-8.83 6.64-11.5 12.12v16.1a4.89 4.89 0 0 1-2.8 4.42c-1.92.89-48.15 21.91-136.14 21.91-87.99 0-128.15-21.14-129.81-22.03a4.85 4.85 0 0 1-2.54-4.28v-9.53c-2.63-8.5-7.03-15.26-13.97-18.48-17.49-8.09-35.46-10.25-52.86-12.35-14.58-1.76-28.36-3.42-39.7-8.63a312.6 312.6 0 0 1-33.2-17.89l3.67 29.42a4.65 4.65 0 0 1-3.44 5.08l-8.86 2.33c8.27 7.65 22.07 22.73 33.18 46.42 14.58 31.1 40 50.38 71.95 54.76a249.37 249.37 0 0 1 11.82-31.56c-3.04-4.2-9.39-6.48-14.77-7.66a64.8 64.8 0 0 0-10.85-1.35 81.75 81.75 0 0 0-11.35.3 87.42 87.42 0 0 1 10.5-5.09c7.01-2.7 14.5-4.8 21.96-4.87-2.73-12.77-12.7-21.92-24.9-28.85a175.38 175.38 0 0 0-16.8-8.38c19.47 3.2 40.66 8.07 53.06 25.3 4.38 6.08 7.2 13.34 8.64 20.6h-.03l.17.15a145.4 145.4 0 0 0-2.39 4.58 252.22 252.22 0 0 0-15.18 37.71c-.27.86-.53 1.74-.78 2.6l-.06.21a211.97 211.97 0 0 0-2.07 7.63c-.03.16-.08.3-.1.44a223.49 223.49 0 0 0-1.69 7.33l-.12.6-.47 2.35a.44.44 0 0 1-.03.14c-.28 1.52-.56 3.05-.81 4.58l-.14.77-.33 2.13-.14.92a148.45 148.45 0 0 0-.5 3.68l-.12 1a81.46 81.46 0 0 0-.2 1.91l-.15 1.29-.18 1.81a156.97 156.97 0 0 0-.2 2.65 59.38 59.38 0 0 0-.11 1.63l-.1 1.59c-.02.53-.06 1.04-.07 1.55-.03.83-.08 1.65-.09 2.48a49.61 49.61 0 0 0-.03 1.56l-.03 1.95v1.34l.01 2.27c0 .4 0 .79.02 1.18.01.88.04 1.77.07 2.65 0 .37.03.75.05 1.13.03.77.08 1.53.12 2.3l.05.89c.06 1.01.13 2.02.22 3.02l.08.91c.07.8.15 1.6.24 2.39l.1.87a216.14 216.14 0 0 0 .44 3.66 156.75 156.75 0 0 0 .52 3.48c.16 1.04.35 2.07.53 3.11 5.38 29.42 18.7 50.63 29.37 60.68a147.5 147.5 0 0 0 39.57 26.81c.15-24.14 14.32-53.13 39.12-75.77 25.56-23.34 61.61-22.62 65.07-22.5 3.48-.12 39.5-.84 65.08 22.5 24.97 22.8 39.16 52.04 39.12 76.27 15.55-7.12 28.64-15.99 40.67-27.31 10.68-10.05 24-31.26 29.37-60.68.2-1.02.37-2.07.53-3.11l.14-.86c.14-.86.26-1.73.38-2.59l.09-.6.38-3.07.09-.88c.09-.78.16-1.58.24-2.37l.09-.94c.1-1 .17-2 .23-3.02l.04-.88c.05-.75.1-1.52.12-2.28l.05-1.16a124.86 124.86 0 0 0 .1-3.8l.02-2.28v-1.4a74.46 74.46 0 0 0-.06-3.27l-.1-2.66-.1-1.62-.09-1.5c-.03-.57-.07-1.13-.12-1.7l-.12-1.5-.27-3-.12-1.17-.23-1.98c-.03-.29-.08-.6-.1-.88a186.3 186.3 0 0 0-.55-3.97 9.99 9.99 0 0 0-.1-.68l-.35-2.23c-.03-.22-.08-.45-.1-.66a183.56 183.56 0 0 0-1.35-7.21 5.96 5.96 0 0 0-.11-.49 200.63 200.63 0 0 0-1.74-7.55 1.27 1.27 0 0 0-.06-.23 221.63 221.63 0 0 0-2.96-10.58 252.57 252.57 0 0 0-15.1-37.5 146.1 146.1 0 0 0-4.5-8.35c6.25-32 33.11-41.6 61.71-45.89-11.1 4.96-22.66 10.66-31.29 19.02a34.88 34.88 0 0 0-10.4 18.23c11.35.04 22.95 4.67 32.46 9.94-7.43-.7-15.06-.48-22.22 1.05-5.16 1.13-11.24 3.3-14.4 7.18a254.31 254.31 0 0 1 13.65 35.47c32.07-4.3 57.6-23.6 72.23-54.8 11.1-23.7 24.9-38.78 33.18-46.43l-8.86-2.33.05-.07ZM372.64 379.5c-13.76-5.96-28.4-7.14-41.27 1.57 7.13-16.13 32.2-15.66 41.27-1.57Zm-92.36 20.24a174 174 0 0 0 13.12-13.42 73.16 73.16 0 0 0 8.63-11.9c-7.83 3.84-16.87 5.03-25.35 6.29 7.97-3.9 17.23-8.18 22.96-14.88-8.93 4.13-20.7 5.02-32.63.78-21.24-7.56-26.18-25.2-24.13-39.62 1.15-8.03 2.98-12.32 4.08-14.4-2.85-.9-5.18-1.1-8.58-1.05-10.78.13-18.5 1.78-18.5 1.78l29.36-21.66s25.08 11.2 42.78 24.3c17.7 13.13 22.18 16.65 30.46 17.22 8.3.58 17.2-1.54 17.2-1.54s-3.4 8.56-15.64 10.36a50.96 50.96 0 0 1-1.94 16.41c-6.06 20.35-24.48 31.9-41.82 41.3v.03Zm70.97-3.31c-13 .1-24.84 4.23-35.7 12 9.55-20.31 37.63-25.7 56.68-16.11 6.47 3.11 12.21 7.6 16.25 13.33-12.1-5.58-24.19-9.39-37.22-9.22h-.01Zm113.56-86.28c-3.41-.05-5.74.15-8.58 1.06 1.1 2.07 2.93 6.36 4.08 14.39 2.05 14.42-2.89 32.06-24.13 39.61-11.94 4.25-23.7 3.38-32.63-.77 5.73 6.7 15 10.98 22.96 14.88-8.48-1.27-17.52-2.45-25.35-6.3 2.36 4.14 5.3 8.11 8.63 11.9 4.04 4.7 8.51 9.12 13.12 13.43-17.35-9.4-35.76-20.95-41.82-41.3a50.12 50.12 0 0 1-1.94-16.41c-12.24-1.8-15.64-10.36-15.64-10.36s8.9 2.12 17.2 1.54c8.3-.57 12.76-4.1 30.46-17.21 17.7-13.12 42.77-24.31 42.77-24.31l29.37 21.66s-7.72-1.66-18.48-1.78l-.02-.03Z"/><path d="M289.1 333.58c-17.47-8.74-27.3-14.06-33.73-17.3-2.1 4.63-4.7 11.72-4.19 17.84 1.28 15.24 8.95 24.06 23.41 26.95 15.85 3.18 31.61-3.99 35.9-16.3.3-.85.6-2 .87-3.21-6.11-1.14-13.46-3.59-22.28-7.98h.01ZM222.06 99.42C290.6 64.45 372.87 57.32 448.13 86a270.08 270.08 0 0 1 34.47 15.52l11.78-11.73c-87.39-49.52-196.3-50.33-284.39-2.42l12.08 12.04Zm111 61.16 19.87 48.18 20.7-48.17-20.7-25.95-19.86 25.94Z"/><path d="M437.27 160.43c7.67 6.53 12.25 16.5 12.25 27.3 0 19.2-14.47 34.8-32.26 34.8-17.8 0-32.26-15.6-32.26-34.8 0-11.25 4.9-21.53 13.08-28.02l-44.7-56.08-44.7 56.08c8.18 6.49 13.08 16.77 13.08 28.01 0 19.2-14.47 34.82-32.26 34.82-17.8 0-32.26-15.62-32.26-34.82 0-10.8 4.57-20.77 12.24-27.3l-67.76-67.5L227.1 234.6c14.37 4.23 70.34 19.66 123.46 19.66 53.12 0 116.1-16.35 129.18-20.02l25.3-141.32-67.76 67.5Zm-55.55 1.08-25.27 58.82a3.9 3.9 0 0 1-3.59 2.36h-.03a3.87 3.87 0 0 1-3.56-2.4l-24.25-58.82a3.9 3.9 0 0 1 .52-3.86l24.24-31.67a3.9 3.9 0 0 1 3.05-1.52h.05c1.18 0 2.3.54 3.04 1.46l25.27 31.67a3.88 3.88 0 0 1 .53 3.96Zm211.73 47.68a156.38 156.38 0 0 0 11.71-6.5c-23.67-42.84-55.4-76.55-91.76-101.11l-3.06 17.03a286.22 286.22 0 0 1 83.1 90.58Zm43.46 86.87a291.58 291.58 0 0 0-8.38-37.1 142.6 142.6 0 0 0-8.5 11.7 275.84 275.84 0 0 1 8.7 39.67c1.07 6.56 10.46 5.3 9.88-1.26l-1.7-13.03v.02ZM106.96 208.3a276.27 276.27 0 0 1 88.79-93.63L192.7 97.6c-38.73 24.75-72.56 59.59-97.51 104.5a312.13 312.13 0 0 0 11.77 6.2Zm-34.57 47.6a293.25 293.25 0 0 0-9.3 40.14l-1.7 13.03a4.98 4.98 0 0 0 4.1 5.55 4.98 4.98 0 0 0 5.74-4.07l.04-.22 2.13-12.49a307 307 0 0 1 7.71-30.6 139.66 139.66 0 0 0-8.72-11.33v-.01Zm337.37 185.85c-23.4-21.38-58.23-20.08-58.57-20.06h-.44c-.33-.02-35.16-1.32-58.56 20.06-35.36 32.28-43.05 72.46-29.88 91.17 6.84 9.72 17.42 13.73 31.59 12 7.27 21.02 28.76 36.28 54.07 36.28 25.3 0 47.13-15.5 54.23-36.79 12.7 2.72 27.86 2.09 37.41-11.5 13.17-18.71 5.5-58.9-29.88-91.18l.03.02Zm-105.7 30.12c9.75-9.3 28.47-8.95 29.26-8.93a2.92 2.92 0 0 1 2.69 1.96 2.91 2.91 0 0 1-.92 3.2c-.08.07-7.74 6.39-11.69 13.87-6.22 11.83-13.66 24.15-21.57 25.68a8.8 8.8 0 0 1-1.64.17 8.36 8.36 0 0 1-5.45-2.07 12.14 12.14 0 0 1-4.38-9.18c-.24-8.37 6.9-18.26 13.68-24.71l.01.01Zm42.44 91.32c-16.26 0-30.17-9.27-35.87-22.39a125.85 125.85 0 0 0 4.57-1.7l.36-.16a144.22 144.22 0 0 0 4.43-1.84c9.1-4 20.58-6.02 31.8-6.02 11.22 0 22.37 2.04 30.41 6.12l.6.3c.02 0 .04.03.07.03l.63.32c-4.79 14.66-19.54 25.34-37 25.34Zm62.38-66.62a12.17 12.17 0 0 1-4.38 9.18 8.27 8.27 0 0 1-7.09 1.9c-7.9-1.54-15.34-13.85-21.57-25.68-3.95-7.48-11.6-13.8-11.68-13.86a2.88 2.88 0 0 1-.91-3.2 2.92 2.92 0 0 1 2.69-1.97c.79-.03 19.51-.35 29.26 8.93 6.78 6.46 13.93 16.33 13.68 24.72v-.02ZM151.52 219.54c4.16.5 8.36 1 12.58 1.59a226.09 226.09 0 0 1 25.98-31.05 231.02 231.02 0 0 1 17.07-15.43l-2.59-14.42a242.5 242.5 0 0 0-23.6 20.72 239.78 239.78 0 0 0-31.2 38.38c.58.08 1.17.14 1.76.21Zm384.55 1.83c4.79-.7 9.57-1.3 14.3-1.87a240.28 240.28 0 0 0-31.32-38.55 241.62 241.62 0 0 0-17.67-16l-2.63 14.69a227 227 0 0 1 11.17 10.44 227.31 227.31 0 0 1 26.15 31.3Z"/><path d="M308.92 578.63a65.59 65.59 0 0 1-9.78-8.19 224.9 224.9 0 0 1-37.17-12.05 225.24 225.24 0 0 1-71.89-48.47 225.5 225.5 0 0 1-66.25-159.93c0-6.89.3-13.74.92-20.54a102.44 102.44 0 0 1-11.79-10.88 240.88 240.88 0 0 0-2.04 31.42 238.45 238.45 0 0 0 70.02 169.04 238.19 238.19 0 0 0 149.18 69.2 67.47 67.47 0 0 1-21.21-9.63l.01.03ZM575.43 331.6c.48 6.09.74 12.22.74 18.4 0 30.54-5.99 60.15-17.78 88.04a225.24 225.24 0 0 1-48.47 71.9 225.5 225.5 0 0 1-71.9 48.47 223.98 223.98 0 0 1-42.33 13.17 65.34 65.34 0 0 1-8.4 6.9 67.86 67.86 0 0 1-23.09 10.2 238.43 238.43 0 0 0 154.83-69.6 238.19 238.19 0 0 0 51.23-76 237.5 237.5 0 0 0 18.79-93.06c0-9.61-.56-19.15-1.7-28.58a98.92 98.92 0 0 1-11.95 10.17l.03-.01Zm-348.46-86.9v21.37c9.96 4.44 49.4 19.67 122.61 19.67 73.23 0 118.01-15.4 129.22-19.84V244.6c-18.75 5.08-76.32 19.4-128.25 19.4s-105.48-14.1-123.6-19.3h.02Zm224.75-111.48c-20.3-12.3-49-20.77-81.52-23.06l35 43.9a9.06 9.06 0 0 1 1.92 6.7 9.11 9.11 0 0 1-3.4 6.09c-6.11 4.87-9.64 12.47-9.64 20.89 0 14.18 10.4 25.73 23.18 25.73 12.77 0 23.17-11.54 23.17-25.73 0-8.06-3.3-15.5-9.04-20.4a9.1 9.1 0 0 1-3.19-6.55 9.03 9.03 0 0 1 2.66-6.79l20.86-20.78Zm-115.05-23.16c-32.68 2.05-61.6 10.37-82.21 22.57L275.93 154a9.05 9.05 0 0 1 2.66 6.79 9.1 9.1 0 0 1-3.2 6.56c-5.74 4.9-9.03 12.32-9.03 20.39 0 14.18 10.4 25.73 23.17 25.73 12.77 0 23.17-11.54 23.17-25.73 0-8.42-3.52-16.04-9.64-20.9a9.08 9.08 0 0 1-3.39-6.08 9.13 9.13 0 0 1 1.92-6.7l35.08-44Z"/></g><defs><clipPath id="a"><path fill="#fff" d="M0 0h700v700H0z"/></clipPath></defs></svg>