<svg xmlns="http://www.w3.org/2000/svg" width="1001" height="1000" fill="none"><g clip-path="url(#a)"><path fill="#000" d="M500 934a434 434 0 1 0 0-868 434 434 0 0 0 0 868Z"/><path fill="#D50D4C" d="M500 916a416 416 0 1 0 0-832 416 416 0 0 0 0 832Z"/><path fill="#000" d="M500 788a288 288 0 1 0 0-576 288 288 0 0 0 0 576Z"/><path fill="#000" d="M500 758a258 258 0 1 0 0-516 258 258 0 0 0 0 516Z"/><path fill="#fff" d="m117 501 54-4 2 30c1 8-3 13-12 14h-7c-9 1-14-3-15-12l-1-22-20 2-1-8Zm29 6 1 21 2 5 4 1 7-1 5-2 1-4-2-21-18 1Z"/><path fill="#fff" d="M152 546c-5 0-9-1-11-4-4-3-6-7-6-12l-1-18-20 2-2-17 63-5 3 34c1 12-5 18-16 19l-8 1h-2Zm0-17h9v-2l-1-17-10 1 1 17 1 1Zm11 128a7 7 0 0 1-3 1 8 8 0 0 1-3-1 8 8 0 0 1-3-1 8 8 0 0 1-1-3l-12-28a7 7 0 0 1-1-3 8 8 0 0 1 2-6 8 8 0 0 1 3-2l36-14a8 8 0 0 1 3-1 8 8 0 0 1 3 1 8 8 0 0 1 2 1 7 7 0 0 1 2 3l12 28v3a8 8 0 0 1 0 3 7 7 0 0 1-2 3 8 8 0 0 1-3 1l-35 15Zm21-50-36 15 12 28 35-15-11-28Z"/><path fill="#fff" d="M160 662a12 12 0 0 1-5-1 12 12 0 0 1-4-2 12 12 0 0 1-2-4l-12-29a12 12 0 0 1-1-5 12 12 0 0 1 3-8 12 12 0 0 1 4-3l36-14a12 12 0 0 1 5-1l4 1a13 13 0 0 1 4 2 12 12 0 0 1 3 4l12 29 1 4a13 13 0 0 1-1 5 12 12 0 0 1-3 4 12 12 0 0 1-4 3l-36 14a12 12 0 0 1-4 1Zm-6-38 8 20 28-11-9-20-27 11Zm98 112c-6 5-11 6-16 2l-10 22-6-7 10-22-11-12-17 14-5-6 41-36 20 23c5 6 5 13-2 18l-4 4Zm-27-22 14 16 4 2 4-2 4-3 2-4c1-1 0-3-1-4l-15-17-12 12Z"/><path fill="#fff" d="m227 768-12-14 10-22-7-7-16 14-11-13 48-41 22 26c7 8 7 17-2 25l-4 4c-7 6-13 6-17 4l-11 24Zm4-54 11 13 1 1 1-1 4-4h1l-1-2-11-12-6 5Zm78 55a8 8 0 0 1 2-2 8 8 0 0 1 2-1 8 8 0 0 1 3 0 7 7 0 0 1 3 1l25 15a7 7 0 0 1 3 2 8 8 0 0 1 1 3v3a8 8 0 0 1-1 2l-3 6-7-4 3-6-25-15-20 33 26 16 3-6 7 4-4 6a7 7 0 0 1-2 2 8 8 0 0 1-3 1 8 8 0 0 1-3 0 8 8 0 0 1-2-1l-26-15a8 8 0 0 1-2-2 8 8 0 0 1-1-6 8 8 0 0 1 1-3l20-33Z"/><path fill="#fff" d="M321 834a12 12 0 0 1-7-2l-25-15a12 12 0 0 1-3-3 12 12 0 0 1-2-5 12 12 0 0 1-1-4 12 12 0 0 1 2-5l20-33a12 12 0 0 1 3-4 12 12 0 0 1 4-1 12 12 0 0 1 5-1l5 2 25 15a12 12 0 0 1 3 3 13 13 0 0 1 2 4 12 12 0 0 1 0 5 12 12 0 0 1-1 5l-6 9-14-8 3-6-17-11-16 26 18 11 4-6 14 8-6 10a12 12 0 0 1-3 3 12 12 0 0 1-5 2l-2 1Zm94-24-14 52-8-2 15-53 7 3Z"/><path fill="#fff" d="m405 802-17 61 16 4 17-61-16-4Zm80 73h-8l-1-54h8l33 41v-42h7l1 54h-7l-34-41 1 42Z"/><path fill="#fff" d="m473 879-1-62 14-1 27 33-1-33h17l1 63h-15l-26-33 1 33h-17Zm171-40a8 8 0 0 1 0 3 8 8 0 0 1-2 5 8 8 0 0 1-3 2l-29 10a7 7 0 0 1-3 0 8 8 0 0 1-3 0 8 8 0 0 1-2-2 8 8 0 0 1-2-3l-12-36a7 7 0 0 1-1-3 7 7 0 0 1 1-3 8 8 0 0 1 2-3 8 8 0 0 1 2-1l30-10a7 7 0 0 1 3-1 8 8 0 0 1 3 1 8 8 0 0 1 2 2 8 8 0 0 1 1 2l13 37Zm-49-24 13 37 29-10-13-37-29 10Z"/><path fill="#fff" d="M608 864a12 12 0 0 1-6-1 12 12 0 0 1-4-3 12 12 0 0 1-2-4l-13-37a12 12 0 0 1 1-9 13 13 0 0 1 3-4 12 12 0 0 1 4-2l29-10a12 12 0 0 1 5-1l4 1a12 12 0 0 1 4 3 12 12 0 0 1 3 4l12 37 1 4a12 12 0 0 1-4 9 12 12 0 0 1-4 2l-30 10a12 12 0 0 1-3 1Zm-7-46 9 28 21-7-10-28-20 7Zm107-32a7 7 0 0 1-3 1 8 8 0 0 1-3 0 8 8 0 0 1-3-1 8 8 0 0 1-2-2l-9-12a8 8 0 0 1-2-3 7 7 0 0 1 0-3 8 8 0 0 1 1-3 7 7 0 0 1 2-2l21-16a7 7 0 0 1 3-1 8 8 0 0 1 3 0l2 1a8 8 0 0 1 3 2l2 2-6 5-2-3-21 16 9 12 21-15a8 8 0 0 1 3-2 8 8 0 0 1 3 0 8 8 0 0 1 5 3l9 12a8 8 0 0 1 2 3 8 8 0 0 1 0 3 8 8 0 0 1-1 3 8 8 0 0 1-2 2l-22 16a8 8 0 0 1-2 2 8 8 0 0 1-3 0 8 8 0 0 1-3-1 8 8 0 0 1-3-2l-2-3 6-5 3 3 21-16-9-12-21 16Z"/><path fill="#fff" d="M717 810a12 12 0 0 1-6-1 12 12 0 0 1-4-3l-5-7 13-10 2 3 15-11-4-5-17 13a12 12 0 0 1-5 2 13 13 0 0 1-4 1 12 12 0 0 1-5-2 12 12 0 0 1-4-3l-9-12a12 12 0 0 1-2-5 12 12 0 0 1 0-4 13 13 0 0 1 1-5 12 12 0 0 1 3-3l21-16a12 12 0 0 1 5-3 13 13 0 0 1 4 0l5 2a12 12 0 0 1 3 3l5 6-13 10-2-3-14 11 4 5 17-13a12 12 0 0 1 5-2 12 12 0 0 1 4 0 12 12 0 0 1 5 1 12 12 0 0 1 3 3l10 13a12 12 0 0 1 2 4v5a12 12 0 0 1-1 4 12 12 0 0 1-4 4l-21 16a12 12 0 0 1-4 2 12 12 0 0 1-3 0Zm58-101 7-9 9 6-7 9-9-6Z"/><path fill="#fff" d="m785 722-16-13 12-16 16 13-12 16Zm-3-14 2 1 1-2-2-1-1 2Zm15-74 15-37 7 3-12 29 14 6 11-25 7 3-10 25 21 9-3 7-50-20Z"/><path fill="#fff" d="m850 660-59-24 19-45 15 7-12 29 6 3 10-26 16 7-11 25 22 9-6 15Zm-17-119a8 8 0 0 1-3-1 7 7 0 0 1-2-2 8 8 0 0 1-1-2 7 7 0 0 1-1-4l3-29a7 7 0 0 1 0-3 8 8 0 0 1 2-2 8 8 0 0 1 3-2 8 8 0 0 1 3 0l7 1-1 7h-7l-2 29 39 3 2-29-7-1 1-7h6a8 8 0 0 1 3 1 8 8 0 0 1 3 2 8 8 0 0 1 1 2l1 4-3 29a8 8 0 0 1-1 3 8 8 0 0 1-1 2 8 8 0 0 1-3 2 8 8 0 0 1-3 0l-39-3Z"/><path fill="#fff" d="M873 548h-1l-39-3a12 12 0 0 1-5-1 12 12 0 0 1-3-3 13 13 0 0 1-2-4 12 12 0 0 1-1-5l2-29a12 12 0 0 1 2-5 12 12 0 0 1 2-3 12 12 0 0 1 4-3 12 12 0 0 1 5 0l12 1-2 16h-7l-1 20 29 2 2-20-7-1 1-16 12 1 4 1a12 12 0 0 1 4 3 12 12 0 0 1 2 4l1 5-2 29a12 12 0 0 1-2 5 12 12 0 0 1-3 3 12 12 0 0 1-4 3h-3Zm-27-97a349 349 0 0 0-689-15l-3 15c0 3-3 6-7 5a6 6 0 0 1-5-7l2-16a361 361 0 0 1 711 0l3 16c1 8-11 10-12 2Z"/><path fill="#F078A8" d="M665 474s-23-95 19-115c41-19 85-12 114-26 29-13 47-29 47-29l-2 50 22 5s-28 20-48 63-56 68-100 72c-45 4-52-20-52-20Z"/><path fill="#000" d="M707 500c-40 0-47-23-48-24-1-5-23-101 22-122 24-11 48-13 69-16 17-2 34-4 46-10 28-13 45-29 45-29a6 6 0 0 1 6-1 6 6 0 0 1 4 6l-2 45 17 5a6 6 0 0 1 5 4 6 6 0 0 1-3 6s-27 20-46 61a125 125 0 0 1-115 75Zm-37-27c1 2 9 19 46 15 43-3 77-28 96-68 13-30 30-48 41-58l-11-3a6 6 0 0 1-5-5l2-38c-8 6-21 15-38 23-14 6-31 8-49 10-22 3-44 6-66 16-30 14-22 82-16 108Z"/><path fill="#F078A8" d="M339 475s23-96-18-115c-42-19-86-13-115-26-29-14-51-29-51-29l6 49-22 6s28 19 48 62c21 44 56 69 101 72 44 4 51-19 51-19Z"/><path fill="#000" d="m297 501-10-1c-47-4-84-31-105-75-19-41-46-60-46-61a6 6 0 0 1-2-5 6 6 0 0 1 4-5l17-4-6-44a6 6 0 0 1 3-6 6 6 0 0 1 6 0c0 1 22 15 50 28 13 6 29 8 46 10 21 3 46 6 69 16 45 21 23 118 22 122 0 1-8 25-48 25ZM152 362c10 10 27 29 41 58 19 41 53 65 95 69 37 3 45-15 46-16 6-26 14-94-16-108-22-10-44-13-65-15-18-2-36-5-50-11-17-8-32-16-41-22l5 36a6 6 0 0 1-4 7l-11 2Z"/><path fill="#F078A8" d="M696 440c-51-105-182-116-194-117-12 1-143 12-194 117-61 122-15 206 11 230 26 25 57 42 109 54 48 11 71-4 74-7 3 3 26 18 74 7 52-12 83-29 109-54 26-24 72-108 11-230Z"/><path fill="#000" d="M543 734c-21 0-35-6-41-9-9 5-33 14-75 5-50-12-83-28-112-55-15-14-33-43-40-82-9-49 0-101 27-156 52-105 180-119 198-120a6 6 0 0 1 2 0 6 6 0 0 1 2 0c18 1 146 15 198 120 27 55 36 107 27 156-7 39-25 68-40 82a224 224 0 0 1-146 59Zm-41-23a6 6 0 0 1 4 2c2 1 23 15 69 5 47-11 78-26 106-52 13-13 30-39 36-75 9-46 0-96-26-149-21-42-57-74-109-94-39-16-74-19-80-19-7 0-41 3-80 19-52 20-88 52-109 94-26 53-35 102-26 149 6 36 23 62 36 75 27 26 59 41 106 52 46 10 67-4 69-5a6 6 0 0 1 4-2Z"/><path fill="#F078A8" d="M498 792c41 0 75-32 75-70s-34-69-75-69c-42 0-76 31-76 69s34 70 76 70Z"/><path fill="#000" d="M498 796c-45 0-81-33-81-74s36-74 81-74 80 33 80 74-36 74-80 74Zm0-138c-39 0-71 29-71 64 0 36 32 65 71 65 38 0 70-29 70-65 0-35-32-64-70-64Z"/><path fill="#000" d="M496 764c26 0 48-19 48-44 0-24-22-44-48-44-27 0-48 20-48 44 0 25 21 44 48 44Z"/><path fill="#F078A8" d="M578 609c-31-28-77-26-77-26s-45-2-77 26c-44 41-57 94-37 121 19 28 54 18 78 7 20-9 53-10 72 0 23 12 60 21 79-7 19-27 6-80-38-121Z"/><path fill="#000" d="M579 754h-1c-18 0-35-7-43-12-17-8-48-8-67 1-50 22-75 7-86-10-22-31-5-88 39-128 31-29 76-28 80-28 5 0 49-1 81 28 44 40 61 97 39 128a49 49 0 0 1-42 21Zm-77-30c14 0 28 3 38 8 12 6 51 23 71-5 17-23 7-73-37-113-29-27-72-25-72-25h-1s-44-2-73 25c-43 40-53 90-37 113 13 18 37 20 72 5 11-5 25-8 39-8Z"/><path fill="#000" d="M434 690c10 9 25-18 30-28s15-18 15-18-22-1-33 10c-12 10-22 28-12 36Z"/><path fill="#000" d="m438 696-6-3c-4-3-6-7-6-11 0-11 9-23 17-31 12-11 35-11 36-11a4 4 0 0 1 3 6c-1 0-10 8-15 18-8 14-17 30-27 31a11 11 0 0 1-2 1Zm32-48c-7 1-16 3-22 8-7 7-15 18-15 25 0 3 1 5 3 7h3c5-1 12-10 22-28 2-5 6-9 9-12Zm95 42c-10 9-24-18-30-28-5-10-15-18-15-18s22-1 34 10c11 10 22 28 11 36Z"/><path fill="#000" d="m561 696-2-1c-10-1-19-17-27-31-5-10-14-18-14-18a4 4 0 0 1-2-4 4 4 0 0 1 4-2c1 0 24 0 36 11 9 8 17 20 17 31 0 4-2 8-5 11-2 2-5 3-7 3Zm-31-48 9 12c9 18 16 27 21 28h3c2-2 3-4 3-7 0-7-7-18-15-25-5-5-15-7-21-8Zm-73-76c12-25 47-31 71-20 8 4 15 10 20 17-15-7-30-12-46-11-17 0-31 5-45 14Zm20-34c9-20 40-19 51-1-17-8-35-9-51 1Z"/><path fill="#F078A8" d="m338 399 19 75-84-76 63-8 2 9Z"/><path fill="#000" d="M292 439c2-23-13-38-32-49l-21-11c24 4 51 11 66 32 5 7 9 16 11 25l-24 3Z"/><path fill="#000" d="M297 450c-3-6-12-9-19-11a80 80 0 0 0-27-1 105 105 0 0 1 13-6c15-6 32-10 48-1l-15 19Z"/><path fill="#F078A8" d="m663 395-19 74 84-76-63-8-2 10Z"/><path fill="#000" d="M685 432c8-40 41-52 77-57-14 6-28 13-39 24a43 43 0 0 0-14 35l-24-2Z"/><path fill="#000" d="M689 426c20-10 44-2 61 8-9-1-18-1-27 1-7 1-16 4-19 10l-15-19Zm-129 57c-1 11-2 23 5 32 6 10 19 16 30 21-15-2-32-4-43-16-9-9-13-23-16-35l24-2Z"/><path fill="#000" d="M560 487c-9 21 0 40 14 56l16 17c-21-12-44-26-51-51-3-9-3-19-2-28l23 6Z"/><path fill="#000" d="m631 450-86 29c-1 4 2 17 3 21 7 17 33 28 59 19 26-10 32-31 30-49-2-14-6-19-6-20Z"/><path fill="#fff" stroke="#000" stroke-miterlimit="10" stroke-width="4.5" d="m620 451-70 30c-1 3 1 8 2 11 5 15 24 26 46 21 22-4 29-18 30-34 1-12-7-27-8-28Z"/><path fill="#000" d="M517 475s11 29 63 3c49-25 49-28 62-27 14 0 23 2 23 2l-36-27s-31 14-53 30-28 21-38 21c-10 1-21-2-21-2Zm-73 9c1 12 2 23-4 33-7 10-20 16-31 21 15-2 32-4 43-16 9-10 14-23 17-35l-25-3Z"/><path fill="#000" d="M444 489c9 21 0 40-14 56l-16 17c21-12 44-26 51-52 3-8 3-18 2-27l-23 6Z"/><path fill="#000" d="m373 452 86 29c1 4-2 17-3 20-7 18-33 29-59 20-26-10-32-32-30-50 2-14 6-19 6-19Z"/><path fill="#fff" stroke="#000" stroke-miterlimit="10" stroke-width="4.5" d="m384 453 70 29c1 3-1 9-2 12-5 15-24 25-46 21s-29-19-30-35c-1-12 7-26 8-27Z"/><path fill="#000" d="M487 477s-11 28-62 3c-50-25-50-28-63-28-14 0-23 2-23 2l36-26s31 14 53 30 28 20 38 21 21-2 21-2Z"/><path fill="#B92025" d="M503 369c90 0 162-37 162-84 0-46-72-83-162-83s-161 37-161 83c0 47 72 84 161 84Z"/><path fill="#000" d="M503 376c-44 0-86-9-117-25-33-17-51-41-51-66s18-48 51-65c31-16 73-25 117-25s86 9 118 25c33 17 51 40 51 65s-18 49-51 66c-32 16-74 25-118 25Zm0-167c-42 0-81 8-111 23-28 15-44 34-44 53s16 39 44 54c30 15 69 23 111 23s82-8 111-23 44-34 44-54-15-38-44-53-69-23-111-23Z"/><path fill="#FFCF00" d="M599 266c11 6 18 18 18 33 0 20-15 37-34 37-18 0-34-17-34-37 1-15 8-28 20-34l-65-80-64 80c11 6 19 19 19 34 0 20-15 37-34 37s-34-17-34-37c0-15 8-27 19-33L307 163l37 208s29 13 74 20 76 6 86 6c11 0 41 1 86-6 46-7 74-20 74-20l38-208-103 103Z"/><path fill="#000" d="M497 403c-15 0-42 0-80-6-46-7-74-20-76-21a6 6 0 0 1-3-4l-37-208a6 6 0 0 1 3-6 6 6 0 0 1 7 1l103 102a6 6 0 0 1 2 6 6 6 0 0 1-3 4c-10 5-16 16-16 28 0 17 13 31 28 31s28-14 28-31c0-12-6-23-16-28a6 6 0 0 1-3-4 6 6 0 0 1 1-5l65-81a6 6 0 0 1 9 0l64 81a6 6 0 0 1 1 5 6 6 0 0 1-3 4c-9 5-15 16-15 28 0 17 12 31 27 31 16 0 28-14 28-31 0-12-5-23-15-28a6 6 0 0 1-1-10l102-102a6 6 0 0 1 7-1 6 6 0 0 1 4 6l-38 208a6 6 0 0 1-3 4c-1 1-30 14-76 21-42 6-71 6-84 6h-10Zm-148-36c9 3 34 13 70 18 41 6 70 6 82 6h6c12 0 41 0 82-6 37-5 62-15 70-18l33-186-84 84c10 8 15 20 15 34 0 24-17 43-40 43-22 0-40-19-40-43 0-14 7-27 17-35l-56-69-55 69c10 8 16 21 16 35 0 24-18 43-40 43s-40-19-40-43c0-14 6-26 15-34l-84-84 33 186Z"/><path fill="#B92025" d="m535 264-31 73-30-73 30-39 31 39Z"/><path fill="#000" d="M504 342a5 5 0 0 1-5-3l-30-73a5 5 0 0 1 1-5l30-39a5 5 0 0 1 4-2l3 2 32 39a5 5 0 0 1 0 5l-31 73a5 5 0 0 1-4 3Zm-25-77 25 60 25-60-25-32-25 32Z"/><path fill="#FFCF00" d="M666 400s-57 26-166 26-159-26-159-26v-39s82 26 160 26 165-26 165-26v39Z"/><path fill="#000" d="M500 432c-110 0-159-26-161-27a6 6 0 0 1-4-5v-39c0-2 1-3 3-5a6 6 0 0 1 5 0c1 0 82 25 158 25s162-25 163-25a6 6 0 0 1 8 5v39a6 6 0 0 1-4 5c-2 1-59 27-168 27Zm-152-36c12 5 61 24 152 24s146-19 160-24v-27c-23 7-95 24-159 24-65 0-131-17-153-24v27Z"/></g><defs><clipPath id="a"><path fill="#fff" d="M66 66h868v868H66z"/></clipPath></defs></svg>