<svg xmlns="http://www.w3.org/2000/svg" width="161" height="161" fill="none"><g clip-path="url(#a)"><path fill="#fff" d="M147.6 80.8a66.9 66.9 0 1 0-133.7 0 66.9 66.9 0 0 0 133.7 0"/><path fill="#010101" d="M80.8 150c-9.4 0-18.4-2-27-5.5a69 69 0 0 1-22-14.8 69 69 0 0 1-14.8-22 68.7 68.7 0 0 1 0-53.9 69 69 0 0 1 14.9-22 69 69 0 0 1 22-14.8 68.7 68.7 0 0 1 53.8 0 69 69 0 0 1 22 14.9 69 69 0 0 1 14.8 22 68.7 68.7 0 0 1 0 53.8 69 69 0 0 1-14.8 22 69 69 0 0 1-22 14.8 68.7 68.7 0 0 1-27 5.4"/><path fill="#010101" d="M80.8 10.1c-9.6 0-18.8 1.9-27.5 5.6a70.4 70.4 0 0 0-22.5 15.1 70.4 70.4 0 0 0-15.1 22.5 70.2 70.2 0 0 0 0 55 70.4 70.4 0 0 0 15.1 22.4 70.4 70.4 0 0 0 22.5 15.1 70.2 70.2 0 0 0 55 0 70.4 70.4 0 0 0 22.4-15 70.4 70.4 0 0 0 15.1-22.5 70.2 70.2 0 0 0 0-55 70.4 70.4 0 0 0-15-22.5 70.4 70.4 0 0 0-22.5-15.1C99.5 12 90.3 10 80.8 10Z"/><path fill="#F8AF3E" d="M80.8 11.6c-9.4 0-18.4 1.8-27 5.4a69 69 0 0 0-22 14.9 69 69 0 0 0-14.8 22 68.7 68.7 0 0 0 0 53.8 69 69 0 0 0 14.9 22 69 69 0 0 0 22 14.8 68.7 68.7 0 0 0 53.8 0 69 69 0 0 0 22-14.8 69 69 0 0 0 14.8-22 68.7 68.7 0 0 0 0-53.9 69 69 0 0 0-14.8-22 69 69 0 0 0-22-14.8 68.7 68.7 0 0 0-27-5.4"/><path fill="#010101" d="M80.8 12.7c-9.2 0-18.1 1.8-26.5 5.4a67.8 67.8 0 0 0-21.6 14.6A67.8 67.8 0 0 0 18 54.3a67.6 67.6 0 0 0 0 53 67.8 67.8 0 0 0 14.6 21.6 67.8 67.8 0 0 0 21.6 14.5 67.6 67.6 0 0 0 53 0 67.8 67.8 0 0 0 21.6-14.5 67.8 67.8 0 0 0 14.5-21.7 67.6 67.6 0 0 0 0-53A67.8 67.8 0 0 0 129 32.8 67.8 67.8 0 0 0 107.2 18a67.6 67.6 0 0 0-26.4-5.4"/><path fill="#2B2B2B" d="M80.8 14.2a66.5 66.5 0 1 1 0 133.1 66.5 66.5 0 0 1 0-133Z"/><path fill="#F1F1F1" d="M80.8 41.2a39.5 39.5 0 1 1 0 79.1 39.5 39.5 0 0 1 0-79"/><path fill="#F8AF3E" d="M24.7 80.6 27 79l-.8 2.5 2.2 1.6h-2.7l-.9 2.6-.8-2.5h-2.7l2.1-1.7-.8-2.5 2.2 1.5ZM135 78.4l2.2-1.5-.8 2.6 2.2 1.6h-2.7l-.9 2.5-.8-2.5h-2.7l2.1-1.6-.8-2.6 2.2 1.5ZM102 66a26.5 26.5 0 0 1 4.5 12.6h.1V81a26.6 26.6 0 0 1-33.3 25.7l-4 3.4a31 31 0 0 0 10.7 1.9 31 31 0 0 0 24.7-49.7l-2.7 3.7ZM62 106.2l2.1-3.9a26.6 26.6 0 0 1 10.6-47.6l3.2-4.8A31 31 0 0 0 62 106.2"/><path fill="#F8AF3E" d="m83.5 44.1 20.8-3.8-11.1 15.6 16.2-3-22.2 30.7 14.1-2.7-44 37.3 15.9-29.6-9.3 1.6 13.9-22.6-11.6 2.5 17.3-26Z"/><path fill="#fff" d="m32.1 70.2-2.7-.5.4-2.2.1-.6 3-1.4.4-1.4-3.4 1.6v-.3c-.2-.6-.5-1-.9-1.4a3 3 0 0 0-1.5-.8 3 3 0 0 0-1.8.1c-.5.2-1 .6-1.3 1a5 5 0 0 0-.7 2l-.7 3.5 8.9 1.7.2-1.3Zm-7.3-3.6c.1-.9.4-1.4.8-1.8.4-.3 1-.5 1.6-.3.6 0 1 .4 1.4.9.2.5.3 1.1.1 2l-.4 2-4-.7.5-2.1Zm8.9-3.7-1.8-1.7 1.8-4.5 2.4-.1.5-1.3-9.9.6-.4 1.2 6.9 7 .5-1.2ZM31 60.4l-3.4-3.5 4.9-.2-1.5 3.7Zm6.9-7.1.6-1.1-2.6-1.6-3.3-6.1-.6 1.1 2.6 5H29l-.7 1.2 6.9-.1 2.7 1.6Zm-2.4-8.4c.3.6.7 1 1.2 1.5a4.5 4.5 0 0 0 5.1.6 5.2 5.2 0 0 0 1.5-1.2 5.2 5.2 0 0 0 1-1.7l.3-1.8a4.4 4.4 0 0 0-.5-1.7 4.7 4.7 0 0 0-1.1-1.5 4.7 4.7 0 0 0-1.7-.9 4.4 4.4 0 0 0-1.7-.2 4.5 4.5 0 0 0-1.8.5c-.5.3-1 .7-1.5 1.3a5.1 5.1 0 0 0-1 1.6 4.6 4.6 0 0 0-.2 1.8c0 .6.2 1.2.5 1.7Zm1-3.2a3.7 3.7 0 0 1 .7-1.2c.3-.4.7-.7 1.1-.9.4-.2.8-.3 1.3-.3a3.5 3.5 0 0 1 1.3.1l1.2.7a3.6 3.6 0 0 1 1.2 2.4l-.1 1.3a3.7 3.7 0 0 1-.7 1.2 3.7 3.7 0 0 1-1.1 1 3.4 3.4 0 0 1-1.3.3 3.4 3.4 0 0 1-1.3-.2 3.5 3.5 0 0 1-1.3-.7 3.5 3.5 0 0 1-.8-1 3.5 3.5 0 0 1-.4-1.3 3.3 3.3 0 0 1 .2-1.4ZM53 37.1c.8-.5 1.4-1.2 1.8-1.9a4.2 4.2 0 0 0 .5-2.3c0-.8-.3-1.5-.8-2.3a4.5 4.5 0 0 0-1.8-1.6 4.2 4.2 0 0 0-2.3-.4c-.8.1-1.6.4-2.4 1l-3.2 2 5 7.6 3.2-2.1Zm-4.5-6.5c.7-.5 1.3-.7 1.9-.8a3.1 3.1 0 0 1 1.7.3c.5.3 1 .7 1.4 1.2l.6 1.8a3 3 0 0 1-.4 1.7c-.3.5-.8 1-1.4 1.4l-2 1.3-3.8-5.6 2-1.3Zm15.9.7-.5-1-4.8 2-1.1-2.7 4.1-1.7-.4-1-4.2 1.7-1-2.5 4.6-2-.4-1-5.9 2.5 3.5 8.3 6-2.6Zm9.2-2a5 5 0 0 0 2.8-1 2 2 0 0 0 .7-2c-.1-.5-.3-1-.7-1.3-.3-.3-.7-.5-1.2-.7h-.1c.3-.2.6-.5.7-.8.2-.4.3-.8.2-1.3a2 2 0 0 0-1.1-1.5c-.6-.4-1.6-.5-2.8-.3l-4.8.7 1.3 9 5-.8Zm.2-2.4c-.1.2-.4.3-.7.3l-1.8.3-.2-1.4 1.8-.3.7.1c.2 0 .3.3.4.5 0 .2 0 .4-.2.5Zm-1.8-4.3h.8l.3.5a.6.6 0 0 1-.2.5c-.1.2-.4.2-.7.3l-1.4.2-.2-1.3 1.4-.2Zm25.2 3.3c.2-.7.2-1.3 0-1.9-.2-.5-.6-1-1.1-1.4-.5-.5-1.2-.8-2-1l-4.2-1-2.2 8.5-3.4-9-3-.2-4.4 8.8 3.1.1.7-1.5 3.4.2.6 1.6 3 .1v.1l3 .8.5-2.2.8.2 1 2.5 3 .8-1-3.1c.5-.2 1-.4 1.3-.7.5-.5.8-1 1-1.7Zm-15.5-.7 1-2.3.7 2.3h-1.7Zm12.5-.8c.1.2.1.5 0 .8 0 .3-.2.5-.4.7h-1l-1-.3.4-2 1.1.3c.4 0 .7.2.9.5Zm4.7 8.2a5.8 5.8 0 0 0 1.7 1.1c.8.4 1.6.6 2.3.6.8 0 1.5-.2 2.1-.5l-1-2.4a3 3 0 0 1-1.2.4 2.1 2.1 0 0 1-1-.2l-.8-.5a1.8 1.8 0 0 1-.4-.7 2 2 0 0 1 0-.9c0-.3 0-.6.2-.9l.5-.8.7-.4.8-.2.8.3c.4.1.7.4.9.7l.5 1 2.4-.7a4.4 4.4 0 0 0-1-2c-.4-.5-1-1-1.9-1.3a5.7 5.7 0 0 0-2-.6 4.7 4.7 0 0 0-1.8.2 4.4 4.4 0 0 0-1.6 1c-.5.4-.8 1-1.1 1.5a4.8 4.8 0 0 0-.5 2A4.4 4.4 0 0 0 98 31c.3.6.6 1.1 1.1 1.6Zm11.8 7.2 1.4-2-3.8-2.5.7-1 3.2 2.2 1.2-1.8-3.1-2.2.6-.8 3.5 2.4 1.4-1.8-6-4.2-5.2 7.4 6.1 4.3Zm5.6 5.3 1.7-1.7-3-2.8 4.6-4.8-2.1-2-6.3 6.4 5.1 5Zm2.3-1.4a4.5 4.5 0 0 0-.6 1.7 4.8 4.8 0 0 0 .2 2c.1.6.5 1.2.9 1.8a5.7 5.7 0 0 0 1.4 1.4c.6.4 1.2.6 1.8.7a4.5 4.5 0 0 0 3.6-.8 4.6 4.6 0 0 0 1.3-1.4c.3-.5.5-1 .6-1.7a4.8 4.8 0 0 0-.2-1.9 5.7 5.7 0 0 0-.9-1.8 5.8 5.8 0 0 0-1.4-1.5 4.8 4.8 0 0 0-1.8-.7 4.5 4.5 0 0 0-1.8 0 4.6 4.6 0 0 0-1.8.8 4.6 4.6 0 0 0-1.3 1.4Zm2.1 2.5c0-.3.2-.5.3-.8l.7-.6.9-.5h.8l.7.2.6.6.4.7a1.9 1.9 0 0 1-.3 1.6 2.7 2.7 0 0 1-.7.7l-.9.4a2 2 0 0 1-.8 0 2 2 0 0 1-.7-.2 2 2 0 0 1-.6-.6 2 2 0 0 1-.4-.7 1.9 1.9 0 0 1 0-.8Zm3 10.2 3.7-1.7-2.4 4.8 1 2.3h.1l.6 2.9 1.7.2.7 3.4-1.4.9.7 3 8-5.7-.7-3-9.4-1.8 8-3.6-1.2-2.7-3.8 1.7 2.4-4.8-1-2.3-8.3 3.7 1.2 2.7Zm7 8.9 2.4.4-2 1.3-.4-1.7Zm-1.6 25.5-.3 1.2 2.7.5-.4 2.2a7.8 7.8 0 0 0 0 .6l-3.2 1.4-.2 1.4 3.3-1.6v.3c.2.6.5 1 .9 1.4.4.4 1 .7 1.6.8a3 3 0 0 0 1.7-.1c.5-.2 1-.6 1.3-1a5 5 0 0 0 .8-2l.6-3.5-8.8-1.6Zm7 4.9c0 .8-.4 1.3-.8 1.7-.4.3-1 .5-1.6.3-.6 0-1-.4-1.3-.9-.3-.5-.4-1.1-.2-2l.4-2 4 .7-.4 2.2Z"/><path fill="#fff" d="m127.3 99.3 1.8 1.7-1.8 4.5-2.4.1-.5 1.3 9.9-.6.4-1.1-6.9-7.1-.5 1.2Zm2.6 2.5 3.4 3.5-4.8.2 1.4-3.7ZM123 109l-.6 1.1 2.7 1.6 3.2 6.1.7-1-2.7-5h5.6l.7-1.3-6.9.1-2.7-1.6Zm2.4 8.4a4.6 4.6 0 0 0-1.2-1.5 4.6 4.6 0 0 0-1.6-1 4.5 4.5 0 0 0-1.8-.1 4.6 4.6 0 0 0-1.7.5 5.2 5.2 0 0 0-1.5 1.2 5.2 5.2 0 0 0-1 1.7 4.5 4.5 0 0 0-.3 1.8c0 .6.2 1.1.5 1.7a4.7 4.7 0 0 0 1.2 1.5 4.7 4.7 0 0 0 1.6.9c.6.2 1.2.2 1.7.2a4.5 4.5 0 0 0 1.8-.5 5.2 5.2 0 0 0 1.5-1.3 5.2 5.2 0 0 0 1-1.6c.2-.6.3-1.2.2-1.8a4.5 4.5 0 0 0-.4-1.7Zm-1 3.2c-.1.4-.4.8-.7 1.2l-1 .9a3.2 3.2 0 0 1-1.4.3 3.4 3.4 0 0 1-2.5-.8 3.6 3.6 0 0 1-.9-1.1 3.4 3.4 0 0 1-.3-1.3 3.3 3.3 0 0 1 .1-1.3 3.7 3.7 0 0 1 .8-1.2 3.7 3.7 0 0 1 1-1 3.3 3.3 0 0 1 2.7-.1c.4.1.8.3 1.2.7a3.5 3.5 0 0 1 1.2 2.3 3.3 3.3 0 0 1-.2 1.4ZM108 125c-.8.6-1.4 1.2-1.8 1.9a4.2 4.2 0 0 0-.5 2.3c0 .8.3 1.5.8 2.3.5.7 1 1.3 1.8 1.6.7.3 1.5.5 2.3.4.8-.1 1.6-.4 2.4-1l3.2-2-5-7.6-3.2 2.1Zm4.5 6.6c-.6.4-1.3.6-1.9.7a3 3 0 0 1-1.7-.3c-.5-.3-1-.7-1.3-1.2-.4-.6-.6-1.2-.7-1.8a3 3 0 0 1 .4-1.7c.3-.5.8-1 1.4-1.4l2-1.3 3.8 5.6-2 1.4Zm-15.9-.8.5 1 4.8-2 1.2 2.7-4.2 1.7.4 1 4.2-1.7 1 2.5-4.6 2 .4 1 5.9-2.5-3.5-8.3-6 2.6Zm-9.2 2a5 5 0 0 0-2.7 1 2 2 0 0 0-.7 2c0 .5.2 1 .6 1.3.3.3.7.5 1.3.7a2.4 2.4 0 0 0-.7.8 2 2 0 0 0-.2 1.3 2 2 0 0 0 1.1 1.5c.7.4 1.6.5 2.8.3l4.8-.7-1.3-9-5 .8Zm-.2 2.4c.2-.2.4-.3.7-.3l1.8-.3.3 1.4-1.9.3h-.7a.6.6 0 0 1-.4-.6c0-.2 0-.4.2-.5Zm1.8 4.3h-.7c-.2-.1-.3-.3-.3-.5a.6.6 0 0 1 .1-.5l.7-.3 1.4-.2.2 1.3-1.4.2Zm-8-6.2-.7 1.5-3.4-.2-.5-1.6-3.1-.1v-.1l-3-.8-.5 2.2-.8-.2-1-2.5-3-.8 1.1 3.1c-.5.2-1 .4-1.4.8-.5.4-.8.9-1 1.6-.1.7 0 1.3.1 1.9.2.5.6 1 1.1 1.4.5.5 1.2.8 2 1l4.3 1 2-8.5 3.5 9 3 .2 4.4-8.8-3.1-.1Zm-14.1 4.4a1 1 0 0 1-.2-.8l.5-.7h1l1 .3-.4 2-1.1-.3c-.4 0-.7-.2-.8-.5Zm12.5-.8-1 2.3-.8-2.3h1.8ZM62 129.6a5.7 5.7 0 0 0-1.7-1.1c-.8-.4-1.5-.6-2.3-.6-.7 0-1.4.2-2 .5l1 2.4a3.1 3.1 0 0 1 1-.4c.4 0 .8 0 1.2.2l.7.5.4.7.1.9a2.6 2.6 0 0 1-.2.9l-.6.8a2.1 2.1 0 0 1-.7.4 1.8 1.8 0 0 1-.8.2 2.3 2.3 0 0 1-.8-.3 2.2 2.2 0 0 1-.9-.7 3.1 3.1 0 0 1-.5-1l-2.4.7c.2.7.5 1.4 1 2 .5.5 1.1 1 2 1.4.6.3 1.2.4 1.9.5a4.7 4.7 0 0 0 1.8-.2 4.4 4.4 0 0 0 1.6-1A4.8 4.8 0 0 0 63 135c.3-.7.5-1.3.5-2a4.4 4.4 0 0 0-.3-1.7 4.7 4.7 0 0 0-1-1.6Zm-11.8-7.2-1.3 2 3.7 2.5-.7 1-3.1-2.2-1.3 1.8 3.1 2.2-.6.8-3.5-2.4-1.3 1.8 6 4.2 5.1-7.4-6.1-4.3Zm-5.6-5.4-1.7 1.7 3 2.9-4.6 4.8 2.1 2 6.3-6.4-5.1-5Zm-2.3 1.5c.3-.5.5-1.1.6-1.7a4.8 4.8 0 0 0-.2-2 5.8 5.8 0 0 0-.9-1.8 5.8 5.8 0 0 0-1.4-1.4 4.8 4.8 0 0 0-1.8-.7 4.5 4.5 0 0 0-1.8 0 4.6 4.6 0 0 0-1.8.8 4.6 4.6 0 0 0-1.3 1.4 4.6 4.6 0 0 0-.6 1.7 4.8 4.8 0 0 0 .2 1.9l.9 1.9a5.8 5.8 0 0 0 1.5 1.4 4.8 4.8 0 0 0 1.7.7 4.5 4.5 0 0 0 3.6-.8 4.6 4.6 0 0 0 1.3-1.4Zm-2.1-2.5a2 2 0 0 1-.3.8 2.7 2.7 0 0 1-.7.6 2.7 2.7 0 0 1-.9.5 2 2 0 0 1-.8 0 1.9 1.9 0 0 1-.7-.2 2 2 0 0 1-.6-.6 2 2 0 0 1-.4-.7 1.9 1.9 0 0 1 0-.8c0-.3.2-.5.4-.8l.6-.6c.3-.3.6-.4.9-.5h.8a1.9 1.9 0 0 1 1.3.8l.4.7v.8Zm-2.9-10.2-3.7 1.7 2.3-4.8-1-2.3-.7-2.9-1.7-.2-.7-3.4 1.4-.9-.7-3-8 5.7.7 3 9.5 1.8-8 3.6 1.2 2.7 3.7-1.7-2.4 4.8 1 2.3 8.3-3.7-1.2-2.7ZM30.2 97l-2.4-.3 2-1.4.4 1.7Z"/></g><defs><clipPath id="a"><path fill="#fff" d="M10.1 10.1h141.3v141.3H10.1z"/></clipPath></defs></svg>