<svg xmlns="http://www.w3.org/2000/svg" width="700" height="700" fill="none"><g fill="#fff" clip-path="url(#a)"><path d="M85 269c-3 0-6 0-8 2s-4 5-5 9l-2 10 20 4 2-11c1-4 1-7-1-9-1-3-3-4-6-5Zm62 248a10 10 0 0 0-3-3 9 9 0 0 0-3-1h-4l-5 2-3 4-2 4a10 10 0 0 0 0 3l2 4 3 3a9 9 0 0 0 4 1h4l4-2c1-1 3-2 3-4l2-3a10 10 0 0 0 0-4 10 10 0 0 0-2-4ZM413 68l-6-1-2 10 5 1h5l2-3v-4l-4-3Zm-23 567-4 2-1 2 2 2 4 1 6-1v-7l-7 1ZM87 232l17 17 7-18-24 1Zm1 196 11 2-1-8-10 6Zm44-258 4 5 6 3a17 17 0 0 0 19-5l3-6a16 16 0 0 0-1-13l-4-5-6-4a17 17 0 0 0-6-1l-7 2-5 5c-2 1-3 3-4 6l-1 6a17 17 0 0 0 2 7Zm263 454-1-7-9 2-4 1v3l1 2 4 1 9-2Zm-113 1-2 4 1 4 4 2 5 2 3-11-6-1h-5Zm56 15 5-11-9-1 4 12Zm17-566 9 1-4-12-5 11Zm195 112 3 3a9 9 0 0 0 4 1h4l4-2 4-3 1-4a10 10 0 0 0 0-4 10 10 0 0 0-2-4c0-1-1-2-3-2a9 9 0 0 0-3-2l-4 1-5 2-3 3-2 4a10 10 0 0 0 1 4 10 10 0 0 0 1 3Zm63 248c3 1 6 0 8-2 2-1 3-4 4-8l2-11-20-4-2 11c-1 4 0 7 1 10 1 2 4 4 7 4Zm-3-159-12-2 2 9 10-7Zm0 196-17-17-7 18 24-1ZM488 574l-7 7-2 9c0 3 1 5 3 8s4 5 7 6c3 2 5 2 8 2l10-4 10-7-19-28-10 7ZM209 129c4-2 6-4 7-7 2-3 2-5 2-8l-3-9-6-6c-3-1-6-2-9-1l-9 3-10 7 18 28 11-7h-1Zm356 405-4-6-6-3a16 16 0 0 0-6-1l-7 2-5 4-4 6a16 16 0 0 0 1 13l4 6a17 17 0 0 0 13 4l6-2 6-4 3-6 1-7a17 17 0 0 0-2-6ZM302 79l1 7 9-1 4-2 1-2c0-2-1-2-2-3h-4l-9 1Zm6-11 4-1v-3l-1-2h-4l-7 1 1 6 7-1Z"/><path d="M672 214a349 349 0 0 0-569-111 349 349 0 0 0 111 569 348 348 0 0 0 383-75 349 349 0 0 0 75-383Zm-6 269a342 342 0 0 1-558 109A341 341 0 0 1 217 34a341 341 0 0 1 375 74 341 341 0 0 1 74 375Z"/><path d="M455 276c12 18 20 40 22 63l1-1-1 1 1 12a132 132 0 0 1-166 127l-19 17a153 153 0 0 0 206-144c0-35-11-67-31-93l-13 18ZM257 476l11-19a132 132 0 0 1 52-236l16-24a154 154 0 0 0-79 279"/><path d="M661 219a336 336 0 0 0-549-107 336 336 0 0 0 238 575 335 335 0 0 0 337-337c0-46-9-90-26-131Zm-63-21 5 11-12 24 19-9 6 14-40 17 47 10 3 14-40 29-3-15 7-5-3-16-9-2-3-14-5-11 11-24-18 8-6-13 41-18Zm-45-43a23 23 0 0 1 18 4 29 29 0 0 1 12 26 23 23 0 0 1-9 15c-3 2-6 4-9 4a22 22 0 0 1-9 0c-3 0-6-2-8-3l-8-7-4-10-1-9a22 22 0 0 1 10-16l8-4Zm-108 24a197 197 0 0 1 45 34l-79 14 34-48ZM335 285l-69 112 47-8-69 126a196 196 0 0 1 158-354l-38 7-86 129 57-12Zm117 66-70 13 109-150a195 195 0 0 1-141 332c-36 0-69-10-98-26l200-169Zm91-224-23 24 15 14-8 9-26-25 31-32 11 10Zm-19-17-7 9-17-12-3 4 15 11-6 9-15-11-4 5 19 13-7 9-30-21 25-37 30 21Zm-88-25 5-7a22 22 0 0 1 17-6l10 2 10 7 5 10-13 4-2-6-4-3-4-1h-4l-4 3-2 4-2 4 1 4a9 9 0 0 0 2 4l3 2 6 1 5-1 6 11c-4 2-7 3-11 3s-7-1-11-3l-9-6-5-7a22 22 0 0 1-1-9c0-3 0-7 2-10Zm-83-37 15 1 17 45 11-42 20 5 10 5c3 2 5 4 6 7v9l-4 8-7 4 5 16-15-4-5-13-4-1-3 11-14-4-15-1-3-8-17-1-3 8-16-1 22-44Zm-46 3c7-1 11-1 14 1 4 2 6 5 6 8l-1 6-4 4h1l6 4c2 1 3 3 3 6 1 4 0 7-3 10-3 2-8 4-14 5l-25 4-6-45 23-3Zm-56 13 2 5-23 10 5 13 21-9 2 5-20 9 5 13 24-10 2 5-30 13-17-42 29-12Zm-63 32c4-2 8-4 12-4a21 21 0 0 1 21 10l4 11c0 4-1 8-3 11-2 4-5 7-9 10l-16 10-25-37 16-11Zm-62 59 4-8 8-6c3-2 5-3 8-3a22 22 0 0 1 9 1l8 5c3 2 5 4 6 7a22 22 0 0 1 2 9l-1 8a26 26 0 0 1-12 15l-9 2a22 22 0 0 1-9-1l-8-4a23 23 0 0 1-8-16c0-3 0-6 2-9Zm-32 45h28l-13-24 3-6 16 30 13 8-3 6-13-8H91l3-6Zm-12 27 49-3-2 6-12 1-9 22 9 8-3 7-34-35 2-6Zm-15 51c1-3 2-7 4-9 1-3 4-4 6-5 3-1 6-2 9-1l8 4 4 7v1l17-7-2 7-15 6v3l-2 11 13 3-1 6-44-8 3-18Zm-12 84 10-8-3-12 10 7 11-7-4 12 11 8H77l-5 13-4-13H55Zm45 144-5-12 11-23-18 8-6-14 40-17-47-9-4-15 40-29 3 16-7 4 4 17 8 1 3 15 1-1 5 12-12 23 19-8 6 14-41 18Zm44 42a23 23 0 0 1-9 0l-8-4a29 29 0 0 1-13-25 23 23 0 0 1 9-16l9-4a22 22 0 0 1 9 0l9 4 7 7 5 9v9a22 22 0 0 1-3 9c-1 3-3 5-6 7l-9 4Zm10 28 23-24-14-14 8-8 25 24-31 32-11-10Zm20 18 6-10 18 13 3-5-16-10 6-9 16 10 3-4-18-13 6-9 31 21-26 36-29-20Zm88 24-6 8a22 22 0 0 1-8 4c-3 1-6 2-9 1l-10-2c-4-2-7-4-9-7-3-3-4-6-5-10l12-3 2 5 5 4 4 1 4-1 3-2 3-4 1-5v-4a9 9 0 0 0-2-3l-4-3-5-1-6 2-5-12 10-2a30 30 0 0 1 20 8l5 8a22 22 0 0 1 2 9l-2 9Zm82 37-15-1-17-45-10 43-21-6-10-4c-3-2-4-5-5-8-1-2-2-6-1-9l5-8 7-4-6-15 16 4 4 12 4 1 3-10 15 3v1l15 1 2 7 17 1 4-7h15l-22 44Zm46-3c-6 1-11 1-14-1s-5-4-6-8l1-6 4-4-7-3-3-7c0-4 1-7 4-9 3-3 7-5 13-6l25-3 7 44-24 3Zm56-13-2-5 23-10-5-12-21 8-2-5 21-8-6-14-24 11-2-6 30-12 17 41-29 12Zm63-32c-4 3-8 4-12 5a21 21 0 0 1-20-10c-3-4-4-8-4-12s1-7 3-11c2-3 5-7 9-9l15-11 25 38-16 10Zm63-59-5 9-7 6-9 2a22 22 0 0 1-9-1l-8-4-6-8a22 22 0 0 1-2-8l2-9 4-8 8-6 9-3a22 22 0 0 1 8 1c3 1 6 2 8 5a23 23 0 0 1 8 15l-1 9Zm31-45h-27l13 25-3 5-17-30-13-8 3-5 14 7h34l-4 6Zm12-26-49 2 3-6h12l8-22-8-9 2-6 34 35-2 6Zm15-52c0 4-2 7-3 10l-7 5h-8c-4 0-6-1-8-3s-4-5-4-8v-1l-17 8 1-7 15-7 1-3 2-11-13-2 1-7 44 9-4 17Zm-7-73-5 12-4-12h-13l10-8-3-13 10 8 11-8-4 13 11 8h-13Z"/></g><defs><clipPath id="a"><path fill="#fff" d="M0 0h700v700H0z"/></clipPath></defs></svg>