<svg xmlns="http://www.w3.org/2000/svg" width="589" height="844" fill="none"><g fill="#fff" clip-path="url(#a)"><path d="M204.5 590.1a6.5 6.5 0 0 0-.6 5c2.5 7.7 5.2 15.4 8 23a9.6 9.6 0 0 0 2.8 4.1 1517.5 1517.5 0 0 0 28 21.7c.7.6 2.8.7 3.6 0a1049 1049 0 0 0 25.6-19.9l.2-.2a59.4 59.4 0 0 1-44.6-57v-.4c-8.5 7-16.8 14.4-23 23.7Zm-71 100.8-4.2 3.6 15 17.4 4.2-3.6c3.2-2.7 5-5.5 5.3-8.4.4-2.8-.7-5.7-3.1-8.6-5-5.8-10.7-6-17.2-.4ZM263 754.3c-7.6-1.3-12 2.4-13.4 10.7l-.8 5.5 22.6 3.6.9-5.5c.7-4.1.2-7.4-1.4-9.8-1.5-2.4-4.2-4-8-4.5Z"/><path d="m588.3 409-61.9-.6 22.2-124.1-48.8 35.1c2.8-38.9.7-97.4-27.4-148.5l-22.3-40.7-11.1 45c-4 16-8.3 26.8-12.1 34.2-8.7-25.2-20.6-66.4-20.6-101.8V78.2L380 91.4c-6.5 3.2-13.1 7-19.7 11.4-6.5-22.2-21.5-51.3-54.8-80.4L277.1 0l-1.6 36c0 .5-1.3 59-48.3 100-10.4 8.9-19.4 17.6-27 26 .2-2.6.5-4.8.9-6.7l8.5-50.5-38.8 33.5c-45 43-79.4 158.6-80.8 163.5l-1 3.7 3.1 25c-3-5-6.1-11-9.5-18L50 251.9l-1.9 128.5L0 351.8l48.5 97a274 274 0 0 0 245.5 395A274 274 0 0 0 544.7 460l43.6-51Zm-28 161A265.7 265.7 0 1 1 58 449.2l-43-81 41.3 27.2V276.6L75.4 316c12 25 21.9 37.8 28.7 44.5l-6.8-54.4.5-2c1.5-4.8 35.3-118.4 78.7-160l24-23-7.2 32.5c-1.8 8-1.6 19.3-.6 30.2a257.1 257.1 0 0 1 39.9-41.8 154.4 154.4 0 0 0 51-106l.1-22 16.6 14.5c38.5 33.5 51.1 67 55.1 87.7 7.5-5.6 17.2-12 28.4-17.6l14.5-7.3v16.3c0 44.5 18 97 26.5 119.3 5.9-6.2 14.7-19.9 22.1-49.7l6.2-25 12.4 22.6c31.8 58 29.1 126 24.6 162.2l49-37-22.4 116.6 8.2-.1 49.3-.7-38.6 42.3c15.8 34 24.7 72 24.7 112Z"/><path d="m551.1 426.2-26 .3-17 .3a183.7 183.7 0 0 0-2.8-4l19-99-48.4 36.5s24.3-101.4-19.2-180.7c-14.9 60-36.9 62-36.9 62s-31.6-73.2-31.6-134c-23.8 11.9-41.2 28.6-41.2 28.6s4.8-49.5-53.3-100.2c0 0 0 66.2-54.6 113.6-54.5 47.4-51.2 68.8-51.2 68.8s-9.8-42.9-4.4-67c-42 40.2-76 155.5-76 155.5l9 70.7s-19.6 5.7-50.2-57.2v76.9L83.1 424a39.1 39.1 0 0 0-.5.7l-45.8-30.2 30.7 55a257 257 0 1 0 457.1 5.6l26.5-29ZM430.7 293.4c4.8.7 40.8 3.2 28.8-90.9 0 0 9 21.7 12.6 57 3.6 36.7.5 74.7-15.5 108C450.2 380.7 443 387 443 387s4.5-3.8 13-33c3.6-12.4 5.6-29.2 5.6-29.2l-19.3 21.1s23-34.2 21.2-74.6a28.3 28.3 0 0 1-32.8 22h-.6.6Zm-50.8-167.7c0 28.1-1.8 55.7 28.1 122.4-12.4-18-23.9-50.5-30.3-70.8-2.6-8.2-4.5-16.5-6.1-25-1.2-6.3-4.2-11.1-16 3.4 0 0 1.4-14.7 24.3-30Zm-.2 229.3c5.7 10.1 11 20.9 15 29.2 4.2 9 5.4 20 3.1 30.2l-3.7 16.5 1.5-23.3c.5-6.2-.6-12.4-3-17.8l-1.7-3.5-5.8 27.6.5-36.8s-1.7 10.8-30 35c0 0 30.3-26.6 24.1-57Zm-92.6-207.7C279.1 271.9 348 346 348 346S287 289.4 287 256c-6.5 23.3 0 74.5 0 74.5s-19-77.5-19-124c-24 19.4-35.6 79-35.6 79s-2.3-66.6 54.6-138.2Zm-93.3 163.9c-4.7 73 36.6 56 36.6 56s-23 10.3-30.5-1.3c-1.6 23.2 20.5 31.4 20.5 31.4l-18.6-2.7 11.3 27-.3-.3a65.1 65.1 0 0 1-23.7-50.4c0-28.1 4.7-59.7 4.7-59.7Zm-21.7-131.5c-31.2 73-18.2 104.7-5.2 115.8a40.6 40.6 0 0 1-17.7-35.1c-14 42.2 0 85.3 0 85.3s-20.2-16-19.6-32.2c-9 19.4 0 67.8.3 69.4-.4-1.2-11.4-42.6-11.4-75.5 0-27 53.6-127.7 53.6-127.7ZM74 593.1l7.4-8.1c2.3-2.5 3.7-5.7 3.9-9v-.5c.1-3.8-1.4-7.5-4-10.3l-7.5-8.1 9 8.3a10 10 0 0 0 3 2 15.7 15.7 0 0 0 11.9 0c1.1-.4 2.2-1.1 3-2l9-8.3-7.2 7.9c-4 4.2-5.2 10.2-3.2 15.6l.1.4 1.1 2.2 9.2 10-8.2-7.7a14.2 14.2 0 0 0-9.3-4h-.4c-3.6 0-7 1.5-9.7 4l-8.1 7.7Zm25.7 84.2c-2.3-.5-4.4-1.8-6.4-3.7a32.7 32.7 0 0 1-8.1-19.2c-.3-3.9.2-7.6 1.4-11a3 3 0 0 1 1.6-1.8c.9-.4 1.8-.4 3 0 .9.4 1.5.9 1.8 1.6.4.8.3 1.9 0 3.4a21 21 0 0 0-1 8.2 24.7 24.7 0 0 0 2.2 8.3c1.2 2.6 2.5 4.3 4 5.3 1.6 1 3.1 1.2 4.7.5a5 5 0 0 0 3-4.1c.3-2 0-5-.9-9.1a35.1 35.1 0 0 1-.8-15c.9-3.6 3-6.1 6.2-7.6 2.1-1 4.3-1.1 6.6-.5s4.4 2 6.4 4c2 2.1 3.8 4.8 5.3 8 1.6 3.5 2.5 7 2.6 10.3 0 3.4-.6 6.2-2 8.7-.6.8-1.2 1.4-1.8 1.7-1 .4-2 .3-3.1-.4-.6-.3-1-.8-1.3-1.5a4 4 0 0 1 0-3.5c.8-1.8 1.2-3.7 1.1-6 0-2.2-.6-4.4-1.6-6.6a14.9 14.9 0 0 0-4.2-5.8c-1.5-1.1-3-1.3-4.4-.7-1.5.7-2.4 2-2.6 3.9-.3 1.9 0 4.9.8 9 .9 4.4 1.3 8.1 1.2 11.2 0 3-.7 5.4-1.8 7.3a11.2 11.2 0 0 1-5.2 4.4 10 10 0 0 1-6.7.7Zm37.3 52c-1 .8-1.9 1.1-2.9 1-1-.2-2-.7-2.7-1.7-.9-1-1.3-2-1.2-3 0-1 .4-2 1.3-2.7l7.8-6.7-14.9-17.4-7.9 6.7c-.8.7-1.8 1-2.8.9-1-.2-2-.7-2.8-1.7-.8-1-1.2-2-1.2-3s.5-1.8 1.4-2.6l16.8-14.4c4.7-4 9.5-5.8 14.4-5.4 4.9.4 9.4 3 13.5 7.7 2.6 3.1 4.3 6.3 5.1 9.6a16 16 0 0 1-.7 9.7 22 22 0 0 1-6.4 8.6L137 729.3Zm47.8-10.3-23 30.3c-.7 1-1.6 1.4-2.6 1.5-1 0-2-.3-3-1-1-.8-1.7-1.7-1.9-2.7-.2-1 0-2 .8-2.9l23-30.3c.7-1 1.6-1.5 2.6-1.5 1-.1 2 .2 3 1 1 .7 1.6 1.6 1.9 2.6.2 1 0 2-.8 3Zm48.9 26.3-2.8 6a21.2 21.2 0 0 1-9.7 10.7 18 18 0 0 1-13.4.9L203 773c-.4 1-1.2 1.7-2.2 2-1 .3-2 .2-3.2-.4-1.2-.5-2-1.3-2.4-2.2-.4-1-.3-2 .2-3l4.7-10.2a18 18 0 0 1-8.1-10.8c-1.1-4.4-.5-9.2 2-14.3l2.7-6c.5-1.1 1.3-1.8 2.2-2 1-.4 2-.3 3.2.3 1.2.5 2 1.2 2.4 2.2.4 1 .4 2-.1 3l-3 6.2c-1.8 4-2.2 7.5-1.4 10.5.9 3 3 5.3 6.6 7 3.4 1.5 6.6 1.7 9.5.4 2.8-1.2 5.2-3.9 7-7.8l2.9-6.2c.5-1 1.2-1.7 2.2-2 1-.4 2.1-.3 3.3.3 1.1.5 1.9 1.3 2.3 2.2.4 1 .4 2-.1 3Zm46.8 24.9L277 792c-.2 1.1-.7 2-1.5 2.6-.9.5-2 .7-3.2.5a4.5 4.5 0 0 1-2.9-1.5c-.6-.8-.9-1.8-.7-3l1.6-10.1-22.7-3.7-1.6 10.3c-.2 1-.7 2-1.6 2.5-.9.6-2 .8-3.2.6a4.3 4.3 0 0 1-2.8-1.5c-.7-.8-1-1.8-.7-3l3.5-21.9c1-6 3.4-10.5 7.4-13.4a20 20 0 0 1 15.3-2.8c4 .6 7.4 2 10.2 4a16 16 0 0 1 5.7 7.8 22 22 0 0 1 .7 10.7Zm58 20.4c-.7.8-1.6 1.2-2.9 1.4-1.2.1-2.3 0-3.2-.7a3.5 3.5 0 0 1-1.5-2.6l-2.9-23.9c-.4-3.6-1.7-6.2-3.9-7.8-2.1-1.7-5-2.3-8.8-1.8-3.7.4-6.4 1.7-8 3.8-1.8 2.2-2.4 5-2 8.6l3 24c.1 1-.2 2-.9 2.8-.6.8-1.6 1.2-2.9 1.4-1.2.2-2.3 0-3.1-.6a3.6 3.6 0 0 1-1.5-2.7l-3-23.7c-.6-5.6.6-10.2 3.7-13.8a21 21 0 0 1 14-6.4 21 21 0 0 1 15 3c3.8 2.6 6.1 6.8 6.8 12.4l2.9 23.7c.1 1.2-.1 2.2-.8 3Zm56.2-25.2c-.6 2.3-1.9 4.4-3.9 6.3a32.6 32.6 0 0 1-19.4 7.6c-3.9.2-7.5-.4-11-1.7a3 3 0 0 1-1.7-1.6c-.4-.9-.3-1.9.1-3 .4-.8 1-1.4 1.7-1.8.7-.3 1.9-.3 3.3.2a21 21 0 0 0 8.2 1 24.5 24.5 0 0 0 8.4-1.9c2.5-1 4.3-2.4 5.4-3.8 1-1.5 1.3-3 .6-4.7-.7-1.6-2-2.7-4-3-2-.4-5.1-.2-9.2.6a35.1 35.1 0 0 1-15 .4c-3.5-1-6-3.1-7.4-6.4-1-2.1-1-4.3-.3-6.6.7-2.2 2-4.3 4.2-6.3 2.1-2 4.8-3.7 8-5a27 27 0 0 1 10.4-2.4c3.4 0 6.2.7 8.6 2.2.9.6 1.4 1.2 1.7 1.8.3 1 .2 2-.4 3.1a3.3 3.3 0 0 1-1.6 1.3 4 4 0 0 1-3.5-.1c-1.7-1-3.7-1.3-6-1.3-2.1 0-4.4.5-6.6 1.5a14.8 14.8 0 0 0-5.9 4c-1.2 1.5-1.4 3-.8 4.4.6 1.5 1.9 2.4 3.8 2.7 2 .3 4.9.1 9-.6 4.5-.8 8.2-1 11.2-1 3 .2 5.5 1 7.3 2.1 1.9 1.2 3.3 3 4.3 5.3a10 10 0 0 1 .5 6.7Zm-100-46.2A149.3 149.3 0 0 1 151 529.5l-49.8-31-43-76 59 36.2L78 396.3l-6.7-51.9L83 393l58 87-53.3-22.1 17.2 37.3 46.5 33.2c18-62 75.5-107.5 143.2-107.5 67.8 0 123.7 44.3 142.5 105l16-11.7 65.7-73-40 .6 3.9-14.6 14.8-63.5-72.9 73.3 50.9-61.2 36.1-31.4-18.6 77.2-3.2 13.2 46.7-2-80.7 83-18.3 11.7a148.8 148.8 0 0 1 6.2 42.5c0 82.2-66.9 149.1-149 149.1Zm151.2 11c.8.8 1.2 1.7 1.2 2.8 0 1-.5 2-1.4 3-.9.8-1.9 1.3-2.9 1.4-1 0-2-.3-2.8-1.1L417.2 714a9.1 9.1 0 0 1-3.1-6.6c0-2.4 1-4.7 3.2-6.9l13.7-14.1c1-.9 1.8-1.4 2.7-1.5a3 3 0 0 1 2.4 1 3 3 0 0 1 1 2.4c0 .9-.5 1.8-1.4 2.7L423 704c-.6.7-.9 1.3-.8 2 0 .8.4 1.5 1 2.2l6.9 6.6 11.2-11.6c1-1 1.8-1.4 2.7-1.5a3 3 0 0 1 2.5 1 3 3 0 0 1 1 2.4c-.1.9-.6 1.8-1.5 2.6l-11.3 11.6 11.2 11Zm22.2-19.7c-1 1.2-2 1.8-3.4 2-1.4.2-2.5-.1-3.6-1-1-.8-1.7-2-1.8-3.3a5 5 0 0 1 1.2-3.8c1-1.1 2-1.8 3.4-2s2.6.3 3.6 1.2c1 .8 1.6 1.9 1.8 3.2a5 5 0 0 1-1.2 3.7Zm25.6-42.3a31 31 0 0 1-12.3 20.4c-3.3 2.1-6.9 3.2-10.8 3.1-3.9 0-7.9-1.2-12-3.5-4-2.3-7.2-5.1-9.2-8.4-2.1-3.4-3.1-7-3-11 .1-3.9 1.3-7.9 3.6-12 2-3.4 4.3-6.3 7.1-8.5 2.9-2.3 5.6-3.5 8.4-3.8.8-.2 1.6 0 2.2.3.9.5 1.5 1.5 1.6 3a3 3 0 0 1-.4 1.9 5 5 0 0 1-1.3 1.4 4.2 4.2 0 0 1-1.8.8c-2.1.5-4 1.3-5.6 2.6-1.6 1.3-3 3.2-4.4 5.6-2.2 4-2.8 7.8-1.5 11.5 1.2 3.6 4 6.7 8.5 9.2a17 17 0 0 0 12.2 2.4 14 14 0 0 0 9-7.4c2.7-4.6 3.4-9 2.2-13.4-.4-1.7-.3-3 .2-4 .4-.7 1-1.2 1.7-1.5 1.2-.4 2.3-.4 3.1.1.7.4 1.2 1 1.6 1.8 1.1 2.7 1.4 5.9 1 9.5Zm10-21.2a5.1 5.1 0 0 1-2.5 3 4.8 4.8 0 0 1-6.5-2.4 5 5 0 0 1 0-4 4.9 4.9 0 0 1 6.4-3c1.2.4 2 1.3 2.6 2.5a5 5 0 0 1 0 3.9Zm2.8-66.4.1.3a16 16 0 0 0 1.1 2.2l9.2 10-8.1-7.6a14.2 14.2 0 0 0-9.4-4h-.4c-3.6 0-7 1.5-9.7 4l-8.1 7.6 7.5-8.1c2.2-2.5 3.6-5.7 3.8-9v-.5c.1-3.8-1.3-7.5-4-10.3l-7.5-8 9 8.2a10 10 0 0 0 3 2 15.7 15.7 0 0 0 11.9 0c1.2-.4 2.2-1.1 3.1-2l9-8.3-7.3 7.9c-4 4.2-5.2 10.3-3.2 15.6Z"/><path d="M266.3 446.1c3.7 1.3 6.8 1 10.4-.9a110 110 0 0 1 38.3-12.4c2.8-.3 5.7 0 9.2 0a38695 38695 0 0 1-26.3 22c3 1.2 5.6 2.1 8 3.2 7.4 3.4 14.6 7 22 10 2.2 1 5 .8 7.5 1 10.5.9 20.7 3.1 30.4 7.2 3 1.3 4.5.7 5.5-2.2l5-13.3 1.4-3.7 1-.2a140.4 140.4 0 0 0-142-15.4c7 .7 13.4 1.3 19.7 2.2 3.4.5 6.7 1.4 9.9 2.5Zm112.7 11c2.7 5.6 5.5 11.1 7.8 16.9 1.6 3.8 2.6 7.9 3.2 12 .6 3.2 2.3 5 5 6.5a91.4 91.4 0 0 1 30.2 28.5 31736.9 31736.9 0 0 0-25-2.3c.6 8 1.8 15.3 1.5 22.6-.5 15 4.2 29.2 4.3 44v7.3l27.8-10.3c-1.3 3.4-2.4 6.5-3.8 9.5a94 94 0 0 1-19.6 26.2c-1 1-1.6 2.9-1.6 4.3.5 8.5 1.3 17 2 25.4l-1.1.8c-6.2-3-12.5-5.8-18.6-9-2.5-1.4-4.3-1.2-7-.1-9.3 3.7-18.8 6.8-28.3 10.3-1 .4-2.5 1.7-2.5 2.6-.2 8.4-.1 16.7-.1 26l36.3-5.8a29 29 0 0 1-4 5.4A140.8 140.8 0 0 0 379 457Zm-81.7 221.3c-.4-.5-1.3-.8-2-.8l-27.6 1.6 1.6 29.6a141.6 141.6 0 0 0 25.3 2.3l5.9-.1a31 31 0 0 1-5.2-.9c6.3-5 12.5-10 17.7-14.4l-15.7-17.3Z"/><path d="m399.2 552.9-20.5-31.5c-.7-1-2.6-2-3.8-1.8a297 297 0 0 0-18.5 2.3c-5.2.8-10.4 1.9-16.3 3l-.6-.5 2-2.7 16.6-21.8c1.3-1.7 1.7-3-.2-4.6-8.7-7.8-17.2-15.8-26-23.5a10.5 10.5 0 0 0-6.5-2.2c-12.4.3-24.8.8-37.2 1.5-1.5.1-3.6 1.4-4 2.7-4.2 10.4-8 20.9-11.8 31.4a1.8 1.8 0 0 0 0 .4l-2.3.9v-.5a4 4 0 0 0-.7-2.5c-5-7.2-10.1-14.3-15-21.6-1.4-2.3-2.8-3.2-5.5-2.3-8.4 3-16.8 5.6-25.2 8.4-.7.2-1.4.3-2.8-.2 3.8-4.4 7.4-9 11.4-13.3 3.2-3.4 6.7-6.4 10.3-9.4 1.6-1.3 1.8-2.3 1-4.2-2.2-5-4-10-6-15-.3-1-.4-2.3-.8-4.5a141 141 0 0 0 29.8 266.9c-1.8-.8-3.4-1.6-4.4-2.8a581.2 581.2 0 0 1-19.8-25.6c-1.6-2.1-2.9-3-5.5-3.2-14.5-.6-28.4-3.8-42.2-10.7l6-1.7c1.8-.6 3.7-1 5.5-1.7 6-2.3 12-4.8 17.9-7.3 2.1-.8 2.6-2.1 1.6-4.3l-12.4-28c-.3-.6-.8-1.3-1.4-1.6L189.5 608l-17 27.3c-3-3.1-5-6.8-4.7-11.2a503.8 503.8 0 0 1 3.2-27.9c.3-2.6 0-4-2.2-5.4-3.7-2.6-7.2-5.4-10.6-8.3-1-.9-1.8-2.2-2.8-3.4 6.3-4.4 13-6.4 20-7.8 2.5-.5 3.3-1.8 4.3-4 3.8-9.3 7.9-18.3 12.2-28.1l-12.8-16-19 18.3c-5.2-14.1 27-70.3 46.8-79l-7.3 26.4h20.9l-3.5 2.7c-6.7 5.7-13.5 11.3-20 17.1-1 .9-1.5 2.5-1.7 3.9-2 13.9-2 27.8.4 41.8.7 3.8 1 7.6 1.5 11.7 6.1-.7 12-2 17.9-2 4.3 0 8.4-.5 12.5-1.4 2-34.3 29.3-41.2 44.5-41.2s25 8.7 29.4 13.9a32.3 32.3 0 0 0-47.8 29c0 17 10.6 40 46.1 40s47.4-31.8 47.4-31.8c0 30.4-27.7 53.5-59.9 53.5-4.2 0-8.6-.6-13-1.7-1.7 11.1-3.2 22.3-4.8 33.4-.3 2 .2 3.1 2 4.1 4.5 2.6 9.2 5 13.5 8a40.2 40.2 0 0 0 25.8 8.3h3.2v.4c4 0 8.1.2 12-.1 1.9-.2 4-1 5.3-2.3 14.1-15.2 25.8-32 35.3-50.4 1-2 .4-2.8-1-4.2l-21.8-21 .8-3.5h.3c11.4.4 22.9.5 34.3 1 2.2 0 3.4-.7 4.2-2.6l16.4-36.2c1.1-2.4.9-4.2-.5-6.4Zm-107.9 47c14.7-3.1 25.1-19 25.1-19s-19.7.5-31.3-16.5h59s-6.2 40.7-52.8 35.5Zm25-43c-10.8-47.7-53-43-71-32.5 10.5-14.7 32.7-18.5 43.6-18.5 51 0 58.3 51 58.3 51h-31Z"/></g><defs><clipPath id="a"><path fill="#fff" d="M0 0h588.3v843.8H0z"/></clipPath></defs></svg>