<svg xmlns="http://www.w3.org/2000/svg" width="161" height="161" fill="none"><g clip-path="url(#a)"><path fill="#252E5B" d="M80.7 159.2A51 51 0 0 1 35 85.8l-9-18 9 5.2.3-23.9 6 11.3a52 52 0 0 0 1.8 3.4l-.6-4.7.2-.7c.3-.9 6.7-22.4 15-30.4l7.3-6.2-1.6 9.4a9 9 0 0 0-.2 1.2c1.4-1.6 3.1-3.2 5-4.8C77 20 77.2 9 77.2 9l.3-6.7 5.3 4.1a32 32 0 0 1 10.2 15 35 35 0 0 1 3.7-2.1l4.9-2.5v5.5c0 6.6 2.2 14.2 3.8 19 .7-1.4 1.5-3.5 2.2-6.4l2.1-8.4L114 34a50.8 50.8 0 0 1 5 27.6l9.1-6.5-4 23 11.4.2-8 9.4a51 51 0 0 1-46.6 71.4"/><path fill="#fff" d="M130.2 108.3a49.4 49.4 0 1 1-98.8 0 49.4 49.4 0 0 1 98.8 0"/><path fill="#252E5B" d="M128.6 108.3a47.8 47.8 0 1 1-95.6 0 47.8 47.8 0 0 1 95.6 0"/><path fill="#fff" d="m54.7 141.2.1-.5 4.3-5.6c.2-.2.3-.3.5-.3s.4 0 .6.2a.8.8 0 0 1 .3.5.7.7 0 0 1-.1.5l-4.3 5.6a.6.6 0 0 1-.5.3.9.9 0 0 1-.6-.2.8.8 0 0 1-.3-.5Zm1.4-35-13-8.6-14.3-26.8 7.7 5v-22L40 61c2.3 4.6 4 7 5.4 8.2l-1.3-10v-.5c.4-.9 6.6-22 14.7-29.7l4.5-4.3-1.4 6c-.3 1.5-.3 3.6 0 5.7a48 48 0 0 1 7.3-7.8A28.7 28.7 0 0 0 78.7 9V4.9l3.1 2.7a29.2 29.2 0 0 1 10.3 16.3c1.4-1 3.2-2.3 5.3-3.3l2.7-1.3v3c0 8.3 3.3 18 4.9 22.2 1.1-1.2 2.7-3.7 4.1-9.3l1.2-4.6 2.3 4.2c5.9 10.8 5.4 23.4 4.5 30.2l9.2-7-4.2 21.8h1.5l9.2-.2-19.2 21.1-8.4 6.5-49-1Z"/><path fill="#F6A018" d="m104.5 105.3 7.8-6 16.2-17.8-4.8.1h-3.9l3.7-19.1-9 6.8s4.5-18.9-3.6-33.6c-2.7 11.1-6.8 11.5-6.8 11.5s-5.9-13.6-5.9-25c-4.4 2.3-7.7 5.4-7.7 5.4s1-9.2-9.9-18.6c0 0 0 12.3-10.1 21.1C60.3 38.9 61 42.9 61 42.9S59 35 60 30.4C52.3 38 46 59.4 46 59.4l1.6 13.1s-3.6 1-9.3-10.6v14.3l3.4 5.3-8.9-5.8 11.7 21 12.1 8.6h48Z"/><path fill="#F6EB64" d="M57 57.2a7.6 7.6 0 0 1-3.2-6.5c-2.7 7.9 0 15.9 0 15.9s-3.8-3-3.7-6c-1.7 3.6 0 12.6 0 12.9 0-.2-2-8-2-14 0-5 9.9-23.8 9.9-23.8-5.8 13.6-3.4 19.5-1 21.5M111.5 40s1.6 4 2.3 10.6c.7 6.9.1 14-2.9 20.1-1.2 2.5-2.5 3.7-2.5 3.7s.8-.8 2.4-6.2c.7-2.3 1-5.4 1-5.4l-3.5 4s4.2-6.4 3.9-14c-1.5 5.2-6.2 4.1-6.2 4.1s7.9 1.9 5.5-16.8M92 31.2s.3-2.7 4.6-5.5c0 5.2-.4 10.3 5.2 22.7A57.4 57.4 0 0 1 95 30.6c-.2-1.2-.8-2-3 .6ZM45.5 94.4l11.1 8L44.8 95l-8-14.1 11 6.7L40.5 76l-1.2-9.7 2.1 9 10.8 16.3-9.9-4.2 3.2 7Zm69-22.2 6.7-5.9-3.5 14.4-.6 2.5 8.7-.4-15 15.4-6.8 4.4 6.3-4.7 12.2-13.6-7.4.2.7-2.8 2.7-11.8L105 83.6l9.4-11.4Zm-23.8-5.6S78 53 79.4 29.6C68.8 43 69.2 55.5 69.2 55.5s2.2-11.1 6.7-14.7c0 8.6 3.5 23 3.5 23s-1.2-9.5 0-13.8c0 6.2 11.3 16.7 11.3 16.7M92.1 79s5.7-5 4.5-10.6l2.8 5.4c.8 1.7 1 3.8.6 5.7l-.7 3 .3-4.3a7 7 0 0 0-.6-3.3l-.3-.7-1 5.2v-6.9s-.3 2-5.6 6.5m-30-18.7s-1 5.8-1 11a12.1 12.1 0 0 0 4.5 9.5l-2-5 3.4.5s-4.1-1.5-3.8-5.9c1.4 2.2 5.7.3 5.7.3s-7.7 3.1-6.9-10.4"/><path fill="#fff" d="M80.8 82a26.2 26.2 0 1 1 0 52.5 26.2 26.2 0 0 1 0-52.4Zm0-1.4a27.8 27.8 0 1 0 0 55.5 27.8 27.8 0 0 0 0-55.5Z"/><path fill="#F4941D" d="M107 108.3a26.2 26.2 0 1 1-52.4 0 26.2 26.2 0 0 1 52.4 0Z"/><path fill="#fff" d="M41.8 124a5 5 0 0 1 .3-2 .6.6 0 0 1 .3-.4h.5c.2 0 .3.2.4.3v.6c-.2.5-.2 1-.2 1.6 0 .5.2 1 .4 1.5s.5.8.8 1c.2.2.5.2.8.1.3-.1.5-.4.6-.8 0-.3 0-1-.2-1.7a6.5 6.5 0 0 1-.1-2.8 2 2 0 0 1 1.1-1.4c.4-.1.8-.2 1.2 0 .5 0 .9.3 1.2.7.4.4.8.9 1 1.5.3.6.5 1.3.5 1.9 0 .6-.1 1.1-.4 1.6 0 .2-.2.3-.3.3h-.6a.6.6 0 0 1-.2-.3.8.8 0 0 1 0-.7 2.3 2.3 0 0 0 .2-1 3.2 3.2 0 0 0-.3-1.3c-.2-.5-.5-.9-.8-1.1-.3-.2-.5-.3-.8-.1-.3.1-.4.3-.5.7 0 .3 0 .9.2 1.7l.2 2c0 .6-.1 1-.4 1.4-.2.4-.5.6-1 .8a1.9 1.9 0 0 1-1.2.2c-.4-.1-.8-.4-1.2-.7l-1-1.5a6.1 6.1 0 0 1-.5-2.1m4.6 8.8a.7.7 0 0 1 .2-.5l3.2-2.7c.8-.7 1.7-1 2.7-1 .9.1 1.7.6 2.5 1.5.5.5.8 1.1 1 1.7a3 3 0 0 1-.2 1.8 4 4 0 0 1-1.2 1.6l-3.1 2.7c-.2.2-.4.2-.6.2a.8.8 0 0 1-.5-.3.8.8 0 0 1-.2-.6.7.7 0 0 1 .2-.5l1.5-1.2-2.8-3.3-1.4 1.3a.7.7 0 0 1-.6.2.8.8 0 0 1-.5-.3.8.8 0 0 1-.2-.6m6.4 1.9.8-.7c.6-.5 1-1 1-1.5 0-.6-.1-1.1-.6-1.6-1-1.1-2-1.1-3.2-.1l-.7.7 2.7 3.2Zm16.7 5.6v.6l-.6 1.1a4 4 0 0 1-1.8 2c-.7.4-1.5.4-2.5.2l-.8 1.9a.7.7 0 0 1-.5.3h-.6a.8.8 0 0 1-.4-.4v-.6l1-1.9a3.4 3.4 0 0 1-1.6-2 4 4 0 0 1 .4-2.7l.5-1a.7.7 0 0 1 .4-.5l.6.1.4.4a.7.7 0 0 1 0 .6l-.5 1.1c-.4.8-.5 1.4-.3 2 .2.5.6 1 1.2 1.3.7.3 1.3.3 1.8 0 .5-.2 1-.7 1.3-1.4l.5-1.2a.7.7 0 0 1 .4-.3h.6c.3.1.4.3.5.4m.8 8.7a.7.7 0 0 1-.1-.6l.6-4c.2-1.2.7-2 1.4-2.5.8-.6 1.7-.7 2.9-.6.7.2 1.4.4 1.9.8s.8.8 1 1.4c.2.6.3 1.3.2 2l-.7 4.1c0 .2-.1.4-.3.5h-.6a.8.8 0 0 1-.5-.2.7.7 0 0 1-.1-.5l.3-2-4.2-.6-.3 1.9a.7.7 0 0 1-.3.5h-.6a.8.8 0 0 1-.6-.2Zm6.2-2.7.1-1c.1-.8 0-1.4-.2-1.9-.3-.4-.8-.7-1.5-.8-1.4-.3-2.2.4-2.5 2l-.2 1 4.3.7Zm5.5 3.9a.7.7 0 0 1-.2-.5l-.6-4.4c0-1 .1-2 .7-2.6.6-.6 1.4-1 2.6-1.2 1.1-.1 2 0 2.8.6.7.5 1.1 1.2 1.3 2.3l.5 4.4-.1.5c-.2.2-.3.3-.6.3l-.6-.1a.7.7 0 0 1-.3-.5l-.5-4.5c0-.6-.3-1.1-.7-1.4-.4-.3-1-.4-1.7-.4-.6.1-1.1.4-1.5.8-.3.4-.4.9-.3 1.5l.5 4.5a.7.7 0 0 1-.1.5c-.2.2-.3.3-.6.3l-.5-.1m13-3a5 5 0 0 1-2-.3.6.6 0 0 1-.4-.3v-.5a.6.6 0 0 1 .3-.4h.7c.4.2 1 .3 1.5.3a4.6 4.6 0 0 0 1.5-.4c.5-.2.9-.4 1-.7.3-.3.3-.6.2-.9-.2-.3-.4-.5-.8-.6-.4 0-1 0-1.7.2-1.2.2-2.1.2-2.8 0a2 2 0 0 1-1.4-1.2 1.7 1.7 0 0 1 0-1.2c.1-.4.4-.8.8-1.2a5 5 0 0 1 1.5-.9 5 5 0 0 1 1.9-.4 3 3 0 0 1 1.6.4l.3.3v.6a.6.6 0 0 1-.4.2.8.8 0 0 1-.6 0 2.3 2.3 0 0 0-1.1-.2 3.2 3.2 0 0 0-1.3.2c-.5.3-.8.5-1 .8-.3.3-.3.5-.2.8.1.3.3.5.7.5h1.7l2-.3c.6 0 1 .2 1.4.4.4.2.6.6.8 1 .2.4.2.8.1 1.2-.1.5-.3.9-.7 1.2-.4.4-.9.7-1.5 1a6 6 0 0 1-2.1.4m13.3-7.8c-.2 0-.4 0-.6-.2l-4.2-4.1c-.4-.4-.6-.8-.6-1.3 0-.4.2-.8.6-1.2l2.6-2.7.5-.2c.1 0 .3 0 .4.2a.5.5 0 0 1 .2.4c0 .2-.1.3-.3.5l-2.3 2.4a.5.5 0 0 0-.2.4c0 .1 0 .3.2.4l1.3 1.2 2-2.1.6-.3c.1 0 .3 0 .4.2a.5.5 0 0 1 .2.4c0 .2 0 .4-.2.5l-2.1 2.2 2 2a.7.7 0 0 1 .2.5c0 .2 0 .4-.2.6l-.5.2m4-4.6a.8.8 0 0 1-.6-.2.9.9 0 0 1-.4-.6 1 1 0 0 1 .2-.7.9.9 0 0 1 .7-.4.9.9 0 0 1 .7.2.8.8 0 0 1 .3.6 1 1 0 0 1-.2.7 1 1 0 0 1-.7.4Zm3.1-4.4a3.5 3.5 0 0 1-2 .5c-.7 0-1.4-.2-2.2-.6-.8-.4-1.3-1-1.7-1.6a3.5 3.5 0 0 1-.6-2c0-.7.3-1.5.7-2.3a5.4 5.4 0 0 1 1.3-1.5 3 3 0 0 1 1.6-.8.6.6 0 0 1 .4.1c.2.1.3.3.3.5a.6.6 0 0 1 0 .4.9.9 0 0 1-.3.3.8.8 0 0 1-.4.1 2.4 2.4 0 0 0-1 .5l-.8 1c-.4.8-.5 1.5-.3 2.2.2.7.7 1.2 1.6 1.7.8.5 1.6.6 2.2.5.7-.2 1.3-.7 1.7-1.4.5-.9.6-1.7.4-2.5v-.8a.6.6 0 0 1 .4-.2h.6a.7.7 0 0 1 .2.3c.3.5.3 1.1.2 1.8 0 .6-.3 1.3-.7 2a5 5 0 0 1-1.6 1.8m3.7-7.2a.8.8 0 0 1-.7 0 .9.9 0 0 1-.5-.5 1 1 0 0 1 0-.7 1 1 0 0 1 .5-.5.9.9 0 0 1 .7 0 .8.8 0 0 1 .5.4 1 1 0 0 1 0 .7 1 1 0 0 1-.5.6m-74.5-12.5a2.7 2.7 0 0 1-.2-.4 2.8 2.8 0 0 1 .6-3l1.3-1.4-1.7 1.5-.5.4a3 3 0 0 1-2.2 0 1.9 1.9 0 0 1-.6-.4l-1.7-1.5 1.4 1.5c.5.5.8 1.2.8 2a2.7 2.7 0 0 1-.8 1.7l-1.3 1.5 1.5-1.4a2.6 2.6 0 0 1 1.8-.8c.7 0 1.3.3 1.8.8l1.5 1.4-1.7-1.9Zm75.7 0a2.7 2.7 0 0 1-.2-.4 2.8 2.8 0 0 1 .6-3l1.3-1.4-1.6 1.5-.6.4a3 3 0 0 1-2.2 0 1.9 1.9 0 0 1-.6-.4l-1.6-1.5 1.4 1.5a2.7 2.7 0 0 1 .7 2 2.7 2.7 0 0 1-.7 1.7l-1.4 1.5 1.5-1.4a2.6 2.6 0 0 1 1.8-.8 2.6 2.6 0 0 1 1.8.8l1.5 1.4-1.7-1.9Z"/><path fill="#E36C24" d="M101.5 112.5V111c0-2.7-.9-5.4-.8-8.2l-.3-4.2 4.7.5a17 17 0 0 0-5.6-5.3c-.5-.3-.8-.6-1-1.2 0-.7-.2-1.3-.4-2l-1.6-3.5h-.2l-.3.7-1 2.5c-.1.5-.4.7-1 .4-1.8-.7-3.7-1.2-5.6-1.3-.5 0-1 0-1.4-.2l-4-1.8-1.6-.7 4.9-4h-1.7c-2.5.2-4.9 1.1-7.1 2.3-.7.3-1.3.4-2 .1l-1.8-.4-3.7-.5.2.9 1 2.8c.2.3.2.5 0 .8-.7.5-1.4 1-2 1.7L67.1 93h.5l4.7-1.5c.5-.2.7 0 1 .4l2.8 4 .1.3h.5l2.1-5.8c.1-.2.5-.5.8-.5l7-.3c.3 0 .8.2 1.1.4l4.9 4.4c.3.3.2.5 0 .9l-3 4-.6.6 3.3-.5a55.8 55.8 0 0 1 3.4-.5c.2 0 .6.2.7.4l3.9 5.8c.2.4.3.8 0 1.2a735.6 735.6 0 0 0-3 6.7c-.2.4-.4.5-.8.5l-6.4-.2c-.2 0-.6 0-.8-.2l-.1.3.6.3 4.3 4.2c.3.2.4.4.2.8a41 41 0 0 1-6.6 9.3c-.2.3-.6.4-1 .5H84c-1.8 0-3.4-.6-4.8-1.6-.8-.6-1.7-1-2.5-1.5a.7.7 0 0 1-.4-.8l1-6.4a.7.7 0 0 1 0-.3l-.4-.2-.2.6a194.2 194.2 0 0 1-4.8 3.8h-.7a278.6 278.6 0 0 1-5.2-4l-.5-.9a108.5 108.5 0 0 1-1.5-4.3l.1-.9c1.3-1.8 2.9-3.2 4.6-4.6a.9.9 0 0 1 .1-.1l-.2-.4c-.8.2-1.6.3-2.5.3l-3.3.3-.3-2.1c-.5-2.6-.5-5.2 0-7.8 0-.3 0-.6.2-.7l3.7-3.2.7-.5h-3.9l1.4-5c-3.7 1.7-9.7 12.1-8.7 14.8l3.5-3.4 2.4 3-2.3 5.1c-.2.5-.3.7-.8.8-1.3.3-2.5.6-3.7 1.4l.5.7 2 1.5c.3.2.5.6.4 1a94 94 0 0 0-.6 5.2c0 .8.3 1.5.9 2.1l3.1-5 4.2 2.4.3.3 2.3 5.2c.2.4 0 .7-.3.8l-3.3 1.4a3 3 0 0 1-.4 0l-1.8.6c2.6 1.3 5.2 1.9 7.8 2 .4 0 .8.2 1 .6a107.3 107.3 0 0 0 3.8 4.8c.2.3.8.4 1.3.7l-.3-5.6 5.1-.3a.5.5 0 0 1 .4.1l3 3.3-3.4 2.6c4.4 1.2 15.4-3.2 17.6-7l-6.8 1.1v-4.8c0-.2.3-.4.5-.5l5.3-2c.4-.1.9-.1 1.3.1l3.4 1.7.2-.2-.4-4.7c0-.3.2-.6.3-.8 1.5-1.4 2.8-3 3.7-4.9l.7-1.7-5.2 1.9Z"/><path fill="#A61916" d="M79.6 107.2H91s-1.2 8-10.3 7c2.9-.7 5-3.8 5-3.8s-4 .1-6.2-3.2Zm6-1.4h6.1s-1.4-10-11.4-10c-2 0-6.4.7-8.5 3.6 3.5-2 11.8-3 13.9 6.4Z"/><path fill="#A61916" d="M91.7 108.8s-2.3 6.2-9.2 6.2c-7 0-9-4.5-9-7.8s2.5-6.4 6.2-6.4c1.1 0 2.2.1 3.1.7-.9-1-2.7-2.7-5.7-2.7-3.1 0-8.8 1.5-8.8 8.9S75 119.2 80 119.2c6.3 0 11.7-4.5 11.7-10.4Z"/></g><defs><clipPath id="a"><path fill="#fff" d="M26 2.3h109.4v157H26z"/></clipPath></defs></svg>