<svg xmlns="http://www.w3.org/2000/svg" width="543" height="618" fill="none"><g fill="#fff" clip-path="url(#a)"><path d="m517 59-2-6-5-2a597 597 0 0 0-478 0l-5 2-1 6C10 121 0 184 0 226a407 407 0 0 0 156 322c35 28 76 54 111 68l4 2 5-2a491 491 0 0 0 194-157 395 395 0 0 0 72-233c0-42-10-105-25-167ZM184 519a398 398 0 0 1-67-85 414 414 0 0 1-57-222c1-37 7-94 20-155a591 591 0 0 1 44-14l-3 33 5 8 6-7 4-35v-2a557 557 0 0 1 270 0 2288 2288 0 0 1 3 30l1 4v3l1 2 5 5 4-6a75 75 0 0 0 2-2l-1-1v-6a2795 2795 0 0 0-3-26 597 597 0 0 1 45 14c12 61 19 118 19 155a466 466 0 0 1-57 222 398 398 0 0 1-66 85c-25 24-58 50-88 66-30-16-63-42-87-66Zm-93-74a371 371 0 0 1-68-219c0-38 9-98 24-156a608 608 0 0 1 26-11c-12 62-19 119-19 156a466 466 0 0 0 58 225 405 405 0 0 0 147 147A494 494 0 0 1 91 445Zm411-101a372 372 0 0 1-130 186c-28 22-60 43-89 57a422 422 0 0 0 206-372c-1-37-7-94-20-156a621 621 0 0 1 26 11c15 58 24 118 24 156 0 41-6 80-17 118Z"/><path d="M441 330c3-4-3 18-12 37-9 18-20 35-22 37-2 0-17-5-6-30 9-21-11-33-20-37l1-1c6 2 20 4 30 4 14 0 24-2 29-10ZM279 196c-30 26-11 79 49 89a1 1 0 0 1 1 2c-5 6-7 21 0 34 12 21 39 25 44 40 27 91-113 40-107 185l-2 1c-111-77-33-162 7-176v-2c-11-3-34-6-54 10-26 19-33 45-33 82 0 1-1 2-2 1-5-4-44-30-37-83 3-29 23-65 83-76v-2c-10-6-43-10-75 12-31 20-36 60-37 71 0 2-2 2-2 1-18-27-7-82 13-118 24-45 86-79 152-72v1Z"/><path d="M447 265c-3-2-17-12-24-19s-15-17-26-26c-5-4-3-10-13-20l-22-21c-3-3-4-8-4-13-1-6-27-21-86-21-58 0-94 12-106 22l1 1c8-4 23-9 42-8-10 2-46 9-70 40-17 24-24 40-25 47h1c12-14 69-71 142-69 28 0 45 5 63 15v1c-6 0-24 1-30 21-6 21 4 42 37 53 10 3 21 5 31 5 2 0 2 1 2 2-4 6-12 22-7 30 6 11 29 24 70 16 26-5 32-15 31-28-1-8-19 1-29-8-2-2-5-14-3-13 13 3 29 6 35 4 2-1-8-8-10-11Zm-66-29a181 181 0 0 0-50-23l39 1 4 9 7 13ZM353 84c-7 0-12-5-12-11 0-4 3-7 7-9v-1l-5-5v-1c0-2-2-4-5-4-2 0-4 2-4 4a1 1 0 0 1 0 1c-3 1-4 3-5 5v1c4 2 6 5 6 9 0 6-5 11-11 11v1l2 10-1 2a1305 1305 0 0 0-7-1l-1-1a81 81 0 0 0 4-17c-6 0-11-5-11-10 0-4 2-8 6-10v-1l-5-5v-1c0-2-2-3-4-3-3 0-5 1-5 3v1a1 1 0 0 1 0 1l-5 4v1c4 2 6 6 6 10 0 5-5 10-11 10v1l4 15-2 1a873 873 0 0 0-10-1 93 93 0 0 0 4-20h-1c-7 0-12-5-12-12 0-4 3-9 7-10v-2c-1-2-3-4-6-5l-1-1c0-2-1-4-4-4-2 0-4 2-4 4l-1 1c-3 1-5 3-6 5v2c5 1 8 6 8 10 0 7-6 12-13 12h-1a14 14 0 0 0 0 2l5 18-1 1a873 873 0 0 0-11-1 76 76 0 0 0 3-16c-6 0-11-5-11-10 0-4 2-8 6-10v-1l-4-4a1 1 0 0 1-1-1v-1c0-2-2-3-4-3-3 0-4 1-4 3v1c-3 1-5 3-6 5l1 1c3 2 6 6 6 10 0 5-5 10-11 10h-1v1l4 16-1 1a1148 1148 0 0 0-8-1 51 51 0 0 0 2-11c-6 0-11-5-11-11 0-4 2-7 6-9l1-1-5-5a1 1 0 0 1-1-1c0-2-2-4-4-4s-4 2-4 4v1c-3 1-5 3-6 5l1 1c3 2 6 5 6 9 0 6-5 11-11 11h-1v2c0 24 10 42 10 42 36-7 83-7 145 0 0 0 9-18 9-42v-2Zm-216 18v-1h-2v-1h19v1h-3a1 1 0 0 0 0 1v20l-2 8-5 5c-3 2-5 3-8 3a58 58 0 0 1-20 0c-3 0-6-1-8-3l-5-5c-2-2-2-5-2-8v-20l-1-1h-2v-1h19v1h-2a1 1 0 0 0-1 1v20c0 3 1 5 3 6l9 2 8-2c2-1 3-3 3-6v-20Zm291 36 2-1v-28l-15 29-14-29v28l2 1v1h-14v-1l2-1v-36h-2v-1h21v1l-2 1 1 1 1 3a205 205 0 0 0 2 3l1 4 2 3 1 2a125 125 0 0 1 3-6 585 585 0 0 0 2-4 182 182 0 0 0 2-4l1-2-2-1v-1h22v1h-2v36l2 1v1h-16v-1Z"/></g><defs><clipPath id="a"><path fill="#fff" d="M0 0h542v618H0z"/></clipPath></defs></svg>