<svg xmlns="http://www.w3.org/2000/svg" width="551" height="368" fill="none"><g clip-path="url(#a)"><path fill="#fff" d="M535 214a93 93 0 0 0-52-37 86 86 0 0 0 49-80c0-28-12-51-36-68-23-18-58-26-105-26h-21l-46 63h56c21 0 37 4 48 11s17 17 17 32c0 14-6 25-17 32s-27 11-48 11H231L339 0h-76l-89 125-38-51H54l79 107L0 367h78l95-133 28 38h82l-44-59h156c22 0 39 4 51 11 11 8 17 19 17 34s-6 27-17 34c-12 7-29 11-51 11H155l-45 63h291c49 0 86-9 112-26 25-18 37-42 37-73 0-21-5-39-15-53"/></g><defs><clipPath id="a"><path fill="#fff" d="M0 0h550v367H0z"/></clipPath></defs></svg>