<svg xmlns="http://www.w3.org/2000/svg" width="1001" height="1000" fill="none"><mask id="a" width="958" height="640" x="5.1" y="180" fill="#000" maskUnits="userSpaceOnUse"><path fill="#fff" d="M5 180h958v640H5z"/><path d="M905 546a145 145 0 0 0-81-57c22-11 40-27 53-47 15-21 23-47 23-77 0-44-19-79-55-106-37-27-92-41-165-41h-32l-71 99h87c32 0 57 5 75 16 17 11 26 28 26 50s-9 40-26 51c-18 11-43 16-75 16H432l168-236H482L343 408l-59-79H156l124 167L72 785h122l147-206 44 59h128l-69-92h243c35 0 61 5 79 17s27 29 27 53-9 42-27 53-44 16-79 16H314l-71 99h454c76 0 134-14 173-41s59-65 59-113c0-33-8-61-24-84"/></mask><path fill="#010101" d="M905 546a145 145 0 0 0-81-57c22-11 40-27 53-47 15-21 23-47 23-77 0-44-19-79-55-106-37-27-92-41-165-41h-32l-71 99h87c32 0 57 5 75 16 17 11 26 28 26 50s-9 40-26 51c-18 11-43 16-75 16H432l168-236H482L343 408l-59-79H156l124 167L72 785h122l147-206 44 59h128l-69-92h243c35 0 61 5 79 17s27 29 27 53-9 42-27 53-44 16-79 16H314l-71 99h454c76 0 134-14 173-41s59-65 59-113c0-33-8-61-24-84"/><path fill="#fff" d="m839 495 13-31-13 31Zm-15-6-16-30-73 38 78 25 11-33Zm53-47-28-19 28 19Zm-32-183 20-28-20 28Zm-197-41v-34h-18l-10 14 28 20Zm-71 99-28-20-38 54h66v-34Zm162 16 18-28-18 28Zm0 101-18-29 18 29Zm-307 16-27-20-39 54h66v-34Zm168-236 28 20 38-54h-66v34Zm-118 0v-34h-17l-11 14 28 20ZM343 408l-28 20 28 38 27-38-27-20Zm-59-79 27-20-10-14h-17v34Zm-128 0v-34H89l40 54 27-20Zm124 167 27 20 15-21-15-19-27 20ZM72 785l-28-19-38 53h66v-34Zm122 0v34h18l10-14-28-20Zm147-206 27-21-27-37-28 38 28 20Zm44 59-27 20 10 14h17v-34Zm128 0v34h67l-40-54-27 20Zm-69-92v-34h-67l40 54 27-20Zm322 17 19-29-19 29Zm0 106-18-29 18 29Zm-452 16v-34h-18l-10 15 28 19Zm-71 99-28-20-38 54h66v-34Zm627-41-19-28 19 28Zm63-216c-20-29-47-50-81-63l-26 62c23 10 40 23 51 40l56-39Zm-81-63a238 238 0 0 0-18-7l-21 65a171 171 0 0 1 13 4l26-62Zm-13 56c27-14 50-34 67-58l-57-39c-10 15-23 27-41 36l31 61Zm67-58c19-28 28-61 28-97h-68c0 24-6 43-17 58l57 39Zm28-97c0-55-24-101-69-134l-40 55c28 21 41 46 41 79h68Zm-69-134c-45-33-109-47-185-47v68c70 0 116 13 145 34l40-55Zm-185-47h-32v68h32v-68Zm-60 14-71 99 56 40 70-99-55-40Zm-43 153h87v-68h-87v68Zm87 0c29 0 47 5 57 11l36-57c-25-16-58-22-93-22v68Zm57 11c6 4 10 10 10 21h68c0-33-14-61-42-78l-36 57Zm10 21c0 12-4 18-10 22l36 57c28-18 42-47 42-79h-68Zm-10 22c-10 6-28 11-57 11v68c35 0 68-6 93-22l-36-57Zm-57 11H432v68h232v-68Zm-204 54 168-236-56-40-167 236 55 40Zm140-290H482v68h118v-68Zm-146 14L315 388l55 40 140-194-56-40Zm-84 194-59-79-54 40 58 79 55-40Zm-86-93H156v68h128v-68Zm-155 54 124 167 54-40-123-167-55 40Zm123 127L44 766l56 39 207-289-55-40ZM72 819h122v-68H72v68Zm150-14 147-207-56-39-146 207 55 39Zm92-206 44 59 54-40-44-60-54 41Zm71 73h128v-68H385v68Zm155-54-68-93-55 41 69 92 54-40Zm-96-38h243v-68H444v68Zm243 0c32 0 51 5 61 11l37-57c-26-16-60-22-98-22v68Zm61 11c7 5 11 11 11 25h68c0-34-14-63-42-82l-37 57Zm11 25c0 14-5 20-11 24l36 58c30-19 43-49 43-82h-68Zm-11 24c-10 6-29 11-61 11v68c37 0 71-5 97-21l-36-58Zm-61 11H314v68h373v-68Zm-401 15-71 98 56 40 70-99-55-39Zm-43 152h454v-68H243v68Zm454 0c79 0 145-14 192-47l-38-56c-31 22-81 35-154 35v68Zm192-47c49-34 74-82 74-141h-68c0 37-15 65-44 85l38 56Zm74-141c0-39-10-74-30-103l-56 39c11 16 18 36 18 64h68Z" mask="url(#a)"/></svg>