<svg xmlns="http://www.w3.org/2000/svg" width="113" height="50" fill="none"><path fill="#F8F8F8" d="m18.144 20.422-3.26 1.596 1.986.764c.41.158.896.357 1.076.841.184.498-.087.941-.326 1.316l-1.085 1.699a3184.15 3184.15 0 0 1-3.866 6.042l-.005-1.864a270.086 270.086 0 0 0 1.833-6.007c.078-.268.028-.428-.23-.556-.658-.325-1.317-.65-1.976-.973-.659.324-1.318.648-1.975.973-.258.128-.308.288-.231.556a258.471 258.471 0 0 0 1.833 6.006c0 .623-.003 1.245-.004 1.866-1.292-2.012-2.58-4.028-3.866-6.042l-1.085-1.7c-.24-.374-.51-.817-.327-1.315.18-.484.666-.683 1.076-.841.662-.256 1.324-.51 1.987-.764l-3.26-1.595h-.003c.34.567.678 1.135 1.017 1.702l-1.681.646c-1.179-1.844-2.356-3.687-3.529-5.533 3.346 1.186 6.687 2.383 10.047 3.53 3.36-1.147 6.702-2.344 10.047-3.53-1.173 1.846-2.35 3.689-3.527 5.532l-1.68-.647 1.016-1.703"/><path fill="#F8F8F8" fill-rule="evenodd" d="M82.043 22.866v1.747h9.396c.2 0 .36-.15.36-.334v-1.08c0-.183-.16-.333-.36-.333h-9.396Zm-2.37 5.812-.007-7.441h12.182c1.132 0 2.05.693 2.05 1.74v1.54c0 1.075-.717 1.804-1.44 1.804l1.621 2.363h-2.653l-1.398-2.27h-7.985v2.27l-2.37-.005v-.001Z" clip-rule="evenodd"/><path fill="#F8F8F8" d="M45.435 28.683H33.252c-1.131 0-2.05-.85-2.05-1.898v-3.651c0-1.048.918-1.898 2.05-1.898h12.183v2.038H33.661c-.199 0-.36.15-.36.334v2.703c0 .183.161.333.36.333h11.774v2.039Zm16.163-7.447v5.548c0 1.048-.917 1.898-2.05 1.898h-10.15c-1.132 0-2.05-.85-2.05-1.898v-5.548h2.448v5.075c0 .183.161.333.36.333h8.632c.2 0 .36-.15.36-.333v-5.075H61.599Zm46.186 3.372v-1.742h-9.301c-.2 0-.36.15-.36.334v1.407c0-.025 6.342-.009 9.661 0Zm2.303 4.074h-2.303v-2.27h-9.641v2.27H95.84l-.02-5.55c0-1.048.917-1.897 2.05-1.897h12.182c.022.015.035.007.036 0v7.447h-.001Zm-44.291-4.07h9.506c.2 0 .36-.15.36-.333v-1.08c0-.183-.16-.333-.36-.333h-9.506v1.747Zm9.915-3.376c1.505 0 2.05.693 2.05 1.74v1.54c0 1.048-.462 1.898-2.05 1.898h-9.915v2.269h-2.303v-7.447h12.218Z"/></svg>