<svg xmlns="http://www.w3.org/2000/svg" width="113" height="50" fill="none"><path fill="#fff" d="M13.251 17.797v.02l.005 4.241s4.364.089 6.657.345h.005V18.2l-1.63-.146h-.01l1.635-2.173.005-.005v-3.505l-3.113 3.866-3.549-6.143v.029l-.005 4.63 1.82 3.093h-.017l-1.8-.05h-.003ZM7.498 26.424l.003.003 1.205 2.269.763.29 1.535-2.401.005-.008v-.669l-1.725.397-1.358-.954-.428 1.073Z"/><path fill="#fff" d="m8.732 23.227-.42 1.093 2.091-.06 1.957.966.117 3.544c.614 0 .748-.31.772-.394.005-.015.005-.022.005-.022s.825.356 1.16.275c.337-.081.497-.6.497-.6l.98 1.143v1.944l-.005-.005-1.76-1.712-1.458.696-1.45-.696-1.766 1.722v2.133l.944-1.072 2.274-.949 2.281.95.945 1.07 1.473-1.862.626-3.078-1.35.378h-.005l1.2-2.257.007-.014-.425-1.074-1.361.956-1.722-.396v.667l-.004.004-.397.397-.943-1.736-.007-.014 1.956-.966 2.083.057h.014l-.42-1.092s-1.983-.244-3.948-.244c-1.966 0-3.94.244-3.94.244h.004l-.005.004Z"/><path fill="#fff" d="M14.705 25.183v.142l.861.222.521-.433.015-.01-.13-.145-1.267.205v.02ZM5.466 18.201v4.201c2.262-.253 6.55-.341 6.657-.346h.005l.004-4.261-1.812.05h-.005l1.813-3.084.004-.008-.005-4.658-3.548 6.14-3.11-3.863v3.505l1.64 2.178h-.02l-1.62.149-.003-.003ZM4.791 27.192l-.817 3.9 8.704 8.701 8.749-8.747.007-.01-.847-3.849v.046l.063 3.376-.003.005-4.978 4.978v-.88l-1.095-1.55-1.901-.772-1.892.773-1.092 1.549v.88l-.008-.005-4.99-4.993.108-3.426-.008.024ZM10.645 25.327l.007-.002v-.16l-1.267-.206-.132.146.008.007.528.435.856-.22ZM18.6 12.694l.024-.028-2.23 1.042.007.015.576.992 1.623-2.02Z"/><path fill="#fff" d="m8.983 13.727.01-.016-2.234-1.043.03.034 1.618 2.013.576-.988Z"/><path fill="#fff" fill-rule="evenodd" d="m81.497 32.632-1.19-3.357v2.742h.425v1.71h-2.664v-1.71h.428v-4.383h-.435v-1.7h2.54l.932 2.64.944-2.642h2.492v1.705h-.426v4.383h.426v1.71h-2.664v-1.71h.428v-2.743l-1.24 3.357.004-.002Zm7.812-6.703.99 6.088h.313v1.708h-2.453v-1.708h.315v-.64h-1.138v.64h.313v1.708h-2.453v-1.708h.313l.99-6.088h2.812-.002Zm-1.021 4.417-.392-2.41-.383 2.41h.775Zm10.49-2.707v1.52h1.774v-2.4l-.825-.83h-2.594l-.828.828v6.14l.828.825h2.596l.825-.825v-2.396H98.78v1.519h-.586v-4.383h.586l-.002.002Zm-5.029 6.086V30.63h-.571v1.387h.31v1.708h-2.656v-1.708h.425v-4.383h-.428V25.93h4.01l.823.823v2.46l-.665.658.663.655v1.495h.428v1.705h-2.339Zm-.579-6.09v1.793h.581v-1.791h-.58v-.003Zm11.719-1.706.988 6.088h.313v1.708h-2.453v-1.708h.316v-.64h-1.139v.64h.314v1.708h-2.454v-1.708h.314l.989-6.088h2.812Zm-1.021 4.417-.392-2.41-.382 2.41h.774Z" clip-rule="evenodd"/><path fill="#fff" d="M32.471 23.213v-7.08h2.274v3.025l2.52-3.025h2.82l-2.542 2.912 2.592 4.168H37.45l-1.502-2.645-1.203 1.163v1.482h-2.274ZM40.733 23.213v-7.08h2.274v7.08h-2.274ZM44.221 23.213v-7.08h1.935l2.202 2.542c.062.07.144.167.246.299l.314.396c.105.134.186.242.241.326l.053-.022c-.007-.191-.01-.382-.01-.571v-2.968h2.069v7.08h-1.925l-2.48-2.828a6.747 6.747 0 0 1-.299-.376c-.081-.112-.16-.222-.237-.325l-.052.022c.007.131.01.26.01.392v3.118h-2.069l.002-.005ZM55.716 23.337c-1.18 0-2.064-.308-2.65-.925-.586-.617-.88-1.53-.88-2.738 0-.808.151-1.485.452-2.027.302-.543.742-.95 1.318-1.225.576-.275 1.272-.411 2.09-.411.495 0 .959.057 1.394.17.435.112.82.282 1.152.504.333.223.59.502.777.84.184.337.278.727.278 1.174h-2.172a.805.805 0 0 0-.107-.412.964.964 0 0 0-.294-.313 1.406 1.406 0 0 0-.428-.196 1.86 1.86 0 0 0-.51-.067c-.267 0-.504.036-.71.108-.205.071-.375.179-.509.325a1.438 1.438 0 0 0-.304.514c-.069.198-.102.428-.102.689v.657c0 .342.06.636.179.88.12.244.301.43.545.562.244.132.543.196.901.196.24 0 .462-.036.665-.107.203-.072.366-.177.488-.314a.679.679 0 0 0 .184-.473v-.04H55.87v-1.44h3.775v3.95H58.47l-.227-.7c-.213.179-.447.33-.7.451a3.46 3.46 0 0 1-.835.278 4.949 4.949 0 0 1-.997.093l.005-.003ZM63.927 23.337c-.488 0-.942-.035-1.363-.107a3.557 3.557 0 0 1-1.112-.37 1.92 1.92 0 0 1-.75-.733c-.182-.313-.273-.705-.273-1.178v-.058a.29.29 0 0 1 .01-.076h2.149a.303.303 0 0 0-.01.076v.067c0 .206.048.364.144.474.095.11.232.184.406.222.175.038.373.057.59.057.082 0 .17 0 .264-.004.093-.003.182-.015.268-.032.086-.016.165-.043.236-.076a.426.426 0 0 0 .17-.139.376.376 0 0 0 .062-.222.351.351 0 0 0-.174-.308 1.706 1.706 0 0 0-.474-.197 9.802 9.802 0 0 0-.67-.155 17.82 17.82 0 0 1-.772-.17 5.213 5.213 0 0 1-.772-.25 2.675 2.675 0 0 1-.67-.398 1.732 1.732 0 0 1-.473-.607c-.117-.244-.174-.536-.174-.88 0-.411.086-.76.258-1.05a2.02 2.02 0 0 1 .705-.7c.3-.18.639-.309 1.019-.393.38-.08.78-.124 1.198-.124.418 0 .825.043 1.198.13.373.085.705.217.992.396.287.18.514.404.68.68.164.274.25.6.257.977v.125h-2.13v-.041a.694.694 0 0 0-.093-.35.686.686 0 0 0-.294-.267c-.134-.07-.311-.103-.531-.103-.206 0-.38.022-.52.062a.68.68 0 0 0-.312.17.326.326 0 0 0-.103.232.37.37 0 0 0 .174.318c.117.081.275.15.474.206.198.055.42.107.67.155.246.048.504.1.772.16.267.058.523.137.772.232.246.096.469.223.67.376.198.155.356.344.473.571.117.227.175.505.175.835 0 .583-.137 1.057-.407 1.42-.27.364-.64.629-1.112.796a4.758 4.758 0 0 1-1.6.251h.003ZM67.99 23.213v-7.059h.977v6.205h3.508v.854H67.99ZM73.195 23.213v-7.059h5.433V17h-4.455v2.18h4.003v.844h-4.003v2.346h4.517v.844h-5.495ZM79.041 23.213l2.788-7.059h1.287l2.797 7.06h-1.059l-.689-1.751H80.73l-.679 1.75h-1.009Zm2.006-2.582h2.788l-.853-2.212a14.461 14.461 0 0 0-.093-.258c-.041-.11-.087-.232-.134-.366-.048-.134-.096-.27-.144-.412-.048-.14-.093-.27-.134-.384h-.062l-.165.473c-.062.18-.124.351-.184.519-.062.167-.112.31-.155.428l-.864 2.212ZM89.608 23.337c-1.139 0-2.004-.299-2.6-.894-.593-.598-.889-1.516-.889-2.757 0-.808.136-1.485.411-2.028a2.69 2.69 0 0 1 1.215-1.219c.535-.27 1.186-.407 1.956-.407.48 0 .916.053 1.305.156.393.103.73.258 1.014.469.285.21.505.47.658.786.155.316.232.689.232 1.122h-.997c0-.302-.055-.562-.165-.777a1.41 1.41 0 0 0-.469-.531 2.055 2.055 0 0 0-.705-.294 4.065 4.065 0 0 0-.854-.089c-.411 0-.78.053-1.1.156a1.973 1.973 0 0 0-.813.483c-.22.22-.387.5-.504.844-.118.342-.175.75-.175 1.224v.215c0 .639.098 1.155.294 1.554.196.397.478.689.849.87.37.183.815.273 1.337.273.52 0 .963-.074 1.305-.222.342-.148.598-.373.768-.674.167-.302.25-.682.25-1.143v-.125h-2.488v-.834h3.476v3.713h-.74l-.104-.894c-.184.24-.404.435-.657.586a2.87 2.87 0 0 1-.84.33c-.306.07-.628.103-.973.103l.003.004ZM97.17 23.337c-.597 0-1.111-.095-1.541-.287a2.063 2.063 0 0 1-.993-.91c-.23-.417-.344-.95-.344-1.6v-4.383h.978v4.486c0 .617.167 1.08.5 1.389.332.308.8.464 1.403.464s1.088-.156 1.43-.464c.342-.309.514-.772.514-1.39v-4.485h.966v4.383c0 .653-.117 1.186-.349 1.6-.234.416-.567.72-1.004.91-.435.192-.957.287-1.56.287ZM101.523 23.213v-7.059h5.432V17h-4.454v2.18h4.002v.844h-4.002v2.346h4.517v.844h-5.495ZM32.557 33.739v-7.965h5.005v1.069h-3.761v2.415h3.367v1.08H33.8v3.403h-1.244v-.002ZM37.05 33.739l2.717-7.965h1.59l2.716 7.965H42.74l-.627-1.892h-3.158l-.627 1.892H37.05Zm2.24-2.96h2.485l-.777-2.416a6.854 6.854 0 0 1-.086-.272l-.117-.37c-.043-.137-.084-.27-.122-.407-.038-.137-.074-.26-.105-.378h-.07c-.038.139-.086.299-.138.483a86.93 86.93 0 0 0-.158.529c-.05.17-.096.308-.134.418l-.777 2.415v-.002ZM44.633 33.739v-7.965h1.195l3.09 4.864c.03.055.071.124.121.208.05.086.096.17.14.256l.11.22h.045v-5.55h1.207v7.965H49.38L46.256 28.8c-.045-.086-.107-.198-.186-.342-.077-.143-.144-.268-.199-.378h-.045v5.655H44.63l.003.003ZM53.595 33.739v-6.884h-2.346v-1.081h5.956v1.08h-2.357v6.885h-1.253ZM56.196 33.739l2.717-7.965h1.59l2.716 7.965h-1.334l-.627-1.892H58.1l-.627 1.892h-1.277Zm2.24-2.96h2.485l-.777-2.416a7.025 7.025 0 0 1-.086-.272l-.117-.37c-.043-.137-.084-.27-.122-.407-.038-.137-.074-.26-.105-.378h-.07c-.038.139-.086.299-.138.483a86.93 86.93 0 0 0-.158.529c-.05.17-.096.308-.134.418l-.777 2.415v-.002ZM66.366 33.878c-.395 0-.773-.043-1.131-.127a2.764 2.764 0 0 1-.947-.411 1.99 1.99 0 0 1-.639-.744c-.155-.306-.232-.684-.232-1.131v-.122c0-.043.005-.079.012-.11h1.244c0 .031 0 .067-.005.11s-.005.084-.005.122c0 .301.067.552.204.756.136.2.33.349.585.447.256.098.558.146.907.146.193 0 .375-.015.545-.041.17-.026.327-.072.47-.134a1.28 1.28 0 0 0 .367-.232.956.956 0 0 0 .232-.337c.055-.132.08-.282.08-.452a.958.958 0 0 0-.186-.603 1.439 1.439 0 0 0-.504-.406 4.7 4.7 0 0 0-.72-.29l-.825-.26a8.716 8.716 0 0 1-.818-.301 3.154 3.154 0 0 1-.715-.419 1.88 1.88 0 0 1-.511-.621c-.127-.25-.191-.55-.191-.907 0-.356.066-.681.203-.951.136-.27.33-.498.58-.68.252-.181.55-.317.895-.406a4.59 4.59 0 0 1 1.143-.134c.387 0 .744.043 1.074.127.33.086.617.218.865.394.249.177.443.41.581.691.139.283.208.625.208 1.029v.162h-1.231v-.162c0-.249-.06-.46-.18-.634a1.128 1.128 0 0 0-.511-.402 2.036 2.036 0 0 0-.796-.138 2.81 2.81 0 0 0-.847.11 1.094 1.094 0 0 0-.533.337.857.857 0 0 0-.187.562c0 .222.065.41.192.562.126.15.299.28.511.382.213.105.452.199.715.28.263.081.536.167.818.256.282.088.557.189.825.301.268.112.507.253.72.423.213.17.38.38.504.634.125.251.187.552.187.899 0 .581-.127 1.05-.378 1.406a2.134 2.134 0 0 1-1.04.777c-.442.163-.952.244-1.533.244l-.002-.002ZM71.916 33.739v-3.262l-2.74-4.7h1.393l1.973 3.493h.057l1.973-3.494h1.325l-2.729 4.701v3.262h-1.252Z"/></svg>