<svg xmlns="http://www.w3.org/2000/svg" width="113" height="50" fill="none"><g clip-path="url(#a)"><path fill="#E30613" d="M97.368 8.12A5.108 5.108 0 0 0 92.26 3.01H20.441a5.108 5.108 0 0 0-5.108 5.108v27.002h.007c-.004.747.03 1.504.109 2.264.565 6.334 4.183 9.968 9.93 9.968a14.984 14.984 0 0 0 5.969-1.267c1.606-.7 2.856-1.49 3.823-2.42l.867-.836.033-.593c.196-.003.398-.014.6-.031 1.206-.106 2.26-.442 3.132-1l1.309-.839.073-1.198c.232.263.484.512.755.745 1.406 1.21 3.103 1.823 5.042 1.823.267 0 .539-.012.81-.035a11.452 11.452 0 0 0 3.705-.981l-.05.84s.945.692 1.38.922c.76.402 2.012.606 3.016.606.228 0 .463-.011.7-.032 1.22-.105 2.64-.443 3.513-1.002.327-.21.951-.84.951-.84l.119-1.984c.97.747 2.166 1.14 3.51 1.14.2 0 .403-.01.609-.027a7.177 7.177 0 0 0 2.993-.982 5.72 5.72 0 0 0 1.415.174 6.604 6.604 0 0 0 3.207-.825 11.177 11.177 0 0 0 4.784.648c2.268-.2 4.135-.952 5.547-2.238 1.041.746 2.312 1.145 3.708 1.145a7.508 7.508 0 0 0 3.872-1.068 5.89 5.89 0 0 0 2.466.515 7.4 7.4 0 0 0 .521-.019 3.055 3.055 0 0 0 1.644-.629c1.244-.959 1.974-2.493 1.966-4.083h.002V8.12h-.002Z"/><path fill="#fff" d="M94.2 32.836a1.231 1.231 0 0 0-.118-.44.59.59 0 0 1-.387-.208c-.142-.171-.197-.434-.158-.775l.472-7.8c-1.199-.58-2.784-.938-4.153-.938a6.75 6.75 0 0 0-.601.025c-1.898.165-3.399 1.03-4.46 2.573-1.092 1.557-1.545 3.51-1.344 5.807.227 2.592 1.45 4.02 3.447 4.02.129 0 .264-.007.401-.02 1.439-.125 2.767-.991 3.551-2.316l.162-.272.027.316c.095 1.09.917 1.739 2.196 1.739.084 0 .17-.003.26-.01.478-.383.761-1.065.705-1.704m-3.52-2.14-.01.02c-.573 1.035-1.285 1.575-2.177 1.653a2.119 2.119 0 0 1-.17.007c-.625 0-1.399-.334-1.537-1.928-.134-1.538.021-2.877.451-3.87.439-1.017 1.13-1.595 1.999-1.67.114-.01.229-.015.344-.015.43 0 .864.069 1.328.207l.076.023-.302 5.574h-.001ZM27.048 34.298c.026.306.078.552.159.747l2.481-.217-.294 5.287-.146.09c-.72.444-1.537.701-2.5.785a4.972 4.972 0 0 1-.424.019c-2.144 0-3.364-1.523-3.626-4.527-.146-1.667-.08-3.258.193-4.728.288-1.506.868-2.809 1.718-3.872.898-1.12 2.019-1.726 3.427-1.85a5.18 5.18 0 0 1 .436-.018c1.134 0 2.175.399 3.098 1.183 1.088-.415 1.71-1.363 1.755-2.684-1.157-1.002-2.886-1.6-4.638-1.6-.224 0-.45.01-.672.03l-.092.007c-2.7.237-5.024 1.507-6.722 3.674-2.083 2.656-3.034 6.466-2.608 10.454.408 4.652 2.753 7.111 6.783 7.111.311 0 .637-.015.967-.043a11.859 11.859 0 0 0 3.74-.962c1.238-.539 2.175-1.118 2.864-1.77l.527-9.596-6.076.532c-.302.565-.417 1.202-.352 1.946M52.833 28.918c-.16-1.823-1.708-3.002-3.942-3.002-.188 0-.381.008-.576.025-1.979.173-3.475.987-4.572 2.49-1.085 1.508-1.535 3.422-1.336 5.692.128 1.453.663 2.594 1.596 3.397.815.7 1.818 1.057 2.98 1.057.174 0 .353-.008.533-.023 1.541-.134 3.201-.794 4.238-1.683.166-.626.146-1.096-.058-1.398-.16-.235-.444-.38-.842-.431-.808.537-1.673.85-2.569.928-.116.01-.232.015-.342.015-1.205 0-1.966-.598-2.259-1.778l-.028-.113.117-.013c4.8-.507 7.307-2.341 7.06-5.162m-7.214 3.252-.119.014.005-.12c.096-2.238 1.077-3.657 2.625-3.792.067-.006.132-.01.196-.01.816 0 1.364.472 1.43 1.232.128 1.457-1.264 2.358-4.137 2.676ZM42.575 27.376c-.045-.51-.173-.728-.275-.823a1.395 1.395 0 0 0-.553-.1c-.06 0-.125.003-.188.008-1.207.106-2.16.886-2.83 2.321l-.142.305-.251-1.636c-.268-.14-.59-.209-.985-.209-.11 0-.228.007-.35.017a3.573 3.573 0 0 0-1.481.45l-.666 11.158c.29.138.667.21 1.119.21.135 0 .277-.006.425-.019.668-.059 1.223-.22 1.655-.486l.398-6.525.005-.014c.46-1.302 1.382-2.107 2.533-2.208.082-.006.166-.01.25-.01.142 0 .271.012.388.037.666-.374 1.046-1.361.948-2.474M78.697 28.564c-.793-.238-1.33-.417-1.557-.564-.25-.161-.385-.407-.416-.753-.03-.328.119-.618.422-.836.288-.207.707-.34 1.211-.383.156-.014.312-.02.46-.02.781 0 1.475.188 2.06.56.807-.41 1.213-1.096 1.242-2.094-.833-.544-2.186-.909-3.391-.909-.157 0-.31.006-.453.019-1.544.135-2.762.615-3.62 1.424-.873.805-1.262 1.81-1.16 2.986.138 1.562 1.005 2.365 3.203 2.966 1.642.454 2.165.714 2.23 1.45.035.4-.111.722-.435.952-.31.223-.79.364-1.43.419-.149.012-.3.019-.446.019-.916 0-1.738-.25-2.511-.763-.786.43-1.193 1.117-1.242 2.1.479.389 1.108.668 1.97.873a7.955 7.955 0 0 0 2.53.193c1.582-.139 2.837-.627 3.727-1.456.898-.834 1.283-1.833 1.175-3.054-.121-1.398-.727-2.31-3.572-3.132M62.393 21.363a1.95 1.95 0 0 0-.195-.684c-.483-.177-1.037-.266-1.648-.266-.197 0-.404.01-.615.028-1.223.107-2.234.545-3.008 1.301-.806.793-1.235 1.736-1.305 2.882l-.04.74c-.011.202-.123.356-.287.398l-1.298.109c-.244.392-.35 1.205-.31 1.652.024.269.086.512.186.722l1.54-.136-.69 11.608c.29.14.667.21 1.119.21.134 0 .277-.006.423-.019.682-.059 1.247-.224 1.678-.487l.692-11.547 2.093-.182c.274-.563.388-1.12.341-1.653-.026-.307-.085-.542-.177-.702l-2.362.16.056-.831c.094-1.048.643-1.624 1.633-1.71a4.336 4.336 0 0 1 1.326.096c.631-.432.907-.983.846-1.688M70.567 24.56c-.703.06-1.247.213-1.658.464l-.492 7.983-.012.022c-.58.942-1.202 1.429-1.9 1.491a1.96 1.96 0 0 1-.161.008c-.329 0-.584-.098-.765-.293-.236-.256-.333-.688-.284-1.275l.468-7.671c-.302-.128-.67-.192-1.1-.192-.14 0-.288.006-.441.02-.677.06-1.228.214-1.68.47l-.487 8.242c-.075 1.144.179 2.061.733 2.654.445.477 1.085.727 1.85.727.107 0 .22-.004.333-.015 1.18-.103 2.452-.888 3.244-1.998l.132-.185.256 1.13c.306.153.66.23 1.05.23a3.383 3.383 0 0 0 1.77-.484l.687-11.157c-.3-.127-.67-.191-1.1-.191a4.8 4.8 0 0 0-.441.02"/><path fill="#E30613" d="M39.094 22.507a.057.057 0 0 0-.047.025.06.06 0 0 0-.006.051c.128.374.12.539.11.713 0 .033-.012.076-.038.1-.019.017-.042.021-.076.02-.033-.002-.055-.011-.07-.028-.02-.025-.02-.062-.02-.064.076-.91-.802-1.585-1.042-1.717-.125-.067-.245-.081-.338-.04a.285.285 0 0 0-.157.192c-.045.172-.173.997-.18 1.033-.144 1.015.567 1.55 1.003 1.78.16.083.324.114.477.114.27 0 .506-.095.602-.166.003 0 .316-.206.568-.42.316-.273.377-.393.382-.405a.051.051 0 0 0 .003-.035c-.213-1.152-1.166-1.153-1.174-1.152"/><path fill="#FDEB1A" d="m45.32 18.89-.167-.13a60.01 60.01 0 0 0-1.472-1.1 14.857 14.857 0 0 0-1.48-.94l-.021-.012c.053-.29.08-.713.115-1.203.09-1.313.202-2.944.814-3.37a.594.594 0 0 1 .526-.07.476.476 0 0 1 .224.144l.024.026c.018.02.05.024.073.008a.058.058 0 0 0 .019-.073 20.21 20.21 0 0 0-.665-1.244.059.059 0 0 0-.034-.03.301.301 0 0 0-.348.11c-.023.03-.146.192-.194.31-.019.046-.044.07-.069.07-.038-.007-.068-.024-.08-.09-.044-.261.1-.622.418-.751a.07.07 0 0 0 .031-.036.069.069 0 0 0-.007-.05c-1.525-2.382-3.562-3.747-5.594-3.747-1.146 0-2.246.416-3.27 1.234-1.268.908-1.548 3.114-1.55 3.13-.127.684-.244 1.359-.244 1.359a3.34 3.34 0 0 1-.364.88c-.016.026-.008.061.014.08.243.19.566.363 1.038.554-.37-.09-.733-.249-1.082-.471-.001 0-.005-.003-.008-.003l-.015-.011a1.96 1.96 0 0 1-.176-.122l-.087-.064a3.735 3.735 0 0 1-.176-.143l-.027-.022s-.014-.01-.02-.017l-.008-.008a4.372 4.372 0 0 1-1.295-2.047c-.008-.028-.036-.043-.065-.04a.058.058 0 0 0-.047.062s.003.039.017.106c.064.3.013.535-.15.697-.269.268-.826.32-1.37.274.8-.085 1.287-.414 1.305-.744.019-.383-.542-.644-1.502-.7-1.152-.035-1.508.241-1.602.48-.09.231.03.511.33.773.542.473 1.731.881 2.79.419-.224.457-.118 1.352.117 1.796.073.139.158.28.255.422a6.12 6.12 0 0 0 .785.934 3.11 3.11 0 0 1-.578-.422.062.062 0 0 0-.084 0c-2.5 2.447-2.09 4.714-1.292 6.194 2.047.081 3.985.813 5.368 2.034l.534.471c.155.139.32.38.496.643l.067.092-.01-.096a8.87 8.87 0 0 1-.034-.634c.084.704.374 2.147 1.346 2.33.183.035.36.05.529.05 1.138 0 1.94-.697 2.198-.955-.033.054-.081.129-.145.217l-.054.072.109-.05a4.514 4.514 0 0 1 2.268-.641c.107 0 .213.005.317.015.567-.331 1.045-.713 1.416-1.14a7.3 7.3 0 0 0 1.44-2.498l.01-.03c.3-.979.385-1.802.408-2.11l.005-.075v-.047a.046.046 0 0 0-.02-.046m-2.815-1.252c.084.115.212.39.17.492-.006.014-.016.028-.047.034-.04.008-.057-.01-.12-.13a1.208 1.208 0 0 0-.352-.446c-.395-.308-.649-.36-1.318-.381-.042 0-.078-.014-.097-.036-.014-.017-.02-.04-.017-.072.008-.082.097-.123.17-.143a.791.791 0 0 1 .213-.025c.419 0 1.05.228 1.397.705m-4.982-9.645v-.007c.006-.046.075-.46.501-.58a1.46 1.46 0 0 1 .354-.044.93.93 0 0 1 .48.117c.124.073.35.21.412.27a.19.19 0 0 1 .067.133.076.076 0 0 1-.024.06c-.051.054-.135.009-.148.002-.314-.149-.604-.199-.816-.138a2.149 2.149 0 0 0-.678.324c-.069.05-.12.025-.153-.005-.006-.005-.017-.047.005-.132Zm6.404 12.351a12.52 12.52 0 0 0-.812.755l-1.001 1.034c-.361.37-.709.728-.916.945l-.062.064c-.428.446-1.015 1.06-1.841 1.589l-.04.026c-.362.234-.909.584-1.665.285-.034-.012-.828-.302-.643-1.402 0-.013.15-1.132.346-2.029.006-.023.535-2.377-.053-3.974 0-.005-.049-.123-.125-.276a.057.057 0 0 0-.042-.03h-.01a.05.05 0 0 0-.038.015 3.025 3.025 0 0 1-1.819.825c-.009 0-.835.073-1.553-.215.433.06 1.181.107 1.958-.109.044-.01 1.06-.254 1.517-1.088.015-.038.393-.91-.055-1.745-.322-.6-.982-1.014-1.963-1.236.261-.005.618.018.968.1.019.005.04 0 .053-.013a.06.06 0 0 0 .017-.053c0-.003-.06-.338-.04-.81.04-.938.18-2.305.915-3.331.285-.397.9-1.028 1.82-.791.296.07 1.32.437 2.055 2.243.01.024 1.03 2.298.707 5.314-.379-.173-2.156-.956-4.003-1.218a.053.053 0 0 0-.05.019.055.055 0 0 0-.014.051c0 .01.2 1.001-.235 1.738a.057.057 0 0 0 .008.07c.43.446 1.253 1.153 2.73 1.983.013.008 1.294.8 2.892.926.742.06 1.116-.162 1.338-.293.155-.091.21-.116.274-.071.018.01.02.02.02.03.005.113-.306.384-.636.672M27.028 9.14s.012 0 .017-.003l.012-.003.011-.003c.034-.01.137-.045.178-.054 1-.264 2.089.007 2.128.018a.065.065 0 0 0 .048-.003c.316-.162.465-.34.445-.53-.026-.258-.383-.502-.95-.655-.768-.205-1.754-.193-2.068.239-.176.238-.131.565.129.97.01.017.03.026.048.026"/><path fill="#FDEB1A" d="M27.084 10.67c.01 0 .018 0 .026-.007a1.36 1.36 0 0 1 .167-.069c.881-.298 2.154.05 2.207.064.017.005.038 0 .052-.01.395-.295.559-.572.485-.823-.121-.407-.83-.597-1.455-.638-.76-.051-1.675.104-1.88.564-.114.257.006.562.354.903.011.01.028.017.044.017M28.762 7.672c.361.08.665.173 1.055.396.01.004.02.006.03.006.006 0 .012 0 .017-.002.016-.004.031-.017.036-.032.25-.556.469-.88.643-1.143.095-.142.177-.265.246-.397a.133.133 0 0 0-.016-.143c-.45-.539-.88-.48-1.16-.336-.596.305-.994 1.225-.898 1.606.005.02.024.038.044.044M47.996 16.244c0 .018.01.036.025.045.015.01.035.012.053.008.112-.04.372-.09.853.017h.012c.02 0 .042-.012.053-.031.019-.036.469-.88-.26-1.434-.194-.148-.448-.182-.752-.104a.227.227 0 0 0-.146.1.248.248 0 0 0-.014.194c0 .006.142.64.176 1.202M50.213 17.254c-.08-.39-.741-.699-1.353-.8-.483-.08-.836-.019-.944.165-.077.132-.03.31.14.523.01.011.022.019.036.02.036.007.878.16 1.543.609l.118.095a.06.06 0 0 0 .04.014c.01 0 .021-.003.032-.01.304-.192.434-.401.39-.619M47.292 18.451c-.209.064-.26.176-.264.259-.018.213.252.478.782.775-.364-.109-.781-.283-.898-.568-.062-.151-.03-.327.094-.522.028-.042.042-.068.042-.068a.057.057 0 0 0-.019-.075.056.056 0 0 0-.076.011 3.447 3.447 0 0 1-1.352 1.003.071.071 0 0 0-.03.045 8.892 8.892 0 0 1-.37 1.728c-.006.02 0 .045.017.059.011.01.027.015.041.015.008 0 .016 0 .022-.003.61-.241 1.262-.906 1.455-1.48a.986.986 0 0 0 .055-.31c.417.388 1.348.671 1.943.545.384-.083.599-.316.62-.68a.06.06 0 0 0-.015-.038c-.506-.64-1.567-.842-2.05-.696"/><path fill="#FDEB1A" d="M48.684 17.452c-.476-.165-1.06-.25-1.272.012-.128.158-.09.402.109.727.01.014.025.025.042.028.012 0 1.144.16 1.603.598.024.022.085.089.09.094.01.015.029.023.047.023.007 0 .015 0 .02-.003.356-.13.533-.305.532-.52-.003-.382-.592-.755-1.173-.958"/><path fill="#050100" d="M37.707 8.177c.048-.042.327-.221.66-.313.198-.058.472-.011.776.134.06.034.154.05.214-.016a.135.135 0 0 0 .04-.1.244.244 0 0 0-.088-.175c-.08-.078-.41-.27-.422-.277-.352-.218-.855-.086-.875-.08-.464.13-.538.587-.543.63-.013.046-.033.152.014.19a.18.18 0 0 0 .224.007ZM40.668 17.094c-.012.115.073.166.17.17.644.02.893.065 1.284.369.377.292.333.62.517.588.233-.042.003-.49-.087-.616-.562-.777-1.843-.91-1.884-.511Z"/><path fill="#050100" d="M44.577 19.594c-.255-.177-.451.45-1.64.355-1.601-.126-2.867-.917-2.867-.917-1.485-.833-2.3-1.54-2.72-1.974.452-.766.24-1.78.24-1.78 2.086.295 4.059 1.245 4.059 1.245.356-3.108-.702-5.423-.702-5.423-.695-1.707-1.655-2.173-2.094-2.276-.964-.249-1.6.425-1.88.815-.74 1.03-.885 2.408-.927 3.362-.02.484.042.822.042.822a4.014 4.014 0 0 0-1.328-.08c-.018.002-.018.021 0 .024 3.37.575 2.312 2.967 2.312 2.967-.447.818-1.476 1.056-1.476 1.056-1.007.28-1.955.117-2.238.056-.016-.003-.022.018-.01.026.79.456 1.862.355 1.862.355a3.102 3.102 0 0 0 1.853-.84c.076.152.123.272.123.272.588 1.599.05 3.94.05 3.94-.201.91-.346 2.033-.346 2.033-.198 1.165.68 1.465.68 1.465.81.322 1.386-.08 1.756-.317.873-.56 1.473-1.205 1.912-1.663.416-.433 1.401-1.442 1.918-1.979.749-.778 1.678-1.365 1.42-1.544m-4.733 4.46c-.252.216-.562.417-.562.417-.132.097-.6.273-1.021.05-.514-.27-1.102-.81-.973-1.722 0 0 .13-.854.177-1.026.047-.168.209-.227.414-.116.206.112 1.087.777 1.014 1.66 0 0-.017.144.14.155.148.01.176-.12.177-.174.01-.192.013-.363-.115-.735 0 0 .91-.014 1.116 1.105 0 0-.05.114-.365.386"/><path fill="#050100" d="M39.603 25.102c-.113.128-1.181 1.267-2.752.971-1.24-.235-1.33-2.634-1.33-2.657a.038.038 0 0 0-.037-.038c-.023 0-.037.018-.039.038 0 .006-.022.46.03 1.024.008.09.018.182.03.276v.003c.013.093.027.19.044.285.053.29.128.563.23.801.091.2.2.374.323.519.229.252.533.398.937.386a3.58 3.58 0 0 0 .528-.058c.3-.054.58-.141.84-.272.28-.154.536-.336.762-.551.06-.06.114-.122.163-.18l.014-.016c.05-.06.094-.116.131-.168.106-.145.172-.262.196-.313.008-.017.002-.044-.014-.055a.045.045 0 0 0-.056.008M49.97 16.596a2.961 2.961 0 0 0-.582-.22s-.002 0 0-.003c.104-.249.303-.912-.217-1.448-.378-.387-.855-.517-1.384-.37-.093.025-.31.085-.236.453 0 .01.183.914.21 1.357a.48.48 0 0 0-.218.352.476.476 0 0 0 .08.298v.003c-.144.026-.462.124-.567.459a.828.828 0 0 0-.014.468v.002c-.09.107-.626.72-1.377 1.043 0 0-.003 0-.003-.002.013-.141.022-.278.03-.407.053-.885-.042-1.963-.18-2.758-.388-2.266-1.357-3.937-1.358-3.94-.081-.17-.164-.337-.246-.5v-.002a.164.164 0 0 0 .123-.058c.07-.086.074-.18.008-.294-.215-.315-.449-.46-.615-.528-.745-1.261-1.573-2.24-2.499-2.928v-.005c.645-.163.964-1.05.954-1.491 0-.106-.039-.253-.191-.228-.098.018-.134.131-.15.22-.071.43-.232.691-.448.884a.73.73 0 0 1-.184.123 2.241 2.241 0 0 1-.496.151h-.002a5.009 5.009 0 0 0-.308-.174v-.005c1-.47.925-1.64.839-1.871-.036-.098-.112-.207-.221-.18-.128.037-.14.147-.128.25.101.85-.386 1.415-1.058 1.538a6.738 6.738 0 0 0-.352-.126s-.002-.003 0-.003c.381-.2.68-.64.774-1.01a1.249 1.249 0 0 0-.044-.7c-.039-.07-.089-.105-.168-.076-.076.028-.058.134-.058.134.049.534-.305.975-.305.975a1.64 1.64 0 0 1-.788.526 6.19 6.19 0 0 0-.663-.105c-.124-.01-.244-.014-.364-.018-3.216-.165-5.232 2.168-5.536 4.47-.117.891-.268 1.528-.493 2.048 0 .002-.003.002-.003 0-1.031-.954-1.322-2.293-1.33-2.327.497-.566-.02-1.305-.304-1.403v-.003c.38-.157.365-.684.221-.863v-.001c.457-1.025.9-1.487 1-1.825a.18.18 0 0 0-.022-.15c-.29-.437-.658-.639-1.04-.66-.889-.047-1.935.966-1.82 1.874 0 0 0 .003-.003.001a3.088 3.088 0 0 0-.576-.05c-1.357-.006-1.807 1.053-1.219 1.805V9.3c-.71.459-.207 1.426.02 1.572v.003c-.912 1.299 1.087 1.943 2.258 1.926a1.953 1.953 0 0 0 .629-.081c.037.92.356 1.58.72 2.04v.002c-.13.122-.27.246-.42.38-1.334 1.19-2.59 3.652-1.398 6.15.148-.007.298-.011.447-.011.15 0 .302.004.451.01-1.002-1.837-.92-4.014 1.266-6.157h.003c.418.385.797.536.797.536l.036-.031a5.816 5.816 0 0 1-.956-1.088 4.57 4.57 0 0 1-.252-.418c-.266-.504-.355-1.626.019-1.924.001-.001 0-.004-.002-.003-2.139 1.2-5.167-1.564-1.706-1.459 2.35.138 1.57 1.44-.422 1.347-.003 0-.003.003 0 .005.67.146 2.472.352 2.2-.947a2.433 2.433 0 0 1-.016-.098c.221.78.69 1.518 1.314 2.074.019.017.038.03.056.046.058.05.117.1.178.147l.051.037c.072.052.142.106.218.151l.022.016c.347.22.727.39 1.128.486l.005-.005.083-.076v-.004c-.41-.162-.81-.347-1.106-.579v-.003c.156-.27.295-.574.372-.898 0-.002.119-.676.245-1.362 0-.002.264-2.192 1.525-3.094 1.042-.832 2.144-1.223 3.237-1.223 2.028 0 4.026 1.346 5.545 3.72v.004c-.324.13-.5.51-.448.812.017.09.065.126.127.136.077 0 .114-.066.13-.106.05-.12.185-.294.186-.296.108-.13.225-.112.284-.092.176.302.414.732.664 1.244-.018-.019-.032-.037-.05-.054a.531.531 0 0 0-.22-.13.645.645 0 0 0-.576.078c-.636.44-.75 2.09-.84 3.413-.034.495-.063.923-.115 1.208l-.004.03.056.03c.03.017.717.393 1.474.94.598.43 1.19.877 1.471 1.097l.168.13s0 .016-.003.046c0 .024-.003.05-.005.074a9.947 9.947 0 0 1-.404 2.096 7.242 7.242 0 0 1-1.438 2.508c-.423.487-.941.87-1.473 1.172.182.01.36.037.529.078.23-.15.46-.315.672-.498a6.358 6.358 0 0 0 1.375-1.713c.15-.258.276-.509.361-.71.115-.257.212-.506.294-.744a2.829 2.829 0 0 0 1.853-1.54h.003c.083.052.168.1.255.144 1.26.598 2.441.437 2.308-.648v-.002c.579-.266.818-.64.509-1.13v-.003c.618-.352.616-1.087-.158-1.465M30.731 6.394a.074.074 0 0 1 .01.08c-.195.37-.503.681-.89 1.54 0 0-.002.002-.004 0a3.548 3.548 0 0 0-1.071-.4h-.002c-.144-.569.922-2.46 1.959-1.22M29.399 9.04c-.024-.006-1.135-.292-2.164-.02l-.192.06-.012.002c-1.407-2.18 4.339-1.05 2.37-.043m.104 1.564c-.036-.01-1.333-.37-2.24-.064-.061.02-.119.042-.177.072h-.001c-2.004-1.955 4.698-1.71 2.42-.008M48 14.802c.343-.09.563-.012.703.095.69.525.265 1.324.245 1.36h-.004c-.403-.091-.7-.08-.882-.016h-.003c-.035-.575-.178-1.211-.178-1.211-.047-.17.062-.212.119-.226m-1.316 4.283s-.005 0-.003.003c.297.49-.545 1.623-1.414 1.967l-.003-.001c.1-.308.288-.964.37-1.738a3.515 3.515 0 0 0 1.368-1.016l-.04.064c-.577.904.858 1.19 1.31 1.3.003 0 .003-.003 0-.005-2.8-1.336.113-1.632 1.027-.475v.002c-.063 1.166-2.29.542-2.618-.098m2.625-.209h-.002l-.095-.101c-.473-.453-1.607-.609-1.636-.614-1.136-1.857 3.755-.028 1.734.715m.489-1.052h-.003l-.12-.097c-.682-.464-1.546-.618-1.568-.62-1.046-1.312 3.329-.33 1.692.718"/><path fill="#FFF8BC" fill-rule="evenodd" d="M48.383 16.57c-.105.002-.22.02-.286.093-.019.02-.033.051-.016.073.02.03.066.022.1.012.273-.08.562-.13.852-.091h.066a2.236 2.236 0 0 0-.714-.09M47.594 17.495c-.02.02-.037.047-.023.072.017.031.064.028.098.022.282-.055.576-.078.86-.013l.068.008a2.216 2.216 0 0 0-.707-.155c-.106-.007-.221 0-.296.066ZM35.978 14.444l-.25.276c.4.11.735.43.866.823.106-.21.06-.473-.072-.667-.129-.195-.333-.33-.544-.432ZM29.604 8.594c.031-.02.03-.064.019-.098-.042-.125-.168-.2-.291-.258a2.72 2.72 0 0 0-.892-.248c.306.117.64.283 1.041.571.034.028.086.06.123.035M29.433 9.516a2.753 2.753 0 0 0-.912-.162c.337.098.699.242 1.094.47.038.026.092.051.128.022.028-.024.022-.067.008-.1-.055-.12-.189-.185-.317-.232M29.237 10.998a2.712 2.712 0 0 0-.922-.11l.083.02c.372.041.722.197 1.041.385.04.024.094.047.128.016.028-.025.019-.067 0-.1-.062-.116-.2-.174-.33-.211ZM47.278 18.606c-.02.018-.039.046-.026.071.015.031.062.03.098.024.285-.049.647-.056.93.014a2.236 2.236 0 0 0-.703-.169c-.106-.007-.221-.003-.299.061" clip-rule="evenodd"/><path fill="#fff" d="M45.309 18.56s-.399-.403-1.263-.983c.195-1.67-.285-4.965-1.363-3.656.574-3.74 2.626-.255 2.626 4.64Z"/><path fill="#fff" d="M43.084 15.445a.543.543 0 1 1-.15 1.074.535.535 0 0 1-.459-.611.539.539 0 0 1 .61-.463M42.9 14.866a.234.234 0 0 1 .198.265.231.231 0 0 1-.263.197.234.234 0 0 1-.202-.262.238.238 0 0 1 .267-.2ZM42.631 20.165l-.064.077s-.295.342-.766 1.354c0 0-2.76-.092-4.03-1.443 0 0 .096-1.655-.23-2.495 0 0 1.312 1.274 2.922 1.95 0 0 1.184.57 1.952.573.051 0 .216-.016.216-.016ZM41.478 14.928c0 .645-.046.883-.075 1.21 0 0-1.224-.6-2.513-.915 0 0 .458-2.771-.921-4.258 0 0-.612-.754-1.146.058 0 0 .012-.102.019-.125.133-.587.576-1.75 1.502-1.846.507-.053 1.002.076 1.522.702 0 0 .849.942 1.241 2.51.185.739.37 1.802.37 2.664Z"/><path fill="#fff" d="M37.466 13.007a.603.603 0 0 1-.168 1.194.604.604 0 1 1 .17-1.194M37.291 12.151a.28.28 0 0 1 .237.315.277.277 0 1 1-.55-.078.278.278 0 0 1 .315-.237"/></g><defs><clipPath id="a"><path fill="#fff" d="M15.333 3.011h82.035v44.341H15.333z"/></clipPath></defs></svg>