<svg xmlns="http://www.w3.org/2000/svg" width="114" height="50" fill="none"><g fill="#F8F8F8" clip-path="url(#a)"><path d="M.561 32.794c0 .245.245.408.49.408h4.084c.245 0 .49-.162.571-.488l2.533-21.26v-.083c0-.244-.164-.406-.326-.406h-4.41c-.246 0-.328.162-.328.408L.561 32.794ZM24.739 20.495c0 .652-.082 1.303-.163 1.955l-1.307 10.264c0 .244-.245.488-.49.488h-3.757c-.245 0-.49-.162-.49-.408v-.081l1.226-9.938c.082-.408.082-.896.082-1.222 0-.488-.082-.896-.327-1.14-.327-.326-.816-.488-1.552-.488-1.47 0-3.185.408-3.185.408l-1.552 12.463c0 .244-.245.488-.572.488H8.895c-.244 0-.49-.163-.49-.408v-.082l1.635-13.358c.408-1.222 1.143-1.548 3.022-1.955 1.634-.326 4.084-.734 5.963-.734 2.205 0 3.839.326 4.819 1.222.49.57.898 1.385.898 2.525l-.003.001ZM63.538 11.373c0-.245-.082-.326-.327-.326H58.8c-.246 0-.41.162-.41.407l-2.695 22.32c-.41 2.28-1.39 2.28-2.941 2.362-.654 0-1.225 0-1.634.082-.49 0-.654.162-.736.651l-.244 1.792v.162c0 .408.245.488.571.488.572.082.817.163 2.941.163 3.594 0 6.535-1.06 7.107-5.866l2.778-22.235Z"/><path d="M52.919 28.804c-.98 2.769-3.104 4.642-8.005 4.642-2.777 0-4.493-.57-5.555-1.63-1.062-1.058-1.389-2.606-1.389-4.316 0-1.955.409-4.887 1.143-6.597 1.063-2.607 3.186-4.317 7.841-4.317 2.777 0 4.575.652 5.555 1.63 1.062 1.059 1.389 2.443 1.389 4.235 0 1.955-.327 4.643-.98 6.354m-4.329-8.39c-.409-.408-.98-.652-2.042-.652-2.206 0-2.941.977-3.35 3.176-.245 1.466-.49 3.177-.49 4.725 0 .977.163 1.629.572 2.037.409.407.98.57 1.96.57 2.288 0 2.941-1.06 3.35-3.34.245-1.466.49-3.015.49-4.48 0-.978-.082-1.63-.49-2.038M79.301 28.804c-.98 2.769-3.103 4.642-8.005 4.642-2.777 0-4.492-.57-5.555-1.63-1.062-1.058-1.388-2.606-1.388-4.316 0-1.955.408-4.887 1.143-6.597 1.062-2.607 3.185-4.317 7.922-4.317 2.777 0 4.575.652 5.555 1.63 1.062 1.059 1.39 2.443 1.39 4.235-.083 1.955-.41 4.643-1.063 6.354m-4.329-8.39c-.408-.408-.98-.652-2.042-.652-2.205 0-2.94.977-3.35 3.176-.244 1.466-.49 3.177-.49 4.725 0 .977.083 1.629.572 2.037.41.407.98.57 1.96.57 2.288 0 2.942-1.06 3.35-3.34.245-1.466.49-3.015.49-4.48.082-.978-.082-1.63-.49-2.038M97.271 28.315c-1.062 3.421-3.185 5.132-8.087 5.132-2.369 0-4.492-.326-5.635-.733-1.225-.408-1.47-.896-1.47-1.711 0-.408.082-.896.163-1.466l2.123-17.839c0-.407.245-.651.654-.733h3.757c.244 0 .49.162.49.408v.081l-.49 3.91-.245 1.792s1.878-.57 3.839-.57c1.96 0 3.512.408 4.41 1.304.899.895 1.39 2.28 1.39 4.398 0 1.955-.327 4.154-.899 6.027Zm-4.329-7.819c-.408-.488-1.062-.651-2.042-.651-1.225 0-2.859.407-2.859.407l-1.225 9.774s1.063.244 2.37.244c2.205 0 3.103-.651 3.675-3.828.244-1.303.408-2.688.408-4.072.082-.896-.082-1.548-.327-1.874ZM112.627 19.925c-.082.244-.245.326-.489.326h-.163c-.327 0-2.043-.408-3.675-.408-.736 0-1.716.082-2.287.57-.409.326-.572.814-.572 1.304 0 1.303 1.389 1.303 2.859 1.629 1.225.162 2.45.488 3.267 1.303.654.57.981 1.466.981 2.851 0 1.466-.49 3.015-1.552 4.154-1.389 1.386-3.512 1.956-5.882 1.956-2.614 0-5.064-.652-5.554-.896-.082-.082-.245-.082-.245-.326v-.244l.653-1.955c.082-.244.245-.408.409-.408h.163c.409.082 2.532.734 4.41.734.899 0 1.634-.163 2.206-.652.489-.408.653-.896.653-1.385 0-.652-.245-.978-.653-1.222-.409-.244-.981-.326-1.716-.407-1.143-.245-2.696-.408-3.675-1.386-.572-.651-.98-1.465-.98-2.688 0-1.385.326-2.77 1.225-3.829 1.551-1.873 4.165-2.117 6.126-2.117 2.45 0 4.328.488 4.901.733.245.082.245.244.245.408v.162l-.654 1.792-.001.001ZM38.46 11.535c-.489-.162-1.878-.488-4.083-.488-3.594 0-5.473 1.629-5.881 4.887l-.163 1.956-.409 3.34-1.47 10.752v.244l-.082.57c0 .244.245.325.49.325h3.594c.245 0 .572-.081.654-.407v-.244l1.633-11.241H36.5c.245 0 .49-.163.49-.489l.327-2.443c0-.244-.163-.407-.41-.407h-3.92l.245-1.956c.163-1.303.735-1.629 2.205-1.629.816 0 1.797.162 2.123.244h.163c.245 0 .327-.162.409-.407l.571-2.118v-.162c0-.162-.082-.326-.245-.326l.003-.001Z"/></g><defs><clipPath id="a"><path fill="#fff" d="M.561 10.965h112.72v28.509H.56z"/></clipPath></defs></svg>