<svg xmlns="http://www.w3.org/2000/svg" width="113" height="50" fill="none"><path fill="#fff" d="M0 0h112.281v50H0z"/><g clip-path="url(#a)"><path fill="#F70" d="M18.622 37c6.652 0 12.044-5.392 12.044-12.044 0-6.651-5.392-12.043-12.044-12.043-6.651 0-12.043 5.392-12.043 12.043C6.579 31.608 11.97 37 18.622 37Z"/><path fill="#fff" d="M18.242 20.248c.826 0 1.504.677 1.504 1.503v8.277c0 .826-.678 1.503-1.504 1.503a1.509 1.509 0 0 1-1.503-1.503v-8.277c0-.826.677-1.503 1.503-1.503Zm-4.89 2.825c.826 0 1.504.677 1.504 1.503v5.452c0 .826-.678 1.503-1.504 1.503a1.509 1.509 0 0 1-1.503-1.503v-5.452c0-.826.66-1.503 1.503-1.503Zm9.78-5.452c.826 0 1.504.677 1.504 1.504v10.92c0 .825-.677 1.503-1.503 1.503a1.509 1.509 0 0 1-1.504-1.503v-10.92c0-.827.677-1.504 1.503-1.504Z"/><path fill="#000" d="M36.977 19.868c-.215 0-.446-.05-.645-.132a1.445 1.445 0 0 1-.528-.364 2.001 2.001 0 0 1-.364-.528 1.684 1.684 0 0 1-.132-.661c0-.232.05-.463.132-.661.083-.198.199-.38.364-.529.148-.148.33-.28.528-.363.199-.083.43-.132.645-.132.462 0 .859.165 1.19.479.33.33.495.71.495 1.173 0 .462-.166.859-.496 1.173a1.5 1.5 0 0 1-1.19.545Zm-1.289 11.118v-9.714h2.594v9.714h-2.594Zm11.036.215v-1.388c-.232.413-.612.76-1.107 1.058-.496.297-1.124.429-1.867.429a4.302 4.302 0 0 1-1.768-.38 5.032 5.032 0 0 1-1.486-1.074 5.178 5.178 0 0 1-1.025-1.635 5.624 5.624 0 0 1-.38-2.082c0-.76.132-1.454.38-2.082a5.18 5.18 0 0 1 1.025-1.635c.429-.446.925-.81 1.486-1.074a3.878 3.878 0 0 1 1.768-.38c.743 0 1.355.149 1.867.43.495.297.875.644 1.107 1.057v-1.173h2.593v13.993h-2.593V31.2Zm-2.445-2.296c.347 0 .677-.067.974-.182a2.57 2.57 0 0 0 .826-.545c.232-.232.43-.529.579-.876.148-.347.214-.727.214-1.173 0-.446-.066-.826-.214-1.173a2.696 2.696 0 0 0-.579-.875 2.489 2.489 0 0 0-1.8-.727c-.347 0-.678.066-.975.198a2.369 2.369 0 0 0-.826.562c-.231.23-.43.528-.578.875a2.886 2.886 0 0 0-.215 1.157c0 .43.066.81.215 1.156.148.347.33.628.578.876.231.23.512.43.826.561.314.1.644.166.975.166Zm14.306-7.947c.76 0 1.438.132 2.065.38.628.264 1.173.611 1.62 1.074.462.463.809 1.008 1.073 1.636.265.627.38 1.321.38 2.081s-.132 1.454-.38 2.082a5.025 5.025 0 0 1-1.074 1.635c-.462.463-.99.81-1.619 1.074-.627.264-1.321.38-2.065.38a5.6 5.6 0 0 1-2.065-.38c-.628-.264-1.173-.611-1.619-1.074a5.023 5.023 0 0 1-1.074-1.635c-.264-.628-.38-1.322-.38-2.082 0-.76.133-1.454.38-2.082a5.024 5.024 0 0 1 1.074-1.635c.463-.463.991-.81 1.62-1.074a5.6 5.6 0 0 1 2.064-.38Zm0 7.947c.33 0 .645-.067.959-.182a2.57 2.57 0 0 0 .826-.545c.23-.232.43-.529.561-.876.133-.347.215-.727.215-1.173 0-.446-.066-.826-.215-1.173a2.658 2.658 0 0 0-.561-.875 2.57 2.57 0 0 0-.826-.546 2.356 2.356 0 0 0-.959-.181c-.346 0-.66.066-.974.181a2.688 2.688 0 0 0-.81.546c-.231.23-.43.528-.562.875a3.226 3.226 0 0 0-.214 1.173c0 .446.066.826.215 1.173.132.347.33.628.561.876.231.23.512.413.81.545.314.116.644.182.974.182Zm5.733-7.633h2.594v1.173c.231-.413.611-.76 1.107-1.057.495-.298 1.123-.43 1.866-.43.628 0 1.206.132 1.768.38a5.032 5.032 0 0 1 1.487 1.074c.43.463.776 1.008 1.024 1.636.248.627.38 1.321.38 2.081s-.132 1.454-.38 2.082a5.18 5.18 0 0 1-1.024 1.635c-.43.446-.925.81-1.487 1.074a3.878 3.878 0 0 1-1.768.38c-.743 0-1.354-.149-1.866-.43-.496-.297-.876-.644-1.107-1.057v5.452h-2.594V21.272Zm5.039 7.633c.347 0 .677-.067.974-.199.314-.132.595-.314.826-.561.232-.232.43-.529.579-.876.148-.347.214-.727.214-1.156 0-.43-.066-.81-.214-1.157a2.696 2.696 0 0 0-.579-.875 2.613 2.613 0 0 0-.826-.562 2.507 2.507 0 0 0-.974-.198 2.69 2.69 0 0 0-.975.181 2.569 2.569 0 0 0-.826.546c-.231.23-.43.528-.578.875-.149.347-.215.727-.215 1.173 0 .446.066.826.215 1.173.148.347.33.628.578.876.231.23.512.413.826.545.297.148.628.215.975.215Zm6.608-5.42h-1.702v-2.213h1.702v-2.974h2.594v2.974h2.379v2.214h-2.38v3.767c0 .23.017.429.067.627s.132.347.264.48c.182.214.446.313.793.313.231 0 .397-.016.529-.066s.264-.116.38-.181l.727 2.28a4.24 4.24 0 0 1-.975.33 6.227 6.227 0 0 1-1.157.115c-.495 0-.925-.082-1.321-.23a2.684 2.684 0 0 1-.975-.629c-.628-.595-.925-1.437-.925-2.544v-4.262Zm7.517-3.617c-.215 0-.446-.05-.645-.132a1.445 1.445 0 0 1-.528-.364 2.001 2.001 0 0 1-.364-.528 1.684 1.684 0 0 1-.132-.661c0-.232.05-.463.132-.661.083-.198.199-.38.364-.529.148-.148.33-.28.528-.363.199-.083.43-.132.645-.132.462 0 .859.165 1.19.479.33.33.495.71.495 1.173 0 .462-.165.859-.496 1.173-.33.314-.727.545-1.19.545Zm-1.289 11.118v-9.714h2.594v9.714h-2.594Zm8.558-10.028c.76 0 1.437.132 2.065.38.628.264 1.173.611 1.619 1.074.462.463.81 1.008 1.074 1.636.264.627.38 1.321.38 2.081s-.133 1.454-.38 2.082a5.023 5.023 0 0 1-1.074 1.635c-.463.463-.991.81-1.62 1.074-.627.264-1.32.38-2.064.38a5.6 5.6 0 0 1-2.065-.38c-.628-.264-1.173-.611-1.62-1.074a5.025 5.025 0 0 1-1.073-1.635c-.264-.628-.38-1.322-.38-2.082 0-.76.132-1.454.38-2.082a5.026 5.026 0 0 1 1.074-1.635 4.95 4.95 0 0 1 1.619-1.074 5.6 5.6 0 0 1 2.065-.38Zm0 7.947c.33 0 .644-.067.958-.182a2.57 2.57 0 0 0 .826-.545c.231-.232.43-.529.562-.876.132-.347.214-.727.214-1.173 0-.446-.066-.826-.214-1.173a2.656 2.656 0 0 0-.562-.875 2.57 2.57 0 0 0-.826-.546 2.356 2.356 0 0 0-.958-.181c-.347 0-.661.066-.975.181a2.689 2.689 0 0 0-.81.546c-.23.23-.429.528-.561.875a3.228 3.228 0 0 0-.215 1.173c0 .446.066.826.215 1.173.132.347.33.628.561.876.232.23.513.413.81.545.314.116.628.182.975.182Zm8.144-6.36h.166c.297-.496.71-.876 1.222-1.157a3.636 3.636 0 0 1 1.768-.43c.611 0 1.14.1 1.602.298.463.198.843.479 1.14.842.297.364.529.793.677 1.305.149.512.232 1.074.232 1.702v5.881h-2.594V25.42c0-.694-.149-1.223-.463-1.553-.313-.33-.759-.512-1.354-.512-.364 0-.678.082-.942.231a2.236 2.236 0 0 0-.694.611c-.198.264-.33.562-.43.909-.098.347-.148.727-.148 1.123v4.758h-2.594v-9.714h2.445l-.033 1.272Z"/></g><defs><clipPath id="a"><path fill="#fff" d="M6.579 12.913h99.123V37H6.579z"/></clipPath></defs></svg>