<svg xmlns="http://www.w3.org/2000/svg" width="88" height="33" fill="none"><path fill="#EC671B" d="M81.95.565H5.621A5.183 5.183 0 0 0 .44 5.748v21.624a5.183 5.183 0 0 0 5.183 5.182H81.95a5.183 5.183 0 0 0 5.183-5.182V5.748A5.183 5.183 0 0 0 81.95.565Z"/><path fill="#fff" d="M56.676 27.09c-.878 0-1.657-.62-1.657-1.543 0-.878.686-1.228.686-1.228V21.5c0-.163-.05-.287-.296-.296-2.411-.109-4.034-1.204-4.034-3.452V11.69h2.259v5.883c0 .922.365 1.785 2.515 1.785h1.05c2.15 0 2.515-.863 2.515-1.785V11.69h2.264v6.06c0 2.25-1.628 3.344-4.034 3.453-.247.01-.296.138-.296.296v2.82s.685.35.685 1.228c0 .922-.779 1.544-1.657 1.544Zm17.31-11.514c0-1.864-1.086-2.214-2.644-2.214h-2.219c-1.563 0-2.658.35-2.658 2.214v1.83c0 1.849 1.1 2.214 2.658 2.214h2.22c1.562 0 2.642-.365 2.642-2.215v-1.83Zm-9.785-.094c0-3.215 2.328-3.95 5.386-3.95h1.296c3.058 0 5.386.735 5.386 3.95v2.022c0 3.17-2.328 3.95-5.386 3.95h-1.296c-3.058 0-5.386-.78-5.386-3.95v-2.022Zm-28.867-2.086c-2.136 0-2.516.858-2.516 1.736v6.18h-2.263v-6.308c0-2.308 1.642-3.442 4.32-3.442h1.736c1.336 0 2.421.35 3.2.892.735-.557 1.899-.892 3.215-.892h1.687c2.658 0 4.35 1.13 4.35 3.442v6.307h-2.264v-6.179c0-.878-.385-1.736-2.515-1.736h-.829c-2.135 0-2.514.858-2.514 1.736v6.18h-2.264v-6.18c0-.878-.385-1.736-2.515-1.736h-.828Zm-21.856 4.902c0 .893.444 1.297 1.77 1.297h3.28c2.07 0 2.628-.079 2.628-1.114v-.065c0-.67-.143-1.065-1.706-1.065h-4.586c-2.372 0-3.423-.779-3.423-2.692V14.1c0-1.72.957-2.564 4.951-2.564h2.357c3.694 0 4.3 1.12 4.3 2.412v.36h-2.184c0-.755-.75-.942-2.214-.942h-2.658c-1.973 0-2.279.172-2.279.937v.35c0 .542.129.873 1.45.873h3.876c2.437 0 4.39.222 4.39 2.963 0 2.885-2.614 2.93-4.587 2.93h-2.786c-.592 0-1.213 0-1.687-.05-.542-.05-1.129-.158-1.479-.32-.922-.43-1.578-1.209-1.578-2.643v-.119h2.165v.01Zm14.528 3.013h-2.264V11.69h2.264v9.621Zm-2.787-12.99c0-.901.735-1.547 1.657-1.547s1.657.646 1.657 1.548-.74 1.529-1.657 1.529-1.657-.627-1.657-1.53Z"/></svg>