<svg xmlns="http://www.w3.org/2000/svg" width="113" height="50" fill="none"><path fill="#D0152E" d="M0 0h112.281v50H0z"/><g clip-path="url(#a)"><path fill="#D0152E" d="M108.636 3.509H3.509v43.263h105.127V3.509Z"/><path fill="#fff" d="m36.921 39.417-2.272-1.654-2.276 1.654.868-2.676-2.272-1.649h2.807l.873-2.675.868 2.675h2.808l-2.277 1.65.873 2.675ZM79.772 39.417l-2.276-1.654-2.277 1.654.873-2.676-2.276-1.649h2.807l.873-2.675.864 2.675h2.815l-2.276 1.65.873 2.675ZM47.632 39.417l-2.277-1.654-2.267 1.654.868-2.676-2.272-1.649h2.807l.864-2.675.878 2.675h2.806l-2.276 1.65.869 2.675ZM58.346 39.417l-2.271-1.654-2.277 1.654.869-2.676-2.277-1.649h2.812l.873-2.675.868 2.675h2.811l-2.276 1.65.868 2.675ZM69.057 39.417l-2.272-1.654-2.276 1.654.873-2.676-2.277-1.649h2.812l.868-2.675.873 2.675h2.807l-2.276 1.65.868 2.675ZM72.82 26.35c2.32-2.854 2.285-5.714 1.088-8.161-2.601 2.67-1.864 6.938-1.088 8.162ZM48.408 24.58v-5.882c-.974 0-2.342 1.39-2.342 2.948 0 1.557 1.149 2.93 2.342 2.93m-6.5.105c-.026-.07-.035-.114-.053-.184-1.394-6.943 4.658-8.492 6.549-8.421h4.552v8.215c0 1.81 1.162 1.227 2.053.385 0 0-.026-5.644-.026-8.46 0-2.974-2.452-2.746-2.452-2.746l3.39-2.978h.39c2.15 0 3.106 1.877 3.189 3.746v4.86s3.838-3.356 3.974-3.487c1.776.149 2.416 1.486 2.43 2.535v6.579c0 1.622 1.188 1.105 1.956.316-1.513-6.233 2.149-8.632 3.943-9.558l6.451 1.882c.154.325.312.772.496 1.285 0 0 3.105-2.728 3.689-3.246 1.486.264 2.372 1.198 2.451 2.299v6.824c0 1.943.983 1.312 1.689.65v-9.22h4.487s.017 6.895 0 7.96c0 2.264 2.04 1.944 2.04 1.944-.773.767-2.036 1.877-2.584 2.394-2.285-.1-3.285-1.144-3.794-2.201-.71.666-1.684 1.587-2.399 2.258-3.65.593-3.934-2.943-3.934-2.943v-5.364c0-.868-.785-.701-1.4-.701.878 6.17-2.78 8.864-5.434 9.057-2.71.197-4.386-1.386-5.324-2.606-1.254 1.158-2.772 2.588-2.772 2.588-2.443.272-4.057-.991-4.057-3.1v-3.887c0-1.267-1.03-1.267-1.912-1.267v8.061h-4.492v-2.544s-.798.741-2.771 2.605c-2.01.65-3.19-.881-3.715-1.789-.373.338-.672.619-1.93 1.803-2.307 0-3.79-1.97-4.272-2.755l-.018-.044-3.228 2.83s-4.04 1.262-4.04-3.72v-8.268c0-1.258-.885-1.438-1.833-1.438v13.329h-4.925s-.026-10.08-.026-11.89c0-1.242-.785-1.514-1.83-1.514v13.404h-4.982c.035-1.698 0-10.154 0-11.15 0-2.973-2.447-2.745-2.447-2.745l3.39-2.978h1.294c.768 0 2.746.597 2.746 2.35l2.684-2.35h1.355c1.084 0 2.741.697 2.741 2.408l2.742-2.408h1.28c.978 0 2.746.592 2.746 2.4l.048 7.56c-.035 1.698 0 .29 0 1.29 0 2.877 1.285 2.605 1.939 2.268 0 0-.035-.08-.053-.132"/></g><defs><clipPath id="a"><path fill="#fff" d="M3.509 3.509h105.127v43.263H3.509z"/></clipPath></defs></svg>