<svg xmlns="http://www.w3.org/2000/svg" width="113" height="50" fill="none"><g clip-path="url(#a)"><path fill="#CC262F" fill-rule="evenodd" d="m21.83 34.241-3.898-11.004v8.987h1.394v5.6h-8.723v-5.6h1.403v-14.36h-1.425V12.29l8.324-.008 3.057 8.662 3.097-8.662 8.162.008v5.57h-1.395v14.365h1.395v5.6h-8.728v-5.6h1.404v-8.987L21.83 34.24Zm25.593-21.96 3.241 19.947h1.022v5.592h-8.04v-5.592h1.031v-2.096H40.95v2.096h1.026v5.592H33.94v-5.592h1.022l3.246-19.947h9.215ZM44.08 26.75l-1.285-7.9-1.255 7.9h2.54Zm34.364-8.874v4.983h5.811V15l-2.702-2.72h-8.5l-2.706 2.716v20.122l2.706 2.702h8.505l2.702-2.702v-7.85h-5.816v4.978h-1.917V17.882h1.917v-.005ZM61.967 37.816V27.68H60.09v4.548h1.017v5.592h-8.702v-5.592h1.4V17.864H52.4v-5.583h13.14l2.693 2.693v8.061L66.06 25.19l2.166 2.149v4.899h1.4v5.583h-7.658v-.004Zm-1.9-19.952v5.873h1.904v-5.868h-1.903v-.005Zm38.404-5.583 3.237 19.947h1.022v5.592h-8.04v-5.592h1.031v-2.096h-3.724v2.096h1.022v5.592h-8.035v-5.592h1.027l3.245-19.947h9.215ZM95.13 26.75l-1.285-7.9-1.254 7.9h2.539Z" clip-rule="evenodd"/></g><defs><clipPath id="a"><path fill="#fff" d="M10.58 12.28h92.15V37.83H10.58z"/></clipPath></defs></svg>