<svg xmlns="http://www.w3.org/2000/svg" width="113" height="50" fill="none"><path fill="#fff" fill-rule="evenodd" d="M6.15 36.301h.616c.907 0 1.676.354 1.676 1.372 0 1.018-.794 1.31-1.676 1.31h-.615V36.3v.002Zm-1.764 7.403H6.15v-3.337h.741c1.888 0 3.387-.742 3.387-2.794s-1.75-2.656-3.665-2.656H4.386v8.787ZM10.97 40.506c0 1.863 1.245 3.348 3.386 3.348s3.398-1.486 3.398-3.348c0-2.141-1.472-3.437-3.398-3.437-1.926 0-3.387 1.296-3.387 3.437Zm1.76-.202c0-.97.529-1.926 1.624-1.926 1.096 0 1.637.93 1.637 1.926 0 1.083-.34 2.241-1.636 2.241-1.296 0-1.625-1.171-1.625-2.241ZM19.112 43.704h1.687v-2.379c0-.932 0-2.643 1.373-2.643.3 0 .605.05.755.137v-1.698c-.175-.05-.352-.05-.515-.05-1.007 0-1.7 1.02-1.775 1.624h-.027v-1.472h-1.498v6.483-.002ZM24.523 41.752c0 1.284.73 2.104 2.053 2.104.502 0 .893-.05 1.246-.15l-.049-1.335c-.178.113-.465.177-.767.177-.642 0-.794-.517-.794-1.07v-3.021h1.498v-1.233h-1.498v-1.839l-1.687.541v1.298h-1.244v1.233h1.244v3.298l-.002-.003ZM33.71 40.443c0-.868.304-2.065 1.396-2.065 1.093 0 1.513 1.157 1.513 2.065 0 .908-.365 2.104-1.485 2.104s-1.424-1.21-1.424-2.104Zm2.97 3.26h1.637v-9.44H36.63v3.714h-.024c-.504-.617-1.096-.906-1.94-.906-1.989 0-2.717 1.585-2.717 3.374 0 1.788.728 3.41 2.718 3.41.793 0 1.485-.25 1.99-.881h.023v.73ZM41.25 39.826c.074-.868.554-1.523 1.498-1.523s1.322.705 1.372 1.523h-2.87Zm4.002 2.14c-.63.353-1.333.655-2.154.655-1.043 0-1.774-.593-1.848-1.637h4.48c0-2.265-.68-3.915-3.084-3.915-2.013 0-3.009 1.548-3.009 3.424 0 2.128 1.248 3.361 3.387 3.361.905 0 1.61-.176 2.228-.515v-1.372ZM53.482 39.776h.83c.882 0 1.814.177 1.814 1.321 0 1.02-.995 1.22-1.813 1.22h-.83v-2.543.002Zm0-3.475h.68c.805 0 1.7.076 1.7 1.096 0 .907-.917 1.07-1.66 1.07h-.718V36.3h-.002Zm-1.763 7.403h3.072c1.109 0 3.096-.328 3.096-2.544 0-1.082-.817-1.888-2.013-2.002v-.024c1.045-.189 1.75-.918 1.75-1.963 0-1.926-1.7-2.254-2.831-2.254H51.72v8.787h-.002ZM59.6 39.008c.567-.428 1.283-.705 2.002-.705.992 0 1.46.353 1.46 1.398h-.933c-.704 0-1.533.063-2.178.378-.642.316-1.105.881-1.105 1.85 0 1.233 1.12 1.927 2.264 1.927.769 0 1.612-.404 2.002-1.12h.026c.01.2.01.629.074.97h1.485a26.144 26.144 0 0 1-.075-1.448c-.014-.477-.025-.97-.025-1.624v-.831c0-1.913-.818-2.73-2.796-2.73-.716 0-1.598.188-2.253.49l.05 1.448.002-.003Zm.857 2.82c0-.994 1.12-1.122 1.874-1.122h.73c0 .505-.074.97-.353 1.335a1.426 1.426 0 0 1-1.183.579c-.605 0-1.07-.24-1.07-.794l.002.002ZM66.295 43.704h1.685v-2.379c0-.932 0-2.643 1.372-2.643.302 0 .606.05.755.137v-1.698c-.175-.05-.35-.05-.514-.05-1.007 0-1.7 1.02-1.776 1.624h-.024v-1.472h-1.498v6.483-.002ZM75.281 37.284c-.464-.14-.957-.215-1.637-.215-2.026 0-3.135 1.485-3.135 3.361 0 1.978 1.072 3.426 3.2 3.426.691 0 1.194-.063 1.685-.215l-.076-1.396c-.289.126-.817.302-1.294.302-1.185 0-1.752-.92-1.752-2.117s.67-2.05 1.713-2.05c.517 0 .844.1 1.144.239l.152-1.334v-.001ZM77.708 39.826c.078-.868.556-1.523 1.5-1.523s1.322.705 1.372 1.523h-2.872Zm4.005 2.14c-.63.353-1.335.655-2.154.655-1.043 0-1.773-.593-1.85-1.637h4.482c0-2.265-.68-3.915-3.085-3.915-2.013 0-3.009 1.548-3.009 3.424 0 2.128 1.248 3.361 3.387 3.361.905 0 1.611-.176 2.229-.515v-1.372Z" clip-rule="evenodd"/><path fill="#fff" d="M85.237 34.262H83.55v9.442h1.687v-9.442Z"/><path fill="#fff" fill-rule="evenodd" d="M86.594 40.506c0 1.863 1.246 3.348 3.386 3.348 2.139 0 3.401-1.486 3.401-3.348 0-2.141-1.474-3.437-3.401-3.437-1.928 0-3.386 1.296-3.386 3.437Zm1.763-.202c0-.97.528-1.926 1.623-1.926 1.093 0 1.636.93 1.636 1.926 0 1.083-.339 2.241-1.636 2.241-1.298 0-1.623-1.171-1.623-2.241ZM94.7 43.704h1.687v-3.172c0-.83.265-2.152 1.485-2.152 1.08 0 1.094 1.07 1.094 1.863v3.463h1.687v-4.092c0-1.46-.666-2.543-2.203-2.543-.882 0-1.598.289-2.126 1.032h-.026v-.88H94.7v6.483-.002ZM102.731 39.008c.565-.428 1.284-.705 2.002-.705.992 0 1.459.353 1.459 1.398h-.932c-.705 0-1.534.063-2.179.378-.641.316-1.107.881-1.107 1.85 0 1.233 1.122 1.927 2.266 1.927.769 0 1.613-.404 2.002-1.12h.024c.015.2.015.629.076.97h1.487a25.663 25.663 0 0 1-.074-1.448c-.015-.477-.028-.97-.028-1.624v-.831c0-1.913-.818-2.73-2.796-2.73-.715 0-1.598.188-2.252.49l.05 1.448.002-.003Zm.856 2.82c0-.994 1.12-1.122 1.875-1.122h.73c0 .505-.074.97-.352 1.335a1.431 1.431 0 0 1-1.183.579c-.605 0-1.07-.24-1.07-.794v.002ZM45.235 17.43 56.427 6.14l4.728 4.68-11.24 11.289-4.68-4.68ZM56.813 29.009l-4.779-4.825c1.545-7.72 7.046-4.438 9.989-12.593l4.92 4.728C64 24.617 58.838 20.95 56.81 29.007l.002.002Z" clip-rule="evenodd"/></svg>