<svg xmlns="http://www.w3.org/2000/svg" width="113" height="50" fill="none"><path fill="#fff" d="M26.574 12.713c-2.12-.007-4.104.264-6.046.836-1.597.47-2.855 1.374-3.629 2.882-.426.829-.573 1.696-.214 2.582.495 1.22 1.323 2.151 2.523 2.723.913.434 1.885.558 2.884.517.776-.033 1.549-.016 2.31.155 2.03.46 3.58 1.552 4.445 3.487.71 1.582.666 3.21.181 4.842-.37 1.247-1.084 2.235-2.252 2.851a5.555 5.555 0 0 1-3.382.603c-2.073-.27-3.708-1.257-4.78-3.076-1.594-2.704-.685-5.961 2.04-7.403.646-.342 1.328-.5 2.045-.264.933.303 1.423 1.015 1.57 1.936.115.733.512 1.196 1.126 1.533.436.238.78.067.838-.423.15-1.264-.42-2.292-1.592-2.798a6.625 6.625 0 0 0-3.042-.518c-1.642.097-3.106.7-4.447 1.617-1.664 1.138-2.454 2.7-2.19 4.74.166 1.276.69 2.366 1.675 3.218.735.637 1.616.98 2.523 1.276 1.782.577 3.603.815 5.469.639 1.864-.178 3.604-.762 5.252-1.643 1.785-.953 2.778-2.45 2.89-4.457.167-3-1.099-5.276-3.675-6.806-.778-.463-1.625-.793-2.463-1.133-1.349-.547-2.718-1.041-4.029-1.68-.485-.237-.95-.505-1.32-.91-1.284-1.41-.882-3.36.89-4.02 1.996-.745 3.885-.44 5.596.833.605.451 1.033 1.06 1.202 1.807.236 1.045 1.407 1.61 2.478 1.362.15-.034.228-.13.231-.281.016-.82.024-1.639-.174-2.444-.335-1.359-1.145-2.207-2.56-2.43-.819-.13-1.643-.13-2.374-.153h.001Z"/><path fill="#fff" d="M26.574 12.713c.73.024 1.554.026 2.375.153 1.414.223 2.227 1.071 2.56 2.43.198.805.19 1.624.174 2.444-.004.152-.081.247-.231.281-1.071.25-2.242-.317-2.479-1.362-.169-.746-.596-1.356-1.202-1.807-1.71-1.272-3.6-1.578-5.595-.834-1.774.662-2.176 2.611-.89 4.02.371.407.835.674 1.32.91 1.309.64 2.68 1.134 4.029 1.681.838.34 1.685.67 2.462 1.133 2.577 1.53 3.843 3.806 3.676 6.806-.112 2.007-1.108 3.504-2.89 4.457-1.648.881-3.388 1.465-5.252 1.643-1.868.178-3.688-.06-5.47-.64-.907-.293-1.786-.638-2.523-1.275-.983-.852-1.509-1.942-1.674-3.218-.264-2.04.528-3.6 2.19-4.74 1.34-.917 2.805-1.52 4.446-1.617a6.599 6.599 0 0 1 3.043.518c1.172.506 1.742 1.534 1.592 2.798-.06.49-.402.661-.839.423-.614-.335-1.01-.798-1.126-1.534-.146-.92-.636-1.631-1.57-1.935-.717-.235-1.398-.078-2.045.264-2.726 1.442-3.634 4.699-2.04 7.403 1.071 1.819 2.706 2.807 4.78 3.076a5.569 5.569 0 0 0 3.383-.603c1.166-.616 1.881-1.604 2.252-2.85.485-1.633.528-3.263-.18-4.843-.868-1.934-2.417-3.028-4.447-3.487-.76-.173-1.533-.188-2.31-.155-.998.041-1.97-.082-2.883-.517-1.2-.572-2.028-1.502-2.523-2.723-.359-.885-.212-1.752.214-2.582.774-1.508 2.031-2.413 3.628-2.883 1.942-.571 3.927-.842 6.047-.835h-.002ZM34.97 28.615c.112-.71.224-1.418.338-2.128.188-1.166.426-2.323.69-3.473a59.78 59.78 0 0 1 1.61-5.67c.203-.6.461-1.18.7-1.765.122-.302.34-.438.694-.449.649-.017 1.2.206 1.723.548.255.167.32.36.214.637-.341.901-.626 1.824-.935 2.737-.303.902-.6 1.805-.884 2.713a58.786 58.786 0 0 0-1.097 3.909 38.19 38.19 0 0 0-.573 2.822c-.067.417-.102.84-.15 1.26-.019.171.005.33.192.392a.405.405 0 0 0 .507-.198c.124-.24.23-.49.341-.736.583-1.316 1.242-2.594 2.023-3.805.347-.537.802-.972 1.46-1.11.532-.11 1.044-.028 1.532.205.15.071.294.156.435.244.347.214.467.466.367.851-.2.777-.427 1.546-.64 2.32-.236.856-.474 1.715-.63 2.594-.113.627-.221 1.25-.172 1.89.047.608.344 1.156.897 1.303.407.109.77-.009 1.096-.23.619-.421.908-1.04.957-1.77.14-2.08.669-4.046 1.657-5.884.274-.511.712-.76 1.302-.765.331-.003.628.05.897.249.233.172.274.293.17.56a30.3 30.3 0 0 0-.89 2.66c-.232.823-.429 1.651-.53 2.503a12.859 12.859 0 0 0-.068 1.568c0 .166.002.344.21.414.227.076.532.025.65-.14.439-.614.874-1.232 1.24-1.896a23.596 23.596 0 0 0 1.815-4.286c.135-.425.233-.862.368-1.288.148-.472.334-.613.778-.56.45.054.884.176 1.298.358.366.159.44.42.338.91-.277 1.333-.57 2.663-.814 4.001-.122.674-.267 1.354-.18 2.048.061.503.229.954.746 1.171a.98.98 0 0 0 .89-.053c.62-.347.967-.864 1.012-1.598.1-1.633.337-3.252.721-4.844.483-1.998 1.152-3.932 1.939-5.828.388-.938.79-1.867 1.359-2.714.34-.504.709-.986 1.178-1.42.08.42.06.82-.037 1.213a505.82 505.82 0 0 1-.915 3.622c-.383 1.5-.771 3-1.16 4.498-.032.125-.05.237.078.313.124.073.23.016.314-.076.628-.672 1.404-1.138 2.177-1.615.703-.433 1.143 0 1.393.615.093.226-.08.392-.253.517-.518.366-1.04.725-1.561 1.086-.12.084-.248.159-.368.245-.341.245-.363.468-.062.76.504.487 1.021.96 1.527 1.445a83.568 83.568 0 0 1 3.735 3.805c.035.038.055.086.083.13l.054-.03.148-1.252.246-2.067c.054-.45.1-.903.154-1.354.067-.573.138-1.147.205-1.72.05-.429.088-.859.19-1.28.052-.214.133-.42.269-.592.359-.454.764-.57 1.321-.394.252.08.474.204.688.36.14.1.186.222.16.376-.151.89-.306 1.782-.465 2.673-.012.066-.012.13-.016.195-.01.207.112.339.292.387.19.05.33-.033.412-.233.414-.996.828-1.993 1.149-3.026.057-.18.107-.366.193-.532.21-.399.573-.521 1.002-.506.147.006.293 0 .44-.001.274.072.557.114.802.278.284.191.341.36.188.675-.252.514-.52 1.022-.763 1.542-.207.442-.346.905-.364 1.399-.015.439.371.768.783.82.604.076 1.378-.46 1.646-1.04.286-.618.557-1.243.953-1.808.782-1.11 1.82-1.806 3.155-2.075 1.043-.211 2.03-.035 2.994.36.17.071.338.154.504.24.317.168.555.377.501.797a.445.445 0 0 0 .354.497c.148.033.3.054.452.059.4.015.505.154.383.534-.266.82-.568 1.63-.768 2.47-.127.538-.234 1.08-.298 1.631-.07.611-.078 1.22-.038 1.832.031.48.467.878.938.936.754.095 1.478-.666 1.625-1.281.098-.413.122-.832.134-1.255.02-.67.088-1.336.168-2.002.098-.826.27-1.632.491-2.43.16-.582.38-1.138.676-1.668.407-.726 1.31-.853 1.927-.453.174.114.219.252.167.442-.243.895-.504 1.784-.72 2.686-.117.489-.198.986-.244 1.49-.023.244-.023.492-.076.734-.036.164.009.32.195.358.193.04.345-.014.426-.232.219-.585.52-1.134.791-1.697.621-1.289 1.268-2.565 2.017-3.786.203-.333.451-.625.855-.722.2-.048.398-.038.602.016.393.103.793.17 1.178.307.498.176.652.477.545.986-.242 1.152-.65 2.252-.999 3.37-.236.753-.445 1.512-.558 2.29-.092.616-.15 1.253.037 1.863.21.682.696.895 1.304.784.371-.067.664-.342.902-.644.204-.257.36-.539.5-.836.083-.174.206-.224.407-.157.449.15.55.473.38.858-.368.824-1.025 1.339-1.83 1.677-.488.206-1.007.326-1.537.304-.72-.03-1.398-.221-1.923-.755-.365-.373-.541-.839-.593-1.359-.102-1.003.126-1.963.367-2.922.104-.41.204-.822.31-1.233.028-.116-.006-.192-.113-.236-.326-.137-.483-.171-.738.236-.433.69-.775 1.428-1.11 2.17-.446.989-.772 2.02-1.003 3.077-.138.628-.495.987-1.08 1.14-.413.107-.784-.04-1.105-.313-.083-.07-.164-.145-.254-.207-.237-.166-.472-.163-.719 0-.934.614-1.924.668-2.942.259a1.29 1.29 0 0 1-.726-.764c-.12-.316-.217-.38-.464-.37-.12.004-.198.07-.276.15-.548.56-1.176.992-1.954 1.153a4.339 4.339 0 0 1-2.045-.088c-.98-.268-1.737-.824-2.211-1.736-.302-.58-.392-1.203-.364-1.851.01-.237.008-.472.019-.708.008-.183-.076-.237-.249-.247-.26-.017-.505.057-.752.102a2.007 2.007 0 0 1-1.298-.194 1.934 1.934 0 0 1-.673-.879c-.128-.34-.17-.696-.254-1.044-.036-.156-.086-.128-.165-.056-.126.114-.204.266-.274.416-.352.738-.692 1.484-.966 2.254-.417 1.17-.731 2.363-.81 3.61-.021.312-.152.545-.35.521-.18-.02-.361-.009-.539-.052-.445-.107-.874-.262-1.328-.35a3.313 3.313 0 0 0-2.056.243c-.491.223-.688.132-1.045-.262-.314-.346-.607-.708-.917-1.057-.316-.354-.657-.686-.963-1.048-.486-.579-1.03-1.102-1.53-1.665-.258-.292-.546-.556-.822-.833a9.31 9.31 0 0 0-.352-.335.318.318 0 0 0-.345-.067c-.1.038-.153.117-.147.221.026.471-.096.934-.09 1.406.01.767.013 1.535.01 2.302-.002.452-.156.577-.592.47a5.039 5.039 0 0 0-1.16-.163 2.09 2.09 0 0 0-1.355.47c-.243.19-.5.356-.805.42a3.724 3.724 0 0 1-1.873-.083c-.57-.176-.952-.536-1.135-1.123-.105-.337-.119-.668-.117-1.012.002-.25-.098-.321-.336-.352-.288-.038-.373.162-.46.349-.322.7-.715 1.352-1.28 1.88-.425.398-.915.651-1.529.619-.57-.031-1.03-.297-1.46-.625-.587-.446-.923-.475-1.44-.145-1.085.69-2.241.896-3.474.58-1.166-.299-1.871-1.247-1.923-2.437-.028-.615.048-1.22.172-1.82.142-.682.26-1.37.51-2.023.115-.293 0-.47-.322-.492a.447.447 0 0 0-.457.23 20.549 20.549 0 0 0-1.547 3.077 13.842 13.842 0 0 0-.816 2.738c-.079.435-.196.797-.68.906-.489.021-.967-.007-1.427-.207a1.57 1.57 0 0 1-.959-1.17c-.119-.557-.031-1.116.026-1.674.034-.34.066-.68.098-1.02.047-.476.092-.95.171-1.422.031-.187.043-.375.064-.563l-.014-.005Zm42.258 2.462c.005.3-.007.606.07.898.135.506.304 1.005.789 1.292.467.276 1.102.264 1.478-.26.546-.762.9-1.619 1.224-2.49.357-.96.605-1.953.843-2.949.097-.404.168-.813.13-1.23-.028-.297-.092-.583-.309-.811-.36-.377-.924-.453-1.459-.178-.586.3-1.016.777-1.42 1.288a6.184 6.184 0 0 0-1.146 2.377c-.17.678-.21 1.367-.2 2.063Z"/><path fill="#fff" d="m61.935 27.65.014.011-.095-.138.081.126Z"/><path fill="#fff" d="M34.97 28.615c.112-.71.224-1.418.338-2.128.188-1.166.426-2.323.69-3.473a59.78 59.78 0 0 1 1.61-5.67c.203-.6.461-1.18.7-1.765.122-.302.34-.438.694-.449.649-.017 1.2.206 1.723.548.255.167.32.36.214.637-.341.901-.626 1.824-.935 2.737-.303.902-.6 1.805-.884 2.713a58.786 58.786 0 0 0-1.097 3.909 38.19 38.19 0 0 0-.573 2.822c-.067.417-.102.84-.15 1.26-.019.171.005.33.192.392a.405.405 0 0 0 .507-.198c.124-.24.23-.49.341-.736.583-1.316 1.242-2.594 2.023-3.805.347-.537.802-.972 1.46-1.11.532-.11 1.044-.028 1.532.205.15.071.294.156.435.244.347.214.467.466.367.851-.2.777-.427 1.546-.64 2.32-.236.856-.474 1.715-.63 2.594-.113.627-.221 1.25-.172 1.89.047.608.344 1.156.897 1.303.407.109.77-.009 1.096-.23.619-.421.908-1.04.957-1.77.14-2.08.669-4.046 1.657-5.884.274-.511.712-.76 1.302-.765.331-.003.628.05.897.249.233.172.274.293.17.56a30.3 30.3 0 0 0-.89 2.66c-.232.823-.429 1.651-.53 2.503a12.859 12.859 0 0 0-.068 1.568c0 .166.002.344.21.414.227.076.532.025.65-.14.439-.614.874-1.232 1.24-1.896a23.596 23.596 0 0 0 1.815-4.286c.135-.425.233-.862.368-1.288.148-.472.334-.613.778-.56.45.054.884.176 1.298.358.366.159.44.42.338.91-.277 1.333-.57 2.663-.814 4.001-.122.674-.267 1.354-.18 2.048.061.503.229.954.746 1.171a.98.98 0 0 0 .89-.053c.62-.347.967-.864 1.012-1.598.1-1.633.337-3.252.721-4.844.483-1.998 1.152-3.932 1.939-5.828.388-.938.79-1.867 1.359-2.714.34-.504.709-.986 1.178-1.42.08.42.06.82-.037 1.213a505.82 505.82 0 0 1-.915 3.622c-.383 1.5-.771 3-1.16 4.498-.032.125-.05.237.078.313.124.073.23.016.314-.076.628-.672 1.404-1.138 2.177-1.615.703-.433 1.143 0 1.393.615.093.226-.08.392-.253.517-.518.366-1.04.725-1.561 1.086-.12.084-.248.159-.368.245-.341.245-.363.468-.062.76.504.487 1.021.96 1.527 1.445a83.568 83.568 0 0 1 3.735 3.805c.035.038.055.086.083.13l.054-.03.148-1.252.246-2.067c.054-.45.1-.903.154-1.354.067-.573.138-1.147.205-1.72.05-.429.088-.859.19-1.28.052-.214.133-.42.269-.592.359-.454.764-.57 1.321-.394.252.08.474.204.688.36.14.1.186.222.16.376-.151.89-.306 1.782-.465 2.673-.012.066-.012.13-.016.195-.01.207.112.339.292.387.19.05.33-.033.412-.233.414-.996.828-1.993 1.149-3.026.057-.18.107-.366.193-.532.21-.399.573-.521 1.002-.506.147.006.293 0 .44-.001.274.072.557.114.802.278.284.191.341.36.188.675-.252.514-.52 1.022-.763 1.542-.207.442-.346.905-.364 1.399-.015.439.371.768.783.82.604.076 1.378-.46 1.646-1.04.286-.618.557-1.243.953-1.808.782-1.11 1.82-1.806 3.155-2.075 1.043-.211 2.03-.035 2.994.36.17.071.338.154.504.24.317.168.555.377.501.797a.445.445 0 0 0 .354.497c.148.033.3.054.452.059.4.015.505.154.383.534-.266.82-.568 1.63-.768 2.47-.127.538-.234 1.08-.298 1.631-.07.611-.078 1.22-.038 1.832.031.48.467.878.938.936.754.095 1.478-.666 1.625-1.281.098-.413.122-.832.134-1.255.02-.67.088-1.336.168-2.002.098-.826.27-1.632.491-2.43.16-.582.38-1.138.676-1.668.407-.726 1.31-.853 1.927-.453.174.114.219.252.167.442-.243.895-.504 1.784-.72 2.686-.117.489-.198.986-.244 1.49-.023.244-.023.492-.076.734-.036.164.009.32.195.358.193.04.345-.014.426-.232.219-.585.52-1.134.791-1.697.621-1.289 1.268-2.565 2.017-3.786.203-.333.451-.625.855-.722.2-.048.398-.038.602.016.393.103.793.17 1.178.307.498.176.652.477.545.986-.242 1.152-.65 2.252-.999 3.37-.236.753-.445 1.512-.558 2.29-.092.616-.15 1.253.037 1.863.21.682.696.895 1.304.784.371-.067.664-.342.902-.644.204-.257.36-.539.5-.836.083-.174.206-.224.407-.157.449.15.55.473.38.858-.368.824-1.025 1.339-1.83 1.677-.488.206-1.007.326-1.537.304-.72-.03-1.398-.221-1.923-.755-.365-.373-.541-.839-.593-1.359-.102-1.003.126-1.963.367-2.922.104-.41.204-.822.31-1.233.028-.116-.006-.192-.113-.236-.326-.137-.483-.171-.738.236-.433.69-.775 1.428-1.11 2.17-.446.989-.772 2.02-1.003 3.077-.138.628-.495.987-1.08 1.14-.413.107-.784-.04-1.105-.313-.083-.07-.164-.145-.254-.207-.237-.166-.472-.163-.719 0-.934.614-1.924.668-2.942.259a1.29 1.29 0 0 1-.726-.764c-.12-.316-.217-.38-.464-.37-.12.004-.198.07-.276.15-.548.56-1.176.992-1.954 1.153a4.339 4.339 0 0 1-2.045-.088c-.98-.268-1.737-.824-2.211-1.736-.302-.58-.392-1.203-.364-1.851.01-.237.008-.472.019-.708.008-.183-.076-.237-.249-.247-.26-.017-.505.057-.752.102a2.007 2.007 0 0 1-1.298-.194 1.934 1.934 0 0 1-.673-.879c-.128-.34-.17-.696-.254-1.044-.036-.156-.086-.128-.165-.056-.126.114-.204.266-.274.416-.352.738-.692 1.484-.966 2.254-.417 1.17-.731 2.363-.81 3.61-.021.312-.152.545-.35.521-.18-.02-.361-.009-.539-.052-.445-.107-.874-.262-1.328-.35a3.313 3.313 0 0 0-2.056.243c-.491.223-.688.132-1.045-.262-.314-.346-.607-.708-.917-1.057-.316-.354-.657-.686-.963-1.048-.486-.579-1.03-1.102-1.53-1.665-.258-.292-.546-.556-.822-.833a9.31 9.31 0 0 0-.352-.335.318.318 0 0 0-.345-.067c-.1.038-.153.117-.147.221.026.471-.096.934-.09 1.406.01.767.013 1.535.01 2.302-.002.452-.156.577-.592.47a5.039 5.039 0 0 0-1.16-.163 2.09 2.09 0 0 0-1.355.47c-.243.19-.5.356-.805.42a3.724 3.724 0 0 1-1.873-.083c-.57-.176-.952-.536-1.135-1.123-.105-.337-.119-.668-.117-1.012.002-.25-.098-.321-.336-.352-.288-.038-.373.162-.46.349-.322.7-.715 1.352-1.28 1.88-.425.398-.915.651-1.529.619-.57-.031-1.03-.297-1.46-.625-.587-.446-.923-.475-1.44-.145-1.085.69-2.241.896-3.474.58-1.166-.299-1.871-1.247-1.923-2.437-.028-.615.048-1.22.172-1.82.142-.682.26-1.37.51-2.023.115-.293 0-.47-.322-.492a.447.447 0 0 0-.457.23 20.549 20.549 0 0 0-1.547 3.077 13.842 13.842 0 0 0-.816 2.738c-.079.435-.196.797-.68.906-.489.021-.967-.007-1.427-.207a1.57 1.57 0 0 1-.959-1.17c-.119-.557-.031-1.116.026-1.674.034-.34.066-.68.098-1.02.047-.476.092-.95.171-1.422.031-.187.043-.375.064-.563l-.014-.005Zm42.258 2.462c.005.3-.007.606.07.898.135.506.304 1.005.789 1.292.467.276 1.102.264 1.478-.26.546-.762.9-1.619 1.224-2.49.357-.96.605-1.953.843-2.949.097-.404.168-.813.13-1.23-.028-.297-.092-.583-.309-.811-.36-.377-.924-.453-1.459-.178-.586.3-1.016.777-1.42 1.288a6.184 6.184 0 0 0-1.146 2.377c-.17.678-.21 1.367-.2 2.063Z"/><path fill="#fff" d="M55.595 28.879c-.098.485-.193.972-.28 1.454l-.034.18c-.1.538-.193 1.048-.138 1.49 0 .007.002.016.004.023.103-.106.145-.234.157-.425.057-.916.153-1.826.291-2.72v-.002Z"/><path fill="#fff" d="M38.97 13.878c.83-.019 1.633.223 2.438.75.745.487 1.014 1.304.7 2.131a44.138 44.138 0 0 0-.648 1.88c-.09.272-.178.543-.27.814-.304.909-.601 1.812-.877 2.689-.228.724-.433 1.41-.617 2.07.52-.605 1.148-.987 1.87-1.137.782-.163 1.563-.06 2.324.3.214.102.4.214.555.31.82.507 1.156 1.32.921 2.23-.133.515-.277 1.028-.42 1.54-.075.265-.15.531-.223.799l-.023.08c-.227.826-.441 1.607-.584 2.401-.095.532-.193 1.082-.155 1.574a.838.838 0 0 0 .024.145c.005-.004.012-.007.017-.012.185-.126.38-.323.412-.819.154-2.302.76-4.454 1.804-6.393.488-.909 1.337-1.415 2.392-1.425.66 0 1.196.155 1.654.496.688.51.899 1.228.594 2.017a29.326 29.326 0 0 0-.758 2.222c.304-.706.578-1.445.827-2.23.062-.198.115-.398.169-.598.062-.232.124-.462.196-.69.445-1.409 1.52-1.498 2.121-1.426a5.84 5.84 0 0 1 1.65.453c.496.217 1.267.765 1.106 2.051.458-1.787 1.077-3.616 1.89-5.576.42-1.012.85-1.998 1.477-2.933.462-.687.883-1.193 1.366-1.64a1.25 1.25 0 0 1 2.078.682c.112.578.095 1.17-.051 1.753a528.1 528.1 0 0 1-.92 3.63l-.445 1.736c.738-.451 1.37-.39 1.768-.261.433.141 1.033.51 1.426 1.473.235.572.176 1.4-.688 2.014-.386.272-.776.543-1.164.811l.093.088c.252.237.502.472.75.712a99.086 99.086 0 0 1 2.075 2.052l.085-.71a783.877 783.877 0 0 0 .154-1.354 1246.143 1246.143 0 0 1 .204-1.719l.023-.195c.045-.393.09-.801.193-1.231.102-.423.267-.775.504-1.076.674-.857 1.626-1.145 2.678-.813.362.114.704.29 1.045.538.01.009.023.016.033.025.309-.443.907-.971 2.004-.928.078.002.155 0 .233 0h.04a18.035 18.035 0 0 0-.12-.742 21.043 21.043 0 0 0-1.302-4.373c-1.014-2.43-2.42-4.6-4.26-6.483-.777-.796-1.605-1.543-2.438-2.28-1.373-1.214-2.87-2.236-4.56-2.956a13.156 13.156 0 0 0-4.885-1.075c-1.503-.034-3 .076-4.489.271-.588.078-1.181.163-1.742.375-.088.033-.21.059-.191.176.015.1.133.095.22.104.716.08 1.439.076 2.155.173.805.108 1.592.278 2.337.616 1.323.6 2.316 1.577 3.135 2.751 1.045 1.498 1.711 3.173 2.263 4.9.012.04.03.08-.002.126-.08-.062-.112-.154-.158-.235a16.812 16.812 0 0 0-2.243-3.062 13.013 13.013 0 0 0-4.56-3.202c-1.876-.789-3.797-1.001-5.777-.432-.31.09-.626.16-.95.184-.637.048-1.216-.133-1.787-.401-.766-.358-1.566-.601-2.425-.579a.706.706 0 0 0-.704.612c-.043.278-.022.556.03.832.155.838.653 1.487 1.165 2.13.414.518.837 1.029 1.168 1.607.49.857.717 1.786.77 2.762.02.399-.02.796-.134 1.18-.027.09-.044.22-.177.224-.114.003-.152-.104-.197-.187a4.686 4.686 0 0 1-.283-.672c-.434-1.198-.769-2.431-1.286-3.599-.221-.499-.454-.996-.858-1.381-.329-.315-.63-.302-.93.036a2.129 2.129 0 0 0-.216.306c-.37.615-.639 1.28-.911 1.94-.172.414-.348.825-.523 1.237.245-.108.52-.17.818-.18l-.004-.003ZM72.138 31.005a1.193 1.193 0 0 1-.195-.121 3.628 3.628 0 0 1-.274-.23c-.043.114-.086.228-.127.342-.442 1.238-.678 2.276-.742 3.27a2 2 0 0 1-.02.179 17.562 17.562 0 0 0 1.538-3.363c-.06-.025-.121-.048-.18-.077ZM69.055 35.95c-.039-.006-.078-.006-.116-.008-.145-.007-.343-.015-.57-.07-.201-.049-.4-.106-.598-.163-.238-.069-.464-.135-.676-.174a2.039 2.039 0 0 0-1.298.153c-1.256.572-2.022-.046-2.487-.56a27.68 27.68 0 0 1-.513-.59c-.136-.159-.27-.318-.41-.473-.123-.136-.248-.27-.374-.402-.202-.214-.41-.434-.614-.676-.257-.305-.535-.599-.83-.908l-.243-.256c.002.465.002.93 0 1.394-.004.63-.21 1.11-.616 1.428-.405.316-.917.403-1.523.254a3.767 3.767 0 0 0-.874-.126c-.22-.005-.386.057-.574.204-.313.243-.744.539-1.321.66a4.946 4.946 0 0 1-2.496-.113c-.673-.207-1.202-.587-1.566-1.119-.169.21-.348.4-.54.58-.728.683-1.549 1.004-2.449.956-.948-.052-1.647-.498-2.15-.88l-.07-.05c-1.38.86-2.859 1.097-4.4.701a3.743 3.743 0 0 1-2.667-2.504c-.07.266-.126.527-.174.786-.064.35-.243 1.337-1.22 1.769a19.142 19.142 0 0 0 3.377 4.094 18.723 18.723 0 0 0 4.915 3.294c2.12.974 4.352 1.473 6.675 1.578a17.37 17.37 0 0 0 2.36-.07 17.53 17.53 0 0 0 3.771-.767c1.202-.387 2.366-.862 3.44-1.538.653-.412 1.284-.861 1.938-1.274 1.843-1.162 3.511-2.525 4.913-4.207.292-.349.562-.708.825-1.072-.26.134-.55.19-.847.155l.002-.007Z"/></svg>