<svg xmlns="http://www.w3.org/2000/svg" width="113" height="50" fill="none"><path fill="#1ED760" d="M22.305 10.526c-7.959 0-14.41 6.452-14.41 14.41s6.451 14.411 14.41 14.411c7.958 0 14.41-6.452 14.41-14.41 0-7.96-6.451-14.41-14.41-14.41Zm6.608 20.785a.897.897 0 0 1-1.234.299c-3.384-2.069-7.644-2.535-12.66-1.39a.897.897 0 1 1-.4-1.75c5.49-1.255 10.198-.714 13.996 1.606a.899.899 0 0 1 .298 1.236v-.001Zm1.764-3.925a1.124 1.124 0 0 1-1.546.37c-3.872-2.381-9.778-3.07-14.36-1.68a1.124 1.124 0 0 1-.653-2.15c5.234-1.588 11.74-.82 16.188 1.914.528.325.695 1.017.37 1.545v.001Zm.152-4.086c-4.646-2.758-12.307-3.013-16.742-1.667a1.347 1.347 0 1 1-.782-2.58c5.09-1.544 13.552-1.246 18.899 1.928a1.348 1.348 0 0 1-1.376 2.319ZM47.1 23.83c-2.488-.594-2.93-1.01-2.93-1.885 0-.827.777-1.383 1.935-1.383 1.157 0 2.234.423 3.4 1.292.036.027.08.037.123.03a.156.156 0 0 0 .108-.067l1.214-1.712a.164.164 0 0 0-.031-.222c-1.389-1.114-2.951-1.655-4.779-1.655-2.686 0-4.563 1.612-4.563 3.919 0 2.473 1.619 3.35 4.416 4.026 2.38.548 2.783 1.008 2.783 1.83 0 .909-.813 1.475-2.12 1.475-1.452 0-2.636-.49-3.962-1.637a.174.174 0 0 0-.12-.039.158.158 0 0 0-.111.058L41.1 29.481a.162.162 0 0 0 .015.226c1.542 1.376 3.438 2.104 5.485 2.104 2.896 0 4.766-1.582 4.766-4.03 0-2.07-1.236-3.214-4.267-3.951ZM57.917 21.375c-1.255 0-2.284.495-3.133 1.507v-1.14a.162.162 0 0 0-.163-.162h-2.228a.163.163 0 0 0-.163.163v12.665c0 .09.073.163.163.163h2.228c.09 0 .163-.074.163-.163V30.41c.85.953 1.878 1.417 3.133 1.417 2.332 0 4.691-1.795 4.691-5.226 0-3.43-2.36-5.227-4.691-5.227v.002Zm2.102 5.227c0 1.747-1.076 2.966-2.618 2.966-1.541 0-2.672-1.274-2.672-2.966 0-1.69 1.15-2.965 2.672-2.965 1.523 0 2.618 1.247 2.618 2.965ZM68.659 21.375c-3.003 0-5.355 2.312-5.355 5.264 0 2.953 2.336 5.208 5.318 5.208 2.983 0 5.373-2.303 5.373-5.245 0-2.94-2.342-5.227-5.336-5.227Zm0 8.212c-1.597 0-2.802-1.283-2.802-2.985 0-1.7 1.162-2.947 2.765-2.947 1.603 0 2.82 1.283 2.82 2.985 0 1.703-1.17 2.947-2.783 2.947ZM80.407 21.58h-2.451v-2.507a.162.162 0 0 0-.163-.163h-2.228a.163.163 0 0 0-.163.163v2.507H74.33a.163.163 0 0 0-.162.163v1.914c0 .09.073.163.162.163h1.072v4.955c0 2.002.997 3.017 2.962 3.017.8 0 1.462-.166 2.087-.52a.163.163 0 0 0 .083-.141v-1.823a.163.163 0 0 0-.236-.146c-.43.215-.843.316-1.308.316-.714 0-1.033-.325-1.033-1.052v-4.605h2.45c.091 0 .164-.074.164-.163v-1.914a.163.163 0 0 0-.163-.163l-.001-.001ZM88.948 21.589v-.308c0-.905.347-1.31 1.126-1.31.464 0 .837.093 1.256.233a.168.168 0 0 0 .147-.023.165.165 0 0 0 .067-.133v-1.877a.163.163 0 0 0-.115-.156 6.099 6.099 0 0 0-1.852-.266c-2.058 0-3.145 1.159-3.145 3.35v.47h-1.07a.165.165 0 0 0-.165.164v1.924c0 .09.074.163.164.163h1.07v7.641c0 .09.073.163.163.163h2.228c.09 0 .162-.073.162-.163V23.82h2.081l3.187 7.64c-.362.803-.718.962-1.203.962-.393 0-.806-.117-1.23-.348a.164.164 0 0 0-.129-.012.163.163 0 0 0-.096.088l-.756 1.656a.162.162 0 0 0 .07.211c.789.428 1.5.61 2.38.61 1.646 0 2.554-.767 3.357-2.828l3.865-9.987a.167.167 0 0 0-.017-.152.16.16 0 0 0-.134-.07H98.04a.164.164 0 0 0-.154.11l-2.376 6.786-2.602-6.791a.162.162 0 0 0-.152-.105H88.95l-.002-.001ZM83.996 21.58h-2.228a.163.163 0 0 0-.162.163v9.72c0 .09.072.163.162.163h2.228c.09 0 .163-.073.163-.163v-9.72a.163.163 0 0 0-.163-.163ZM82.894 17.154a1.597 1.597 0 1 0-.003 3.194 1.597 1.597 0 0 0 .002-3.194ZM102.411 24.704a1.561 1.561 0 0 1-1.568-1.568c0-.86.695-1.576 1.576-1.576.88 0 1.568.707 1.568 1.567s-.694 1.577-1.576 1.577Zm.008-2.988c-.803 0-1.411.638-1.411 1.42 0 .781.604 1.41 1.403 1.41s1.411-.638 1.411-1.42a1.39 1.39 0 0 0-1.403-1.41Zm.347 1.573.443.62h-.374l-.4-.569h-.342v.57h-.313v-1.646h.734c.382 0 .634.195.634.525 0 .27-.157.434-.382.5Zm-.265-.743h-.408v.52h.408c.205 0 .325-.099.325-.26 0-.17-.122-.26-.325-.26Z"/></svg>