<svg xmlns="http://www.w3.org/2000/svg" width="113" height="50" fill="none"><g clip-path="url(#a)"><path fill="#FF6900" d="M73.484 7.65c-4.137-4.12-10.083-4.58-17.352-4.58-7.27 0-13.234.464-17.368 4.598-4.133 4.13-4.553 10.076-4.553 17.345 0 7.27.42 13.22 4.553 17.35 4.134 4.133 10.091 4.55 17.368 4.55 7.276 0 13.23-.417 17.367-4.55 4.133-4.134 4.554-10.08 4.554-17.35 0-7.27-.424-13.23-4.569-17.36V7.65Z"/><path fill="#fff" d="M54.52 33.116c0 .146-.124.27-.274.27h-3.739a.274.274 0 0 1-.278-.27v-9.777c0-.15.124-.27.278-.27h3.739c.15 0 .274.12.274.27v9.777Z"/><path fill="#fff" d="M61.837 33.116c0 .146-.125.27-.275.27h-3.56a.274.274 0 0 1-.277-.27V24.68c-.004-1.473-.088-2.986-.848-3.746-.654-.655-1.871-.808-3.14-.837h-6.45a.273.273 0 0 0-.274.27V33.12c0 .146-.124.27-.278.27h-3.56a.27.27 0 0 1-.273-.27V16.874c0-.15.124-.27.274-.27h10.273c2.686 0 5.493.124 6.878 1.51 1.389 1.392 1.513 4.195 1.513 6.881v8.125l-.003-.004ZM69.172 33.116c0 .146-.125.27-.278.27h-3.56a.27.27 0 0 1-.274-.27V16.87c0-.15.124-.27.274-.27h3.56c.15 0 .278.12.278.27v16.246Z"/></g><defs><clipPath id="a"><path fill="#fff" d="M34.21 3.07h43.843v43.842H34.21z"/></clipPath></defs></svg>